%TF.GenerationSoftware,KiCad,Pcbnew,9.0.0*%
%TF.CreationDate,2025-03-26T16:15:19-03:00*%
%TF.ProjectId,IOExtender,494f4578-7465-46e6-9465-722e6b696361,1.1*%
%TF.SameCoordinates,Original*%
%TF.FileFunction,Legend,Top*%
%TF.FilePolarity,Positive*%
%FSLAX46Y46*%
G04 Gerber Fmt 4.6, Leading zero omitted, Abs format (unit mm)*
G04 Created by KiCad (PCBNEW 9.0.0) date 2025-03-26 16:15:19*
%MOMM*%
%LPD*%
G01*
G04 APERTURE LIST*
G04 Aperture macros list*
%AMRoundRect*
0 Rectangle with rounded corners*
0 $1 Rounding radius*
0 $2 $3 $4 $5 $6 $7 $8 $9 X,Y pos of 4 corners*
0 Add a 4 corners polygon primitive as box body*
4,1,4,$2,$3,$4,$5,$6,$7,$8,$9,$2,$3,0*
0 Add four circle primitives for the rounded corners*
1,1,$1+$1,$2,$3*
1,1,$1+$1,$4,$5*
1,1,$1+$1,$6,$7*
1,1,$1+$1,$8,$9*
0 Add four rect primitives between the rounded corners*
20,1,$1+$1,$2,$3,$4,$5,0*
20,1,$1+$1,$4,$5,$6,$7,0*
20,1,$1+$1,$6,$7,$8,$9,0*
20,1,$1+$1,$8,$9,$2,$3,0*%
G04 Aperture macros list end*
%ADD10C,0.150000*%
%ADD11C,0.200000*%
%ADD12C,0.120000*%
%ADD13C,2.100000*%
%ADD14RoundRect,0.050000X0.875000X0.225000X-0.875000X0.225000X-0.875000X-0.225000X0.875000X-0.225000X0*%
%ADD15C,1.500000*%
%ADD16RoundRect,0.262500X-0.262500X0.275000X-0.262500X-0.275000X0.262500X-0.275000X0.262500X0.275000X0*%
%ADD17RoundRect,0.262500X0.262500X-0.275000X0.262500X0.275000X-0.262500X0.275000X-0.262500X-0.275000X0*%
%ADD18RoundRect,0.262500X0.325000X0.262500X-0.325000X0.262500X-0.325000X-0.262500X0.325000X-0.262500X0*%
%ADD19RoundRect,0.270833X0.479167X-0.379167X0.479167X0.379167X-0.479167X0.379167X-0.479167X-0.379167X0*%
%ADD20RoundRect,0.243750X-0.281250X0.243750X-0.281250X-0.243750X0.281250X-0.243750X0.281250X0.243750X0*%
%ADD21C,0.750000*%
%ADD22RoundRect,0.175000X0.175000X0.450000X-0.175000X0.450000X-0.175000X-0.450000X0.175000X-0.450000X0*%
%ADD23RoundRect,0.100000X0.100000X0.525000X-0.100000X0.525000X-0.100000X-0.525000X0.100000X-0.525000X0*%
%ADD24O,1.100000X2.200000*%
%ADD25O,1.100000X1.900000*%
%ADD26RoundRect,0.050000X-0.850000X0.850000X-0.850000X-0.850000X0.850000X-0.850000X0.850000X0.850000X0*%
%ADD27O,1.800000X1.800000*%
%ADD28RoundRect,0.050000X-0.850000X-0.850000X0.850000X-0.850000X0.850000X0.850000X-0.850000X0.850000X0*%
%ADD29RoundRect,0.400000X-0.400000X0.650000X-0.400000X-0.650000X0.400000X-0.650000X0.400000X0.650000X0*%
%ADD30RoundRect,0.525000X-1.425000X0.525000X-1.425000X-0.525000X1.425000X-0.525000X1.425000X0.525000X0*%
%ADD31RoundRect,0.175000X-0.850000X-0.175000X0.850000X-0.175000X0.850000X0.175000X-0.850000X0.175000X0*%
%ADD32RoundRect,0.262500X-0.325000X-0.262500X0.325000X-0.262500X0.325000X0.262500X-0.325000X0.262500X0*%
%ADD33RoundRect,0.262500X0.275000X0.262500X-0.275000X0.262500X-0.275000X-0.262500X0.275000X-0.262500X0*%
%ADD34RoundRect,0.270833X-0.479167X0.379167X-0.479167X-0.379167X0.479167X-0.379167X0.479167X0.379167X0*%
%ADD35RoundRect,0.271277X0.366223X0.503723X-0.366223X0.503723X-0.366223X-0.503723X0.366223X-0.503723X0*%
%ADD36RoundRect,0.175000X-0.175000X0.537500X-0.175000X-0.537500X0.175000X-0.537500X0.175000X0.537500X0*%
%ADD37RoundRect,0.262500X-0.262500X0.325000X-0.262500X-0.325000X0.262500X-0.325000X0.262500X0.325000X0*%
G04 APERTURE END LIST*
D10*
X131380000Y-115954000D02*
X133666000Y-115954000D01*
X116597200Y-102263400D02*
X116140000Y-102873000D01*
D11*
X136079000Y-88395000D02*
X134834400Y-90477800D01*
D10*
X116241600Y-99799600D02*
X115911400Y-100104400D01*
X116648000Y-120576800D02*
X116063800Y-121059400D01*
X130872000Y-121034000D02*
X130237000Y-121923000D01*
X136104400Y-103838200D02*
X136485400Y-103558800D01*
X136180600Y-120068800D02*
X136536200Y-120449800D01*
D11*
X135698000Y-85982000D02*
X135063000Y-86744000D01*
D10*
X117778419Y-90725220D02*
X118587942Y-90725220D01*
X118587942Y-90725220D02*
X118683180Y-90677601D01*
X118683180Y-90677601D02*
X118730800Y-90629982D01*
X118730800Y-90629982D02*
X118778419Y-90534744D01*
X118778419Y-90534744D02*
X118778419Y-90344268D01*
X118778419Y-90344268D02*
X118730800Y-90249030D01*
X118730800Y-90249030D02*
X118683180Y-90201411D01*
X118683180Y-90201411D02*
X118587942Y-90153792D01*
X118587942Y-90153792D02*
X117778419Y-90153792D01*
X118730800Y-89725220D02*
X118778419Y-89582363D01*
X118778419Y-89582363D02*
X118778419Y-89344268D01*
X118778419Y-89344268D02*
X118730800Y-89249030D01*
X118730800Y-89249030D02*
X118683180Y-89201411D01*
X118683180Y-89201411D02*
X118587942Y-89153792D01*
X118587942Y-89153792D02*
X118492704Y-89153792D01*
X118492704Y-89153792D02*
X118397466Y-89201411D01*
X118397466Y-89201411D02*
X118349847Y-89249030D01*
X118349847Y-89249030D02*
X118302228Y-89344268D01*
X118302228Y-89344268D02*
X118254609Y-89534744D01*
X118254609Y-89534744D02*
X118206990Y-89629982D01*
X118206990Y-89629982D02*
X118159371Y-89677601D01*
X118159371Y-89677601D02*
X118064133Y-89725220D01*
X118064133Y-89725220D02*
X117968895Y-89725220D01*
X117968895Y-89725220D02*
X117873657Y-89677601D01*
X117873657Y-89677601D02*
X117826038Y-89629982D01*
X117826038Y-89629982D02*
X117778419Y-89534744D01*
X117778419Y-89534744D02*
X117778419Y-89296649D01*
X117778419Y-89296649D02*
X117826038Y-89153792D01*
X118254609Y-88391887D02*
X118302228Y-88249030D01*
X118302228Y-88249030D02*
X118349847Y-88201411D01*
X118349847Y-88201411D02*
X118445085Y-88153792D01*
X118445085Y-88153792D02*
X118587942Y-88153792D01*
X118587942Y-88153792D02*
X118683180Y-88201411D01*
X118683180Y-88201411D02*
X118730800Y-88249030D01*
X118730800Y-88249030D02*
X118778419Y-88344268D01*
X118778419Y-88344268D02*
X118778419Y-88725220D01*
X118778419Y-88725220D02*
X117778419Y-88725220D01*
X117778419Y-88725220D02*
X117778419Y-88391887D01*
X117778419Y-88391887D02*
X117826038Y-88296649D01*
X117826038Y-88296649D02*
X117873657Y-88249030D01*
X117873657Y-88249030D02*
X117968895Y-88201411D01*
X117968895Y-88201411D02*
X118064133Y-88201411D01*
X118064133Y-88201411D02*
X118159371Y-88249030D01*
X118159371Y-88249030D02*
X118206990Y-88296649D01*
X118206990Y-88296649D02*
X118254609Y-88391887D01*
X118254609Y-88391887D02*
X118254609Y-88725220D01*
X136202988Y-95211838D02*
X136107750Y-95164219D01*
X136107750Y-95164219D02*
X135964893Y-95164219D01*
X135964893Y-95164219D02*
X135822036Y-95211838D01*
X135822036Y-95211838D02*
X135726798Y-95307076D01*
X135726798Y-95307076D02*
X135679179Y-95402314D01*
X135679179Y-95402314D02*
X135631560Y-95592790D01*
X135631560Y-95592790D02*
X135631560Y-95735647D01*
X135631560Y-95735647D02*
X135679179Y-95926123D01*
X135679179Y-95926123D02*
X135726798Y-96021361D01*
X135726798Y-96021361D02*
X135822036Y-96116600D01*
X135822036Y-96116600D02*
X135964893Y-96164219D01*
X135964893Y-96164219D02*
X136060131Y-96164219D01*
X136060131Y-96164219D02*
X136202988Y-96116600D01*
X136202988Y-96116600D02*
X136250607Y-96068980D01*
X136250607Y-96068980D02*
X136250607Y-95735647D01*
X136250607Y-95735647D02*
X136060131Y-95735647D01*
X120327819Y-121522792D02*
X119851628Y-121856125D01*
X120327819Y-122094220D02*
X119327819Y-122094220D01*
X119327819Y-122094220D02*
X119327819Y-121713268D01*
X119327819Y-121713268D02*
X119375438Y-121618030D01*
X119375438Y-121618030D02*
X119423057Y-121570411D01*
X119423057Y-121570411D02*
X119518295Y-121522792D01*
X119518295Y-121522792D02*
X119661152Y-121522792D01*
X119661152Y-121522792D02*
X119756390Y-121570411D01*
X119756390Y-121570411D02*
X119804009Y-121618030D01*
X119804009Y-121618030D02*
X119851628Y-121713268D01*
X119851628Y-121713268D02*
X119851628Y-122094220D01*
X119327819Y-121189458D02*
X120327819Y-120522792D01*
X119327819Y-120522792D02*
X120327819Y-121189458D01*
X116429160Y-111016904D02*
X116905350Y-111016904D01*
X116333922Y-111302619D02*
X116667255Y-110302619D01*
X116667255Y-110302619D02*
X117000588Y-111302619D01*
X117238684Y-110302619D02*
X117857731Y-110302619D01*
X117857731Y-110302619D02*
X117524398Y-110683571D01*
X117524398Y-110683571D02*
X117667255Y-110683571D01*
X117667255Y-110683571D02*
X117762493Y-110731190D01*
X117762493Y-110731190D02*
X117810112Y-110778809D01*
X117810112Y-110778809D02*
X117857731Y-110874047D01*
X117857731Y-110874047D02*
X117857731Y-111112142D01*
X117857731Y-111112142D02*
X117810112Y-111207380D01*
X117810112Y-111207380D02*
X117762493Y-111255000D01*
X117762493Y-111255000D02*
X117667255Y-111302619D01*
X117667255Y-111302619D02*
X117381541Y-111302619D01*
X117381541Y-111302619D02*
X117286303Y-111255000D01*
X117286303Y-111255000D02*
X117238684Y-111207380D01*
X115851322Y-88153819D02*
X116422750Y-88153819D01*
X116137036Y-89153819D02*
X116137036Y-88153819D01*
X116660846Y-88153819D02*
X117327512Y-89153819D01*
X117327512Y-88153819D02*
X116660846Y-89153819D01*
X134971112Y-108569009D02*
X135113969Y-108616628D01*
X135113969Y-108616628D02*
X135161588Y-108664247D01*
X135161588Y-108664247D02*
X135209207Y-108759485D01*
X135209207Y-108759485D02*
X135209207Y-108902342D01*
X135209207Y-108902342D02*
X135161588Y-108997580D01*
X135161588Y-108997580D02*
X135113969Y-109045200D01*
X135113969Y-109045200D02*
X135018731Y-109092819D01*
X135018731Y-109092819D02*
X134637779Y-109092819D01*
X134637779Y-109092819D02*
X134637779Y-108092819D01*
X134637779Y-108092819D02*
X134971112Y-108092819D01*
X134971112Y-108092819D02*
X135066350Y-108140438D01*
X135066350Y-108140438D02*
X135113969Y-108188057D01*
X135113969Y-108188057D02*
X135161588Y-108283295D01*
X135161588Y-108283295D02*
X135161588Y-108378533D01*
X135161588Y-108378533D02*
X135113969Y-108473771D01*
X135113969Y-108473771D02*
X135066350Y-108521390D01*
X135066350Y-108521390D02*
X134971112Y-108569009D01*
X134971112Y-108569009D02*
X134637779Y-108569009D01*
X135590160Y-108188057D02*
X135637779Y-108140438D01*
X135637779Y-108140438D02*
X135733017Y-108092819D01*
X135733017Y-108092819D02*
X135971112Y-108092819D01*
X135971112Y-108092819D02*
X136066350Y-108140438D01*
X136066350Y-108140438D02*
X136113969Y-108188057D01*
X136113969Y-108188057D02*
X136161588Y-108283295D01*
X136161588Y-108283295D02*
X136161588Y-108378533D01*
X136161588Y-108378533D02*
X136113969Y-108521390D01*
X136113969Y-108521390D02*
X135542541Y-109092819D01*
X135542541Y-109092819D02*
X136161588Y-109092819D01*
X116454560Y-108476904D02*
X116930750Y-108476904D01*
X116359322Y-108762619D02*
X116692655Y-107762619D01*
X116692655Y-107762619D02*
X117025988Y-108762619D01*
X117311703Y-107857857D02*
X117359322Y-107810238D01*
X117359322Y-107810238D02*
X117454560Y-107762619D01*
X117454560Y-107762619D02*
X117692655Y-107762619D01*
X117692655Y-107762619D02*
X117787893Y-107810238D01*
X117787893Y-107810238D02*
X117835512Y-107857857D01*
X117835512Y-107857857D02*
X117883131Y-107953095D01*
X117883131Y-107953095D02*
X117883131Y-108048333D01*
X117883131Y-108048333D02*
X117835512Y-108191190D01*
X117835512Y-108191190D02*
X117264084Y-108762619D01*
X117264084Y-108762619D02*
X117883131Y-108762619D01*
X117152819Y-91207820D02*
X116152819Y-91207820D01*
X116152819Y-91207820D02*
X116152819Y-90826868D01*
X116152819Y-90826868D02*
X116200438Y-90731630D01*
X116200438Y-90731630D02*
X116248057Y-90684011D01*
X116248057Y-90684011D02*
X116343295Y-90636392D01*
X116343295Y-90636392D02*
X116486152Y-90636392D01*
X116486152Y-90636392D02*
X116581390Y-90684011D01*
X116581390Y-90684011D02*
X116629009Y-90731630D01*
X116629009Y-90731630D02*
X116676628Y-90826868D01*
X116676628Y-90826868D02*
X116676628Y-91207820D01*
X116152819Y-90017344D02*
X116152819Y-89922106D01*
X116152819Y-89922106D02*
X116200438Y-89826868D01*
X116200438Y-89826868D02*
X116248057Y-89779249D01*
X116248057Y-89779249D02*
X116343295Y-89731630D01*
X116343295Y-89731630D02*
X116533771Y-89684011D01*
X116533771Y-89684011D02*
X116771866Y-89684011D01*
X116771866Y-89684011D02*
X116962342Y-89731630D01*
X116962342Y-89731630D02*
X117057580Y-89779249D01*
X117057580Y-89779249D02*
X117105200Y-89826868D01*
X117105200Y-89826868D02*
X117152819Y-89922106D01*
X117152819Y-89922106D02*
X117152819Y-90017344D01*
X117152819Y-90017344D02*
X117105200Y-90112582D01*
X117105200Y-90112582D02*
X117057580Y-90160201D01*
X117057580Y-90160201D02*
X116962342Y-90207820D01*
X116962342Y-90207820D02*
X116771866Y-90255439D01*
X116771866Y-90255439D02*
X116533771Y-90255439D01*
X116533771Y-90255439D02*
X116343295Y-90207820D01*
X116343295Y-90207820D02*
X116248057Y-90160201D01*
X116248057Y-90160201D02*
X116200438Y-90112582D01*
X116200438Y-90112582D02*
X116152819Y-90017344D01*
X136637969Y-87010819D02*
X136161779Y-87010819D01*
X136161779Y-87010819D02*
X136114160Y-87487009D01*
X136114160Y-87487009D02*
X136161779Y-87439390D01*
X136161779Y-87439390D02*
X136257017Y-87391771D01*
X136257017Y-87391771D02*
X136495112Y-87391771D01*
X136495112Y-87391771D02*
X136590350Y-87439390D01*
X136590350Y-87439390D02*
X136637969Y-87487009D01*
X136637969Y-87487009D02*
X136685588Y-87582247D01*
X136685588Y-87582247D02*
X136685588Y-87820342D01*
X136685588Y-87820342D02*
X136637969Y-87915580D01*
X136637969Y-87915580D02*
X136590350Y-87963200D01*
X136590350Y-87963200D02*
X136495112Y-88010819D01*
X136495112Y-88010819D02*
X136257017Y-88010819D01*
X136257017Y-88010819D02*
X136161779Y-87963200D01*
X136161779Y-87963200D02*
X136114160Y-87915580D01*
X136971303Y-87010819D02*
X137304636Y-88010819D01*
X137304636Y-88010819D02*
X137637969Y-87010819D01*
X138161779Y-87010819D02*
X138257017Y-87010819D01*
X138257017Y-87010819D02*
X138352255Y-87058438D01*
X138352255Y-87058438D02*
X138399874Y-87106057D01*
X138399874Y-87106057D02*
X138447493Y-87201295D01*
X138447493Y-87201295D02*
X138495112Y-87391771D01*
X138495112Y-87391771D02*
X138495112Y-87629866D01*
X138495112Y-87629866D02*
X138447493Y-87820342D01*
X138447493Y-87820342D02*
X138399874Y-87915580D01*
X138399874Y-87915580D02*
X138352255Y-87963200D01*
X138352255Y-87963200D02*
X138257017Y-88010819D01*
X138257017Y-88010819D02*
X138161779Y-88010819D01*
X138161779Y-88010819D02*
X138066541Y-87963200D01*
X138066541Y-87963200D02*
X138018922Y-87915580D01*
X138018922Y-87915580D02*
X137971303Y-87820342D01*
X137971303Y-87820342D02*
X137923684Y-87629866D01*
X137923684Y-87629866D02*
X137923684Y-87391771D01*
X137923684Y-87391771D02*
X137971303Y-87201295D01*
X137971303Y-87201295D02*
X138018922Y-87106057D01*
X138018922Y-87106057D02*
X138066541Y-87058438D01*
X138066541Y-87058438D02*
X138161779Y-87010819D01*
X117025988Y-95084838D02*
X116930750Y-95037219D01*
X116930750Y-95037219D02*
X116787893Y-95037219D01*
X116787893Y-95037219D02*
X116645036Y-95084838D01*
X116645036Y-95084838D02*
X116549798Y-95180076D01*
X116549798Y-95180076D02*
X116502179Y-95275314D01*
X116502179Y-95275314D02*
X116454560Y-95465790D01*
X116454560Y-95465790D02*
X116454560Y-95608647D01*
X116454560Y-95608647D02*
X116502179Y-95799123D01*
X116502179Y-95799123D02*
X116549798Y-95894361D01*
X116549798Y-95894361D02*
X116645036Y-95989600D01*
X116645036Y-95989600D02*
X116787893Y-96037219D01*
X116787893Y-96037219D02*
X116883131Y-96037219D01*
X116883131Y-96037219D02*
X117025988Y-95989600D01*
X117025988Y-95989600D02*
X117073607Y-95941980D01*
X117073607Y-95941980D02*
X117073607Y-95608647D01*
X117073607Y-95608647D02*
X116883131Y-95608647D01*
X136279019Y-91817420D02*
X135279019Y-91817420D01*
X135279019Y-91817420D02*
X135279019Y-91436468D01*
X135279019Y-91436468D02*
X135326638Y-91341230D01*
X135326638Y-91341230D02*
X135374257Y-91293611D01*
X135374257Y-91293611D02*
X135469495Y-91245992D01*
X135469495Y-91245992D02*
X135612352Y-91245992D01*
X135612352Y-91245992D02*
X135707590Y-91293611D01*
X135707590Y-91293611D02*
X135755209Y-91341230D01*
X135755209Y-91341230D02*
X135802828Y-91436468D01*
X135802828Y-91436468D02*
X135802828Y-91817420D01*
X135279019Y-90912658D02*
X135279019Y-90293611D01*
X135279019Y-90293611D02*
X135659971Y-90626944D01*
X135659971Y-90626944D02*
X135659971Y-90484087D01*
X135659971Y-90484087D02*
X135707590Y-90388849D01*
X135707590Y-90388849D02*
X135755209Y-90341230D01*
X135755209Y-90341230D02*
X135850447Y-90293611D01*
X135850447Y-90293611D02*
X136088542Y-90293611D01*
X136088542Y-90293611D02*
X136183780Y-90341230D01*
X136183780Y-90341230D02*
X136231400Y-90388849D01*
X136231400Y-90388849D02*
X136279019Y-90484087D01*
X136279019Y-90484087D02*
X136279019Y-90769801D01*
X136279019Y-90769801D02*
X136231400Y-90865039D01*
X136231400Y-90865039D02*
X136183780Y-90912658D01*
X116429160Y-115969904D02*
X116905350Y-115969904D01*
X116333922Y-116255619D02*
X116667255Y-115255619D01*
X116667255Y-115255619D02*
X117000588Y-116255619D01*
X117810112Y-115255619D02*
X117333922Y-115255619D01*
X117333922Y-115255619D02*
X117286303Y-115731809D01*
X117286303Y-115731809D02*
X117333922Y-115684190D01*
X117333922Y-115684190D02*
X117429160Y-115636571D01*
X117429160Y-115636571D02*
X117667255Y-115636571D01*
X117667255Y-115636571D02*
X117762493Y-115684190D01*
X117762493Y-115684190D02*
X117810112Y-115731809D01*
X117810112Y-115731809D02*
X117857731Y-115827047D01*
X117857731Y-115827047D02*
X117857731Y-116065142D01*
X117857731Y-116065142D02*
X117810112Y-116160380D01*
X117810112Y-116160380D02*
X117762493Y-116208000D01*
X117762493Y-116208000D02*
X117667255Y-116255619D01*
X117667255Y-116255619D02*
X117429160Y-116255619D01*
X117429160Y-116255619D02*
X117333922Y-116208000D01*
X117333922Y-116208000D02*
X117286303Y-116160380D01*
X126995438Y-121443411D02*
X126947819Y-121538649D01*
X126947819Y-121538649D02*
X126947819Y-121681506D01*
X126947819Y-121681506D02*
X126995438Y-121824363D01*
X126995438Y-121824363D02*
X127090676Y-121919601D01*
X127090676Y-121919601D02*
X127185914Y-121967220D01*
X127185914Y-121967220D02*
X127376390Y-122014839D01*
X127376390Y-122014839D02*
X127519247Y-122014839D01*
X127519247Y-122014839D02*
X127709723Y-121967220D01*
X127709723Y-121967220D02*
X127804961Y-121919601D01*
X127804961Y-121919601D02*
X127900200Y-121824363D01*
X127900200Y-121824363D02*
X127947819Y-121681506D01*
X127947819Y-121681506D02*
X127947819Y-121586268D01*
X127947819Y-121586268D02*
X127900200Y-121443411D01*
X127900200Y-121443411D02*
X127852580Y-121395792D01*
X127852580Y-121395792D02*
X127519247Y-121395792D01*
X127519247Y-121395792D02*
X127519247Y-121586268D01*
X133996200Y-122014839D02*
X134043819Y-121871982D01*
X134043819Y-121871982D02*
X134043819Y-121633887D01*
X134043819Y-121633887D02*
X133996200Y-121538649D01*
X133996200Y-121538649D02*
X133948580Y-121491030D01*
X133948580Y-121491030D02*
X133853342Y-121443411D01*
X133853342Y-121443411D02*
X133758104Y-121443411D01*
X133758104Y-121443411D02*
X133662866Y-121491030D01*
X133662866Y-121491030D02*
X133615247Y-121538649D01*
X133615247Y-121538649D02*
X133567628Y-121633887D01*
X133567628Y-121633887D02*
X133520009Y-121824363D01*
X133520009Y-121824363D02*
X133472390Y-121919601D01*
X133472390Y-121919601D02*
X133424771Y-121967220D01*
X133424771Y-121967220D02*
X133329533Y-122014839D01*
X133329533Y-122014839D02*
X133234295Y-122014839D01*
X133234295Y-122014839D02*
X133139057Y-121967220D01*
X133139057Y-121967220D02*
X133091438Y-121919601D01*
X133091438Y-121919601D02*
X133043819Y-121824363D01*
X133043819Y-121824363D02*
X133043819Y-121586268D01*
X133043819Y-121586268D02*
X133091438Y-121443411D01*
X133948580Y-120443411D02*
X133996200Y-120491030D01*
X133996200Y-120491030D02*
X134043819Y-120633887D01*
X134043819Y-120633887D02*
X134043819Y-120729125D01*
X134043819Y-120729125D02*
X133996200Y-120871982D01*
X133996200Y-120871982D02*
X133900961Y-120967220D01*
X133900961Y-120967220D02*
X133805723Y-121014839D01*
X133805723Y-121014839D02*
X133615247Y-121062458D01*
X133615247Y-121062458D02*
X133472390Y-121062458D01*
X133472390Y-121062458D02*
X133281914Y-121014839D01*
X133281914Y-121014839D02*
X133186676Y-120967220D01*
X133186676Y-120967220D02*
X133091438Y-120871982D01*
X133091438Y-120871982D02*
X133043819Y-120729125D01*
X133043819Y-120729125D02*
X133043819Y-120633887D01*
X133043819Y-120633887D02*
X133091438Y-120491030D01*
X133091438Y-120491030D02*
X133139057Y-120443411D01*
X134043819Y-119538649D02*
X134043819Y-120014839D01*
X134043819Y-120014839D02*
X133043819Y-120014839D01*
X116429160Y-118103504D02*
X116905350Y-118103504D01*
X116333922Y-118389219D02*
X116667255Y-117389219D01*
X116667255Y-117389219D02*
X117000588Y-118389219D01*
X117762493Y-117389219D02*
X117572017Y-117389219D01*
X117572017Y-117389219D02*
X117476779Y-117436838D01*
X117476779Y-117436838D02*
X117429160Y-117484457D01*
X117429160Y-117484457D02*
X117333922Y-117627314D01*
X117333922Y-117627314D02*
X117286303Y-117817790D01*
X117286303Y-117817790D02*
X117286303Y-118198742D01*
X117286303Y-118198742D02*
X117333922Y-118293980D01*
X117333922Y-118293980D02*
X117381541Y-118341600D01*
X117381541Y-118341600D02*
X117476779Y-118389219D01*
X117476779Y-118389219D02*
X117667255Y-118389219D01*
X117667255Y-118389219D02*
X117762493Y-118341600D01*
X117762493Y-118341600D02*
X117810112Y-118293980D01*
X117810112Y-118293980D02*
X117857731Y-118198742D01*
X117857731Y-118198742D02*
X117857731Y-117960647D01*
X117857731Y-117960647D02*
X117810112Y-117865409D01*
X117810112Y-117865409D02*
X117762493Y-117817790D01*
X117762493Y-117817790D02*
X117667255Y-117770171D01*
X117667255Y-117770171D02*
X117476779Y-117770171D01*
X117476779Y-117770171D02*
X117381541Y-117817790D01*
X117381541Y-117817790D02*
X117333922Y-117865409D01*
X117333922Y-117865409D02*
X117286303Y-117960647D01*
X136329819Y-94281220D02*
X135329819Y-94281220D01*
X135329819Y-94281220D02*
X135329819Y-93900268D01*
X135329819Y-93900268D02*
X135377438Y-93805030D01*
X135377438Y-93805030D02*
X135425057Y-93757411D01*
X135425057Y-93757411D02*
X135520295Y-93709792D01*
X135520295Y-93709792D02*
X135663152Y-93709792D01*
X135663152Y-93709792D02*
X135758390Y-93757411D01*
X135758390Y-93757411D02*
X135806009Y-93805030D01*
X135806009Y-93805030D02*
X135853628Y-93900268D01*
X135853628Y-93900268D02*
X135853628Y-94281220D01*
X135425057Y-93328839D02*
X135377438Y-93281220D01*
X135377438Y-93281220D02*
X135329819Y-93185982D01*
X135329819Y-93185982D02*
X135329819Y-92947887D01*
X135329819Y-92947887D02*
X135377438Y-92852649D01*
X135377438Y-92852649D02*
X135425057Y-92805030D01*
X135425057Y-92805030D02*
X135520295Y-92757411D01*
X135520295Y-92757411D02*
X135615533Y-92757411D01*
X135615533Y-92757411D02*
X135758390Y-92805030D01*
X135758390Y-92805030D02*
X136329819Y-93376458D01*
X136329819Y-93376458D02*
X136329819Y-92757411D01*
X116378360Y-101669704D02*
X116854550Y-101669704D01*
X116283122Y-101955419D02*
X116616455Y-100955419D01*
X116616455Y-100955419D02*
X116949788Y-101955419D01*
X117473598Y-100955419D02*
X117568836Y-100955419D01*
X117568836Y-100955419D02*
X117664074Y-101003038D01*
X117664074Y-101003038D02*
X117711693Y-101050657D01*
X117711693Y-101050657D02*
X117759312Y-101145895D01*
X117759312Y-101145895D02*
X117806931Y-101336371D01*
X117806931Y-101336371D02*
X117806931Y-101574466D01*
X117806931Y-101574466D02*
X117759312Y-101764942D01*
X117759312Y-101764942D02*
X117711693Y-101860180D01*
X117711693Y-101860180D02*
X117664074Y-101907800D01*
X117664074Y-101907800D02*
X117568836Y-101955419D01*
X117568836Y-101955419D02*
X117473598Y-101955419D01*
X117473598Y-101955419D02*
X117378360Y-101907800D01*
X117378360Y-101907800D02*
X117330741Y-101860180D01*
X117330741Y-101860180D02*
X117283122Y-101764942D01*
X117283122Y-101764942D02*
X117235503Y-101574466D01*
X117235503Y-101574466D02*
X117235503Y-101336371D01*
X117235503Y-101336371D02*
X117283122Y-101145895D01*
X117283122Y-101145895D02*
X117330741Y-101050657D01*
X117330741Y-101050657D02*
X117378360Y-101003038D01*
X117378360Y-101003038D02*
X117473598Y-100955419D01*
X116460922Y-97551819D02*
X116794255Y-98551819D01*
X116794255Y-98551819D02*
X117127588Y-97551819D01*
X116454560Y-106165504D02*
X116930750Y-106165504D01*
X116359322Y-106451219D02*
X116692655Y-105451219D01*
X116692655Y-105451219D02*
X117025988Y-106451219D01*
X117883131Y-106451219D02*
X117311703Y-106451219D01*
X117597417Y-106451219D02*
X117597417Y-105451219D01*
X117597417Y-105451219D02*
X117502179Y-105594076D01*
X117502179Y-105594076D02*
X117406941Y-105689314D01*
X117406941Y-105689314D02*
X117311703Y-105736933D01*
X116603779Y-100202819D02*
X116603779Y-99202819D01*
X117032350Y-99917104D02*
X117508540Y-99917104D01*
X116937112Y-100202819D02*
X117270445Y-99202819D01*
X117270445Y-99202819D02*
X117603778Y-100202819D01*
X136066541Y-85359819D02*
X136685588Y-85359819D01*
X136685588Y-85359819D02*
X136352255Y-85740771D01*
X136352255Y-85740771D02*
X136495112Y-85740771D01*
X136495112Y-85740771D02*
X136590350Y-85788390D01*
X136590350Y-85788390D02*
X136637969Y-85836009D01*
X136637969Y-85836009D02*
X136685588Y-85931247D01*
X136685588Y-85931247D02*
X136685588Y-86169342D01*
X136685588Y-86169342D02*
X136637969Y-86264580D01*
X136637969Y-86264580D02*
X136590350Y-86312200D01*
X136590350Y-86312200D02*
X136495112Y-86359819D01*
X136495112Y-86359819D02*
X136209398Y-86359819D01*
X136209398Y-86359819D02*
X136114160Y-86312200D01*
X136114160Y-86312200D02*
X136066541Y-86264580D01*
X136971303Y-85359819D02*
X137304636Y-86359819D01*
X137304636Y-86359819D02*
X137637969Y-85359819D01*
X137876065Y-85359819D02*
X138495112Y-85359819D01*
X138495112Y-85359819D02*
X138161779Y-85740771D01*
X138161779Y-85740771D02*
X138304636Y-85740771D01*
X138304636Y-85740771D02*
X138399874Y-85788390D01*
X138399874Y-85788390D02*
X138447493Y-85836009D01*
X138447493Y-85836009D02*
X138495112Y-85931247D01*
X138495112Y-85931247D02*
X138495112Y-86169342D01*
X138495112Y-86169342D02*
X138447493Y-86264580D01*
X138447493Y-86264580D02*
X138399874Y-86312200D01*
X138399874Y-86312200D02*
X138304636Y-86359819D01*
X138304636Y-86359819D02*
X138018922Y-86359819D01*
X138018922Y-86359819D02*
X137923684Y-86312200D01*
X137923684Y-86312200D02*
X137876065Y-86264580D01*
X116454560Y-120008504D02*
X116930750Y-120008504D01*
X116359322Y-120294219D02*
X116692655Y-119294219D01*
X116692655Y-119294219D02*
X117025988Y-120294219D01*
X117264084Y-119294219D02*
X117930750Y-119294219D01*
X117930750Y-119294219D02*
X117502179Y-120294219D01*
X134971112Y-113395009D02*
X135113969Y-113442628D01*
X135113969Y-113442628D02*
X135161588Y-113490247D01*
X135161588Y-113490247D02*
X135209207Y-113585485D01*
X135209207Y-113585485D02*
X135209207Y-113728342D01*
X135209207Y-113728342D02*
X135161588Y-113823580D01*
X135161588Y-113823580D02*
X135113969Y-113871200D01*
X135113969Y-113871200D02*
X135018731Y-113918819D01*
X135018731Y-113918819D02*
X134637779Y-113918819D01*
X134637779Y-113918819D02*
X134637779Y-112918819D01*
X134637779Y-112918819D02*
X134971112Y-112918819D01*
X134971112Y-112918819D02*
X135066350Y-112966438D01*
X135066350Y-112966438D02*
X135113969Y-113014057D01*
X135113969Y-113014057D02*
X135161588Y-113109295D01*
X135161588Y-113109295D02*
X135161588Y-113204533D01*
X135161588Y-113204533D02*
X135113969Y-113299771D01*
X135113969Y-113299771D02*
X135066350Y-113347390D01*
X135066350Y-113347390D02*
X134971112Y-113395009D01*
X134971112Y-113395009D02*
X134637779Y-113395009D01*
X136066350Y-113252152D02*
X136066350Y-113918819D01*
X135828255Y-112871200D02*
X135590160Y-113585485D01*
X135590160Y-113585485D02*
X136209207Y-113585485D01*
X134971112Y-118094009D02*
X135113969Y-118141628D01*
X135113969Y-118141628D02*
X135161588Y-118189247D01*
X135161588Y-118189247D02*
X135209207Y-118284485D01*
X135209207Y-118284485D02*
X135209207Y-118427342D01*
X135209207Y-118427342D02*
X135161588Y-118522580D01*
X135161588Y-118522580D02*
X135113969Y-118570200D01*
X135113969Y-118570200D02*
X135018731Y-118617819D01*
X135018731Y-118617819D02*
X134637779Y-118617819D01*
X134637779Y-118617819D02*
X134637779Y-117617819D01*
X134637779Y-117617819D02*
X134971112Y-117617819D01*
X134971112Y-117617819D02*
X135066350Y-117665438D01*
X135066350Y-117665438D02*
X135113969Y-117713057D01*
X135113969Y-117713057D02*
X135161588Y-117808295D01*
X135161588Y-117808295D02*
X135161588Y-117903533D01*
X135161588Y-117903533D02*
X135113969Y-117998771D01*
X135113969Y-117998771D02*
X135066350Y-118046390D01*
X135066350Y-118046390D02*
X134971112Y-118094009D01*
X134971112Y-118094009D02*
X134637779Y-118094009D01*
X136066350Y-117617819D02*
X135875874Y-117617819D01*
X135875874Y-117617819D02*
X135780636Y-117665438D01*
X135780636Y-117665438D02*
X135733017Y-117713057D01*
X135733017Y-117713057D02*
X135637779Y-117855914D01*
X135637779Y-117855914D02*
X135590160Y-118046390D01*
X135590160Y-118046390D02*
X135590160Y-118427342D01*
X135590160Y-118427342D02*
X135637779Y-118522580D01*
X135637779Y-118522580D02*
X135685398Y-118570200D01*
X135685398Y-118570200D02*
X135780636Y-118617819D01*
X135780636Y-118617819D02*
X135971112Y-118617819D01*
X135971112Y-118617819D02*
X136066350Y-118570200D01*
X136066350Y-118570200D02*
X136113969Y-118522580D01*
X136113969Y-118522580D02*
X136161588Y-118427342D01*
X136161588Y-118427342D02*
X136161588Y-118189247D01*
X136161588Y-118189247D02*
X136113969Y-118094009D01*
X136113969Y-118094009D02*
X136066350Y-118046390D01*
X136066350Y-118046390D02*
X135971112Y-117998771D01*
X135971112Y-117998771D02*
X135780636Y-117998771D01*
X135780636Y-117998771D02*
X135685398Y-118046390D01*
X135685398Y-118046390D02*
X135637779Y-118094009D01*
X135637779Y-118094009D02*
X135590160Y-118189247D01*
X124709438Y-121570411D02*
X124661819Y-121665649D01*
X124661819Y-121665649D02*
X124661819Y-121808506D01*
X124661819Y-121808506D02*
X124709438Y-121951363D01*
X124709438Y-121951363D02*
X124804676Y-122046601D01*
X124804676Y-122046601D02*
X124899914Y-122094220D01*
X124899914Y-122094220D02*
X125090390Y-122141839D01*
X125090390Y-122141839D02*
X125233247Y-122141839D01*
X125233247Y-122141839D02*
X125423723Y-122094220D01*
X125423723Y-122094220D02*
X125518961Y-122046601D01*
X125518961Y-122046601D02*
X125614200Y-121951363D01*
X125614200Y-121951363D02*
X125661819Y-121808506D01*
X125661819Y-121808506D02*
X125661819Y-121713268D01*
X125661819Y-121713268D02*
X125614200Y-121570411D01*
X125614200Y-121570411D02*
X125566580Y-121522792D01*
X125566580Y-121522792D02*
X125233247Y-121522792D01*
X125233247Y-121522792D02*
X125233247Y-121713268D01*
X134971112Y-119618009D02*
X135113969Y-119665628D01*
X135113969Y-119665628D02*
X135161588Y-119713247D01*
X135161588Y-119713247D02*
X135209207Y-119808485D01*
X135209207Y-119808485D02*
X135209207Y-119951342D01*
X135209207Y-119951342D02*
X135161588Y-120046580D01*
X135161588Y-120046580D02*
X135113969Y-120094200D01*
X135113969Y-120094200D02*
X135018731Y-120141819D01*
X135018731Y-120141819D02*
X134637779Y-120141819D01*
X134637779Y-120141819D02*
X134637779Y-119141819D01*
X134637779Y-119141819D02*
X134971112Y-119141819D01*
X134971112Y-119141819D02*
X135066350Y-119189438D01*
X135066350Y-119189438D02*
X135113969Y-119237057D01*
X135113969Y-119237057D02*
X135161588Y-119332295D01*
X135161588Y-119332295D02*
X135161588Y-119427533D01*
X135161588Y-119427533D02*
X135113969Y-119522771D01*
X135113969Y-119522771D02*
X135066350Y-119570390D01*
X135066350Y-119570390D02*
X134971112Y-119618009D01*
X134971112Y-119618009D02*
X134637779Y-119618009D01*
X135542541Y-119141819D02*
X136209207Y-119141819D01*
X136209207Y-119141819D02*
X135780636Y-120141819D01*
X132218200Y-122014839D02*
X132265819Y-121871982D01*
X132265819Y-121871982D02*
X132265819Y-121633887D01*
X132265819Y-121633887D02*
X132218200Y-121538649D01*
X132218200Y-121538649D02*
X132170580Y-121491030D01*
X132170580Y-121491030D02*
X132075342Y-121443411D01*
X132075342Y-121443411D02*
X131980104Y-121443411D01*
X131980104Y-121443411D02*
X131884866Y-121491030D01*
X131884866Y-121491030D02*
X131837247Y-121538649D01*
X131837247Y-121538649D02*
X131789628Y-121633887D01*
X131789628Y-121633887D02*
X131742009Y-121824363D01*
X131742009Y-121824363D02*
X131694390Y-121919601D01*
X131694390Y-121919601D02*
X131646771Y-121967220D01*
X131646771Y-121967220D02*
X131551533Y-122014839D01*
X131551533Y-122014839D02*
X131456295Y-122014839D01*
X131456295Y-122014839D02*
X131361057Y-121967220D01*
X131361057Y-121967220D02*
X131313438Y-121919601D01*
X131313438Y-121919601D02*
X131265819Y-121824363D01*
X131265819Y-121824363D02*
X131265819Y-121586268D01*
X131265819Y-121586268D02*
X131313438Y-121443411D01*
X132265819Y-121014839D02*
X131265819Y-121014839D01*
X131265819Y-121014839D02*
X131265819Y-120776744D01*
X131265819Y-120776744D02*
X131313438Y-120633887D01*
X131313438Y-120633887D02*
X131408676Y-120538649D01*
X131408676Y-120538649D02*
X131503914Y-120491030D01*
X131503914Y-120491030D02*
X131694390Y-120443411D01*
X131694390Y-120443411D02*
X131837247Y-120443411D01*
X131837247Y-120443411D02*
X132027723Y-120491030D01*
X132027723Y-120491030D02*
X132122961Y-120538649D01*
X132122961Y-120538649D02*
X132218200Y-120633887D01*
X132218200Y-120633887D02*
X132265819Y-120776744D01*
X132265819Y-120776744D02*
X132265819Y-121014839D01*
X131980104Y-120062458D02*
X131980104Y-119586268D01*
X132265819Y-120157696D02*
X131265819Y-119824363D01*
X131265819Y-119824363D02*
X132265819Y-119491030D01*
X116914819Y-121983077D02*
X117914819Y-121649744D01*
X117914819Y-121649744D02*
X116914819Y-121316411D01*
X117127419Y-93671620D02*
X116127419Y-93671620D01*
X116127419Y-93671620D02*
X116127419Y-93290668D01*
X116127419Y-93290668D02*
X116175038Y-93195430D01*
X116175038Y-93195430D02*
X116222657Y-93147811D01*
X116222657Y-93147811D02*
X116317895Y-93100192D01*
X116317895Y-93100192D02*
X116460752Y-93100192D01*
X116460752Y-93100192D02*
X116555990Y-93147811D01*
X116555990Y-93147811D02*
X116603609Y-93195430D01*
X116603609Y-93195430D02*
X116651228Y-93290668D01*
X116651228Y-93290668D02*
X116651228Y-93671620D01*
X117127419Y-92147811D02*
X117127419Y-92719239D01*
X117127419Y-92433525D02*
X116127419Y-92433525D01*
X116127419Y-92433525D02*
X116270276Y-92528763D01*
X116270276Y-92528763D02*
X116365514Y-92624001D01*
X116365514Y-92624001D02*
X116413133Y-92719239D01*
X134971112Y-110855009D02*
X135113969Y-110902628D01*
X135113969Y-110902628D02*
X135161588Y-110950247D01*
X135161588Y-110950247D02*
X135209207Y-111045485D01*
X135209207Y-111045485D02*
X135209207Y-111188342D01*
X135209207Y-111188342D02*
X135161588Y-111283580D01*
X135161588Y-111283580D02*
X135113969Y-111331200D01*
X135113969Y-111331200D02*
X135018731Y-111378819D01*
X135018731Y-111378819D02*
X134637779Y-111378819D01*
X134637779Y-111378819D02*
X134637779Y-110378819D01*
X134637779Y-110378819D02*
X134971112Y-110378819D01*
X134971112Y-110378819D02*
X135066350Y-110426438D01*
X135066350Y-110426438D02*
X135113969Y-110474057D01*
X135113969Y-110474057D02*
X135161588Y-110569295D01*
X135161588Y-110569295D02*
X135161588Y-110664533D01*
X135161588Y-110664533D02*
X135113969Y-110759771D01*
X135113969Y-110759771D02*
X135066350Y-110807390D01*
X135066350Y-110807390D02*
X134971112Y-110855009D01*
X134971112Y-110855009D02*
X134637779Y-110855009D01*
X135542541Y-110378819D02*
X136161588Y-110378819D01*
X136161588Y-110378819D02*
X135828255Y-110759771D01*
X135828255Y-110759771D02*
X135971112Y-110759771D01*
X135971112Y-110759771D02*
X136066350Y-110807390D01*
X136066350Y-110807390D02*
X136113969Y-110855009D01*
X136113969Y-110855009D02*
X136161588Y-110950247D01*
X136161588Y-110950247D02*
X136161588Y-111188342D01*
X136161588Y-111188342D02*
X136113969Y-111283580D01*
X136113969Y-111283580D02*
X136066350Y-111331200D01*
X136066350Y-111331200D02*
X135971112Y-111378819D01*
X135971112Y-111378819D02*
X135685398Y-111378819D01*
X135685398Y-111378819D02*
X135590160Y-111331200D01*
X135590160Y-111331200D02*
X135542541Y-111283580D01*
X114457407Y-89128419D02*
X114124074Y-88652228D01*
X113885979Y-89128419D02*
X113885979Y-88128419D01*
X113885979Y-88128419D02*
X114266931Y-88128419D01*
X114266931Y-88128419D02*
X114362169Y-88176038D01*
X114362169Y-88176038D02*
X114409788Y-88223657D01*
X114409788Y-88223657D02*
X114457407Y-88318895D01*
X114457407Y-88318895D02*
X114457407Y-88461752D01*
X114457407Y-88461752D02*
X114409788Y-88556990D01*
X114409788Y-88556990D02*
X114362169Y-88604609D01*
X114362169Y-88604609D02*
X114266931Y-88652228D01*
X114266931Y-88652228D02*
X113885979Y-88652228D01*
X114790741Y-88128419D02*
X115457407Y-89128419D01*
X115457407Y-88128419D02*
X114790741Y-89128419D01*
X134971112Y-104505009D02*
X135113969Y-104552628D01*
X135113969Y-104552628D02*
X135161588Y-104600247D01*
X135161588Y-104600247D02*
X135209207Y-104695485D01*
X135209207Y-104695485D02*
X135209207Y-104838342D01*
X135209207Y-104838342D02*
X135161588Y-104933580D01*
X135161588Y-104933580D02*
X135113969Y-104981200D01*
X135113969Y-104981200D02*
X135018731Y-105028819D01*
X135018731Y-105028819D02*
X134637779Y-105028819D01*
X134637779Y-105028819D02*
X134637779Y-104028819D01*
X134637779Y-104028819D02*
X134971112Y-104028819D01*
X134971112Y-104028819D02*
X135066350Y-104076438D01*
X135066350Y-104076438D02*
X135113969Y-104124057D01*
X135113969Y-104124057D02*
X135161588Y-104219295D01*
X135161588Y-104219295D02*
X135161588Y-104314533D01*
X135161588Y-104314533D02*
X135113969Y-104409771D01*
X135113969Y-104409771D02*
X135066350Y-104457390D01*
X135066350Y-104457390D02*
X134971112Y-104505009D01*
X134971112Y-104505009D02*
X134637779Y-104505009D01*
X135828255Y-104028819D02*
X135923493Y-104028819D01*
X135923493Y-104028819D02*
X136018731Y-104076438D01*
X136018731Y-104076438D02*
X136066350Y-104124057D01*
X136066350Y-104124057D02*
X136113969Y-104219295D01*
X136113969Y-104219295D02*
X136161588Y-104409771D01*
X136161588Y-104409771D02*
X136161588Y-104647866D01*
X136161588Y-104647866D02*
X136113969Y-104838342D01*
X136113969Y-104838342D02*
X136066350Y-104933580D01*
X136066350Y-104933580D02*
X136018731Y-104981200D01*
X136018731Y-104981200D02*
X135923493Y-105028819D01*
X135923493Y-105028819D02*
X135828255Y-105028819D01*
X135828255Y-105028819D02*
X135733017Y-104981200D01*
X135733017Y-104981200D02*
X135685398Y-104933580D01*
X135685398Y-104933580D02*
X135637779Y-104838342D01*
X135637779Y-104838342D02*
X135590160Y-104647866D01*
X135590160Y-104647866D02*
X135590160Y-104409771D01*
X135590160Y-104409771D02*
X135637779Y-104219295D01*
X135637779Y-104219295D02*
X135685398Y-104124057D01*
X135685398Y-104124057D02*
X135733017Y-104076438D01*
X135733017Y-104076438D02*
X135828255Y-104028819D01*
X135021912Y-105902009D02*
X135164769Y-105949628D01*
X135164769Y-105949628D02*
X135212388Y-105997247D01*
X135212388Y-105997247D02*
X135260007Y-106092485D01*
X135260007Y-106092485D02*
X135260007Y-106235342D01*
X135260007Y-106235342D02*
X135212388Y-106330580D01*
X135212388Y-106330580D02*
X135164769Y-106378200D01*
X135164769Y-106378200D02*
X135069531Y-106425819D01*
X135069531Y-106425819D02*
X134688579Y-106425819D01*
X134688579Y-106425819D02*
X134688579Y-105425819D01*
X134688579Y-105425819D02*
X135021912Y-105425819D01*
X135021912Y-105425819D02*
X135117150Y-105473438D01*
X135117150Y-105473438D02*
X135164769Y-105521057D01*
X135164769Y-105521057D02*
X135212388Y-105616295D01*
X135212388Y-105616295D02*
X135212388Y-105711533D01*
X135212388Y-105711533D02*
X135164769Y-105806771D01*
X135164769Y-105806771D02*
X135117150Y-105854390D01*
X135117150Y-105854390D02*
X135021912Y-105902009D01*
X135021912Y-105902009D02*
X134688579Y-105902009D01*
X136212388Y-106425819D02*
X135640960Y-106425819D01*
X135926674Y-106425819D02*
X135926674Y-105425819D01*
X135926674Y-105425819D02*
X135831436Y-105568676D01*
X135831436Y-105568676D02*
X135736198Y-105663914D01*
X135736198Y-105663914D02*
X135640960Y-105711533D01*
X133177255Y-84597819D02*
X133367731Y-84597819D01*
X133367731Y-84597819D02*
X133462969Y-84645438D01*
X133462969Y-84645438D02*
X133558207Y-84740676D01*
X133558207Y-84740676D02*
X133605826Y-84931152D01*
X133605826Y-84931152D02*
X133605826Y-85264485D01*
X133605826Y-85264485D02*
X133558207Y-85454961D01*
X133558207Y-85454961D02*
X133462969Y-85550200D01*
X133462969Y-85550200D02*
X133367731Y-85597819D01*
X133367731Y-85597819D02*
X133177255Y-85597819D01*
X133177255Y-85597819D02*
X133082017Y-85550200D01*
X133082017Y-85550200D02*
X132986779Y-85454961D01*
X132986779Y-85454961D02*
X132939160Y-85264485D01*
X132939160Y-85264485D02*
X132939160Y-84931152D01*
X132939160Y-84931152D02*
X132986779Y-84740676D01*
X132986779Y-84740676D02*
X133082017Y-84645438D01*
X133082017Y-84645438D02*
X133177255Y-84597819D01*
X134034398Y-85597819D02*
X134034398Y-84597819D01*
X134034398Y-84597819D02*
X134605826Y-85597819D01*
X134605826Y-85597819D02*
X134605826Y-84597819D01*
X135272779Y-101345819D02*
X135272779Y-100345819D01*
X136082302Y-100822009D02*
X136225159Y-100869628D01*
X136225159Y-100869628D02*
X136272778Y-100917247D01*
X136272778Y-100917247D02*
X136320397Y-101012485D01*
X136320397Y-101012485D02*
X136320397Y-101155342D01*
X136320397Y-101155342D02*
X136272778Y-101250580D01*
X136272778Y-101250580D02*
X136225159Y-101298200D01*
X136225159Y-101298200D02*
X136129921Y-101345819D01*
X136129921Y-101345819D02*
X135748969Y-101345819D01*
X135748969Y-101345819D02*
X135748969Y-100345819D01*
X135748969Y-100345819D02*
X136082302Y-100345819D01*
X136082302Y-100345819D02*
X136177540Y-100393438D01*
X136177540Y-100393438D02*
X136225159Y-100441057D01*
X136225159Y-100441057D02*
X136272778Y-100536295D01*
X136272778Y-100536295D02*
X136272778Y-100631533D01*
X136272778Y-100631533D02*
X136225159Y-100726771D01*
X136225159Y-100726771D02*
X136177540Y-100774390D01*
X136177540Y-100774390D02*
X136082302Y-100822009D01*
X136082302Y-100822009D02*
X135748969Y-100822009D01*
X133027819Y-118411220D02*
X132027819Y-118411220D01*
X132123057Y-117982649D02*
X132075438Y-117935030D01*
X132075438Y-117935030D02*
X132027819Y-117839792D01*
X132027819Y-117839792D02*
X132027819Y-117601697D01*
X132027819Y-117601697D02*
X132075438Y-117506459D01*
X132075438Y-117506459D02*
X132123057Y-117458840D01*
X132123057Y-117458840D02*
X132218295Y-117411221D01*
X132218295Y-117411221D02*
X132313533Y-117411221D01*
X132313533Y-117411221D02*
X132456390Y-117458840D01*
X132456390Y-117458840D02*
X133027819Y-118030268D01*
X133027819Y-118030268D02*
X133027819Y-117411221D01*
X132932580Y-116411221D02*
X132980200Y-116458840D01*
X132980200Y-116458840D02*
X133027819Y-116601697D01*
X133027819Y-116601697D02*
X133027819Y-116696935D01*
X133027819Y-116696935D02*
X132980200Y-116839792D01*
X132980200Y-116839792D02*
X132884961Y-116935030D01*
X132884961Y-116935030D02*
X132789723Y-116982649D01*
X132789723Y-116982649D02*
X132599247Y-117030268D01*
X132599247Y-117030268D02*
X132456390Y-117030268D01*
X132456390Y-117030268D02*
X132265914Y-116982649D01*
X132265914Y-116982649D02*
X132170676Y-116935030D01*
X132170676Y-116935030D02*
X132075438Y-116839792D01*
X132075438Y-116839792D02*
X132027819Y-116696935D01*
X132027819Y-116696935D02*
X132027819Y-116601697D01*
X132027819Y-116601697D02*
X132075438Y-116458840D01*
X132075438Y-116458840D02*
X132123057Y-116411221D01*
X120556419Y-90242620D02*
X119556419Y-90242620D01*
X119651657Y-89814049D02*
X119604038Y-89766430D01*
X119604038Y-89766430D02*
X119556419Y-89671192D01*
X119556419Y-89671192D02*
X119556419Y-89433097D01*
X119556419Y-89433097D02*
X119604038Y-89337859D01*
X119604038Y-89337859D02*
X119651657Y-89290240D01*
X119651657Y-89290240D02*
X119746895Y-89242621D01*
X119746895Y-89242621D02*
X119842133Y-89242621D01*
X119842133Y-89242621D02*
X119984990Y-89290240D01*
X119984990Y-89290240D02*
X120556419Y-89861668D01*
X120556419Y-89861668D02*
X120556419Y-89242621D01*
X120461180Y-88242621D02*
X120508800Y-88290240D01*
X120508800Y-88290240D02*
X120556419Y-88433097D01*
X120556419Y-88433097D02*
X120556419Y-88528335D01*
X120556419Y-88528335D02*
X120508800Y-88671192D01*
X120508800Y-88671192D02*
X120413561Y-88766430D01*
X120413561Y-88766430D02*
X120318323Y-88814049D01*
X120318323Y-88814049D02*
X120127847Y-88861668D01*
X120127847Y-88861668D02*
X119984990Y-88861668D01*
X119984990Y-88861668D02*
X119794514Y-88814049D01*
X119794514Y-88814049D02*
X119699276Y-88766430D01*
X119699276Y-88766430D02*
X119604038Y-88671192D01*
X119604038Y-88671192D02*
X119556419Y-88528335D01*
X119556419Y-88528335D02*
X119556419Y-88433097D01*
X119556419Y-88433097D02*
X119604038Y-88290240D01*
X119604038Y-88290240D02*
X119651657Y-88242621D01*
X134679819Y-121799077D02*
X135679819Y-121465744D01*
X135679819Y-121465744D02*
X134679819Y-121132411D01*
X134971112Y-115935009D02*
X135113969Y-115982628D01*
X135113969Y-115982628D02*
X135161588Y-116030247D01*
X135161588Y-116030247D02*
X135209207Y-116125485D01*
X135209207Y-116125485D02*
X135209207Y-116268342D01*
X135209207Y-116268342D02*
X135161588Y-116363580D01*
X135161588Y-116363580D02*
X135113969Y-116411200D01*
X135113969Y-116411200D02*
X135018731Y-116458819D01*
X135018731Y-116458819D02*
X134637779Y-116458819D01*
X134637779Y-116458819D02*
X134637779Y-115458819D01*
X134637779Y-115458819D02*
X134971112Y-115458819D01*
X134971112Y-115458819D02*
X135066350Y-115506438D01*
X135066350Y-115506438D02*
X135113969Y-115554057D01*
X135113969Y-115554057D02*
X135161588Y-115649295D01*
X135161588Y-115649295D02*
X135161588Y-115744533D01*
X135161588Y-115744533D02*
X135113969Y-115839771D01*
X135113969Y-115839771D02*
X135066350Y-115887390D01*
X135066350Y-115887390D02*
X134971112Y-115935009D01*
X134971112Y-115935009D02*
X134637779Y-115935009D01*
X136113969Y-115458819D02*
X135637779Y-115458819D01*
X135637779Y-115458819D02*
X135590160Y-115935009D01*
X135590160Y-115935009D02*
X135637779Y-115887390D01*
X135637779Y-115887390D02*
X135733017Y-115839771D01*
X135733017Y-115839771D02*
X135971112Y-115839771D01*
X135971112Y-115839771D02*
X136066350Y-115887390D01*
X136066350Y-115887390D02*
X136113969Y-115935009D01*
X136113969Y-115935009D02*
X136161588Y-116030247D01*
X136161588Y-116030247D02*
X136161588Y-116268342D01*
X136161588Y-116268342D02*
X136113969Y-116363580D01*
X136113969Y-116363580D02*
X136066350Y-116411200D01*
X136066350Y-116411200D02*
X135971112Y-116458819D01*
X135971112Y-116458819D02*
X135733017Y-116458819D01*
X135733017Y-116458819D02*
X135637779Y-116411200D01*
X135637779Y-116411200D02*
X135590160Y-116363580D01*
X131179875Y-115426744D02*
X131179875Y-115331506D01*
X131179875Y-115331506D02*
X131227494Y-115236268D01*
X131227494Y-115236268D02*
X131275113Y-115188649D01*
X131275113Y-115188649D02*
X131370351Y-115141030D01*
X131370351Y-115141030D02*
X131560827Y-115093411D01*
X131560827Y-115093411D02*
X131798922Y-115093411D01*
X131798922Y-115093411D02*
X131989398Y-115141030D01*
X131989398Y-115141030D02*
X132084636Y-115188649D01*
X132084636Y-115188649D02*
X132132256Y-115236268D01*
X132132256Y-115236268D02*
X132179875Y-115331506D01*
X132179875Y-115331506D02*
X132179875Y-115426744D01*
X132179875Y-115426744D02*
X132132256Y-115521982D01*
X132132256Y-115521982D02*
X132084636Y-115569601D01*
X132084636Y-115569601D02*
X131989398Y-115617220D01*
X131989398Y-115617220D02*
X131798922Y-115664839D01*
X131798922Y-115664839D02*
X131560827Y-115664839D01*
X131560827Y-115664839D02*
X131370351Y-115617220D01*
X131370351Y-115617220D02*
X131275113Y-115569601D01*
X131275113Y-115569601D02*
X131227494Y-115521982D01*
X131227494Y-115521982D02*
X131179875Y-115426744D01*
X132179875Y-114760077D02*
X131513208Y-114236268D01*
X131513208Y-114760077D02*
X132179875Y-114236268D01*
X131513208Y-113426744D02*
X132179875Y-113426744D01*
X131132256Y-113664839D02*
X131846541Y-113902934D01*
X131846541Y-113902934D02*
X131846541Y-113283887D01*
X131179875Y-112712458D02*
X131179875Y-112617220D01*
X131179875Y-112617220D02*
X131227494Y-112521982D01*
X131227494Y-112521982D02*
X131275113Y-112474363D01*
X131275113Y-112474363D02*
X131370351Y-112426744D01*
X131370351Y-112426744D02*
X131560827Y-112379125D01*
X131560827Y-112379125D02*
X131798922Y-112379125D01*
X131798922Y-112379125D02*
X131989398Y-112426744D01*
X131989398Y-112426744D02*
X132084636Y-112474363D01*
X132084636Y-112474363D02*
X132132256Y-112521982D01*
X132132256Y-112521982D02*
X132179875Y-112617220D01*
X132179875Y-112617220D02*
X132179875Y-112712458D01*
X132179875Y-112712458D02*
X132132256Y-112807696D01*
X132132256Y-112807696D02*
X132084636Y-112855315D01*
X132084636Y-112855315D02*
X131989398Y-112902934D01*
X131989398Y-112902934D02*
X131798922Y-112950553D01*
X131798922Y-112950553D02*
X131560827Y-112950553D01*
X131560827Y-112950553D02*
X131370351Y-112902934D01*
X131370351Y-112902934D02*
X131275113Y-112855315D01*
X131275113Y-112855315D02*
X131227494Y-112807696D01*
X131227494Y-112807696D02*
X131179875Y-112712458D01*
X131179875Y-111283886D02*
X132179875Y-111045791D01*
X132179875Y-111045791D02*
X131465589Y-110855315D01*
X131465589Y-110855315D02*
X132179875Y-110664839D01*
X132179875Y-110664839D02*
X131179875Y-110426744D01*
X132789819Y-115426744D02*
X132789819Y-115331506D01*
X132789819Y-115331506D02*
X132837438Y-115236268D01*
X132837438Y-115236268D02*
X132885057Y-115188649D01*
X132885057Y-115188649D02*
X132980295Y-115141030D01*
X132980295Y-115141030D02*
X133170771Y-115093411D01*
X133170771Y-115093411D02*
X133408866Y-115093411D01*
X133408866Y-115093411D02*
X133599342Y-115141030D01*
X133599342Y-115141030D02*
X133694580Y-115188649D01*
X133694580Y-115188649D02*
X133742200Y-115236268D01*
X133742200Y-115236268D02*
X133789819Y-115331506D01*
X133789819Y-115331506D02*
X133789819Y-115426744D01*
X133789819Y-115426744D02*
X133742200Y-115521982D01*
X133742200Y-115521982D02*
X133694580Y-115569601D01*
X133694580Y-115569601D02*
X133599342Y-115617220D01*
X133599342Y-115617220D02*
X133408866Y-115664839D01*
X133408866Y-115664839D02*
X133170771Y-115664839D01*
X133170771Y-115664839D02*
X132980295Y-115617220D01*
X132980295Y-115617220D02*
X132885057Y-115569601D01*
X132885057Y-115569601D02*
X132837438Y-115521982D01*
X132837438Y-115521982D02*
X132789819Y-115426744D01*
X133789819Y-114760077D02*
X133123152Y-114236268D01*
X133123152Y-114760077D02*
X133789819Y-114236268D01*
X133123152Y-113426744D02*
X133789819Y-113426744D01*
X132742200Y-113664839D02*
X133456485Y-113902934D01*
X133456485Y-113902934D02*
X133456485Y-113283887D01*
X133789819Y-112379125D02*
X133789819Y-112950553D01*
X133789819Y-112664839D02*
X132789819Y-112664839D01*
X132789819Y-112664839D02*
X132932676Y-112760077D01*
X132932676Y-112760077D02*
X133027914Y-112855315D01*
X133027914Y-112855315D02*
X133075533Y-112950553D01*
X133789819Y-110617220D02*
X133313628Y-110950553D01*
X133789819Y-111188648D02*
X132789819Y-111188648D01*
X132789819Y-111188648D02*
X132789819Y-110807696D01*
X132789819Y-110807696D02*
X132837438Y-110712458D01*
X132837438Y-110712458D02*
X132885057Y-110664839D01*
X132885057Y-110664839D02*
X132980295Y-110617220D01*
X132980295Y-110617220D02*
X133123152Y-110617220D01*
X133123152Y-110617220D02*
X133218390Y-110664839D01*
X133218390Y-110664839D02*
X133266009Y-110712458D01*
X133266009Y-110712458D02*
X133313628Y-110807696D01*
X133313628Y-110807696D02*
X133313628Y-111188648D01*
X121867819Y-122110077D02*
X121867819Y-121538649D01*
X122867819Y-121824363D02*
X121867819Y-121824363D01*
X121867819Y-121300553D02*
X122867819Y-120633887D01*
X121867819Y-120633887D02*
X122867819Y-121300553D01*
X116454560Y-113506104D02*
X116930750Y-113506104D01*
X116359322Y-113791819D02*
X116692655Y-112791819D01*
X116692655Y-112791819D02*
X117025988Y-113791819D01*
X117787893Y-113125152D02*
X117787893Y-113791819D01*
X117549798Y-112744200D02*
X117311703Y-113458485D01*
X117311703Y-113458485D02*
X117930750Y-113458485D01*
X135733922Y-97577219D02*
X136067255Y-98577219D01*
X136067255Y-98577219D02*
X136400588Y-97577219D01*
%TO.C,U1*%
X123425000Y-111150000D02*
X123425000Y-110575000D01*
X123425000Y-121225000D02*
X123425000Y-120650000D01*
X129175000Y-110575000D02*
X123425000Y-110575000D01*
X129175000Y-111150000D02*
X129175000Y-110575000D01*
X129175000Y-121225000D02*
X123425000Y-121225000D01*
X129175000Y-121225000D02*
X129175000Y-120650000D01*
D12*
X129915000Y-120980000D02*
X129435000Y-120980000D01*
X129675000Y-120650000D01*
X129915000Y-120980000D01*
G36*
X129915000Y-120980000D02*
G01*
X129435000Y-120980000D01*
X129675000Y-120650000D01*
X129915000Y-120980000D01*
G37*
%TO.C,R9*%
X117014500Y-103507276D02*
X117014500Y-104016724D01*
X118059500Y-103507276D02*
X118059500Y-104016724D01*
%TO.C,R8*%
X132000500Y-82704676D02*
X132000500Y-83214124D01*
X133045500Y-82704676D02*
X133045500Y-83214124D01*
%TO.C,R11*%
X123999500Y-96141276D02*
X123999500Y-96650724D01*
X125044500Y-96141276D02*
X125044500Y-96650724D01*
%TO.C,R7*%
X119554500Y-86679224D02*
X119554500Y-86169776D01*
X120599500Y-86679224D02*
X120599500Y-86169776D01*
%TO.C,C2*%
X133431267Y-106681000D02*
X133138733Y-106681000D01*
X133431267Y-107701000D02*
X133138733Y-107701000D01*
%TO.C,L1*%
X129965000Y-91827064D02*
X129965000Y-91372936D01*
X131435000Y-91827064D02*
X131435000Y-91372936D01*
%TO.C,D6*%
X119342000Y-81639500D02*
X119342000Y-83924500D01*
X120812000Y-81639500D02*
X119342000Y-81639500D01*
X120812000Y-83924500D02*
X120812000Y-81639500D01*
%TO.C,R4*%
X114220500Y-86679224D02*
X114220500Y-86169776D01*
X115265500Y-86679224D02*
X115265500Y-86169776D01*
%TO.C,D1*%
X115786000Y-81633250D02*
X115786000Y-83918250D01*
X117256000Y-81633250D02*
X115786000Y-81633250D01*
X117256000Y-83918250D02*
X117256000Y-81633250D01*
%TO.C,C5*%
X121630000Y-84700000D02*
X121630000Y-86400000D01*
X130970000Y-84700000D02*
X130970000Y-86400000D01*
%TO.C,R3*%
X126777500Y-108461724D02*
X126777500Y-107952276D01*
X127822500Y-108461724D02*
X127822500Y-107952276D01*
%TO.C,R5*%
X115998500Y-86668524D02*
X115998500Y-86159076D01*
X117043500Y-86668524D02*
X117043500Y-86159076D01*
%TO.C,J9*%
X116065000Y-124703000D02*
X116065000Y-127363000D01*
X116065000Y-127363000D02*
X136505000Y-127363000D01*
X117015000Y-124305929D02*
X117015000Y-124703000D01*
X117015000Y-133363000D02*
X117015000Y-127363000D01*
X117775000Y-124305929D02*
X117775000Y-124703000D01*
X117775000Y-127363000D02*
X117775000Y-133363000D01*
X117775000Y-133363000D02*
X117015000Y-133363000D01*
X118665000Y-124703000D02*
X118665000Y-127363000D01*
X119555000Y-124305929D02*
X119555000Y-124703000D01*
X119555000Y-133363000D02*
X119555000Y-127363000D01*
X120315000Y-124305929D02*
X120315000Y-124703000D01*
X120315000Y-127363000D02*
X120315000Y-133363000D01*
X120315000Y-133363000D02*
X119555000Y-133363000D01*
X121205000Y-124703000D02*
X121205000Y-127363000D01*
X122095000Y-124305929D02*
X122095000Y-124703000D01*
X122095000Y-133363000D02*
X122095000Y-127363000D01*
X122855000Y-124305929D02*
X122855000Y-124703000D01*
X122855000Y-127363000D02*
X122855000Y-133363000D01*
X122855000Y-133363000D02*
X122095000Y-133363000D01*
X123745000Y-124703000D02*
X123745000Y-127363000D01*
X124635000Y-124305929D02*
X124635000Y-124703000D01*
X124635000Y-133363000D02*
X124635000Y-127363000D01*
X125395000Y-124305929D02*
X125395000Y-124703000D01*
X125395000Y-127363000D02*
X125395000Y-133363000D01*
X125395000Y-133363000D02*
X124635000Y-133363000D01*
X126285000Y-124703000D02*
X126285000Y-127363000D01*
X127175000Y-124305929D02*
X127175000Y-124703000D01*
X127175000Y-133363000D02*
X127175000Y-127363000D01*
X127935000Y-124305929D02*
X127935000Y-124703000D01*
X127935000Y-127363000D02*
X127935000Y-133363000D01*
X127935000Y-133363000D02*
X127175000Y-133363000D01*
X128825000Y-124703000D02*
X128825000Y-127363000D01*
X129715000Y-124305929D02*
X129715000Y-124703000D01*
X129715000Y-133363000D02*
X129715000Y-127363000D01*
X130475000Y-124305929D02*
X130475000Y-124703000D01*
X130475000Y-127363000D02*
X130475000Y-133363000D01*
X130475000Y-133363000D02*
X129715000Y-133363000D01*
X131365000Y-124703000D02*
X131365000Y-127363000D01*
X132255000Y-124305929D02*
X132255000Y-124703000D01*
X132255000Y-133363000D02*
X132255000Y-127363000D01*
X133015000Y-124305929D02*
X133015000Y-124703000D01*
X133015000Y-127363000D02*
X133015000Y-133363000D01*
X133015000Y-133363000D02*
X132255000Y-133363000D01*
X133905000Y-124703000D02*
X133905000Y-127363000D01*
X134795000Y-124373000D02*
X134795000Y-124703000D01*
X134795000Y-133363000D02*
X134795000Y-127363000D01*
X134895000Y-127363000D02*
X134895000Y-133363000D01*
X135015000Y-127363000D02*
X135015000Y-133363000D01*
X135135000Y-127363000D02*
X135135000Y-133363000D01*
X135175000Y-121993000D02*
X136445000Y-121993000D01*
X135255000Y-127363000D02*
X135255000Y-133363000D01*
X135375000Y-127363000D02*
X135375000Y-133363000D01*
X135495000Y-127363000D02*
X135495000Y-133363000D01*
X135555000Y-124373000D02*
X135555000Y-124703000D01*
X135555000Y-127363000D02*
X135555000Y-133363000D01*
X135555000Y-133363000D02*
X134795000Y-133363000D01*
X136445000Y-121993000D02*
X136445000Y-123263000D01*
X136505000Y-124703000D02*
X116065000Y-124703000D01*
X136505000Y-127363000D02*
X136505000Y-124703000D01*
%TO.C,J1*%
X132158200Y-85745000D02*
X133488200Y-85745000D01*
X132158200Y-87075000D02*
X132158200Y-85745000D01*
X132158200Y-88345000D02*
X132158200Y-93485000D01*
X132158200Y-88345000D02*
X134818200Y-88345000D01*
X132158200Y-93485000D02*
X134818200Y-93485000D01*
X134818200Y-88345000D02*
X134818200Y-93485000D01*
%TO.C,D5*%
X114008000Y-81639500D02*
X114008000Y-83924500D01*
X115478000Y-81639500D02*
X114008000Y-81639500D01*
X115478000Y-83924500D02*
X115478000Y-81639500D01*
%TO.C,D2*%
X117564000Y-81639500D02*
X117564000Y-83924500D01*
X119034000Y-81639500D02*
X117564000Y-81639500D01*
X119034000Y-83924500D02*
X119034000Y-81639500D01*
%TO.C,U3*%
X127995400Y-100057800D02*
X127995400Y-103817800D01*
X127995400Y-103817800D02*
X129255400Y-103817800D01*
X134815400Y-100057800D02*
X134815400Y-103817800D01*
X134815400Y-103817800D02*
X133555400Y-103817800D01*
X135045400Y-99017800D02*
X134715400Y-98777800D01*
X135045400Y-98537800D01*
X135045400Y-99017800D01*
G36*
X135045400Y-99017800D02*
G01*
X134715400Y-98777800D01*
X135045400Y-98537800D01*
X135045400Y-99017800D01*
G37*
%TO.C,U2*%
X122100000Y-100165000D02*
X120150000Y-100165000D01*
X122100000Y-100165000D02*
X124050000Y-100165000D01*
X122100000Y-109035000D02*
X120150000Y-109035000D01*
X122100000Y-109035000D02*
X124050000Y-109035000D01*
X119400000Y-100230000D02*
X119160000Y-99900000D01*
X119640000Y-99900000D01*
X119400000Y-100230000D01*
G36*
X119400000Y-100230000D02*
G01*
X119160000Y-99900000D01*
X119640000Y-99900000D01*
X119400000Y-100230000D01*
G37*
%TO.C,R2*%
X128877500Y-108461724D02*
X128877500Y-107952276D01*
X129922500Y-108461724D02*
X129922500Y-107952276D01*
%TO.C,C6*%
X127453733Y-95790000D02*
X127746267Y-95790000D01*
X127453733Y-96810000D02*
X127746267Y-96810000D01*
%TO.C,R12*%
X127951724Y-94222500D02*
X127442276Y-94222500D01*
X127951724Y-95267500D02*
X127442276Y-95267500D01*
%TO.C,R1*%
X122399500Y-96141276D02*
X122399500Y-96650724D01*
X123444500Y-96141276D02*
X123444500Y-96650724D01*
%TO.C,R10*%
X119935500Y-112524276D02*
X119935500Y-113033724D01*
X120980500Y-112524276D02*
X120980500Y-113033724D01*
%TO.C,L2*%
X127965000Y-91372936D02*
X127965000Y-91827064D01*
X129435000Y-91372936D02*
X129435000Y-91827064D01*
%TO.C,D7*%
X133388200Y-81474400D02*
X133388200Y-83759400D01*
X134858200Y-81474400D02*
X133388200Y-81474400D01*
X134858200Y-83759400D02*
X134858200Y-81474400D01*
%TO.C,C8*%
X120561252Y-97693000D02*
X120038748Y-97693000D01*
X120561252Y-99163000D02*
X120038748Y-99163000D01*
%TO.C,D4*%
X122012000Y-92453500D02*
X122012000Y-91653500D01*
X122012000Y-92453500D02*
X122012000Y-93253500D01*
X125132000Y-92453500D02*
X125132000Y-91653500D01*
X125132000Y-92453500D02*
X125132000Y-93253500D01*
X125412000Y-91393500D02*
X125082000Y-91153500D01*
X125412000Y-90913500D01*
X125412000Y-91393500D01*
G36*
X125412000Y-91393500D02*
G01*
X125082000Y-91153500D01*
X125412000Y-90913500D01*
X125412000Y-91393500D01*
G37*
%TO.C,C1*%
X126552000Y-103717333D02*
X126552000Y-104009867D01*
X127572000Y-103717333D02*
X127572000Y-104009867D01*
%TO.C,R6*%
X117776500Y-86679224D02*
X117776500Y-86169776D01*
X118821500Y-86679224D02*
X118821500Y-86169776D01*
%TO.C,R13*%
X119569500Y-92144276D02*
X119569500Y-92653724D01*
X120614500Y-92144276D02*
X120614500Y-92653724D01*
%TD*%
%LPC*%
D13*
%TO.C,TP4*%
X119696000Y-96396000D03*
%TD*%
%TO.C,TP3*%
X136714000Y-83950000D03*
%TD*%
%TO.C,TP2*%
X133666000Y-95888000D03*
%TD*%
%TO.C,TP1*%
X130618000Y-94618000D03*
%TD*%
D14*
%TO.C,U1*%
X129900000Y-120125000D03*
X129900000Y-119475000D03*
X129900000Y-118825000D03*
X129900000Y-118175000D03*
X129900000Y-117525000D03*
X129900000Y-116875000D03*
X129900000Y-116225000D03*
X129900000Y-115575000D03*
X129900000Y-114925000D03*
X129900000Y-114275000D03*
X129900000Y-113625000D03*
X129900000Y-112975000D03*
X129900000Y-112325000D03*
X129900000Y-111675000D03*
X122700000Y-111675000D03*
X122700000Y-112325000D03*
X122700000Y-112975000D03*
X122700000Y-113625000D03*
X122700000Y-114275000D03*
X122700000Y-114925000D03*
X122700000Y-115575000D03*
X122700000Y-116225000D03*
X122700000Y-116875000D03*
X122700000Y-117525000D03*
X122700000Y-118175000D03*
X122700000Y-118825000D03*
X122700000Y-119475000D03*
X122700000Y-120125000D03*
%TD*%
D15*
%TO.C,FID3*%
X114616000Y-123800000D03*
%TD*%
D16*
%TO.C,R9*%
X117537000Y-102849500D03*
X117537000Y-104674500D03*
%TD*%
D15*
%TO.C,FID2*%
X137984000Y-123828000D03*
%TD*%
D16*
%TO.C,R8*%
X132523000Y-82046900D03*
X132523000Y-83871900D03*
%TD*%
%TO.C,R11*%
X124522000Y-95483500D03*
X124522000Y-97308500D03*
%TD*%
D17*
%TO.C,R7*%
X120077000Y-87337000D03*
X120077000Y-85512000D03*
%TD*%
D18*
%TO.C,C2*%
X134147500Y-107191000D03*
X132422500Y-107191000D03*
%TD*%
D19*
%TO.C,L1*%
X130700000Y-92600000D03*
X130700000Y-90600000D03*
%TD*%
D20*
%TO.C,D6*%
X120077000Y-82337000D03*
X120077000Y-83912000D03*
%TD*%
D17*
%TO.C,R4*%
X114743000Y-87337000D03*
X114743000Y-85512000D03*
%TD*%
D20*
%TO.C,D1*%
X116521000Y-82330750D03*
X116521000Y-83905750D03*
%TD*%
D21*
%TO.C,C5*%
X129190000Y-87205000D03*
X123410000Y-87205000D03*
D22*
X129500000Y-88280000D03*
X128700000Y-88280000D03*
D23*
X127550000Y-88280000D03*
X126550000Y-88280000D03*
X126050000Y-88280000D03*
X125050000Y-88280000D03*
D22*
X123900000Y-88280000D03*
X123100000Y-88280000D03*
X123100000Y-88280000D03*
X123900000Y-88280000D03*
D23*
X124550000Y-88280000D03*
X125550000Y-88280000D03*
X127050000Y-88280000D03*
X128050000Y-88280000D03*
D22*
X128700000Y-88280000D03*
X129500000Y-88280000D03*
D24*
X130620000Y-87705000D03*
D25*
X130620000Y-83525000D03*
D24*
X121980000Y-87705000D03*
D25*
X121980000Y-83525000D03*
%TD*%
D17*
%TO.C,R3*%
X127300000Y-109119500D03*
X127300000Y-107294500D03*
%TD*%
%TO.C,R5*%
X116521000Y-87326300D03*
X116521000Y-85501300D03*
%TD*%
D26*
%TO.C,J9*%
X135175000Y-123263000D03*
D27*
X132635000Y-123263000D03*
X130095000Y-123263000D03*
X127555000Y-123263000D03*
X125015000Y-123263000D03*
X122475000Y-123263000D03*
X119935000Y-123263000D03*
X117395000Y-123263000D03*
%TD*%
D28*
%TO.C,J1*%
X133488200Y-87075000D03*
D27*
X133488200Y-89615000D03*
X133488200Y-92155000D03*
%TD*%
D20*
%TO.C,D5*%
X114743000Y-82337000D03*
X114743000Y-83912000D03*
%TD*%
%TO.C,D2*%
X118299000Y-82337000D03*
X118299000Y-83912000D03*
%TD*%
D29*
%TO.C,U3*%
X133705400Y-98757800D03*
X131405400Y-98757800D03*
D30*
X131405400Y-105057800D03*
D29*
X129105400Y-98757800D03*
%TD*%
D15*
%TO.C,FID1*%
X137984000Y-82172000D03*
%TD*%
D31*
%TO.C,U2*%
X119625000Y-100790000D03*
X119625000Y-102060000D03*
X119625000Y-103330000D03*
X119625000Y-104600000D03*
X119625000Y-105870000D03*
X119625000Y-107140000D03*
X119625000Y-108410000D03*
X124575000Y-108410000D03*
X124575000Y-107140000D03*
X124575000Y-105870000D03*
X124575000Y-104600000D03*
X124575000Y-103330000D03*
X124575000Y-102060000D03*
X124575000Y-100790000D03*
%TD*%
D17*
%TO.C,R2*%
X129400000Y-109119500D03*
X129400000Y-107294500D03*
%TD*%
D32*
%TO.C,C6*%
X126737500Y-96300000D03*
X128462500Y-96300000D03*
%TD*%
D33*
%TO.C,R12*%
X128609500Y-94745000D03*
X126784500Y-94745000D03*
%TD*%
D16*
%TO.C,R1*%
X122922000Y-95483500D03*
X122922000Y-97308500D03*
%TD*%
%TO.C,R10*%
X120458000Y-111866500D03*
X120458000Y-113691500D03*
%TD*%
D34*
%TO.C,L2*%
X128700000Y-90600000D03*
X128700000Y-92600000D03*
%TD*%
D20*
%TO.C,D7*%
X134123200Y-82171900D03*
X134123200Y-83746900D03*
%TD*%
D35*
%TO.C,C8*%
X121337500Y-98428000D03*
X119262500Y-98428000D03*
%TD*%
D36*
%TO.C,D4*%
X124522000Y-91316000D03*
X122622000Y-91316000D03*
X123572000Y-93591000D03*
%TD*%
D37*
%TO.C,C1*%
X127062000Y-103001100D03*
X127062000Y-104726100D03*
%TD*%
D17*
%TO.C,R6*%
X118299000Y-87337000D03*
X118299000Y-85512000D03*
%TD*%
D16*
%TO.C,R13*%
X120092000Y-91486500D03*
X120092000Y-93311500D03*
%TD*%
D28*
%TO.C,J2*%
X137730000Y-121034000D03*
D27*
X137730000Y-118494000D03*
X137730000Y-115954000D03*
X137730000Y-113414000D03*
X137730000Y-110874000D03*
X137730000Y-108334000D03*
X137730000Y-105794000D03*
X137730000Y-103254000D03*
X137730000Y-100714000D03*
X137730000Y-98174000D03*
X137730000Y-95634000D03*
X137730000Y-93094000D03*
X137730000Y-90554000D03*
%TD*%
D28*
%TO.C,J5*%
X114880000Y-121000000D03*
D27*
X114880000Y-118460000D03*
X114880000Y-115920000D03*
X114880000Y-113380000D03*
X114880000Y-110840000D03*
X114880000Y-108300000D03*
X114880000Y-105760000D03*
X114880000Y-103220000D03*
X114880000Y-100680000D03*
X114880000Y-98140000D03*
X114880000Y-95600000D03*
X114880000Y-93060000D03*
X114880000Y-90520000D03*
%TD*%
%LPD*%
M02*
