%TF.GenerationSoftware,KiCad,Pcbnew,9.0.0*%
%TF.CreationDate,2025-03-25T17:20:35-03:00*%
%TF.ProjectId,IOExtender,494f4578-7465-46e6-9465-722e6b696361,1.1*%
%TF.SameCoordinates,Original*%
%TF.FileFunction,Copper,L1,Top*%
%TF.FilePolarity,Positive*%
%FSLAX46Y46*%
G04 Gerber Fmt 4.6, Leading zero omitted, Abs format (unit mm)*
G04 Created by KiCad (PCBNEW 9.0.0) date 2025-03-25 17:20:35*
%MOMM*%
%LPD*%
G01*
G04 APERTURE LIST*
G04 Aperture macros list*
%AMRoundRect*
0 Rectangle with rounded corners*
0 $1 Rounding radius*
0 $2 $3 $4 $5 $6 $7 $8 $9 X,Y pos of 4 corners*
0 Add a 4 corners polygon primitive as box body*
4,1,4,$2,$3,$4,$5,$6,$7,$8,$9,$2,$3,0*
0 Add four circle primitives for the rounded corners*
1,1,$1+$1,$2,$3*
1,1,$1+$1,$4,$5*
1,1,$1+$1,$6,$7*
1,1,$1+$1,$8,$9*
0 Add four rect primitives between the rounded corners*
20,1,$1+$1,$2,$3,$4,$5,0*
20,1,$1+$1,$4,$5,$6,$7,0*
20,1,$1+$1,$6,$7,$8,$9,0*
20,1,$1+$1,$8,$9,$2,$3,0*%
G04 Aperture macros list end*
%TA.AperFunction,SMDPad,CuDef*%
%ADD10R,1.750000X0.450000*%
%TD*%
%TA.AperFunction,SMDPad,CuDef*%
%ADD11C,0.500000*%
%TD*%
%TA.AperFunction,SMDPad,CuDef*%
%ADD12RoundRect,0.237500X-0.237500X0.250000X-0.237500X-0.250000X0.237500X-0.250000X0.237500X0.250000X0*%
%TD*%
%TA.AperFunction,SMDPad,CuDef*%
%ADD13RoundRect,0.237500X0.237500X-0.250000X0.237500X0.250000X-0.237500X0.250000X-0.237500X-0.250000X0*%
%TD*%
%TA.AperFunction,SMDPad,CuDef*%
%ADD14RoundRect,0.237500X0.300000X0.237500X-0.300000X0.237500X-0.300000X-0.237500X0.300000X-0.237500X0*%
%TD*%
%TA.AperFunction,SMDPad,CuDef*%
%ADD15RoundRect,0.250000X0.450000X-0.350000X0.450000X0.350000X-0.450000X0.350000X-0.450000X-0.350000X0*%
%TD*%
%TA.AperFunction,SMDPad,CuDef*%
%ADD16RoundRect,0.218750X-0.256250X0.218750X-0.256250X-0.218750X0.256250X-0.218750X0.256250X0.218750X0*%
%TD*%
%TA.AperFunction,SMDPad,CuDef*%
%ADD17RoundRect,0.150000X0.150000X0.425000X-0.150000X0.425000X-0.150000X-0.425000X0.150000X-0.425000X0*%
%TD*%
%TA.AperFunction,SMDPad,CuDef*%
%ADD18RoundRect,0.075000X0.075000X0.500000X-0.075000X0.500000X-0.075000X-0.500000X0.075000X-0.500000X0*%
%TD*%
%TA.AperFunction,HeatsinkPad*%
%ADD19O,1.000000X2.100000*%
%TD*%
%TA.AperFunction,HeatsinkPad*%
%ADD20O,1.000000X1.800000*%
%TD*%
%TA.AperFunction,ComponentPad*%
%ADD21R,1.700000X1.700000*%
%TD*%
%TA.AperFunction,ComponentPad*%
%ADD22O,1.700000X1.700000*%
%TD*%
%TA.AperFunction,SMDPad,CuDef*%
%ADD23RoundRect,0.375000X-0.375000X0.625000X-0.375000X-0.625000X0.375000X-0.625000X0.375000X0.625000X0*%
%TD*%
%TA.AperFunction,SMDPad,CuDef*%
%ADD24RoundRect,0.500000X-1.400000X0.500000X-1.400000X-0.500000X1.400000X-0.500000X1.400000X0.500000X0*%
%TD*%
%TA.AperFunction,SMDPad,CuDef*%
%ADD25RoundRect,0.150000X-0.825000X-0.150000X0.825000X-0.150000X0.825000X0.150000X-0.825000X0.150000X0*%
%TD*%
%TA.AperFunction,SMDPad,CuDef*%
%ADD26RoundRect,0.237500X-0.300000X-0.237500X0.300000X-0.237500X0.300000X0.237500X-0.300000X0.237500X0*%
%TD*%
%TA.AperFunction,SMDPad,CuDef*%
%ADD27RoundRect,0.237500X0.250000X0.237500X-0.250000X0.237500X-0.250000X-0.237500X0.250000X-0.237500X0*%
%TD*%
%TA.AperFunction,SMDPad,CuDef*%
%ADD28RoundRect,0.250000X-0.450000X0.350000X-0.450000X-0.350000X0.450000X-0.350000X0.450000X0.350000X0*%
%TD*%
%TA.AperFunction,SMDPad,CuDef*%
%ADD29RoundRect,0.250000X0.337500X0.475000X-0.337500X0.475000X-0.337500X-0.475000X0.337500X-0.475000X0*%
%TD*%
%TA.AperFunction,SMDPad,CuDef*%
%ADD30RoundRect,0.150000X-0.150000X0.512500X-0.150000X-0.512500X0.150000X-0.512500X0.150000X0.512500X0*%
%TD*%
%TA.AperFunction,SMDPad,CuDef*%
%ADD31RoundRect,0.237500X-0.237500X0.300000X-0.237500X-0.300000X0.237500X-0.300000X0.237500X0.300000X0*%
%TD*%
%TA.AperFunction,ComponentPad*%
%ADD32C,2.000000*%
%TD*%
%TA.AperFunction,ViaPad*%
%ADD33C,0.550000*%
%TD*%
%TA.AperFunction,Conductor*%
%ADD34C,0.200000*%
%TD*%
%TA.AperFunction,Conductor*%
%ADD35C,0.500000*%
%TD*%
G04 APERTURE END LIST*
D10*
%TO.P,U1,1,GPB0*%
%TO.N,/Project Architecture/Board/GPB0*%
X129900000Y-120125000D03*
%TO.P,U1,2,GPB1*%
%TO.N,/Project Architecture/Board/GPB1*%
X129900000Y-119475000D03*
%TO.P,U1,3,GPB2*%
%TO.N,/Project Architecture/Board/GPB2*%
X129900000Y-118825000D03*
%TO.P,U1,4,GPB3*%
%TO.N,/Project Architecture/Board/GPB3*%
X129900000Y-118175000D03*
%TO.P,U1,5,GPB4*%
%TO.N,/Project Architecture/Board/GPB4*%
X129900000Y-117525000D03*
%TO.P,U1,6,GPB5*%
%TO.N,/Project Architecture/Board/GPB5*%
X129900000Y-116875000D03*
%TO.P,U1,7,GPB6*%
%TO.N,/Project Architecture/Board/GPB6*%
X129900000Y-116225000D03*
%TO.P,U1,8,GPB7*%
%TO.N,/Project Architecture/Board/GPB7*%
X129900000Y-115575000D03*
%TO.P,U1,9,VDD*%
%TO.N,VDD*%
X129900000Y-114925000D03*
%TO.P,U1,10,VSS*%
%TO.N,GND*%
X129900000Y-114275000D03*
%TO.P,U1,11,NC*%
%TO.N,unconnected-(U1-NC-Pad11)*%
X129900000Y-113625000D03*
%TO.P,U1,12,SCK*%
%TO.N,/Project Architecture/Board/SCL*%
X129900000Y-112975000D03*
%TO.P,U1,13,SDA*%
%TO.N,/Project Architecture/Board/SDA*%
X129900000Y-112325000D03*
%TO.P,U1,14,NC*%
%TO.N,unconnected-(U1-NC-Pad14)*%
X129900000Y-111675000D03*
%TO.P,U1,15,A0*%
%TO.N,GND*%
X122700000Y-111675000D03*
%TO.P,U1,16,A1*%
X122700000Y-112325000D03*
%TO.P,U1,17,A2*%
X122700000Y-112975000D03*
%TO.P,U1,18,~{RESET}*%
%TO.N,Net-(U1-~{RESET})*%
X122700000Y-113625000D03*
%TO.P,U1,19,INTB*%
%TO.N,/Project Architecture/Board/INTB*%
X122700000Y-114275000D03*
%TO.P,U1,20,INTA*%
%TO.N,/Project Architecture/Board/INTA*%
X122700000Y-114925000D03*
%TO.P,U1,21,GPA0*%
%TO.N,/Project Architecture/Board/GPA0*%
X122700000Y-115575000D03*
%TO.P,U1,22,GPA1*%
%TO.N,/Project Architecture/Board/GPA1*%
X122700000Y-116225000D03*
%TO.P,U1,23,GPA2*%
%TO.N,/Project Architecture/Board/GPA2*%
X122700000Y-116875000D03*
%TO.P,U1,24,GPA3*%
%TO.N,/Project Architecture/Board/GPA3*%
X122700000Y-117525000D03*
%TO.P,U1,25,GPA4*%
%TO.N,/Project Architecture/Board/GPA4*%
X122700000Y-118175000D03*
%TO.P,U1,26,GPA5*%
%TO.N,/Project Architecture/Board/GPA5*%
X122700000Y-118825000D03*
%TO.P,U1,27,GPA6*%
%TO.N,/Project Architecture/Board/GPA6*%
X122700000Y-119475000D03*
%TO.P,U1,28,GPA7*%
%TO.N,/Project Architecture/Board/GPA7*%
X122700000Y-120125000D03*
%TD*%
D11*
%TO.P,FID3,*%
%TO.N,*%
X114616000Y-123800000D03*
%TD*%
D12*
%TO.P,R9,1*%
%TO.N,VDD*%
X117537000Y-102849500D03*
%TO.P,R9,2*%
%TO.N,Net-(U2-~{RST})*%
X117537000Y-104674500D03*
%TD*%
D11*
%TO.P,FID2,*%
%TO.N,*%
X137984000Y-123828000D03*
%TD*%
D12*
%TO.P,R8,1*%
%TO.N,VDD*%
X132523000Y-82046900D03*
%TO.P,R8,2*%
%TO.N,Net-(D7-A)*%
X132523000Y-83871900D03*
%TD*%
%TO.P,R11,1*%
%TO.N,/Project Architecture/Board/USB_N*%
X124522000Y-95483500D03*
%TO.P,R11,2*%
%TO.N,/Project Architecture/Board/D_N*%
X124522000Y-97308500D03*
%TD*%
D13*
%TO.P,R7,1*%
%TO.N,VDD*%
X120077000Y-87337000D03*
%TO.P,R7,2*%
%TO.N,Net-(D6-A)*%
X120077000Y-85512000D03*
%TD*%
D14*
%TO.P,C2,1*%
%TO.N,GND*%
X134147500Y-107191000D03*
%TO.P,C2,2*%
%TO.N,+3V3*%
X132422500Y-107191000D03*
%TD*%
D15*
%TO.P,L1,1*%
%TO.N,GND*%
X130700000Y-92600000D03*
%TO.P,L1,2*%
%TO.N,Net-(C5-SHIELD)*%
X130700000Y-90600000D03*
%TD*%
D16*
%TO.P,D6,1,K*%
%TO.N,Net-(D6-K)*%
X120077000Y-82337000D03*
%TO.P,D6,2,A*%
%TO.N,Net-(D6-A)*%
X120077000Y-83912000D03*
%TD*%
D13*
%TO.P,R4,1*%
%TO.N,VDD*%
X114743000Y-87337000D03*
%TO.P,R4,2*%
%TO.N,Net-(D5-A)*%
X114743000Y-85512000D03*
%TD*%
D16*
%TO.P,D1,1,K*%
%TO.N,Net-(D1-K)*%
X116521000Y-82330750D03*
%TO.P,D1,2,A*%
%TO.N,Net-(D1-A)*%
X116521000Y-83905750D03*
%TD*%
D17*
%TO.P,C5,A1,GND*%
%TO.N,GND*%
X129500000Y-88280000D03*
%TO.P,C5,A4,VBUS*%
%TO.N,Net-(C5-VBUS-PadA4)*%
X128700000Y-88280000D03*
D18*
%TO.P,C5,A5,CC1*%
%TO.N,Net-(C5-CC1)*%
X127550000Y-88280000D03*
%TO.P,C5,A6,D+*%
%TO.N,/Project Architecture/Board/USB_P*%
X126550000Y-88280000D03*
%TO.P,C5,A7,D-*%
%TO.N,/Project Architecture/Board/USB_N*%
X126050000Y-88280000D03*
%TO.P,C5,A8,SBU1*%
%TO.N,unconnected-(C5-SBU1-PadA8)*%
X125050000Y-88280000D03*
D17*
%TO.P,C5,A9,VBUS*%
%TO.N,Net-(C5-VBUS-PadA4)*%
X123900000Y-88280000D03*
%TO.P,C5,A12,GND*%
%TO.N,GND*%
X123100000Y-88280000D03*
%TO.P,C5,B1,GND*%
X123100000Y-88280000D03*
%TO.P,C5,B4,VBUS*%
%TO.N,Net-(C5-VBUS-PadA4)*%
X123900000Y-88280000D03*
D18*
%TO.P,C5,B5,CC2*%
%TO.N,Net-(C5-CC2)*%
X124550000Y-88280000D03*
%TO.P,C5,B6,D+*%
%TO.N,/Project Architecture/Board/USB_P*%
X125550000Y-88280000D03*
%TO.P,C5,B7,D-*%
%TO.N,/Project Architecture/Board/USB_N*%
X127050000Y-88280000D03*
%TO.P,C5,B8,SBU2*%
%TO.N,unconnected-(C5-SBU2-PadB8)*%
X128050000Y-88280000D03*
D17*
%TO.P,C5,B9,VBUS*%
%TO.N,Net-(C5-VBUS-PadA4)*%
X128700000Y-88280000D03*
%TO.P,C5,B12,GND*%
%TO.N,GND*%
X129500000Y-88280000D03*
D19*
%TO.P,C5,S1,SHIELD*%
%TO.N,Net-(C5-SHIELD)*%
X130620000Y-87705000D03*
D20*
X130620000Y-83525000D03*
D19*
X121980000Y-87705000D03*
D20*
X121980000Y-83525000D03*
%TD*%
D13*
%TO.P,R3,1*%
%TO.N,VDD*%
X127300000Y-109119500D03*
%TO.P,R3,2*%
%TO.N,/Project Architecture/Board/SDA*%
X127300000Y-107294500D03*
%TD*%
%TO.P,R5,1*%
%TO.N,VDD*%
X116521000Y-87326300D03*
%TO.P,R5,2*%
%TO.N,Net-(D1-A)*%
X116521000Y-85501300D03*
%TD*%
D21*
%TO.P,J9,1,Pin_1*%
%TO.N,VDD*%
X135175000Y-123263000D03*
D22*
%TO.P,J9,2,Pin_2*%
%TO.N,/Project Architecture/Board/SCL*%
X132635000Y-123263000D03*
%TO.P,J9,3,Pin_3*%
%TO.N,/Project Architecture/Board/SDA*%
X130095000Y-123263000D03*
%TO.P,J9,4,Pin_4*%
%TO.N,GND*%
X127555000Y-123263000D03*
%TO.P,J9,5,Pin_5*%
X125015000Y-123263000D03*
%TO.P,J9,6,Pin_6*%
%TO.N,/Project Architecture/Board/UART_RX*%
X122475000Y-123263000D03*
%TO.P,J9,7,Pin_7*%
%TO.N,/Project Architecture/Board/UART_TX*%
X119935000Y-123263000D03*
%TO.P,J9,8,Pin_8*%
%TO.N,VDD*%
X117395000Y-123263000D03*
%TD*%
D21*
%TO.P,J1,1,Pin_1*%
%TO.N,+3V3*%
X133488200Y-87075000D03*
D22*
%TO.P,J1,2,Pin_2*%
%TO.N,VDD*%
X133488200Y-89615000D03*
%TO.P,J1,3,Pin_3*%
%TO.N,+5V*%
X133488200Y-92155000D03*
%TD*%
D16*
%TO.P,D5,1,K*%
%TO.N,Net-(D5-K)*%
X114743000Y-82337000D03*
%TO.P,D5,2,A*%
%TO.N,Net-(D5-A)*%
X114743000Y-83912000D03*
%TD*%
%TO.P,D2,1,K*%
%TO.N,Net-(D2-K)*%
X118299000Y-82337000D03*
%TO.P,D2,2,A*%
%TO.N,Net-(D2-A)*%
X118299000Y-83912000D03*
%TD*%
D23*
%TO.P,U3,1,GND*%
%TO.N,GND*%
X133705400Y-98757800D03*
%TO.P,U3,2,VO*%
%TO.N,+3V3*%
X131405400Y-98757800D03*
D24*
X131405400Y-105057800D03*
D23*
%TO.P,U3,3,VI*%
%TO.N,+5V*%
X129105400Y-98757800D03*
%TD*%
D11*
%TO.P,FID1,*%
%TO.N,*%
X137984000Y-82172000D03*
%TD*%
D25*
%TO.P,U2,1,VDD*%
%TO.N,VDD*%
X119625000Y-100790000D03*
%TO.P,U2,2,GP0*%
%TO.N,/Project Architecture/Board/LED_URX*%
X119625000Y-102060000D03*
%TO.P,U2,3,GP1*%
%TO.N,/Project Architecture/Board/LED_UTX*%
X119625000Y-103330000D03*
%TO.P,U2,4,~{RST}*%
%TO.N,Net-(U2-~{RST})*%
X119625000Y-104600000D03*
%TO.P,U2,5,URx*%
%TO.N,/Project Architecture/Board/UART_RX*%
X119625000Y-105870000D03*
%TO.P,U2,6,UTx*%
%TO.N,/Project Architecture/Board/UART_TX*%
X119625000Y-107140000D03*
%TO.P,U2,7,GP2*%
%TO.N,/Project Architecture/Board/LED_USBCONF*%
X119625000Y-108410000D03*
%TO.P,U2,8,GP3*%
%TO.N,/Project Architecture/Board/LED_I2C*%
X124575000Y-108410000D03*
%TO.P,U2,9,SDA*%
%TO.N,/Project Architecture/Board/SDA*%
X124575000Y-107140000D03*
%TO.P,U2,10,SCL*%
%TO.N,/Project Architecture/Board/SCL*%
X124575000Y-105870000D03*
%TO.P,U2,11,VUSB*%
%TO.N,+3V3*%
X124575000Y-104600000D03*
%TO.P,U2,12,D-*%
%TO.N,/Project Architecture/Board/D_N*%
X124575000Y-103330000D03*
%TO.P,U2,13,D+*%
%TO.N,/Project Architecture/Board/D_P*%
X124575000Y-102060000D03*
%TO.P,U2,14,VSS*%
%TO.N,GND*%
X124575000Y-100790000D03*
%TD*%
D13*
%TO.P,R2,1*%
%TO.N,VDD*%
X129400000Y-109119500D03*
%TO.P,R2,2*%
%TO.N,/Project Architecture/Board/SCL*%
X129400000Y-107294500D03*
%TD*%
D26*
%TO.P,C6,1*%
%TO.N,GND*%
X126737500Y-96300000D03*
%TO.P,C6,2*%
%TO.N,+5V*%
X128462500Y-96300000D03*
%TD*%
D27*
%TO.P,R12,1*%
%TO.N,Net-(C5-CC1)*%
X128609500Y-94745000D03*
%TO.P,R12,2*%
%TO.N,GND*%
X126784500Y-94745000D03*
%TD*%
D12*
%TO.P,R1,1*%
%TO.N,/Project Architecture/Board/USB_P*%
X122922000Y-95483500D03*
%TO.P,R1,2*%
%TO.N,/Project Architecture/Board/D_P*%
X122922000Y-97308500D03*
%TD*%
%TO.P,R10,1*%
%TO.N,VDD*%
X120458000Y-111866500D03*
%TO.P,R10,2*%
%TO.N,Net-(U1-~{RESET})*%
X120458000Y-113691500D03*
%TD*%
D28*
%TO.P,L2,1*%
%TO.N,Net-(C5-VBUS-PadA4)*%
X128700000Y-90600000D03*
%TO.P,L2,2*%
%TO.N,+5V*%
X128700000Y-92600000D03*
%TD*%
D16*
%TO.P,D7,1,K*%
%TO.N,GND*%
X134123200Y-82171900D03*
%TO.P,D7,2,A*%
%TO.N,Net-(D7-A)*%
X134123200Y-83746900D03*
%TD*%
D29*
%TO.P,C8,1*%
%TO.N,GND*%
X121337500Y-98428000D03*
%TO.P,C8,2*%
%TO.N,VDD*%
X119262500Y-98428000D03*
%TD*%
D30*
%TO.P,D4,1,K*%
%TO.N,/Project Architecture/Board/USB_N*%
X124522000Y-91316000D03*
%TO.P,D4,2,K*%
%TO.N,/Project Architecture/Board/USB_P*%
X122622000Y-91316000D03*
%TO.P,D4,3,A*%
%TO.N,GND*%
X123572000Y-93591000D03*
%TD*%
D31*
%TO.P,C1,1*%
%TO.N,GND*%
X127062000Y-103001100D03*
%TO.P,C1,2*%
%TO.N,+3V3*%
X127062000Y-104726100D03*
%TD*%
D13*
%TO.P,R6,1*%
%TO.N,VDD*%
X118299000Y-87337000D03*
%TO.P,R6,2*%
%TO.N,Net-(D2-A)*%
X118299000Y-85512000D03*
%TD*%
D12*
%TO.P,R13,1*%
%TO.N,Net-(C5-CC2)*%
X120092000Y-91486500D03*
%TO.P,R13,2*%
%TO.N,GND*%
X120092000Y-93311500D03*
%TD*%
D32*
%TO.P,TP3,1,1*%
%TO.N,VDD*%
X136714000Y-83950000D03*
%TD*%
D21*
%TO.P,J2,1,Pin_1*%
%TO.N,/Project Architecture/Board/GPB7*%
X137730000Y-121034000D03*
D22*
%TO.P,J2,2,Pin_2*%
%TO.N,/Project Architecture/Board/GPB6*%
X137730000Y-118494000D03*
%TO.P,J2,3,Pin_3*%
%TO.N,/Project Architecture/Board/GPB5*%
X137730000Y-115954000D03*
%TO.P,J2,4,Pin_4*%
%TO.N,/Project Architecture/Board/GPB4*%
X137730000Y-113414000D03*
%TO.P,J2,5,Pin_5*%
%TO.N,/Project Architecture/Board/GPB3*%
X137730000Y-110874000D03*
%TO.P,J2,6,Pin_6*%
%TO.N,/Project Architecture/Board/GPB2*%
X137730000Y-108334000D03*
%TO.P,J2,7,Pin_7*%
%TO.N,/Project Architecture/Board/GPB1*%
X137730000Y-105794000D03*
%TO.P,J2,8,Pin_8*%
%TO.N,/Project Architecture/Board/GPB0*%
X137730000Y-103254000D03*
%TO.P,J2,9,Pin_9*%
%TO.N,/Project Architecture/Board/INTB*%
X137730000Y-100714000D03*
%TO.P,J2,10,Pin_10*%
%TO.N,VDD*%
X137730000Y-98174000D03*
%TO.P,J2,11,Pin_11*%
%TO.N,GND*%
X137730000Y-95634000D03*
%TO.P,J2,12,Pin_12*%
%TO.N,/Project Architecture/Board/LED_USBCONF*%
X137730000Y-93094000D03*
%TO.P,J2,13,Pin_13*%
%TO.N,/Project Architecture/Board/LED_I2C*%
X137730000Y-90554000D03*
%TD*%
D32*
%TO.P,TP4,1,1*%
%TO.N,GND*%
X119696000Y-96396000D03*
%TD*%
%TO.P,TP1,1,1*%
%TO.N,+5V*%
X130618000Y-94618000D03*
%TD*%
%TO.P,TP2,1,1*%
%TO.N,+3V3*%
X133666000Y-95888000D03*
%TD*%
D21*
%TO.P,J5,1,Pin_1*%
%TO.N,/Project Architecture/Board/GPA7*%
X114880000Y-121000000D03*
D22*
%TO.P,J5,2,Pin_2*%
%TO.N,/Project Architecture/Board/GPA6*%
X114880000Y-118460000D03*
%TO.P,J5,3,Pin_3*%
%TO.N,/Project Architecture/Board/GPA5*%
X114880000Y-115920000D03*
%TO.P,J5,4,Pin_4*%
%TO.N,/Project Architecture/Board/GPA4*%
X114880000Y-113380000D03*
%TO.P,J5,5,Pin_5*%
%TO.N,/Project Architecture/Board/GPA3*%
X114880000Y-110840000D03*
%TO.P,J5,6,Pin_6*%
%TO.N,/Project Architecture/Board/GPA2*%
X114880000Y-108300000D03*
%TO.P,J5,7,Pin_7*%
%TO.N,/Project Architecture/Board/GPA1*%
X114880000Y-105760000D03*
%TO.P,J5,8,Pin_8*%
%TO.N,/Project Architecture/Board/GPA0*%
X114880000Y-103220000D03*
%TO.P,J5,9,Pin_9*%
%TO.N,/Project Architecture/Board/INTA*%
X114880000Y-100680000D03*
%TO.P,J5,10,Pin_10*%
%TO.N,VDD*%
X114880000Y-98140000D03*
%TO.P,J5,11,Pin_11*%
%TO.N,GND*%
X114880000Y-95600000D03*
%TO.P,J5,12,Pin_12*%
%TO.N,/Project Architecture/Board/LED_UTX*%
X114880000Y-93060000D03*
%TO.P,J5,13,Pin_13*%
%TO.N,/Project Architecture/Board/LED_URX*%
X114880000Y-90520000D03*
%TD*%
D33*
%TO.N,GND*%
X122617000Y-98809000D03*
X125665000Y-94491000D03*
X135444000Y-82197400D03*
X126681000Y-97539000D03*
X133666000Y-108842000D03*
X126621000Y-100790000D03*
X123100000Y-89182000D03*
X129729000Y-89411000D03*
X124712500Y-112334500D03*
X132001000Y-92600000D03*
X123725000Y-94618000D03*
X120458000Y-94237000D03*
X135190000Y-98682000D03*
X128205000Y-103000000D03*
X124737000Y-111675000D03*
X124707000Y-112975000D03*
X128078000Y-114275000D03*
%TO.N,Net-(D1-K)*%
X116648000Y-81918000D03*
%TO.N,Net-(D2-K)*%
X118426000Y-81918000D03*
%TO.N,Net-(D5-K)*%
X114870000Y-81918000D03*
%TO.N,Net-(D6-K)*%
X120204000Y-81918000D03*
%TO.N,+3V3*%
X131126000Y-99444000D03*
X132396000Y-105794000D03*
X132396000Y-104270000D03*
X131888000Y-99444000D03*
X132396000Y-105032000D03*
X131126000Y-104270000D03*
X131126000Y-105794000D03*
X131126000Y-98174000D03*
X131126000Y-105032000D03*
X131888000Y-98174000D03*
%TO.N,/Project Architecture/Board/GPB3*%
X133158000Y-118113000D03*
%TO.N,/Project Architecture/Board/GPB4*%
X133666000Y-117478000D03*
%TO.N,/Project Architecture/Board/GPB0*%
X131507000Y-120145000D03*
%TO.N,/Project Architecture/Board/GPB1*%
X132142000Y-119510000D03*
%TO.N,/Project Architecture/Board/INTB*%
X124776000Y-114303000D03*
%TO.N,/Project Architecture/Board/LED_USBCONF*%
X136460000Y-86617000D03*
X121220000Y-108461000D03*
%TO.N,/Project Architecture/Board/LED_I2C*%
X126046000Y-108461000D03*
X137730000Y-85982000D03*
%TO.N,/Project Architecture/Board/GPB2*%
X132650000Y-118750000D03*
%TO.N,/Project Architecture/Board/GPB6*%
X135250000Y-118494000D03*
%TO.N,/Project Architecture/Board/GPB5*%
X134428000Y-116970000D03*
%TO.N,/Project Architecture/Board/LED_URX*%
X117410000Y-96777000D03*
%TO.N,/Project Architecture/Board/LED_UTX*%
X121220000Y-93094000D03*
X121220000Y-102746000D03*
%TD*%
D34*
%TO.N,/Project Architecture/Board/USB_P*%
X125550000Y-87367000D02*
X125550000Y-88280000D01*
X125550000Y-88280000D02*
X125550000Y-89780000D01*
X125030000Y-90300000D02*
X122744000Y-90300000D01*
X122744000Y-90300000D02*
X122490000Y-90554000D01*
X125792000Y-87125000D02*
X125550000Y-87367000D01*
X122700000Y-94987500D02*
X122700000Y-90836000D01*
X122490000Y-90554000D02*
X122490000Y-90819000D01*
X126300000Y-87125000D02*
X125792000Y-87125000D01*
X125550000Y-89780000D02*
X125030000Y-90300000D01*
X126550000Y-88280000D02*
X126550000Y-87375000D01*
X122700000Y-90836000D02*
X122683000Y-90819000D01*
X126550000Y-87375000D02*
X126300000Y-87125000D01*
%TO.N,GND*%
X133666000Y-108842000D02*
X134047000Y-108461000D01*
X120092000Y-93311500D02*
X120092000Y-93871000D01*
X134047000Y-107291500D02*
X134147500Y-107191000D01*
X126737500Y-96300000D02*
X126737500Y-97482500D01*
X122700000Y-112325000D02*
X124703000Y-112325000D01*
X124703000Y-112325000D02*
X124712500Y-112334500D01*
X122700000Y-112975000D02*
X124707000Y-112975000D01*
X126784500Y-94500000D02*
X125674000Y-94500000D01*
X129500000Y-88280000D02*
X129500000Y-89182000D01*
X133705400Y-98757800D02*
X133705400Y-98721400D01*
X123100000Y-88280000D02*
X123100000Y-89182000D01*
X122998000Y-89284000D02*
X123100000Y-89182000D01*
X121337500Y-98800000D02*
X122608000Y-98800000D01*
X126737500Y-97482500D02*
X126681000Y-97539000D01*
X124776000Y-111636000D02*
X124737000Y-111675000D01*
X134123200Y-82171900D02*
X135418500Y-82171900D01*
X134047000Y-107884500D02*
X134047000Y-107291500D01*
X126621000Y-100790000D02*
X126570000Y-100841000D01*
X120092000Y-93871000D02*
X120458000Y-94237000D01*
X122700000Y-111675000D02*
X124737000Y-111675000D01*
X132015000Y-92586000D02*
X132001000Y-92600000D01*
X123440000Y-94333000D02*
X123725000Y-94618000D01*
X133666000Y-98682000D02*
X135190000Y-98682000D01*
X133705400Y-98721400D02*
X133666000Y-98682000D01*
X127316000Y-102937500D02*
X128142500Y-102937500D01*
X125674000Y-94500000D02*
X125665000Y-94491000D01*
X122608000Y-98800000D02*
X122617000Y-98809000D01*
X129900000Y-114275000D02*
X128078000Y-114275000D01*
X124776000Y-112398000D02*
X124712500Y-112334500D01*
X123440000Y-93094000D02*
X123440000Y-94333000D01*
X124776000Y-112906000D02*
X124707000Y-112975000D01*
X123725000Y-94583000D02*
X123725000Y-94618000D01*
X130700000Y-92600000D02*
X132001000Y-92600000D01*
X126570000Y-100841000D02*
X126554000Y-100841000D01*
X126554000Y-100841000D02*
X126503000Y-100790000D01*
X129500000Y-89182000D02*
X129729000Y-89411000D01*
X128142500Y-102937500D02*
X128205000Y-103000000D01*
X126503000Y-100790000D02*
X124575000Y-100790000D01*
X123379000Y-94237000D02*
X123725000Y-94583000D01*
X135418500Y-82171900D02*
X135444000Y-82197400D01*
X134047000Y-108461000D02*
X134047000Y-107884500D01*
%TO.N,Net-(C5-VBUS-PadA4)*%
X128510000Y-88090000D02*
X128700000Y-88280000D01*
X124522000Y-86490000D02*
X128078000Y-86490000D01*
X124090000Y-86923335D02*
X124089333Y-86922667D01*
D35*
X128700000Y-88280000D02*
X128700000Y-90600000D01*
D34*
X123900000Y-88280000D02*
X123900000Y-87676665D01*
X128078000Y-86490000D02*
X128510000Y-86922000D01*
X124089333Y-86922667D02*
X124522000Y-86490000D01*
X128510000Y-86922000D02*
X128510000Y-88090000D01*
X123900000Y-87676665D02*
X124090000Y-87486665D01*
X124090000Y-87486665D02*
X124090000Y-86923335D01*
%TO.N,Net-(C5-SHIELD)*%
X130700000Y-87842000D02*
X130700000Y-90600000D01*
X130620000Y-87705000D02*
X130620000Y-87762000D01*
X121980000Y-83525000D02*
X121980000Y-87705000D01*
X130620000Y-87762000D02*
X130700000Y-87842000D01*
X121980000Y-83525000D02*
X130620000Y-83525000D01*
X130620000Y-83525000D02*
X130620000Y-87705000D01*
%TO.N,/Project Architecture/Board/USB_N*%
X126050000Y-88280000D02*
X126050000Y-90169000D01*
X126050000Y-90169000D02*
X125400000Y-90819000D01*
X124300000Y-91102000D02*
X124583000Y-90819000D01*
X127050000Y-88280000D02*
X127050000Y-89169000D01*
X127050000Y-89169000D02*
X125400000Y-90819000D01*
X125400000Y-90819000D02*
X124390000Y-90819000D01*
X124522000Y-91316000D02*
X124522000Y-95483500D01*
%TO.N,Net-(C5-CC2)*%
X124550000Y-88280000D02*
X124550000Y-89510000D01*
X124550000Y-89510000D02*
X124268000Y-89792000D01*
X120712000Y-89792000D02*
X120077000Y-90427000D01*
X124268000Y-89792000D02*
X120712000Y-89792000D01*
X120092000Y-90442000D02*
X120092000Y-91486500D01*
X120077000Y-90427000D02*
X120092000Y-90442000D01*
%TO.N,Net-(C5-CC1)*%
X127550000Y-93462500D02*
X128587500Y-94500000D01*
X127550000Y-88280000D02*
X127550000Y-93462500D01*
D35*
%TO.N,+5V*%
X129444000Y-96300000D02*
X129856000Y-95888000D01*
X133031000Y-93983000D02*
X133513600Y-93500400D01*
X133666000Y-92332800D02*
X133488200Y-92155000D01*
X129856000Y-93983000D02*
X130567200Y-93983000D01*
X129729000Y-93983000D02*
X129856000Y-93983000D01*
X130567200Y-93983000D02*
X133031000Y-93983000D01*
X133513600Y-93500400D02*
X133666000Y-93348000D01*
D34*
X128700000Y-92600000D02*
X128700000Y-92954000D01*
D35*
X130618000Y-94033800D02*
X130567200Y-93983000D01*
X128700000Y-92954000D02*
X129729000Y-93983000D01*
X133666000Y-93348000D02*
X133666000Y-92332800D01*
X128459000Y-97609000D02*
X128459000Y-96303500D01*
X128462500Y-96300000D02*
X129444000Y-96300000D01*
D34*
X128459000Y-96303500D02*
X128462500Y-96300000D01*
D35*
X129856000Y-95888000D02*
X130618000Y-95126000D01*
X129600000Y-98750000D02*
X128459000Y-97609000D01*
D34*
%TO.N,Net-(D1-A)*%
X116521000Y-83905750D02*
X116521000Y-85518250D01*
%TO.N,Net-(D1-K)*%
X116591000Y-82260750D02*
X116521000Y-82330750D01*
%TO.N,Net-(D2-K)*%
X118193000Y-82231000D02*
X118299000Y-82337000D01*
%TO.N,Net-(D2-A)*%
X118299000Y-83912000D02*
X118299000Y-85512000D01*
%TO.N,Net-(D5-A)*%
X114743000Y-83912000D02*
X114743000Y-85512000D01*
%TO.N,Net-(D6-A)*%
X120077000Y-83912000D02*
X120077000Y-85512000D01*
%TO.N,Net-(D7-A)*%
X132523000Y-83871900D02*
X133998200Y-83871900D01*
X133998200Y-83871900D02*
X134123200Y-83746900D01*
D35*
%TO.N,+3V3*%
X134124000Y-87075000D02*
X135875800Y-88826800D01*
X132422500Y-105794000D02*
X132422500Y-105572500D01*
D34*
X132422500Y-105572500D02*
X131900000Y-105050000D01*
D35*
X131900000Y-97654000D02*
X131900000Y-99469400D01*
D34*
X131512500Y-104662500D02*
X131900000Y-105050000D01*
X127253500Y-104600000D02*
X127316000Y-104662500D01*
D35*
X132422500Y-107191000D02*
X132422500Y-105794000D01*
X135875800Y-93678200D02*
X131900000Y-97654000D01*
D34*
X131937500Y-105087500D02*
X131900000Y-105050000D01*
X133800000Y-87075000D02*
X134124000Y-87075000D01*
X124575000Y-104600000D02*
X127253500Y-104600000D01*
D35*
X135875800Y-88826800D02*
X135875800Y-93678200D01*
X127316000Y-104662500D02*
X131512500Y-104662500D01*
D34*
%TO.N,/Project Architecture/Board/GPB3*%
X129900000Y-118175000D02*
X133096000Y-118175000D01*
X133096000Y-118175000D02*
X133158000Y-118113000D01*
%TO.N,/Project Architecture/Board/GPB4*%
X133619000Y-117525000D02*
X133666000Y-117478000D01*
X129900000Y-117525000D02*
X133619000Y-117525000D01*
%TO.N,/Project Architecture/Board/GPB0*%
X131487000Y-120125000D02*
X131507000Y-120145000D01*
X129900000Y-120125000D02*
X131487000Y-120125000D01*
%TO.N,/Project Architecture/Board/GPB1*%
X132107000Y-119475000D02*
X132142000Y-119510000D01*
X129900000Y-119475000D02*
X132107000Y-119475000D01*
%TO.N,/Project Architecture/Board/GPB7*%
X129900000Y-115575000D02*
X135065000Y-115575000D01*
X135825000Y-116335000D02*
X135825000Y-120272000D01*
X135065000Y-115575000D02*
X135825000Y-116335000D01*
X135825000Y-120272000D02*
X136587000Y-121034000D01*
X136587000Y-121034000D02*
X137730000Y-121034000D01*
%TO.N,/Project Architecture/Board/INTB*%
X124748000Y-114275000D02*
X122700000Y-114275000D01*
X124776000Y-114303000D02*
X124748000Y-114275000D01*
%TO.N,/Project Architecture/Board/LED_USBCONF*%
X136460000Y-86617000D02*
X136460000Y-91824000D01*
X121169000Y-108410000D02*
X121220000Y-108461000D01*
X136460000Y-91824000D02*
X137730000Y-93094000D01*
X119625000Y-108410000D02*
X121169000Y-108410000D01*
%TO.N,/Project Architecture/Board/LED_I2C*%
X126046000Y-108461000D02*
X124626000Y-108461000D01*
X137730000Y-90554000D02*
X137730000Y-85982000D01*
X124626000Y-108461000D02*
X124575000Y-108410000D01*
%TO.N,/Project Architecture/Board/GPB2*%
X132575000Y-118825000D02*
X132650000Y-118750000D01*
X129900000Y-118825000D02*
X132575000Y-118825000D01*
%TO.N,/Project Architecture/Board/GPB6*%
X134572000Y-116225000D02*
X135317000Y-116970000D01*
X129900000Y-116225000D02*
X134572000Y-116225000D01*
X135317000Y-118494000D02*
X135250000Y-118494000D01*
X135317000Y-116970000D02*
X135317000Y-118494000D01*
%TO.N,/Project Architecture/Board/GPB5*%
X134333000Y-116875000D02*
X134428000Y-116970000D01*
X129900000Y-116875000D02*
X134333000Y-116875000D01*
%TO.N,/Project Architecture/Board/LED_URX*%
X118629000Y-102060000D02*
X117410000Y-100841000D01*
X117410000Y-100841000D02*
X117410000Y-96777000D01*
X119625000Y-102060000D02*
X118629000Y-102060000D01*
%TO.N,/Project Architecture/Board/SDA*%
X128024000Y-112325000D02*
X129900000Y-112325000D01*
X131106000Y-112164000D02*
X131106000Y-110727000D01*
X130095000Y-122192000D02*
X130095000Y-123625000D01*
X130945000Y-112325000D02*
X131106000Y-112164000D01*
X126935000Y-120526000D02*
X128205000Y-121796000D01*
X128078000Y-109731000D02*
X128078000Y-108165500D01*
X129900000Y-112325000D02*
X130945000Y-112325000D01*
X130745000Y-110366000D02*
X128713000Y-110366000D01*
X128024000Y-112325000D02*
X126935000Y-113414000D01*
X124575000Y-107140000D02*
X127052500Y-107140000D01*
X131106000Y-110727000D02*
X130745000Y-110366000D01*
X129729000Y-121796000D02*
X130110000Y-122177000D01*
X128713000Y-110366000D02*
X128078000Y-109731000D01*
X126935000Y-113414000D02*
X126935000Y-120526000D01*
X128205000Y-121796000D02*
X129729000Y-121796000D01*
X128078000Y-108165500D02*
X127300000Y-107387500D01*
X130110000Y-122177000D02*
X130095000Y-122192000D01*
X127052500Y-107140000D02*
X127300000Y-107387500D01*
%TO.N,/Project Architecture/Board/UART_RX*%
X126427000Y-111001000D02*
X125538000Y-110112000D01*
X122475000Y-123625000D02*
X122475000Y-122319000D01*
X122744000Y-110112000D02*
X122490000Y-109858000D01*
X122490000Y-107445000D02*
X120915000Y-105870000D01*
X122744000Y-122050000D02*
X124141000Y-122050000D01*
X122475000Y-122319000D02*
X122744000Y-122050000D01*
X126427000Y-119764000D02*
X126427000Y-111001000D01*
X122490000Y-109858000D02*
X122490000Y-107445000D01*
X120915000Y-105870000D02*
X119625000Y-105870000D01*
X125538000Y-110112000D02*
X122744000Y-110112000D01*
X124141000Y-122050000D02*
X126427000Y-119764000D01*
%TO.N,/Project Architecture/Board/UART_TX*%
X119935000Y-121811000D02*
X119935000Y-123625000D01*
X121169000Y-107140000D02*
X121982000Y-107953000D01*
X121982000Y-107953000D02*
X121982000Y-110239000D01*
X121982000Y-110239000D02*
X122363000Y-110620000D01*
X120458000Y-121288000D02*
X119935000Y-121811000D01*
X119625000Y-107140000D02*
X121169000Y-107140000D01*
X124141000Y-121288000D02*
X120458000Y-121288000D01*
X126026000Y-119403000D02*
X124141000Y-121288000D01*
X122363000Y-110620000D02*
X125478900Y-110620000D01*
X119645000Y-107140000D02*
X119696000Y-107191000D01*
X125478900Y-110620000D02*
X126026000Y-111167100D01*
X126026000Y-111167100D02*
X126026000Y-119403000D01*
%TO.N,/Project Architecture/Board/SCL*%
X127443000Y-120272000D02*
X128459000Y-121288000D01*
X132635000Y-121908000D02*
X132635000Y-123625000D01*
X128916000Y-105870000D02*
X129400000Y-106354000D01*
X132015000Y-121288000D02*
X132635000Y-121908000D01*
X128479000Y-107846000D02*
X128479000Y-109564900D01*
X128459000Y-107826000D02*
X128479000Y-107846000D01*
X130930000Y-112975000D02*
X129900000Y-112975000D01*
X128897500Y-107387500D02*
X128459000Y-107826000D01*
X128136000Y-112975000D02*
X127443000Y-113668000D01*
X128479000Y-109564900D02*
X128869550Y-109955450D01*
X124575000Y-105870000D02*
X128916000Y-105870000D01*
X128869550Y-109955450D02*
X131223450Y-109955450D01*
X129400000Y-106354000D02*
X129400000Y-107387500D01*
X129900000Y-112975000D02*
X129914000Y-112975000D01*
X129400000Y-107387500D02*
X128897500Y-107387500D01*
X128459000Y-121288000D02*
X132015000Y-121288000D01*
X127443000Y-113668000D02*
X127443000Y-120272000D01*
X131507000Y-110239000D02*
X131507000Y-112398000D01*
X129900000Y-112975000D02*
X128136000Y-112975000D01*
X131223450Y-109955450D02*
X131507000Y-110239000D01*
X131507000Y-112398000D02*
X130930000Y-112975000D01*
%TO.N,/Project Architecture/Board/INTA*%
X117597000Y-109437000D02*
X117597000Y-108021800D01*
X118399000Y-114185700D02*
X118399000Y-110239000D01*
X122700000Y-114925000D02*
X119138300Y-114925000D01*
X116106000Y-100680000D02*
X114880000Y-100680000D01*
X117597000Y-108021800D02*
X116541000Y-106965800D01*
X116541000Y-106965800D02*
X116541000Y-101115000D01*
X119138300Y-114925000D02*
X118399000Y-114185700D01*
X118399000Y-110239000D02*
X117597000Y-109437000D01*
X116541000Y-101115000D02*
X116106000Y-100680000D01*
%TO.N,/Project Architecture/Board/GPA2*%
X119387000Y-116875000D02*
X117196000Y-114684000D01*
X116394000Y-110112000D02*
X116394000Y-108588000D01*
X122700000Y-116875000D02*
X119387000Y-116875000D01*
X116106000Y-108300000D02*
X114880000Y-108300000D01*
X116394000Y-108588000D02*
X116106000Y-108300000D01*
X117196000Y-114684000D02*
X117196000Y-110914000D01*
X117196000Y-110914000D02*
X116394000Y-110112000D01*
%TO.N,/Project Architecture/Board/GPA3*%
X122700000Y-117525000D02*
X119421100Y-117525000D01*
X116795000Y-114898900D02*
X116795000Y-111402000D01*
X119421100Y-117525000D02*
X116795000Y-114898900D01*
X116233000Y-110840000D02*
X114880000Y-110840000D01*
X116795000Y-111402000D02*
X116233000Y-110840000D01*
%TO.N,/Project Architecture/Board/GPA0*%
X117998000Y-114351800D02*
X117998000Y-110406000D01*
X117998000Y-110406000D02*
X117196000Y-109604000D01*
X116140000Y-107131900D02*
X116140000Y-103635000D01*
X115725000Y-103220000D02*
X114880000Y-103220000D01*
X122700000Y-115575000D02*
X119221200Y-115575000D01*
X119221200Y-115575000D02*
X117998000Y-114351800D01*
X117196000Y-109604000D02*
X117196000Y-108187900D01*
X116140000Y-103635000D02*
X115725000Y-103220000D01*
X117196000Y-108187900D02*
X116140000Y-107131900D01*
%TO.N,/Project Architecture/Board/GPA1*%
X119304100Y-116225000D02*
X117597000Y-114517900D01*
X116795000Y-108354000D02*
X114880000Y-106439000D01*
X117597000Y-110620000D02*
X116795000Y-109818000D01*
X117597000Y-114517900D02*
X117597000Y-110620000D01*
X116795000Y-109818000D02*
X116795000Y-108354000D01*
X122700000Y-116225000D02*
X119304100Y-116225000D01*
X114880000Y-106439000D02*
X114880000Y-105760000D01*
%TO.N,/Project Architecture/Board/GPA5*%
X119392000Y-118825000D02*
X116487000Y-115920000D01*
X116487000Y-115920000D02*
X114880000Y-115920000D01*
X122700000Y-118825000D02*
X119392000Y-118825000D01*
%TO.N,/Project Architecture/Board/GPA7*%
X122700000Y-120125000D02*
X117938000Y-120125000D01*
X116995000Y-121000000D02*
X114880000Y-121000000D01*
X117029000Y-121034000D02*
X116995000Y-121000000D01*
X117938000Y-120125000D02*
X117029000Y-121034000D01*
%TO.N,/Project Architecture/Board/GPA4*%
X115979000Y-113380000D02*
X114880000Y-113380000D01*
X116394000Y-115065000D02*
X116394000Y-113795000D01*
X116394000Y-113795000D02*
X115979000Y-113380000D01*
X122700000Y-118175000D02*
X119504000Y-118175000D01*
X119504000Y-118175000D02*
X116394000Y-115065000D01*
%TO.N,/Project Architecture/Board/LED_UTX*%
X121220000Y-94618000D02*
X120966000Y-94872000D01*
X119442000Y-94872000D02*
X118553000Y-93983000D01*
X121220000Y-93094000D02*
X121220000Y-94618000D01*
X116013000Y-93983000D02*
X115090000Y-93060000D01*
X115090000Y-93060000D02*
X114880000Y-93060000D01*
X118553000Y-93983000D02*
X116013000Y-93983000D01*
X120636000Y-103330000D02*
X119625000Y-103330000D01*
X121220000Y-102746000D02*
X120636000Y-103330000D01*
X121220000Y-102746000D02*
X121220000Y-102492000D01*
X120966000Y-94872000D02*
X119442000Y-94872000D01*
%TO.N,/Project Architecture/Board/GPA6*%
X116868000Y-118460000D02*
X114880000Y-118460000D01*
X117883000Y-119475000D02*
X116868000Y-118460000D01*
X122700000Y-119475000D02*
X117883000Y-119475000D01*
%TO.N,/Project Architecture/Board/D_P*%
X121982000Y-100206000D02*
X122490000Y-99698000D01*
X123252000Y-99444000D02*
X122998000Y-99698000D01*
X122998000Y-99698000D02*
X122490000Y-99698000D01*
X121982000Y-101603000D02*
X121982000Y-100206000D01*
X122414000Y-102060000D02*
X122414000Y-102035000D01*
X122922000Y-97308500D02*
X122922000Y-97971000D01*
X122922000Y-97971000D02*
X123061500Y-98110500D01*
X123252000Y-98301000D02*
X123061500Y-98110500D01*
X124575000Y-102060000D02*
X122414000Y-102060000D01*
X123252000Y-99444000D02*
X123252000Y-98301000D01*
X122414000Y-102035000D02*
X121982000Y-101603000D01*
%TO.N,Net-(U2-~{RST})*%
X119625000Y-104600000D02*
X117587500Y-104600000D01*
X117587500Y-104600000D02*
X117500000Y-104687500D01*
%TO.N,Net-(U1-~{RESET})*%
X122700000Y-113625000D02*
X120837500Y-113625000D01*
X120837500Y-113625000D02*
X120812500Y-113600000D01*
%TO.N,/Project Architecture/Board/D_N*%
X124575000Y-103330000D02*
X125843000Y-103330000D01*
X125843000Y-103330000D02*
X126173000Y-103000000D01*
X126173000Y-102492000D02*
X127443000Y-101222000D01*
X127443000Y-100460000D02*
X126808000Y-99825000D01*
X126332000Y-99825000D02*
X124522000Y-98015000D01*
X124522000Y-98015000D02*
X124522000Y-97308500D01*
X126808000Y-99825000D02*
X126332000Y-99825000D01*
X126173000Y-103000000D02*
X126173000Y-102492000D01*
X127443000Y-101222000D02*
X127443000Y-100460000D01*
%TD*%
%TA.AperFunction,Conductor*%
%TO.N,VDD*%
G36*
X117600378Y-87087000D02*
G01*
X119953000Y-87087000D01*
X120020039Y-87106685D01*
X120065794Y-87159489D01*
X120077000Y-87211000D01*
X120077000Y-87337000D01*
X120203000Y-87337000D01*
X120270039Y-87356685D01*
X120315794Y-87409489D01*
X120327000Y-87461000D01*
X120327000Y-88324499D01*
X120363640Y-88324499D01*
X120363654Y-88324498D01*
X120464652Y-88314180D01*
X120628300Y-88259953D01*
X120628311Y-88259948D01*
X120775034Y-88169447D01*
X120775038Y-88169444D01*
X120896944Y-88047538D01*
X120896947Y-88047534D01*
X120987448Y-87900811D01*
X120987453Y-87900800D01*
X121037794Y-87748882D01*
X121077566Y-87691437D01*
X121142082Y-87664614D01*
X121210858Y-87676929D01*
X121262058Y-87724472D01*
X121279500Y-87787886D01*
X121279500Y-88323993D01*
X121279500Y-88323995D01*
X121279499Y-88323995D01*
X121306418Y-88459322D01*
X121306421Y-88459332D01*
X121359221Y-88586804D01*
X121359228Y-88586817D01*
X121435885Y-88701541D01*
X121435888Y-88701545D01*
X121533454Y-88799111D01*
X121533458Y-88799114D01*
X121648182Y-88875771D01*
X121648195Y-88875778D01*
X121733283Y-88911022D01*
X121775672Y-88928580D01*
X121775676Y-88928580D01*
X121775677Y-88928581D01*
X121911004Y-88955500D01*
X121911007Y-88955500D01*
X122048995Y-88955500D01*
X122140041Y-88937389D01*
X122184328Y-88928580D01*
X122311811Y-88875775D01*
X122426542Y-88799114D01*
X122426546Y-88799109D01*
X122431252Y-88795249D01*
X122432596Y-88796886D01*
X122449725Y-88787528D01*
X122473810Y-88771139D01*
X122480021Y-88770975D01*
X122485473Y-88767997D01*
X122514529Y-88770067D01*
X122543656Y-88769301D01*
X122548969Y-88772521D01*
X122555166Y-88772963D01*
X122578493Y-88790416D01*
X122603407Y-88805517D01*
X122608314Y-88812728D01*
X122611110Y-88814820D01*
X122623262Y-88834695D01*
X122623263Y-88834696D01*
X122653633Y-88896819D01*
X122665392Y-88965692D01*
X122658914Y-88990588D01*
X122659009Y-88990614D01*
X122656906Y-88998462D01*
X122656905Y-88998464D01*
X122624500Y-89119399D01*
X122624500Y-89244601D01*
X122648500Y-89334167D01*
X122648832Y-89335406D01*
X122647169Y-89405256D01*
X122608007Y-89463118D01*
X122543779Y-89490623D01*
X122529057Y-89491500D01*
X120672438Y-89491500D01*
X120596010Y-89511978D01*
X120527489Y-89551540D01*
X120527486Y-89551542D01*
X119836539Y-90242489D01*
X119796979Y-90311011D01*
X119796979Y-90311012D01*
X119776500Y-90387438D01*
X119776500Y-90466562D01*
X119783975Y-90494459D01*
X119787274Y-90506768D01*
X119791500Y-90538864D01*
X119791500Y-90706522D01*
X119771815Y-90773561D01*
X119719011Y-90819316D01*
X119708455Y-90823563D01*
X119647524Y-90844883D01*
X119647523Y-90844884D01*
X119541289Y-90923288D01*
X119541288Y-90923289D01*
X119462884Y-91029523D01*
X119419274Y-91154150D01*
X119416500Y-91183739D01*
X119416500Y-91789260D01*
X119419274Y-91818849D01*
X119462884Y-91943476D01*
X119541288Y-92049710D01*
X119541289Y-92049711D01*
X119647523Y-92128115D01*
X119647524Y-92128115D01*
X119647525Y-92128116D01*
X119772151Y-92171725D01*
X119772150Y-92171725D01*
X119801740Y-92174500D01*
X119801744Y-92174500D01*
X120382260Y-92174500D01*
X120411849Y-92171725D01*
X120419428Y-92169073D01*
X120536475Y-92128116D01*
X120642711Y-92049711D01*
X120721116Y-91943475D01*
X120764725Y-91818849D01*
X120766272Y-91802353D01*
X120767500Y-91789260D01*
X120767500Y-91183739D01*
X120764725Y-91154150D01*
X120730378Y-91055994D01*
X120721116Y-91029525D01*
X120719355Y-91027139D01*
X120642711Y-90923289D01*
X120642710Y-90923288D01*
X120536476Y-90844884D01*
X120536475Y-90844883D01*
X120475545Y-90823563D01*
X120456557Y-90809944D01*
X120435297Y-90800235D01*
X120428693Y-90789958D01*
X120418769Y-90782841D01*
X120410157Y-90761117D01*
X120397523Y-90741457D01*
X120394767Y-90722290D01*
X120393022Y-90717888D01*
X120392500Y-90706522D01*
X120392500Y-90587833D01*
X120412185Y-90520794D01*
X120428819Y-90500152D01*
X120800152Y-90128819D01*
X120861475Y-90095334D01*
X120887833Y-90092500D01*
X122227167Y-90092500D01*
X122294206Y-90112185D01*
X122339961Y-90164989D01*
X122349905Y-90234147D01*
X122320880Y-90297703D01*
X122314848Y-90304181D01*
X122249541Y-90369487D01*
X122249535Y-90369495D01*
X122209982Y-90438004D01*
X122209979Y-90438009D01*
X122197519Y-90484511D01*
X122194854Y-90494459D01*
X122189500Y-90514439D01*
X122189500Y-90554628D01*
X122176901Y-90609087D01*
X122168861Y-90625532D01*
X122131426Y-90702108D01*
X122121500Y-90770239D01*
X122121500Y-91861760D01*
X122131426Y-91929891D01*
X122182803Y-92034985D01*
X122265515Y-92117697D01*
X122265516Y-92117697D01*
X122265517Y-92117698D01*
X122329960Y-92149202D01*
X122381542Y-92196328D01*
X122399500Y-92260602D01*
X122399500Y-94841261D01*
X122379815Y-94908300D01*
X122375271Y-94914894D01*
X122371289Y-94920288D01*
X122371289Y-94920289D01*
X122361101Y-94934093D01*
X122292883Y-95026525D01*
X122249274Y-95151150D01*
X122246500Y-95180739D01*
X122246500Y-95786260D01*
X122249274Y-95815849D01*
X122292884Y-95940476D01*
X122371288Y-96046710D01*
X122371289Y-96046711D01*
X122477523Y-96125115D01*
X122477524Y-96125115D01*
X122477525Y-96125116D01*
X122602151Y-96168725D01*
X122602150Y-96168725D01*
X122631740Y-96171500D01*
X122631744Y-96171500D01*
X123212260Y-96171500D01*
X123241849Y-96168725D01*
X123253597Y-96164614D01*
X123366475Y-96125116D01*
X123472711Y-96046711D01*
X123551116Y-95940475D01*
X123594725Y-95815849D01*
X123595312Y-95809594D01*
X123597500Y-95786260D01*
X123597500Y-95217500D01*
X123600050Y-95208814D01*
X123598762Y-95199853D01*
X123609740Y-95175812D01*
X123617185Y-95150461D01*
X123624025Y-95144533D01*
X123627787Y-95136297D01*
X123650021Y-95122007D01*
X123669989Y-95104706D01*
X123680503Y-95102418D01*
X123686565Y-95098523D01*
X123721500Y-95093500D01*
X123722500Y-95093500D01*
X123789539Y-95113185D01*
X123835294Y-95165989D01*
X123846500Y-95217500D01*
X123846500Y-95786260D01*
X123849274Y-95815849D01*
X123892884Y-95940476D01*
X123971288Y-96046710D01*
X123971289Y-96046711D01*
X124077523Y-96125115D01*
X124077524Y-96125115D01*
X124077525Y-96125116D01*
X124202151Y-96168725D01*
X124202150Y-96168725D01*
X124231740Y-96171500D01*
X124231744Y-96171500D01*
X124812260Y-96171500D01*
X124841849Y-96168725D01*
X124853597Y-96164614D01*
X124966475Y-96125116D01*
X125072711Y-96046711D01*
X125151116Y-95940475D01*
X125194725Y-95815849D01*
X125195312Y-95809594D01*
X125197500Y-95786260D01*
X125197500Y-95180739D01*
X125194725Y-95151150D01*
X125164526Y-95064849D01*
X125151116Y-95026525D01*
X125145751Y-95019256D01*
X125072711Y-94920289D01*
X125072710Y-94920288D01*
X124966476Y-94841884D01*
X124966475Y-94841883D01*
X124905545Y-94820563D01*
X124848769Y-94779841D01*
X124823022Y-94714888D01*
X124822500Y-94703522D01*
X124822500Y-94428399D01*
X125189500Y-94428399D01*
X125189500Y-94553601D01*
X125221905Y-94674536D01*
X125284505Y-94782964D01*
X125373036Y-94871495D01*
X125481464Y-94934095D01*
X125602399Y-94966500D01*
X125602401Y-94966500D01*
X125727599Y-94966500D01*
X125727601Y-94966500D01*
X125848536Y-94934095D01*
X125910501Y-94898319D01*
X125978400Y-94881847D01*
X126044427Y-94904700D01*
X126087618Y-94959621D01*
X126096500Y-95005707D01*
X126096500Y-95035260D01*
X126099274Y-95064849D01*
X126142884Y-95189476D01*
X126219716Y-95293580D01*
X126221289Y-95295711D01*
X126327525Y-95374116D01*
X126370061Y-95389000D01*
X126426834Y-95429720D01*
X126452581Y-95494673D01*
X126439125Y-95563234D01*
X126390738Y-95613637D01*
X126362218Y-95624622D01*
X126362274Y-95624782D01*
X126357126Y-95626583D01*
X126355572Y-95627182D01*
X126355154Y-95627273D01*
X126230523Y-95670884D01*
X126124289Y-95749288D01*
X126124288Y-95749289D01*
X126045884Y-95855523D01*
X126002274Y-95980150D01*
X125999500Y-96009739D01*
X125999500Y-96590260D01*
X126002274Y-96619849D01*
X126045884Y-96744476D01*
X126124288Y-96850710D01*
X126124289Y-96850711D01*
X126230525Y-96929116D01*
X126331606Y-96964486D01*
X126388382Y-97005207D01*
X126414129Y-97070160D01*
X126400673Y-97138722D01*
X126378333Y-97169208D01*
X126300503Y-97247037D01*
X126237905Y-97355463D01*
X126237905Y-97355464D01*
X126205500Y-97476399D01*
X126205500Y-97601601D01*
X126237905Y-97722536D01*
X126300505Y-97830964D01*
X126389036Y-97919495D01*
X126497464Y-97982095D01*
X126618399Y-98014500D01*
X126618401Y-98014500D01*
X126743599Y-98014500D01*
X126743601Y-98014500D01*
X126864536Y-97982095D01*
X126972964Y-97919495D01*
X127061495Y-97830964D01*
X127124095Y-97722536D01*
X127156500Y-97601601D01*
X127156500Y-97476399D01*
X127124095Y-97355464D01*
X127061495Y-97247036D01*
X127061494Y-97247035D01*
X127057431Y-97239997D01*
X127059391Y-97238864D01*
X127055380Y-97228487D01*
X127043023Y-97209259D01*
X127040106Y-97188975D01*
X127038430Y-97184638D01*
X127038000Y-97174324D01*
X127038000Y-97089348D01*
X127057685Y-97022309D01*
X127110489Y-96976554D01*
X127121045Y-96972307D01*
X127162356Y-96957850D01*
X127244475Y-96929116D01*
X127350711Y-96850711D01*
X127429116Y-96744475D01*
X127472725Y-96619849D01*
X127473636Y-96610130D01*
X127475500Y-96590260D01*
X127475500Y-96009739D01*
X127472725Y-95980150D01*
X127429115Y-95855523D01*
X127350711Y-95749289D01*
X127350710Y-95749288D01*
X127244475Y-95670884D01*
X127153404Y-95639016D01*
X127096628Y-95598294D01*
X127070881Y-95533341D01*
X127084338Y-95464780D01*
X127132725Y-95414377D01*
X127153404Y-95404934D01*
X127176597Y-95396818D01*
X127241475Y-95374116D01*
X127347711Y-95295711D01*
X127426116Y-95189475D01*
X127469725Y-95064849D01*
X127472500Y-95035256D01*
X127472500Y-94454744D01*
X127471960Y-94448989D01*
X127469725Y-94425150D01*
X127428544Y-94307464D01*
X127426116Y-94300525D01*
X127425434Y-94299601D01*
X127347711Y-94194289D01*
X127347710Y-94194288D01*
X127241476Y-94115884D01*
X127116848Y-94072274D01*
X127116849Y-94072274D01*
X127087260Y-94069500D01*
X127087256Y-94069500D01*
X126481744Y-94069500D01*
X126481740Y-94069500D01*
X126452150Y-94072274D01*
X126327525Y-94115883D01*
X126247058Y-94175271D01*
X126226643Y-94182727D01*
X126208360Y-94194477D01*
X126185456Y-94197770D01*
X126181429Y-94199241D01*
X126173425Y-94199500D01*
X126097321Y-94199500D01*
X126030282Y-94179815D01*
X126009640Y-94163181D01*
X125956965Y-94110506D01*
X125956964Y-94110505D01*
X125848536Y-94047905D01*
X125848537Y-94047905D01*
X125808224Y-94037103D01*
X125727601Y-94015500D01*
X125602399Y-94015500D01*
X125521775Y-94037103D01*
X125481463Y-94047905D01*
X125373037Y-94110504D01*
X125373034Y-94110506D01*
X125284506Y-94199034D01*
X125284504Y-94199037D01*
X125221905Y-94307463D01*
X125213726Y-94337988D01*
X125189500Y-94428399D01*
X124822500Y-94428399D01*
X124822500Y-92221497D01*
X124842185Y-92154458D01*
X124874450Y-92120577D01*
X124878477Y-92117700D01*
X124878483Y-92117698D01*
X124961198Y-92034983D01*
X125012573Y-91929893D01*
X125022500Y-91861760D01*
X125022500Y-91243500D01*
X125042185Y-91176461D01*
X125094989Y-91130706D01*
X125146500Y-91119500D01*
X125439560Y-91119500D01*
X125439562Y-91119500D01*
X125515989Y-91099021D01*
X125584511Y-91059460D01*
X125640460Y-91003511D01*
X127037819Y-89606152D01*
X127099142Y-89572667D01*
X127168834Y-89577651D01*
X127224767Y-89619523D01*
X127249184Y-89684987D01*
X127249500Y-89693833D01*
X127249500Y-93502062D01*
X127256897Y-93529666D01*
X127269979Y-93578490D01*
X127269980Y-93578491D01*
X127290629Y-93614256D01*
X127300084Y-93630633D01*
X127309539Y-93647010D01*
X127911537Y-94249008D01*
X127945022Y-94310331D01*
X127940898Y-94377642D01*
X127924274Y-94425150D01*
X127924274Y-94425151D01*
X127921500Y-94454739D01*
X127921500Y-95035260D01*
X127924274Y-95064849D01*
X127967884Y-95189476D01*
X128044716Y-95293580D01*
X128046289Y-95295711D01*
X128152525Y-95374116D01*
X128173850Y-95381578D01*
X128179225Y-95383459D01*
X128236001Y-95424181D01*
X128261748Y-95489133D01*
X128248292Y-95557695D01*
X128199904Y-95608098D01*
X128138270Y-95624500D01*
X128109740Y-95624500D01*
X128080150Y-95627274D01*
X127955523Y-95670884D01*
X127849289Y-95749288D01*
X127849288Y-95749289D01*
X127770884Y-95855523D01*
X127727274Y-95980150D01*
X127724500Y-96009739D01*
X127724500Y-96590260D01*
X127727274Y-96619849D01*
X127770884Y-96744476D01*
X127849288Y-96850710D01*
X127849289Y-96850711D01*
X127958133Y-96931041D01*
X128000384Y-96986688D01*
X128008500Y-97030811D01*
X128008500Y-97668310D01*
X128027740Y-97740117D01*
X128039200Y-97782885D01*
X128039200Y-97782886D01*
X128050649Y-97802715D01*
X128098511Y-97885614D01*
X128098513Y-97885616D01*
X128129468Y-97916571D01*
X128162953Y-97977894D01*
X128164726Y-98020436D01*
X128154901Y-98095067D01*
X128154900Y-98095086D01*
X128154900Y-99420527D01*
X128169713Y-99533035D01*
X128169713Y-99533036D01*
X128226391Y-99669870D01*
X128227702Y-99673033D01*
X128319949Y-99793251D01*
X128440167Y-99885498D01*
X128580164Y-99943487D01*
X128692680Y-99958300D01*
X128692687Y-99958300D01*
X129518113Y-99958300D01*
X129518120Y-99958300D01*
X129630636Y-99943487D01*
X129770633Y-99885498D01*
X129890851Y-99793251D01*
X129983098Y-99673033D01*
X130041087Y-99533036D01*
X130055900Y-99420520D01*
X130055900Y-98095080D01*
X130041087Y-97982564D01*
X129983098Y-97842567D01*
X129890851Y-97722349D01*
X129770633Y-97630102D01*
X129770629Y-97630100D01*
X129689511Y-97596500D01*
X129630636Y-97572113D01*
X129616571Y-97570261D01*
X129518127Y-97557300D01*
X129518120Y-97557300D01*
X129095766Y-97557300D01*
X129066328Y-97548655D01*
X129036338Y-97542132D01*
X129031321Y-97538376D01*
X129028727Y-97537615D01*
X129008084Y-97520981D01*
X128945818Y-97458714D01*
X128912334Y-97397390D01*
X128909500Y-97371033D01*
X128909500Y-97035530D01*
X128929185Y-96968491D01*
X128963639Y-96936856D01*
X128961999Y-96934634D01*
X129065009Y-96858609D01*
X129075711Y-96850711D01*
X129112498Y-96800866D01*
X129168146Y-96758615D01*
X129212268Y-96750500D01*
X129503308Y-96750500D01*
X129503309Y-96750500D01*
X129593673Y-96726286D01*
X129617887Y-96719799D01*
X129720614Y-96660489D01*
X130216489Y-96164614D01*
X130275039Y-96106064D01*
X130275046Y-96106055D01*
X130526286Y-95854817D01*
X130587609Y-95821334D01*
X130613966Y-95818500D01*
X130712486Y-95818500D01*
X130899118Y-95788940D01*
X130967257Y-95766800D01*
X131078832Y-95730547D01*
X131247199Y-95644760D01*
X131400073Y-95533690D01*
X131533690Y-95400073D01*
X131644760Y-95247199D01*
X131730547Y-95078832D01*
X131788940Y-94899118D01*
X131802261Y-94815014D01*
X131818500Y-94712486D01*
X131818500Y-94557500D01*
X131838185Y-94490461D01*
X131890989Y-94444706D01*
X131942500Y-94433500D01*
X133090308Y-94433500D01*
X133090309Y-94433500D01*
X133180673Y-94409286D01*
X133204887Y-94402799D01*
X133307614Y-94343489D01*
X133874089Y-93777014D01*
X134026489Y-93624614D01*
X134085799Y-93521887D01*
X134087023Y-93517321D01*
X134104688Y-93451391D01*
X134104688Y-93451390D01*
X134116500Y-93407309D01*
X134116500Y-93063564D01*
X134136185Y-92996525D01*
X134154367Y-92976104D01*
X134153548Y-92975285D01*
X134304174Y-92824658D01*
X134304175Y-92824657D01*
X134304177Y-92824655D01*
X134419141Y-92652598D01*
X134498330Y-92461420D01*
X134538700Y-92258465D01*
X134538700Y-92051535D01*
X134498330Y-91848580D01*
X134419141Y-91657402D01*
X134304177Y-91485345D01*
X134304175Y-91485342D01*
X134157857Y-91339024D01*
X134057770Y-91272149D01*
X133985798Y-91224059D01*
X133985793Y-91224057D01*
X133902740Y-91189655D01*
X133821090Y-91155834D01*
X133766688Y-91111994D01*
X133744623Y-91045700D01*
X133761902Y-90978001D01*
X133813039Y-90930390D01*
X133830226Y-90923343D01*
X134006417Y-90866095D01*
X134195757Y-90769620D01*
X134367659Y-90644727D01*
X134367664Y-90644723D01*
X134517923Y-90494464D01*
X134517927Y-90494459D01*
X134642820Y-90322557D01*
X134739295Y-90133217D01*
X134804957Y-89931129D01*
X134804957Y-89931126D01*
X134815431Y-89865000D01*
X133921212Y-89865000D01*
X133954125Y-89807993D01*
X133988200Y-89680826D01*
X133988200Y-89549174D01*
X133954125Y-89422007D01*
X133921212Y-89365000D01*
X134815431Y-89365000D01*
X134804957Y-89298873D01*
X134804957Y-89298870D01*
X134739295Y-89096782D01*
X134642820Y-88907442D01*
X134517927Y-88735540D01*
X134517923Y-88735535D01*
X134367664Y-88585276D01*
X134367659Y-88585272D01*
X134195757Y-88460379D01*
X134002079Y-88361694D01*
X134002596Y-88360678D01*
X133952392Y-88320221D01*
X133930327Y-88253927D01*
X133947606Y-88186228D01*
X133998742Y-88138617D01*
X134054248Y-88125500D01*
X134357950Y-88125500D01*
X134357951Y-88125499D01*
X134386803Y-88119760D01*
X134416422Y-88113869D01*
X134416422Y-88113868D01*
X134416431Y-88113867D01*
X134416437Y-88113862D01*
X134417179Y-88113556D01*
X134418964Y-88113363D01*
X134428410Y-88111485D01*
X134428577Y-88112328D01*
X134486647Y-88106078D01*
X134549130Y-88137345D01*
X134552327Y-88140430D01*
X135388981Y-88977084D01*
X135422466Y-89038407D01*
X135425300Y-89064765D01*
X135425300Y-93440234D01*
X135405615Y-93507273D01*
X135388981Y-93527915D01*
X134191591Y-94725304D01*
X134130268Y-94758789D01*
X134065592Y-94755554D01*
X133947120Y-94717060D01*
X133760486Y-94687500D01*
X133760481Y-94687500D01*
X133571519Y-94687500D01*
X133571514Y-94687500D01*
X133384881Y-94717059D01*
X133205163Y-94775454D01*
X133036800Y-94861240D01*
X132972029Y-94908300D01*
X132883927Y-94972310D01*
X132883925Y-94972312D01*
X132883924Y-94972312D01*
X132750312Y-95105924D01*
X132750312Y-95105925D01*
X132750310Y-95105927D01*
X132716821Y-95152020D01*
X132639240Y-95258800D01*
X132553454Y-95427163D01*
X132495059Y-95606881D01*
X132465500Y-95793513D01*
X132465500Y-95982486D01*
X132495060Y-96169119D01*
X132495060Y-96169122D01*
X132533554Y-96287592D01*
X132535549Y-96357433D01*
X132503304Y-96413591D01*
X131539513Y-97377383D01*
X131539509Y-97377389D01*
X131472039Y-97494250D01*
X131467983Y-97491908D01*
X131447809Y-97525028D01*
X131384972Y-97555577D01*
X131364371Y-97557300D01*
X130992672Y-97557300D01*
X130880164Y-97572113D01*
X130880163Y-97572113D01*
X130740170Y-97630100D01*
X130740167Y-97630101D01*
X130740167Y-97630102D01*
X130619949Y-97722349D01*
X130528233Y-97841876D01*
X130527700Y-97842570D01*
X130469713Y-97982563D01*
X130469713Y-97982564D01*
X130454900Y-98095072D01*
X130454900Y-99420527D01*
X130469713Y-99533035D01*
X130469713Y-99533036D01*
X130526391Y-99669870D01*
X130527702Y-99673033D01*
X130619949Y-99793251D01*
X130740167Y-99885498D01*
X130880164Y-99943487D01*
X130992680Y-99958300D01*
X130992687Y-99958300D01*
X131818113Y-99958300D01*
X131818120Y-99958300D01*
X131930636Y-99943487D01*
X132031870Y-99901553D01*
X132047219Y-99896343D01*
X132073886Y-99889199D01*
X132176613Y-99829889D01*
X132260489Y-99746013D01*
X132260492Y-99746006D01*
X132262267Y-99743695D01*
X132264627Y-99741003D01*
X132268493Y-99735966D01*
X132268493Y-99735965D01*
X132268495Y-99735964D01*
X132331095Y-99627536D01*
X132363500Y-99506601D01*
X132363500Y-99381399D01*
X132360123Y-99368797D01*
X132355900Y-99336710D01*
X132355900Y-98281289D01*
X132355961Y-98277389D01*
X132356412Y-98263053D01*
X132363500Y-98236601D01*
X132363500Y-98111399D01*
X132359125Y-98095072D01*
X132754900Y-98095072D01*
X132754900Y-99420527D01*
X132769713Y-99533035D01*
X132769713Y-99533036D01*
X132826391Y-99669870D01*
X132827702Y-99673033D01*
X132919949Y-99793251D01*
X133040167Y-99885498D01*
X133180164Y-99943487D01*
X133292680Y-99958300D01*
X133292687Y-99958300D01*
X134118113Y-99958300D01*
X134118120Y-99958300D01*
X134230636Y-99943487D01*
X134370633Y-99885498D01*
X134490851Y-99793251D01*
X134583098Y-99673033D01*
X134641087Y-99533036D01*
X134655900Y-99420520D01*
X134655900Y-99119721D01*
X134675585Y-99052682D01*
X134728389Y-99006927D01*
X134797547Y-98996983D01*
X134861103Y-99026008D01*
X134867581Y-99032040D01*
X134898036Y-99062495D01*
X135006464Y-99125095D01*
X135127399Y-99157500D01*
X135127401Y-99157500D01*
X135252599Y-99157500D01*
X135252601Y-99157500D01*
X135373536Y-99125095D01*
X135481964Y-99062495D01*
X135570495Y-98973964D01*
X135633095Y-98865536D01*
X135665500Y-98744601D01*
X135665500Y-98619399D01*
X135633095Y-98498464D01*
X135570495Y-98390036D01*
X135481964Y-98301505D01*
X135373536Y-98238905D01*
X135373537Y-98238905D01*
X135317769Y-98223962D01*
X135252601Y-98206500D01*
X135127399Y-98206500D01*
X135062231Y-98223962D01*
X135006463Y-98238905D01*
X134898037Y-98301504D01*
X134898034Y-98301506D01*
X134867581Y-98331960D01*
X134806258Y-98365445D01*
X134736566Y-98360461D01*
X134680633Y-98318589D01*
X134656216Y-98253125D01*
X134655900Y-98244279D01*
X134655900Y-98095086D01*
X134655899Y-98095072D01*
X134651045Y-98058203D01*
X134641087Y-97982564D01*
X134583098Y-97842567D01*
X134490851Y-97722349D01*
X134370633Y-97630102D01*
X134370629Y-97630100D01*
X134289511Y-97596500D01*
X134230636Y-97572113D01*
X134216571Y-97570261D01*
X134118127Y-97557300D01*
X134118120Y-97557300D01*
X133292680Y-97557300D01*
X133292672Y-97557300D01*
X133180164Y-97572113D01*
X133180163Y-97572113D01*
X133040170Y-97630100D01*
X133040167Y-97630101D01*
X133040167Y-97630102D01*
X132919949Y-97722349D01*
X132828233Y-97841876D01*
X132827700Y-97842570D01*
X132769713Y-97982563D01*
X132769713Y-97982564D01*
X132754900Y-98095072D01*
X132359125Y-98095072D01*
X132354887Y-98079257D01*
X132351720Y-98063332D01*
X132351559Y-98062108D01*
X132350500Y-98045937D01*
X132350500Y-97891964D01*
X132370185Y-97824925D01*
X132386815Y-97804287D01*
X133140407Y-97050694D01*
X133201730Y-97017210D01*
X133266407Y-97020445D01*
X133384881Y-97058940D01*
X133571514Y-97088500D01*
X133571519Y-97088500D01*
X133760486Y-97088500D01*
X133947118Y-97058940D01*
X133972493Y-97050695D01*
X134126832Y-97000547D01*
X134295199Y-96914760D01*
X134448073Y-96803690D01*
X134581690Y-96670073D01*
X134692760Y-96517199D01*
X134778547Y-96348832D01*
X134836940Y-96169118D01*
X134840843Y-96144477D01*
X134866500Y-95982486D01*
X134866500Y-95793513D01*
X134836940Y-95606881D01*
X134798445Y-95488407D01*
X134796450Y-95418565D01*
X134828695Y-95362407D01*
X135503602Y-94687500D01*
X136236289Y-93954814D01*
X136289009Y-93863500D01*
X136295599Y-93852086D01*
X136326300Y-93737509D01*
X136326300Y-92414633D01*
X136345985Y-92347594D01*
X136398789Y-92301839D01*
X136467947Y-92291895D01*
X136531503Y-92320920D01*
X136537981Y-92326952D01*
X136742924Y-92531895D01*
X136776409Y-92593218D01*
X136771425Y-92662910D01*
X136769804Y-92667029D01*
X136719870Y-92787579D01*
X136719868Y-92787587D01*
X136679500Y-92990530D01*
X136679500Y-93197469D01*
X136719868Y-93400412D01*
X136719870Y-93400420D01*
X136770183Y-93521887D01*
X136799059Y-93591598D01*
X136850915Y-93669207D01*
X136914024Y-93763657D01*
X137060342Y-93909975D01*
X137060345Y-93909977D01*
X137232402Y-94024941D01*
X137423580Y-94104130D01*
X137626530Y-94144499D01*
X137626534Y-94144500D01*
X137626535Y-94144500D01*
X137833466Y-94144500D01*
X137833467Y-94144499D01*
X138036420Y-94104130D01*
X138227598Y-94024941D01*
X138399655Y-93909977D01*
X138545977Y-93763655D01*
X138622397Y-93649282D01*
X138676009Y-93604477D01*
X138745334Y-93595770D01*
X138808362Y-93625924D01*
X138845082Y-93685367D01*
X138849500Y-93718173D01*
X138849500Y-95009826D01*
X138829815Y-95076865D01*
X138777011Y-95122620D01*
X138707853Y-95132564D01*
X138644297Y-95103539D01*
X138622398Y-95078717D01*
X138545977Y-94964344D01*
X138399657Y-94818024D01*
X138248552Y-94717060D01*
X138227598Y-94703059D01*
X138190035Y-94687500D01*
X138036420Y-94623870D01*
X138036412Y-94623868D01*
X137833469Y-94583500D01*
X137833465Y-94583500D01*
X137626535Y-94583500D01*
X137626530Y-94583500D01*
X137423587Y-94623868D01*
X137423579Y-94623870D01*
X137232403Y-94703058D01*
X137060342Y-94818024D01*
X136914024Y-94964342D01*
X136799058Y-95136403D01*
X136719870Y-95327579D01*
X136719868Y-95327587D01*
X136679501Y-95530526D01*
X136679500Y-95530534D01*
X136679500Y-95737469D01*
X136719868Y-95940412D01*
X136719870Y-95940420D01*
X136796373Y-96125115D01*
X136799059Y-96131598D01*
X136837603Y-96189283D01*
X136914024Y-96303657D01*
X137060342Y-96449975D01*
X137232405Y-96564943D01*
X137301262Y-96593464D01*
X137397108Y-96633164D01*
X137451511Y-96677005D01*
X137473576Y-96743299D01*
X137456297Y-96810998D01*
X137405160Y-96858609D01*
X137387974Y-96865656D01*
X137211781Y-96922905D01*
X137022442Y-97019379D01*
X136850540Y-97144272D01*
X136850535Y-97144276D01*
X136700276Y-97294535D01*
X136700272Y-97294540D01*
X136575379Y-97466442D01*
X136478904Y-97655782D01*
X136413242Y-97857870D01*
X136413242Y-97857873D01*
X136402769Y-97924000D01*
X137296988Y-97924000D01*
X137264075Y-97981007D01*
X137230000Y-98108174D01*
X137230000Y-98239826D01*
X137264075Y-98366993D01*
X137296988Y-98424000D01*
X136402769Y-98424000D01*
X136413242Y-98490126D01*
X136413242Y-98490129D01*
X136478904Y-98692217D01*
X136575379Y-98881557D01*
X136700272Y-99053459D01*
X136700276Y-99053464D01*
X136850535Y-99203723D01*
X136850540Y-99203727D01*
X137022442Y-99328620D01*
X137211782Y-99425095D01*
X137387973Y-99482343D01*
X137445648Y-99521780D01*
X137472847Y-99586139D01*
X137460932Y-99654985D01*
X137413688Y-99706461D01*
X137397108Y-99714835D01*
X137232403Y-99783057D01*
X137060342Y-99898024D01*
X136914024Y-100044342D01*
X136799058Y-100216403D01*
X136719870Y-100407579D01*
X136719868Y-100407587D01*
X136679500Y-100610530D01*
X136679500Y-100817469D01*
X136719868Y-101020412D01*
X136719870Y-101020420D01*
X136795560Y-101203152D01*
X136799059Y-101211598D01*
X136810818Y-101229196D01*
X136914024Y-101383657D01*
X137060342Y-101529975D01*
X137060345Y-101529977D01*
X137232402Y-101644941D01*
X137423580Y-101724130D01*
X137601398Y-101759500D01*
X137626530Y-101764499D01*
X137626534Y-101764500D01*
X137626535Y-101764500D01*
X137833466Y-101764500D01*
X137833467Y-101764499D01*
X138036420Y-101724130D01*
X138227598Y-101644941D01*
X138399655Y-101529977D01*
X138545977Y-101383655D01*
X138622397Y-101269282D01*
X138676009Y-101224477D01*
X138745334Y-101215770D01*
X138808362Y-101245924D01*
X138845082Y-101305367D01*
X138849500Y-101338173D01*
X138849500Y-102629826D01*
X138829815Y-102696865D01*
X138777011Y-102742620D01*
X138707853Y-102752564D01*
X138644297Y-102723539D01*
X138622398Y-102698717D01*
X138545977Y-102584344D01*
X138399657Y-102438024D01*
X138267782Y-102349909D01*
X138227598Y-102323059D01*
X138222943Y-102321131D01*
X138036420Y-102243870D01*
X138036412Y-102243868D01*
X137833469Y-102203500D01*
X137833465Y-102203500D01*
X137626535Y-102203500D01*
X137626530Y-102203500D01*
X137423587Y-102243868D01*
X137423579Y-102243870D01*
X137232403Y-102323058D01*
X137060342Y-102438024D01*
X136914024Y-102584342D01*
X136799058Y-102756403D01*
X136719870Y-102947579D01*
X136719868Y-102947587D01*
X136679500Y-103150530D01*
X136679500Y-103357469D01*
X136719868Y-103560412D01*
X136719870Y-103560420D01*
X136788281Y-103725579D01*
X136799059Y-103751598D01*
X136821995Y-103785924D01*
X136914024Y-103923657D01*
X137060342Y-104069975D01*
X137060345Y-104069977D01*
X137232402Y-104184941D01*
X137423580Y-104264130D01*
X137557027Y-104290674D01*
X137626530Y-104304499D01*
X137626534Y-104304500D01*
X137626535Y-104304500D01*
X137833466Y-104304500D01*
X137833467Y-104304499D01*
X138036420Y-104264130D01*
X138227598Y-104184941D01*
X138399655Y-104069977D01*
X138545977Y-103923655D01*
X138622397Y-103809282D01*
X138676009Y-103764477D01*
X138745334Y-103755770D01*
X138808362Y-103785924D01*
X138845082Y-103845367D01*
X138849500Y-103878173D01*
X138849500Y-105169826D01*
X138829815Y-105236865D01*
X138777011Y-105282620D01*
X138707853Y-105292564D01*
X138644297Y-105263539D01*
X138622398Y-105238717D01*
X138545977Y-105124344D01*
X138399657Y-104978024D01*
X138283633Y-104900500D01*
X138227598Y-104863059D01*
X138036420Y-104783870D01*
X138036412Y-104783868D01*
X137833469Y-104743500D01*
X137833465Y-104743500D01*
X137626535Y-104743500D01*
X137626530Y-104743500D01*
X137423587Y-104783868D01*
X137423579Y-104783870D01*
X137232403Y-104863058D01*
X137060342Y-104978024D01*
X136914024Y-105124342D01*
X136799058Y-105296403D01*
X136719870Y-105487579D01*
X136719868Y-105487587D01*
X136679500Y-105690530D01*
X136679500Y-105897469D01*
X136719868Y-106100412D01*
X136719870Y-106100420D01*
X136786180Y-106260507D01*
X136799059Y-106291598D01*
X136837603Y-106349283D01*
X136914024Y-106463657D01*
X137060342Y-106609975D01*
X137060345Y-106609977D01*
X137232402Y-106724941D01*
X137423580Y-106804130D01*
X137601398Y-106839500D01*
X137626530Y-106844499D01*
X137626534Y-106844500D01*
X137626535Y-106844500D01*
X137833466Y-106844500D01*
X137833467Y-106844499D01*
X138036420Y-106804130D01*
X138227598Y-106724941D01*
X138399655Y-106609977D01*
X138545977Y-106463655D01*
X138622397Y-106349282D01*
X138676009Y-106304477D01*
X138745334Y-106295770D01*
X138808362Y-106325924D01*
X138845082Y-106385367D01*
X138849500Y-106418173D01*
X138849500Y-107709826D01*
X138829815Y-107776865D01*
X138777011Y-107822620D01*
X138707853Y-107832564D01*
X138644297Y-107803539D01*
X138622398Y-107778717D01*
X138545977Y-107664344D01*
X138399657Y-107518024D01*
X138283633Y-107440500D01*
X138227598Y-107403059D01*
X138048814Y-107329004D01*
X138036420Y-107323870D01*
X138036412Y-107323868D01*
X137833469Y-107283500D01*
X137833465Y-107283500D01*
X137626535Y-107283500D01*
X137626530Y-107283500D01*
X137423587Y-107323868D01*
X137423579Y-107323870D01*
X137232403Y-107403058D01*
X137060342Y-107518024D01*
X136914024Y-107664342D01*
X136799058Y-107836403D01*
X136719870Y-108027579D01*
X136719868Y-108027587D01*
X136679500Y-108230530D01*
X136679500Y-108437469D01*
X136719868Y-108640412D01*
X136719870Y-108640420D01*
X136794398Y-108820347D01*
X136799059Y-108831598D01*
X136810818Y-108849196D01*
X136914024Y-109003657D01*
X137060342Y-109149975D01*
X137060345Y-109149977D01*
X137232402Y-109264941D01*
X137423580Y-109344130D01*
X137626530Y-109384499D01*
X137626534Y-109384500D01*
X137626535Y-109384500D01*
X137833466Y-109384500D01*
X137833467Y-109384499D01*
X138036420Y-109344130D01*
X138227598Y-109264941D01*
X138399655Y-109149977D01*
X138545977Y-109003655D01*
X138622397Y-108889282D01*
X138676009Y-108844477D01*
X138745334Y-108835770D01*
X138808362Y-108865924D01*
X138845082Y-108925367D01*
X138849500Y-108958173D01*
X138849500Y-110249826D01*
X138829815Y-110316865D01*
X138777011Y-110362620D01*
X138707853Y-110372564D01*
X138644297Y-110343539D01*
X138622398Y-110318717D01*
X138545977Y-110204344D01*
X138399657Y-110058024D01*
X138240895Y-109951944D01*
X138227598Y-109943059D01*
X138036420Y-109863870D01*
X138036412Y-109863868D01*
X137833469Y-109823500D01*
X137833465Y-109823500D01*
X137626535Y-109823500D01*
X137626530Y-109823500D01*
X137423587Y-109863868D01*
X137423579Y-109863870D01*
X137232403Y-109943058D01*
X137060342Y-110058024D01*
X136914024Y-110204342D01*
X136799058Y-110376403D01*
X136719870Y-110567579D01*
X136719868Y-110567587D01*
X136679500Y-110770530D01*
X136679500Y-110977469D01*
X136719868Y-111180412D01*
X136719870Y-111180420D01*
X136776267Y-111316575D01*
X136799059Y-111371598D01*
X136837603Y-111429283D01*
X136914024Y-111543657D01*
X137060342Y-111689975D01*
X137060345Y-111689977D01*
X137232402Y-111804941D01*
X137423580Y-111884130D01*
X137602645Y-111919748D01*
X137626530Y-111924499D01*
X137626534Y-111924500D01*
X137626535Y-111924500D01*
X137833466Y-111924500D01*
X137833467Y-111924499D01*
X138036420Y-111884130D01*
X138227598Y-111804941D01*
X138399655Y-111689977D01*
X138545977Y-111543655D01*
X138622397Y-111429282D01*
X138676009Y-111384477D01*
X138745334Y-111375770D01*
X138808362Y-111405924D01*
X138845082Y-111465367D01*
X138849500Y-111498173D01*
X138849500Y-112789826D01*
X138829815Y-112856865D01*
X138777011Y-112902620D01*
X138707853Y-112912564D01*
X138644297Y-112883539D01*
X138622398Y-112858717D01*
X138545977Y-112744344D01*
X138399657Y-112598024D01*
X138279948Y-112518038D01*
X138227598Y-112483059D01*
X138117754Y-112437560D01*
X138036420Y-112403870D01*
X138036412Y-112403868D01*
X137833469Y-112363500D01*
X137833465Y-112363500D01*
X137626535Y-112363500D01*
X137626530Y-112363500D01*
X137423587Y-112403868D01*
X137423579Y-112403870D01*
X137232403Y-112483058D01*
X137060342Y-112598024D01*
X136914024Y-112744342D01*
X136799058Y-112916403D01*
X136719870Y-113107579D01*
X136719868Y-113107587D01*
X136679500Y-113310530D01*
X136679500Y-113517469D01*
X136719868Y-113720412D01*
X136719870Y-113720420D01*
X136799059Y-113911598D01*
X136850915Y-113989207D01*
X136914024Y-114083657D01*
X137060342Y-114229975D01*
X137060345Y-114229977D01*
X137232402Y-114344941D01*
X137423580Y-114424130D01*
X137593385Y-114457906D01*
X137626530Y-114464499D01*
X137626534Y-114464500D01*
X137626535Y-114464500D01*
X137833466Y-114464500D01*
X137833467Y-114464499D01*
X138036420Y-114424130D01*
X138227598Y-114344941D01*
X138399655Y-114229977D01*
X138545977Y-114083655D01*
X138622397Y-113969282D01*
X138676009Y-113924477D01*
X138745334Y-113915770D01*
X138808362Y-113945924D01*
X138845082Y-114005367D01*
X138849500Y-114038173D01*
X138849500Y-115329826D01*
X138829815Y-115396865D01*
X138777011Y-115442620D01*
X138707853Y-115452564D01*
X138644297Y-115423539D01*
X138622398Y-115398717D01*
X138545977Y-115284344D01*
X138399657Y-115138024D01*
X138313626Y-115080541D01*
X138227598Y-115023059D01*
X138036420Y-114943870D01*
X138036412Y-114943868D01*
X137833469Y-114903500D01*
X137833465Y-114903500D01*
X137626535Y-114903500D01*
X137626530Y-114903500D01*
X137423587Y-114943868D01*
X137423579Y-114943870D01*
X137232403Y-115023058D01*
X137060342Y-115138024D01*
X136914024Y-115284342D01*
X136799058Y-115456403D01*
X136719870Y-115647579D01*
X136719868Y-115647587D01*
X136679500Y-115850530D01*
X136679500Y-116057469D01*
X136719868Y-116260412D01*
X136719870Y-116260420D01*
X136799059Y-116451598D01*
X136811188Y-116469750D01*
X136914024Y-116623657D01*
X137060342Y-116769975D01*
X137060345Y-116769977D01*
X137232402Y-116884941D01*
X137423580Y-116964130D01*
X137626530Y-117004499D01*
X137626534Y-117004500D01*
X137626535Y-117004500D01*
X137833466Y-117004500D01*
X137833467Y-117004499D01*
X138036420Y-116964130D01*
X138227598Y-116884941D01*
X138399655Y-116769977D01*
X138545977Y-116623655D01*
X138622397Y-116509282D01*
X138676009Y-116464477D01*
X138745334Y-116455770D01*
X138808362Y-116485924D01*
X138845082Y-116545367D01*
X138849500Y-116578173D01*
X138849500Y-117869826D01*
X138829815Y-117936865D01*
X138777011Y-117982620D01*
X138707853Y-117992564D01*
X138644297Y-117963539D01*
X138622398Y-117938717D01*
X138545977Y-117824344D01*
X138399657Y-117678024D01*
X138313626Y-117620541D01*
X138227598Y-117563059D01*
X138154906Y-117532949D01*
X138036420Y-117483870D01*
X138036412Y-117483868D01*
X137833469Y-117443500D01*
X137833465Y-117443500D01*
X137626535Y-117443500D01*
X137626530Y-117443500D01*
X137423587Y-117483868D01*
X137423579Y-117483870D01*
X137232403Y-117563058D01*
X137060342Y-117678024D01*
X136914024Y-117824342D01*
X136799058Y-117996403D01*
X136719870Y-118187579D01*
X136719868Y-118187587D01*
X136679500Y-118390530D01*
X136679500Y-118597469D01*
X136719868Y-118800412D01*
X136719870Y-118800420D01*
X136776482Y-118937094D01*
X136799059Y-118991598D01*
X136848412Y-119065460D01*
X136914024Y-119163657D01*
X137060342Y-119309975D01*
X137060345Y-119309977D01*
X137232402Y-119424941D01*
X137423580Y-119504130D01*
X137626530Y-119544499D01*
X137626534Y-119544500D01*
X137626535Y-119544500D01*
X137833466Y-119544500D01*
X137833467Y-119544499D01*
X138036420Y-119504130D01*
X138227598Y-119424941D01*
X138399655Y-119309977D01*
X138545977Y-119163655D01*
X138622397Y-119049282D01*
X138676009Y-119004477D01*
X138745334Y-118995770D01*
X138808362Y-119025924D01*
X138845082Y-119085367D01*
X138849500Y-119118173D01*
X138849500Y-119890946D01*
X138829815Y-119957985D01*
X138777011Y-120003740D01*
X138707853Y-120013684D01*
X138669803Y-119999105D01*
X138669513Y-119999806D01*
X138658229Y-119995131D01*
X138599752Y-119983500D01*
X138599748Y-119983500D01*
X136860252Y-119983500D01*
X136860247Y-119983500D01*
X136801770Y-119995131D01*
X136801769Y-119995132D01*
X136735447Y-120039447D01*
X136691132Y-120105769D01*
X136691131Y-120105770D01*
X136679500Y-120164247D01*
X136679500Y-120402167D01*
X136659815Y-120469206D01*
X136607011Y-120514961D01*
X136537853Y-120524905D01*
X136474297Y-120495880D01*
X136467819Y-120489848D01*
X136161819Y-120183848D01*
X136128334Y-120122525D01*
X136125500Y-120096167D01*
X136125500Y-116295439D01*
X136125500Y-116295438D01*
X136105021Y-116219011D01*
X136105017Y-116219004D01*
X136065464Y-116150495D01*
X136065458Y-116150487D01*
X135249513Y-115334542D01*
X135249511Y-115334540D01*
X135242084Y-115330252D01*
X135180991Y-115294980D01*
X135180990Y-115294979D01*
X135141303Y-115284345D01*
X135104562Y-115274500D01*
X135104560Y-115274500D01*
X131399000Y-115274500D01*
X131331961Y-115254815D01*
X131286206Y-115202011D01*
X131275000Y-115150500D01*
X131275000Y-115150000D01*
X130805916Y-115150000D01*
X130800839Y-115148509D01*
X130800839Y-115149500D01*
X128999161Y-115149500D01*
X128999161Y-115148895D01*
X128994084Y-115150000D01*
X128525000Y-115150000D01*
X128525000Y-115197844D01*
X128531401Y-115257372D01*
X128531403Y-115257379D01*
X128581645Y-115392086D01*
X128581649Y-115392093D01*
X128667809Y-115507187D01*
X128667812Y-115507190D01*
X128774811Y-115587290D01*
X128775123Y-115587706D01*
X128775610Y-115587893D01*
X128796023Y-115615625D01*
X128816682Y-115643223D01*
X128816823Y-115643884D01*
X128817028Y-115644163D01*
X128817719Y-115648088D01*
X128824252Y-115678710D01*
X128824500Y-115682621D01*
X128824500Y-115819748D01*
X128836133Y-115878231D01*
X128836982Y-115879502D01*
X128837785Y-115892154D01*
X128835651Y-115901595D01*
X128835651Y-115924190D01*
X128831516Y-115944979D01*
X128824500Y-115980252D01*
X128824500Y-116469748D01*
X128827718Y-116485924D01*
X128835651Y-116525810D01*
X128835651Y-116574190D01*
X128834859Y-116578173D01*
X128824500Y-116630252D01*
X128824500Y-117119748D01*
X128828011Y-117137399D01*
X128835651Y-117175810D01*
X128835651Y-117224190D01*
X128824747Y-117279011D01*
X128824500Y-117280252D01*
X128824500Y-117769748D01*
X128824543Y-117769962D01*
X128835651Y-117825810D01*
X128835651Y-117874190D01*
X128833780Y-117883598D01*
X128824500Y-117930252D01*
X128824500Y-118419748D01*
X128826818Y-118431399D01*
X128835651Y-118475810D01*
X128835651Y-118524190D01*
X128829305Y-118556094D01*
X128824500Y-118580252D01*
X128824500Y-119069748D01*
X128825410Y-119074321D01*
X128835651Y-119125810D01*
X128835651Y-119174190D01*
X128831891Y-119193094D01*
X128824500Y-119230252D01*
X128824500Y-119719748D01*
X128824631Y-119720408D01*
X128835651Y-119775810D01*
X128835651Y-119824190D01*
X128824500Y-119880252D01*
X128824500Y-120369752D01*
X128836131Y-120428229D01*
X128836132Y-120428230D01*
X128880447Y-120494552D01*
X128946769Y-120538867D01*
X128946770Y-120538868D01*
X129005247Y-120550499D01*
X129005250Y-120550500D01*
X129005252Y-120550500D01*
X130794750Y-120550500D01*
X130794751Y-120550499D01*
X130809568Y-120547552D01*
X130853229Y-120538868D01*
X130853229Y-120538867D01*
X130853231Y-120538867D01*
X130919552Y-120494552D01*
X130928869Y-120480609D01*
X130934959Y-120475518D01*
X130938258Y-120468297D01*
X130961388Y-120453431D01*
X130982482Y-120435804D01*
X130991855Y-120433852D01*
X130997036Y-120430523D01*
X131031971Y-120425500D01*
X131063678Y-120425500D01*
X131130717Y-120445185D01*
X131151359Y-120461818D01*
X131215037Y-120525496D01*
X131259635Y-120551244D01*
X131323464Y-120588095D01*
X131444399Y-120620500D01*
X131444401Y-120620500D01*
X131569599Y-120620500D01*
X131569601Y-120620500D01*
X131690536Y-120588095D01*
X131798964Y-120525495D01*
X131887495Y-120436964D01*
X131950095Y-120328536D01*
X131982500Y-120207601D01*
X131982500Y-120109500D01*
X132002185Y-120042461D01*
X132054989Y-119996706D01*
X132106500Y-119985500D01*
X132204599Y-119985500D01*
X132204601Y-119985500D01*
X132325536Y-119953095D01*
X132433964Y-119890495D01*
X132522495Y-119801964D01*
X132585095Y-119693536D01*
X132617500Y-119572601D01*
X132617500Y-119447399D01*
X132599867Y-119381592D01*
X132601530Y-119311744D01*
X132640692Y-119253881D01*
X132704921Y-119226377D01*
X132706780Y-119226266D01*
X132712598Y-119225500D01*
X132712601Y-119225500D01*
X132833536Y-119193095D01*
X132941964Y-119130495D01*
X133030495Y-119041964D01*
X133093095Y-118933536D01*
X133125500Y-118812601D01*
X133125500Y-118709130D01*
X133145185Y-118642091D01*
X133197989Y-118596336D01*
X133217406Y-118589355D01*
X133220597Y-118588500D01*
X133220601Y-118588500D01*
X133341536Y-118556095D01*
X133449964Y-118493495D01*
X133538495Y-118404964D01*
X133601095Y-118296536D01*
X133633500Y-118175601D01*
X133633500Y-118074130D01*
X133653185Y-118007091D01*
X133705989Y-117961336D01*
X133725406Y-117954355D01*
X133728597Y-117953500D01*
X133728601Y-117953500D01*
X133849536Y-117921095D01*
X133957964Y-117858495D01*
X134046495Y-117769964D01*
X134109095Y-117661536D01*
X134141500Y-117540601D01*
X134141500Y-117540598D01*
X134142561Y-117532542D01*
X134145656Y-117532949D01*
X134161185Y-117480066D01*
X134213989Y-117434311D01*
X134283147Y-117424367D01*
X134297584Y-117427328D01*
X134365399Y-117445500D01*
X134365400Y-117445500D01*
X134490599Y-117445500D01*
X134490601Y-117445500D01*
X134611536Y-117413095D01*
X134719964Y-117350495D01*
X134804819Y-117265640D01*
X134866142Y-117232155D01*
X134935834Y-117237139D01*
X134991767Y-117279011D01*
X135016184Y-117344475D01*
X135016500Y-117353321D01*
X135016500Y-118008159D01*
X134996815Y-118075198D01*
X134963365Y-118107093D01*
X134964487Y-118108555D01*
X134958034Y-118113506D01*
X134869506Y-118202034D01*
X134869504Y-118202037D01*
X134806905Y-118310463D01*
X134806905Y-118310464D01*
X134774500Y-118431399D01*
X134774500Y-118556601D01*
X134806905Y-118677536D01*
X134869505Y-118785964D01*
X134958036Y-118874495D01*
X135066464Y-118937095D01*
X135187399Y-118969500D01*
X135187401Y-118969500D01*
X135312600Y-118969500D01*
X135312601Y-118969500D01*
X135368405Y-118954547D01*
X135438255Y-118956209D01*
X135496118Y-118995370D01*
X135523623Y-119059599D01*
X135524500Y-119074321D01*
X135524500Y-120311562D01*
X135538152Y-120362513D01*
X135544979Y-120387990D01*
X135544982Y-120387995D01*
X135584535Y-120456504D01*
X135584539Y-120456509D01*
X135584540Y-120456511D01*
X136402489Y-121274460D01*
X136461829Y-121308720D01*
X136471008Y-121314020D01*
X136471012Y-121314022D01*
X136547438Y-121334500D01*
X136555500Y-121334500D01*
X136622539Y-121354185D01*
X136668294Y-121406989D01*
X136679500Y-121458500D01*
X136679500Y-121903752D01*
X136691131Y-121962229D01*
X136691132Y-121962230D01*
X136735447Y-122028552D01*
X136801769Y-122072867D01*
X136801770Y-122072868D01*
X136860247Y-122084499D01*
X136860250Y-122084500D01*
X136860252Y-122084500D01*
X138599750Y-122084500D01*
X138599751Y-122084499D01*
X138614568Y-122081552D01*
X138658229Y-122072868D01*
X138669513Y-122068194D01*
X138670142Y-122069713D01*
X138723286Y-122053073D01*
X138790666Y-122071557D01*
X138837357Y-122123536D01*
X138849500Y-122177053D01*
X138849500Y-123363674D01*
X138829815Y-123430713D01*
X138777011Y-123476468D01*
X138707853Y-123486412D01*
X138644297Y-123457387D01*
X138622398Y-123432565D01*
X138566951Y-123349584D01*
X138566948Y-123349580D01*
X138462419Y-123245051D01*
X138462415Y-123245048D01*
X138339501Y-123162919D01*
X138339488Y-123162912D01*
X138202917Y-123106343D01*
X138202907Y-123106340D01*
X138057920Y-123077500D01*
X138057918Y-123077500D01*
X137910082Y-123077500D01*
X137910080Y-123077500D01*
X137765092Y-123106340D01*
X137765082Y-123106343D01*
X137628511Y-123162912D01*
X137628498Y-123162919D01*
X137505584Y-123245048D01*
X137505580Y-123245051D01*
X137401051Y-123349580D01*
X137401048Y-123349584D01*
X137318919Y-123472498D01*
X137318912Y-123472511D01*
X137262343Y-123609082D01*
X137262340Y-123609092D01*
X137233500Y-123754079D01*
X137233500Y-123754082D01*
X137233500Y-123901918D01*
X137233500Y-123901920D01*
X137233499Y-123901920D01*
X137262340Y-124046907D01*
X137262343Y-124046917D01*
X137318912Y-124183488D01*
X137318919Y-124183501D01*
X137401048Y-124306415D01*
X137401051Y-124306419D01*
X137505580Y-124410948D01*
X137505584Y-124410951D01*
X137628498Y-124493080D01*
X137628511Y-124493087D01*
X137671610Y-124510939D01*
X137726014Y-124554779D01*
X137748079Y-124621074D01*
X137730800Y-124688773D01*
X137679663Y-124736384D01*
X137624158Y-124749500D01*
X136381635Y-124749500D01*
X136314596Y-124729815D01*
X136268841Y-124677011D01*
X136258897Y-124607853D01*
X136287922Y-124544297D01*
X136307323Y-124526234D01*
X136382190Y-124470187D01*
X136468350Y-124355093D01*
X136468354Y-124355086D01*
X136518596Y-124220379D01*
X136518598Y-124220372D01*
X136524999Y-124160844D01*
X136525000Y-124160827D01*
X136525000Y-123513000D01*
X135608012Y-123513000D01*
X135640925Y-123455993D01*
X135675000Y-123328826D01*
X135675000Y-123197174D01*
X135640925Y-123070007D01*
X135608012Y-123013000D01*
X136525000Y-123013000D01*
X136525000Y-122365172D01*
X136524999Y-122365155D01*
X136518598Y-122305627D01*
X136518596Y-122305620D01*
X136468354Y-122170913D01*
X136468350Y-122170906D01*
X136382190Y-122055812D01*
X136382187Y-122055809D01*
X136267093Y-121969649D01*
X136267086Y-121969645D01*
X136132379Y-121919403D01*
X136132372Y-121919401D01*
X136072844Y-121913000D01*
X135425000Y-121913000D01*
X135425000Y-122829988D01*
X135367993Y-122797075D01*
X135240826Y-122763000D01*
X135109174Y-122763000D01*
X134982007Y-122797075D01*
X134925000Y-122829988D01*
X134925000Y-121913000D01*
X134277155Y-121913000D01*
X134217627Y-121919401D01*
X134217620Y-121919403D01*
X134082913Y-121969645D01*
X134082906Y-121969649D01*
X133967812Y-122055809D01*
X133967809Y-122055812D01*
X133881649Y-122170906D01*
X133881645Y-122170913D01*
X133831403Y-122305620D01*
X133831401Y-122305627D01*
X133825000Y-122365155D01*
X133825000Y-122767435D01*
X133805315Y-122834474D01*
X133752511Y-122880229D01*
X133683353Y-122890173D01*
X133619797Y-122861148D01*
X133586439Y-122814888D01*
X133565941Y-122765403D01*
X133565941Y-122765402D01*
X133450977Y-122593345D01*
X133450975Y-122593342D01*
X133304657Y-122447024D01*
X133132595Y-122332057D01*
X133012047Y-122282124D01*
X132957643Y-122238282D01*
X132935579Y-122171988D01*
X132935500Y-122167563D01*
X132935500Y-121868439D01*
X132915020Y-121792009D01*
X132915017Y-121792004D01*
X132875464Y-121723495D01*
X132875458Y-121723487D01*
X132199512Y-121047541D01*
X132199504Y-121047535D01*
X132130995Y-121007982D01*
X132130990Y-121007979D01*
X132105513Y-121001152D01*
X132054562Y-120987500D01*
X132054560Y-120987500D01*
X128634833Y-120987500D01*
X128567794Y-120967815D01*
X128547152Y-120951181D01*
X127779819Y-120183848D01*
X127746334Y-120122525D01*
X127743500Y-120096167D01*
X127743500Y-114839244D01*
X127763185Y-114772205D01*
X127815989Y-114726450D01*
X127885147Y-114716506D01*
X127899584Y-114719467D01*
X128015399Y-114750500D01*
X128015401Y-114750500D01*
X128140599Y-114750500D01*
X128140601Y-114750500D01*
X128261536Y-114718095D01*
X128357638Y-114662610D01*
X128425538Y-114646139D01*
X128491565Y-114668992D01*
X128507318Y-114682318D01*
X128525000Y-114700000D01*
X128994084Y-114700000D01*
X129004262Y-114700500D01*
X129005252Y-114700500D01*
X130795738Y-114700500D01*
X130805916Y-114700000D01*
X131275000Y-114700000D01*
X131275000Y-114652172D01*
X131274999Y-114652155D01*
X131268598Y-114592627D01*
X131268596Y-114592620D01*
X131218354Y-114457913D01*
X131218350Y-114457906D01*
X131132190Y-114342812D01*
X131025188Y-114262709D01*
X131024876Y-114262292D01*
X131024390Y-114262107D01*
X131003911Y-114234285D01*
X130983318Y-114206775D01*
X130983177Y-114206116D01*
X130982972Y-114205837D01*
X130982277Y-114201898D01*
X130975749Y-114171290D01*
X130975500Y-114167363D01*
X130975500Y-114030252D01*
X130963867Y-113971769D01*
X130963017Y-113970497D01*
X130962215Y-113957847D01*
X130964349Y-113948404D01*
X130964349Y-113925808D01*
X130975500Y-113869750D01*
X130975500Y-113380249D01*
X130975427Y-113379509D01*
X130975500Y-113379123D01*
X130975500Y-113374160D01*
X130976441Y-113374160D01*
X130988443Y-113310862D01*
X131036506Y-113260150D01*
X131040711Y-113258068D01*
X131075114Y-113238206D01*
X131114511Y-113215460D01*
X131170460Y-113159511D01*
X131747460Y-112582511D01*
X131787021Y-112513989D01*
X131807500Y-112437562D01*
X131807500Y-110199438D01*
X131787021Y-110123011D01*
X131755177Y-110067855D01*
X131747464Y-110054495D01*
X131747458Y-110054487D01*
X131407962Y-109714991D01*
X131407961Y-109714990D01*
X131385482Y-109702012D01*
X131385482Y-109702010D01*
X131385479Y-109702010D01*
X131339444Y-109675431D01*
X131339441Y-109675429D01*
X131301225Y-109665189D01*
X131263012Y-109654950D01*
X131263010Y-109654950D01*
X130488172Y-109654950D01*
X130421133Y-109635265D01*
X130375378Y-109582461D01*
X130364814Y-109518347D01*
X130374999Y-109418654D01*
X130375000Y-109418641D01*
X130375000Y-109369500D01*
X128903500Y-109369500D01*
X128836461Y-109349815D01*
X128790706Y-109297011D01*
X128779500Y-109245500D01*
X128779500Y-108993500D01*
X128799185Y-108926461D01*
X128851989Y-108880706D01*
X128903500Y-108869500D01*
X130374999Y-108869500D01*
X130374999Y-108820360D01*
X130374998Y-108820347D01*
X130371272Y-108783874D01*
X130371272Y-108783872D01*
X130370815Y-108779399D01*
X133190500Y-108779399D01*
X133190500Y-108904601D01*
X133222905Y-109025536D01*
X133285505Y-109133964D01*
X133374036Y-109222495D01*
X133482464Y-109285095D01*
X133603399Y-109317500D01*
X133603401Y-109317500D01*
X133728599Y-109317500D01*
X133728601Y-109317500D01*
X133849536Y-109285095D01*
X133957964Y-109222495D01*
X134046495Y-109133964D01*
X134109095Y-109025536D01*
X134141500Y-108904601D01*
X134141500Y-108842833D01*
X134161185Y-108775794D01*
X134177819Y-108755152D01*
X134223914Y-108709057D01*
X134287460Y-108645511D01*
X134297823Y-108627562D01*
X134327021Y-108576989D01*
X134347500Y-108500562D01*
X134347500Y-107990500D01*
X134367185Y-107923461D01*
X134419989Y-107877706D01*
X134471500Y-107866500D01*
X134500260Y-107866500D01*
X134529849Y-107863725D01*
X134547036Y-107857711D01*
X134654475Y-107820116D01*
X134760711Y-107741711D01*
X134839116Y-107635475D01*
X134882725Y-107510849D01*
X134884072Y-107496483D01*
X134885500Y-107481260D01*
X134885500Y-106900739D01*
X134882725Y-106871150D01*
X134839115Y-106746523D01*
X134760711Y-106640289D01*
X134760710Y-106640288D01*
X134654476Y-106561884D01*
X134529848Y-106518274D01*
X134529849Y-106518274D01*
X134500260Y-106515500D01*
X134500256Y-106515500D01*
X133794744Y-106515500D01*
X133794740Y-106515500D01*
X133765150Y-106518274D01*
X133640523Y-106561884D01*
X133534289Y-106640288D01*
X133534288Y-106640289D01*
X133455884Y-106746523D01*
X133412274Y-106871150D01*
X133409500Y-106900739D01*
X133409500Y-107481260D01*
X133412274Y-107510849D01*
X133455884Y-107635476D01*
X133534288Y-107741710D01*
X133534289Y-107741711D01*
X133640522Y-107820114D01*
X133640525Y-107820116D01*
X133663454Y-107828139D01*
X133720230Y-107868860D01*
X133745978Y-107933813D01*
X133746500Y-107945181D01*
X133746500Y-108242500D01*
X133726815Y-108309539D01*
X133674011Y-108355294D01*
X133622500Y-108366500D01*
X133603399Y-108366500D01*
X133522775Y-108388103D01*
X133482463Y-108398905D01*
X133374037Y-108461504D01*
X133374034Y-108461506D01*
X133285506Y-108550034D01*
X133285504Y-108550037D01*
X133222905Y-108658463D01*
X133218165Y-108676152D01*
X133190500Y-108779399D01*
X130370815Y-108779399D01*
X130364680Y-108719347D01*
X130310453Y-108555699D01*
X130310448Y-108555688D01*
X130219947Y-108408965D01*
X130219944Y-108408961D01*
X130098038Y-108287055D01*
X130098034Y-108287052D01*
X129951311Y-108196551D01*
X129951300Y-108196546D01*
X129858793Y-108165893D01*
X129801348Y-108126121D01*
X129774525Y-108061605D01*
X129786840Y-107992829D01*
X129834383Y-107941629D01*
X129839859Y-107938555D01*
X129844470Y-107936117D01*
X129844475Y-107936116D01*
X129950711Y-107857711D01*
X130029116Y-107751475D01*
X130072725Y-107626849D01*
X130075500Y-107597256D01*
X130075500Y-106991744D01*
X130072725Y-106962151D01*
X130070831Y-106956739D01*
X130032368Y-106846819D01*
X130029116Y-106837525D01*
X130010747Y-106812636D01*
X129950711Y-106731289D01*
X129950710Y-106731288D01*
X129844476Y-106652884D01*
X129844475Y-106652883D01*
X129783545Y-106631563D01*
X129764557Y-106617944D01*
X129743297Y-106608235D01*
X129736693Y-106597958D01*
X129726769Y-106590841D01*
X129718157Y-106569117D01*
X129705523Y-106549457D01*
X129702767Y-106530290D01*
X129701022Y-106525888D01*
X129700500Y-106514522D01*
X129700500Y-106365031D01*
X129720185Y-106297992D01*
X129772989Y-106252237D01*
X129842147Y-106242293D01*
X129861374Y-106246641D01*
X129878204Y-106251886D01*
X129948784Y-106258300D01*
X129948787Y-106258300D01*
X131021601Y-106258300D01*
X131063399Y-106269500D01*
X131188601Y-106269500D01*
X131230399Y-106258300D01*
X131848000Y-106258300D01*
X131915039Y-106277985D01*
X131960794Y-106330789D01*
X131972000Y-106382300D01*
X131972000Y-106457605D01*
X131952315Y-106524644D01*
X131921634Y-106557375D01*
X131809287Y-106640290D01*
X131730884Y-106746523D01*
X131687274Y-106871150D01*
X131684500Y-106900739D01*
X131684500Y-107481260D01*
X131687274Y-107510849D01*
X131730884Y-107635476D01*
X131809288Y-107741710D01*
X131809289Y-107741711D01*
X131915523Y-107820115D01*
X131915524Y-107820115D01*
X131915525Y-107820116D01*
X132040151Y-107863725D01*
X132040150Y-107863725D01*
X132069740Y-107866500D01*
X132069744Y-107866500D01*
X132775260Y-107866500D01*
X132804849Y-107863725D01*
X132822036Y-107857711D01*
X132929475Y-107820116D01*
X133035711Y-107741711D01*
X133114116Y-107635475D01*
X133157725Y-107510849D01*
X133159072Y-107496483D01*
X133160500Y-107481260D01*
X133160500Y-106900739D01*
X133157725Y-106871150D01*
X133114115Y-106746523D01*
X133035712Y-106640290D01*
X133035709Y-106640288D01*
X132948568Y-106575975D01*
X132923366Y-106557375D01*
X132920343Y-106553394D01*
X132915797Y-106551318D01*
X132899425Y-106525843D01*
X132881116Y-106501728D01*
X132879988Y-106495598D01*
X132878023Y-106492540D01*
X132873000Y-106457605D01*
X132873000Y-106361698D01*
X132892685Y-106294659D01*
X132945489Y-106248904D01*
X132960103Y-106243314D01*
X133095006Y-106201278D01*
X133240585Y-106113272D01*
X133360872Y-105992985D01*
X133448878Y-105847406D01*
X133499486Y-105684996D01*
X133505900Y-105614416D01*
X133505900Y-104501184D01*
X133499486Y-104430604D01*
X133448878Y-104268194D01*
X133360872Y-104122615D01*
X133360870Y-104122613D01*
X133360869Y-104122611D01*
X133240588Y-104002330D01*
X133221639Y-103990875D01*
X133095006Y-103914322D01*
X132932596Y-103863714D01*
X132932594Y-103863713D01*
X132932592Y-103863713D01*
X132883178Y-103859223D01*
X132862016Y-103857300D01*
X132862013Y-103857300D01*
X132665407Y-103857300D01*
X132603407Y-103840687D01*
X132579538Y-103826906D01*
X132579537Y-103826905D01*
X132539224Y-103816103D01*
X132458601Y-103794500D01*
X132333399Y-103794500D01*
X132301282Y-103803106D01*
X132212462Y-103826905D01*
X132212461Y-103826906D01*
X132188593Y-103840687D01*
X132126593Y-103857300D01*
X131395407Y-103857300D01*
X131333407Y-103840687D01*
X131309538Y-103826906D01*
X131309537Y-103826905D01*
X131269224Y-103816103D01*
X131188601Y-103794500D01*
X131063399Y-103794500D01*
X131031282Y-103803106D01*
X130942462Y-103826905D01*
X130942461Y-103826906D01*
X130918593Y-103840687D01*
X130856593Y-103857300D01*
X129948784Y-103857300D01*
X129929545Y-103859048D01*
X129878207Y-103863713D01*
X129715793Y-103914322D01*
X129570213Y-104002329D01*
X129449925Y-104122618D01*
X129432073Y-104152150D01*
X129380545Y-104199337D01*
X129325956Y-104212000D01*
X127748456Y-104212000D01*
X127681417Y-104192315D01*
X127648686Y-104161634D01*
X127648072Y-104160802D01*
X127612711Y-104112889D01*
X127612709Y-104112888D01*
X127612709Y-104112887D01*
X127506476Y-104034484D01*
X127381848Y-103990874D01*
X127381849Y-103990874D01*
X127352260Y-103988100D01*
X127352256Y-103988100D01*
X126771744Y-103988100D01*
X126771740Y-103988100D01*
X126742150Y-103990874D01*
X126617523Y-104034484D01*
X126511289Y-104112888D01*
X126511288Y-104112889D01*
X126432884Y-104219123D01*
X126428542Y-104227340D01*
X126426707Y-104226370D01*
X126393094Y-104273233D01*
X126328141Y-104298978D01*
X126316777Y-104299500D01*
X125792997Y-104299500D01*
X125725958Y-104279815D01*
X125692077Y-104247550D01*
X125689194Y-104243512D01*
X125606485Y-104160803D01*
X125501391Y-104109426D01*
X125433261Y-104099500D01*
X125433260Y-104099500D01*
X123716740Y-104099500D01*
X123716739Y-104099500D01*
X123648608Y-104109426D01*
X123543514Y-104160803D01*
X123460803Y-104243514D01*
X123409426Y-104348608D01*
X123399500Y-104416739D01*
X123399500Y-104783260D01*
X123409426Y-104851391D01*
X123460803Y-104956485D01*
X123543514Y-105039196D01*
X123543515Y-105039196D01*
X123543517Y-105039198D01*
X123648607Y-105090573D01*
X123682673Y-105095536D01*
X123716739Y-105100500D01*
X123716740Y-105100500D01*
X125433261Y-105100500D01*
X125455971Y-105097191D01*
X125501393Y-105090573D01*
X125606483Y-105039198D01*
X125689198Y-104956483D01*
X125689200Y-104956477D01*
X125692077Y-104952450D01*
X125747051Y-104909326D01*
X125792997Y-104900500D01*
X126262500Y-104900500D01*
X126329539Y-104920185D01*
X126375294Y-104972989D01*
X126386500Y-105024500D01*
X126386500Y-105078860D01*
X126389274Y-105108449D01*
X126432884Y-105233076D01*
X126511287Y-105339309D01*
X126511288Y-105339309D01*
X126511289Y-105339311D01*
X126519987Y-105345730D01*
X126562237Y-105401378D01*
X126567696Y-105471034D01*
X126534628Y-105532583D01*
X126473534Y-105566484D01*
X126446353Y-105569500D01*
X125792997Y-105569500D01*
X125725958Y-105549815D01*
X125692077Y-105517550D01*
X125689194Y-105513512D01*
X125606485Y-105430803D01*
X125501391Y-105379426D01*
X125433261Y-105369500D01*
X125433260Y-105369500D01*
X123716740Y-105369500D01*
X123716739Y-105369500D01*
X123648608Y-105379426D01*
X123543514Y-105430803D01*
X123460803Y-105513514D01*
X123409426Y-105618608D01*
X123399500Y-105686739D01*
X123399500Y-106053260D01*
X123409426Y-106121391D01*
X123460803Y-106226485D01*
X123543514Y-106309196D01*
X123543515Y-106309196D01*
X123543517Y-106309198D01*
X123648607Y-106360573D01*
X123679204Y-106365031D01*
X123716739Y-106370500D01*
X123716740Y-106370500D01*
X125433261Y-106370500D01*
X125455971Y-106367191D01*
X125501393Y-106360573D01*
X125606483Y-106309198D01*
X125689198Y-106226483D01*
X125689200Y-106226477D01*
X125692077Y-106222450D01*
X125747051Y-106179326D01*
X125792997Y-106170500D01*
X128740167Y-106170500D01*
X128807206Y-106190185D01*
X128827848Y-106206819D01*
X129051839Y-106430810D01*
X129085324Y-106492133D01*
X129080340Y-106561825D01*
X129038468Y-106617758D01*
X129005113Y-106635532D01*
X128955524Y-106652884D01*
X128955523Y-106652884D01*
X128849289Y-106731288D01*
X128849288Y-106731289D01*
X128770884Y-106837523D01*
X128727274Y-106962150D01*
X128724500Y-106991739D01*
X128724500Y-107084167D01*
X128704815Y-107151206D01*
X128688181Y-107171848D01*
X128218541Y-107641487D01*
X128218539Y-107641490D01*
X128211647Y-107653428D01*
X128193551Y-107670681D01*
X128178570Y-107690694D01*
X128168702Y-107694374D01*
X128161079Y-107701643D01*
X128136530Y-107706373D01*
X128113106Y-107715111D01*
X128102813Y-107712871D01*
X128092472Y-107714865D01*
X128069263Y-107705573D01*
X128044833Y-107700259D01*
X128032008Y-107690658D01*
X128027608Y-107688897D01*
X128016579Y-107679108D01*
X128011819Y-107674348D01*
X127978334Y-107613025D01*
X127975500Y-107586667D01*
X127975500Y-106991739D01*
X127972725Y-106962150D01*
X127932368Y-106846819D01*
X127929116Y-106837525D01*
X127910747Y-106812636D01*
X127850711Y-106731289D01*
X127850710Y-106731288D01*
X127744476Y-106652884D01*
X127619848Y-106609274D01*
X127619849Y-106609274D01*
X127590260Y-106606500D01*
X127590256Y-106606500D01*
X127009744Y-106606500D01*
X127009740Y-106606500D01*
X126980150Y-106609274D01*
X126855523Y-106652884D01*
X126749290Y-106731287D01*
X126706598Y-106789134D01*
X126650951Y-106831384D01*
X126606828Y-106839500D01*
X125792997Y-106839500D01*
X125725958Y-106819815D01*
X125692077Y-106787550D01*
X125689194Y-106783512D01*
X125606485Y-106700803D01*
X125501391Y-106649426D01*
X125433261Y-106639500D01*
X125433260Y-106639500D01*
X123716740Y-106639500D01*
X123716739Y-106639500D01*
X123648608Y-106649426D01*
X123543514Y-106700803D01*
X123460803Y-106783514D01*
X123409426Y-106888608D01*
X123399500Y-106956739D01*
X123399500Y-107323260D01*
X123409426Y-107391391D01*
X123460803Y-107496485D01*
X123543514Y-107579196D01*
X123543515Y-107579196D01*
X123543517Y-107579198D01*
X123648607Y-107630573D01*
X123682251Y-107635475D01*
X123716739Y-107640500D01*
X123716740Y-107640500D01*
X125433261Y-107640500D01*
X125455971Y-107637191D01*
X125501393Y-107630573D01*
X125606483Y-107579198D01*
X125689198Y-107496483D01*
X125689200Y-107496477D01*
X125692077Y-107492450D01*
X125747051Y-107449326D01*
X125792997Y-107440500D01*
X126500500Y-107440500D01*
X126567539Y-107460185D01*
X126613294Y-107512989D01*
X126624500Y-107564500D01*
X126624500Y-107597260D01*
X126627274Y-107626849D01*
X126670884Y-107751476D01*
X126734217Y-107837289D01*
X126749289Y-107857711D01*
X126855525Y-107936116D01*
X126855529Y-107936117D01*
X126860144Y-107938557D01*
X126910216Y-107987286D01*
X126925995Y-108055350D01*
X126902470Y-108121141D01*
X126847111Y-108163769D01*
X126841206Y-108165893D01*
X126748699Y-108196546D01*
X126748694Y-108196548D01*
X126631471Y-108268853D01*
X126564078Y-108287293D01*
X126497415Y-108266370D01*
X126458986Y-108225313D01*
X126426495Y-108169036D01*
X126337964Y-108080505D01*
X126229536Y-108017905D01*
X126229537Y-108017905D01*
X126189224Y-108007103D01*
X126108601Y-107985500D01*
X125983399Y-107985500D01*
X125862464Y-108017905D01*
X125812439Y-108046786D01*
X125744538Y-108063256D01*
X125678512Y-108040403D01*
X125662760Y-108027078D01*
X125606485Y-107970803D01*
X125501391Y-107919426D01*
X125433261Y-107909500D01*
X125433260Y-107909500D01*
X123716740Y-107909500D01*
X123716739Y-107909500D01*
X123648608Y-107919426D01*
X123543514Y-107970803D01*
X123460803Y-108053514D01*
X123409426Y-108158608D01*
X123399500Y-108226739D01*
X123399500Y-108593260D01*
X123409426Y-108661391D01*
X123460803Y-108766485D01*
X123543514Y-108849196D01*
X123543515Y-108849196D01*
X123543517Y-108849198D01*
X123648607Y-108900573D01*
X123672766Y-108904093D01*
X123716739Y-108910500D01*
X123716740Y-108910500D01*
X125433261Y-108910500D01*
X125455971Y-108907191D01*
X125501393Y-108900573D01*
X125606483Y-108849198D01*
X125606486Y-108849194D01*
X125613473Y-108844207D01*
X125679471Y-108821272D01*
X125747392Y-108837659D01*
X125747526Y-108837737D01*
X125862457Y-108904091D01*
X125862460Y-108904093D01*
X125862464Y-108904095D01*
X125983399Y-108936500D01*
X125983401Y-108936500D01*
X126108599Y-108936500D01*
X126108601Y-108936500D01*
X126229536Y-108904095D01*
X126260682Y-108886112D01*
X126322682Y-108869500D01*
X127653500Y-108869500D01*
X127720539Y-108889185D01*
X127766294Y-108941989D01*
X127777500Y-108993500D01*
X127777500Y-109245500D01*
X127757815Y-109312539D01*
X127705011Y-109358294D01*
X127653500Y-109369500D01*
X127550000Y-109369500D01*
X127550000Y-110106999D01*
X127586640Y-110106999D01*
X127586654Y-110106998D01*
X127687652Y-110096680D01*
X127858158Y-110040181D01*
X127858695Y-110041804D01*
X127918869Y-110032661D01*
X127982654Y-110061177D01*
X127989884Y-110067855D01*
X128528489Y-110606460D01*
X128597012Y-110646022D01*
X128673438Y-110666500D01*
X128752562Y-110666500D01*
X130569167Y-110666500D01*
X130598607Y-110675144D01*
X130628594Y-110681668D01*
X130633609Y-110685422D01*
X130636206Y-110686185D01*
X130656848Y-110702819D01*
X130769181Y-110815152D01*
X130802666Y-110876475D01*
X130805500Y-110902833D01*
X130805500Y-111125500D01*
X130785815Y-111192539D01*
X130733011Y-111238294D01*
X130681500Y-111249500D01*
X129005247Y-111249500D01*
X128946770Y-111261131D01*
X128946769Y-111261132D01*
X128880447Y-111305447D01*
X128836132Y-111371769D01*
X128836131Y-111371770D01*
X128824500Y-111430247D01*
X128824500Y-111900500D01*
X128804815Y-111967539D01*
X128752011Y-112013294D01*
X128700500Y-112024500D01*
X127984438Y-112024500D01*
X127908010Y-112044978D01*
X127839489Y-112084540D01*
X127839486Y-112084542D01*
X126939181Y-112984848D01*
X126877858Y-113018333D01*
X126808166Y-113013349D01*
X126752233Y-112971477D01*
X126727816Y-112906013D01*
X126727500Y-112897167D01*
X126727500Y-110961439D01*
X126722707Y-110943551D01*
X126707021Y-110885011D01*
X126692847Y-110860460D01*
X126667464Y-110816495D01*
X126667458Y-110816487D01*
X125722512Y-109871541D01*
X125722507Y-109871537D01*
X125693908Y-109855026D01*
X125676405Y-109844921D01*
X125676403Y-109844919D01*
X125676403Y-109844920D01*
X125676401Y-109844919D01*
X125671666Y-109842185D01*
X125653990Y-109831979D01*
X125653991Y-109831979D01*
X125615775Y-109821739D01*
X125577562Y-109811500D01*
X125577560Y-109811500D01*
X122919833Y-109811500D01*
X122890392Y-109802855D01*
X122860406Y-109796332D01*
X122855390Y-109792577D01*
X122852794Y-109791815D01*
X122832152Y-109775181D01*
X122826819Y-109769848D01*
X122793334Y-109708525D01*
X122790500Y-109682167D01*
X122790500Y-109418654D01*
X126325001Y-109418654D01*
X126335319Y-109519652D01*
X126389546Y-109683300D01*
X126389551Y-109683311D01*
X126480052Y-109830034D01*
X126480055Y-109830038D01*
X126601961Y-109951944D01*
X126601965Y-109951947D01*
X126748688Y-110042448D01*
X126748699Y-110042453D01*
X126912347Y-110096680D01*
X127013352Y-110106999D01*
X127050000Y-110106999D01*
X127050000Y-109369500D01*
X126325001Y-109369500D01*
X126325001Y-109418654D01*
X122790500Y-109418654D01*
X122790500Y-107405439D01*
X122790500Y-107405438D01*
X122770021Y-107329011D01*
X122747422Y-107289868D01*
X122730464Y-107260495D01*
X122730458Y-107260487D01*
X121099512Y-105629541D01*
X121099504Y-105629535D01*
X121030995Y-105589982D01*
X121030990Y-105589979D01*
X121005513Y-105583152D01*
X120954562Y-105569500D01*
X120954560Y-105569500D01*
X120842997Y-105569500D01*
X120775958Y-105549815D01*
X120742077Y-105517550D01*
X120739194Y-105513512D01*
X120656485Y-105430803D01*
X120551391Y-105379426D01*
X120483261Y-105369500D01*
X120483260Y-105369500D01*
X118766740Y-105369500D01*
X118766739Y-105369500D01*
X118698608Y-105379426D01*
X118593514Y-105430803D01*
X118510803Y-105513514D01*
X118459426Y-105618608D01*
X118449500Y-105686739D01*
X118449500Y-106053260D01*
X118459426Y-106121391D01*
X118510803Y-106226485D01*
X118593514Y-106309196D01*
X118593515Y-106309196D01*
X118593517Y-106309198D01*
X118698607Y-106360573D01*
X118729204Y-106365031D01*
X118766739Y-106370500D01*
X118766740Y-106370500D01*
X120483261Y-106370500D01*
X120505971Y-106367191D01*
X120551393Y-106360573D01*
X120656483Y-106309198D01*
X120705173Y-106260508D01*
X120766496Y-106227022D01*
X120836188Y-106232006D01*
X120880536Y-106260507D01*
X121247848Y-106627819D01*
X121281333Y-106689142D01*
X121276349Y-106758834D01*
X121234477Y-106814767D01*
X121169013Y-106839184D01*
X121160167Y-106839500D01*
X120842997Y-106839500D01*
X120775958Y-106819815D01*
X120742077Y-106787550D01*
X120739194Y-106783512D01*
X120656485Y-106700803D01*
X120551391Y-106649426D01*
X120483261Y-106639500D01*
X120483260Y-106639500D01*
X118766740Y-106639500D01*
X118766739Y-106639500D01*
X118698608Y-106649426D01*
X118593514Y-106700803D01*
X118510803Y-106783514D01*
X118459426Y-106888608D01*
X118449500Y-106956739D01*
X118449500Y-107323260D01*
X118459426Y-107391391D01*
X118510803Y-107496485D01*
X118593514Y-107579196D01*
X118593515Y-107579196D01*
X118593517Y-107579198D01*
X118698607Y-107630573D01*
X118732251Y-107635475D01*
X118766739Y-107640500D01*
X118766740Y-107640500D01*
X120483261Y-107640500D01*
X120505971Y-107637191D01*
X120551393Y-107630573D01*
X120656483Y-107579198D01*
X120739198Y-107496483D01*
X120739200Y-107496477D01*
X120742077Y-107492450D01*
X120746793Y-107488750D01*
X120749284Y-107483297D01*
X120773965Y-107467435D01*
X120797051Y-107449326D01*
X120804315Y-107447930D01*
X120808062Y-107445523D01*
X120842997Y-107440500D01*
X120993167Y-107440500D01*
X121060206Y-107460185D01*
X121080848Y-107476819D01*
X121377848Y-107773819D01*
X121411333Y-107835142D01*
X121406349Y-107904834D01*
X121364477Y-107960767D01*
X121299013Y-107985184D01*
X121290167Y-107985500D01*
X121282601Y-107985500D01*
X121157399Y-107985500D01*
X121076775Y-108007103D01*
X121036463Y-108017905D01*
X120928036Y-108080504D01*
X120923646Y-108083874D01*
X120902323Y-108092117D01*
X120883092Y-108104477D01*
X120862816Y-108107392D01*
X120858477Y-108109070D01*
X120848157Y-108109500D01*
X120842997Y-108109500D01*
X120775958Y-108089815D01*
X120742077Y-108057550D01*
X120739194Y-108053512D01*
X120656485Y-107970803D01*
X120551391Y-107919426D01*
X120483261Y-107909500D01*
X120483260Y-107909500D01*
X118766740Y-107909500D01*
X118766739Y-107909500D01*
X118698608Y-107919426D01*
X118593514Y-107970803D01*
X118510803Y-108053514D01*
X118459426Y-108158608D01*
X118449500Y-108226739D01*
X118449500Y-108593260D01*
X118459426Y-108661391D01*
X118510803Y-108766485D01*
X118593514Y-108849196D01*
X118593515Y-108849196D01*
X118593517Y-108849198D01*
X118698607Y-108900573D01*
X118722766Y-108904093D01*
X118766739Y-108910500D01*
X118766740Y-108910500D01*
X120483261Y-108910500D01*
X120505971Y-108907191D01*
X120551393Y-108900573D01*
X120656483Y-108849198D01*
X120708431Y-108797249D01*
X120769752Y-108763766D01*
X120839444Y-108768750D01*
X120883792Y-108797251D01*
X120928036Y-108841495D01*
X121036464Y-108904095D01*
X121157399Y-108936500D01*
X121157401Y-108936500D01*
X121282599Y-108936500D01*
X121282601Y-108936500D01*
X121403536Y-108904095D01*
X121495501Y-108850999D01*
X121563401Y-108834527D01*
X121629427Y-108857380D01*
X121672618Y-108912301D01*
X121681500Y-108958387D01*
X121681500Y-110278562D01*
X121692260Y-110318717D01*
X121701979Y-110354990D01*
X121701980Y-110354991D01*
X121723944Y-110393034D01*
X121741540Y-110423511D01*
X122122540Y-110804511D01*
X122178489Y-110860460D01*
X122178491Y-110860461D01*
X122178495Y-110860464D01*
X122247004Y-110900017D01*
X122247011Y-110900021D01*
X122323438Y-110920500D01*
X125303067Y-110920500D01*
X125370106Y-110940185D01*
X125390748Y-110956819D01*
X125689181Y-111255252D01*
X125722666Y-111316575D01*
X125725500Y-111342933D01*
X125725500Y-119227167D01*
X125705815Y-119294206D01*
X125689181Y-119314848D01*
X124052848Y-120951181D01*
X123991525Y-120984666D01*
X123965167Y-120987500D01*
X120418438Y-120987500D01*
X120342010Y-121007978D01*
X120273489Y-121047540D01*
X120273486Y-121047542D01*
X119694541Y-121626487D01*
X119694535Y-121626495D01*
X119654982Y-121695004D01*
X119654979Y-121695009D01*
X119634500Y-121771439D01*
X119634500Y-122167563D01*
X119614815Y-122234602D01*
X119562011Y-122280357D01*
X119557953Y-122282124D01*
X119437404Y-122332057D01*
X119265342Y-122447024D01*
X119119024Y-122593342D01*
X119004057Y-122765403D01*
X118935835Y-122930108D01*
X118891994Y-122984511D01*
X118825700Y-123006576D01*
X118758000Y-122989297D01*
X118710390Y-122938159D01*
X118703343Y-122920973D01*
X118646095Y-122744782D01*
X118549620Y-122555442D01*
X118424727Y-122383540D01*
X118424723Y-122383535D01*
X118274464Y-122233276D01*
X118274459Y-122233272D01*
X118102557Y-122108379D01*
X117913215Y-122011903D01*
X117711124Y-121946241D01*
X117645000Y-121935768D01*
X117645000Y-122829988D01*
X117587993Y-122797075D01*
X117460826Y-122763000D01*
X117329174Y-122763000D01*
X117202007Y-122797075D01*
X117145000Y-122829988D01*
X117145000Y-121935768D01*
X117144999Y-121935768D01*
X117078875Y-121946241D01*
X116876784Y-122011903D01*
X116687442Y-122108379D01*
X116515540Y-122233272D01*
X116515535Y-122233276D01*
X116365276Y-122383535D01*
X116365272Y-122383540D01*
X116240379Y-122555442D01*
X116143904Y-122744782D01*
X116078242Y-122946870D01*
X116078242Y-122946873D01*
X116067769Y-123013000D01*
X116961988Y-123013000D01*
X116929075Y-123070007D01*
X116895000Y-123197174D01*
X116895000Y-123328826D01*
X116929075Y-123455993D01*
X116961988Y-123513000D01*
X116067769Y-123513000D01*
X116078242Y-123579126D01*
X116078242Y-123579129D01*
X116143904Y-123781217D01*
X116240379Y-123970557D01*
X116365272Y-124142459D01*
X116365276Y-124142464D01*
X116515535Y-124292723D01*
X116515540Y-124292727D01*
X116687442Y-124417620D01*
X116878587Y-124515015D01*
X116929383Y-124562990D01*
X116946178Y-124630811D01*
X116923640Y-124696946D01*
X116868925Y-124740397D01*
X116822292Y-124749500D01*
X114908244Y-124749500D01*
X114841205Y-124729815D01*
X114795450Y-124677011D01*
X114785506Y-124607853D01*
X114814531Y-124544297D01*
X114860791Y-124510939D01*
X114971495Y-124465084D01*
X115094416Y-124382951D01*
X115198951Y-124278416D01*
X115281084Y-124155495D01*
X115337658Y-124018913D01*
X115360930Y-123901920D01*
X115366500Y-123873920D01*
X115366500Y-123726079D01*
X115337659Y-123581092D01*
X115337658Y-123581091D01*
X115337658Y-123581087D01*
X115312418Y-123520152D01*
X115281087Y-123444511D01*
X115281080Y-123444498D01*
X115198951Y-123321584D01*
X115198948Y-123321580D01*
X115094419Y-123217051D01*
X115094415Y-123217048D01*
X114998809Y-123153166D01*
X114971501Y-123134919D01*
X114971488Y-123134912D01*
X114834917Y-123078343D01*
X114834907Y-123078340D01*
X114689920Y-123049500D01*
X114689918Y-123049500D01*
X114542082Y-123049500D01*
X114542080Y-123049500D01*
X114397092Y-123078340D01*
X114397082Y-123078343D01*
X114260511Y-123134912D01*
X114260498Y-123134919D01*
X114137584Y-123217048D01*
X114137580Y-123217051D01*
X114033051Y-123321580D01*
X114033048Y-123321584D01*
X113977602Y-123404565D01*
X113923990Y-123449370D01*
X113854664Y-123458077D01*
X113791637Y-123427922D01*
X113754918Y-123368479D01*
X113750500Y-123335674D01*
X113750500Y-122136371D01*
X113770185Y-122069332D01*
X113822989Y-122023577D01*
X113892147Y-122013633D01*
X113943392Y-122033270D01*
X113951768Y-122038867D01*
X113951770Y-122038868D01*
X114010247Y-122050499D01*
X114010250Y-122050500D01*
X114010252Y-122050500D01*
X115749750Y-122050500D01*
X115749751Y-122050499D01*
X115764568Y-122047552D01*
X115808229Y-122038868D01*
X115808229Y-122038867D01*
X115808231Y-122038867D01*
X115874552Y-121994552D01*
X115918867Y-121928231D01*
X115918867Y-121928229D01*
X115918868Y-121928229D01*
X115930499Y-121869752D01*
X115930500Y-121869750D01*
X115930500Y-121424500D01*
X115950185Y-121357461D01*
X116002989Y-121311706D01*
X116054500Y-121300500D01*
X116856368Y-121300500D01*
X116904479Y-121313388D01*
X116905506Y-121310911D01*
X116913005Y-121314017D01*
X116913012Y-121314021D01*
X116989438Y-121334500D01*
X116989441Y-121334500D01*
X117068560Y-121334500D01*
X117068562Y-121334500D01*
X117144988Y-121314021D01*
X117213511Y-121274460D01*
X118026152Y-120461819D01*
X118087475Y-120428334D01*
X118113833Y-120425500D01*
X121568029Y-120425500D01*
X121635068Y-120445185D01*
X121671131Y-120480609D01*
X121680447Y-120494552D01*
X121746769Y-120538867D01*
X121746770Y-120538868D01*
X121805247Y-120550499D01*
X121805250Y-120550500D01*
X121805252Y-120550500D01*
X123594750Y-120550500D01*
X123594751Y-120550499D01*
X123609568Y-120547552D01*
X123653229Y-120538868D01*
X123653229Y-120538867D01*
X123653231Y-120538867D01*
X123719552Y-120494552D01*
X123763867Y-120428231D01*
X123763867Y-120428229D01*
X123763868Y-120428229D01*
X123775499Y-120369752D01*
X123775500Y-120369750D01*
X123775500Y-119880249D01*
X123764349Y-119824192D01*
X123764349Y-119775808D01*
X123775500Y-119719750D01*
X123775500Y-119230249D01*
X123764349Y-119174192D01*
X123764349Y-119125808D01*
X123775500Y-119069750D01*
X123775500Y-118580249D01*
X123764349Y-118524192D01*
X123764349Y-118475808D01*
X123775500Y-118419750D01*
X123775500Y-117930249D01*
X123764349Y-117874192D01*
X123764349Y-117825808D01*
X123775500Y-117769750D01*
X123775500Y-117280249D01*
X123764349Y-117224192D01*
X123764349Y-117175808D01*
X123775500Y-117119750D01*
X123775500Y-116630249D01*
X123764349Y-116574192D01*
X123764349Y-116525808D01*
X123775500Y-116469750D01*
X123775500Y-115980249D01*
X123764349Y-115924192D01*
X123764349Y-115875808D01*
X123775500Y-115819750D01*
X123775500Y-115330249D01*
X123764349Y-115274192D01*
X123764349Y-115225808D01*
X123775500Y-115169750D01*
X123775500Y-114699500D01*
X123795185Y-114632461D01*
X123847989Y-114586706D01*
X123899500Y-114575500D01*
X124324678Y-114575500D01*
X124391717Y-114595185D01*
X124412359Y-114611818D01*
X124484037Y-114683496D01*
X124511758Y-114699500D01*
X124592464Y-114746095D01*
X124713399Y-114778500D01*
X124713401Y-114778500D01*
X124838599Y-114778500D01*
X124838601Y-114778500D01*
X124959536Y-114746095D01*
X125067964Y-114683495D01*
X125156495Y-114594964D01*
X125219095Y-114486536D01*
X125251500Y-114365601D01*
X125251500Y-114240399D01*
X125219095Y-114119464D01*
X125156495Y-114011036D01*
X125067964Y-113922505D01*
X124959536Y-113859905D01*
X124959537Y-113859905D01*
X124919224Y-113849103D01*
X124838601Y-113827500D01*
X124713399Y-113827500D01*
X124632775Y-113849103D01*
X124592463Y-113859905D01*
X124484037Y-113922504D01*
X124484034Y-113922506D01*
X124468360Y-113938181D01*
X124407037Y-113971666D01*
X124380679Y-113974500D01*
X123899500Y-113974500D01*
X123832461Y-113954815D01*
X123786706Y-113902011D01*
X123775500Y-113850500D01*
X123775500Y-113399500D01*
X123795185Y-113332461D01*
X123847989Y-113286706D01*
X123899500Y-113275500D01*
X124283679Y-113275500D01*
X124350718Y-113295185D01*
X124371360Y-113311819D01*
X124415036Y-113355495D01*
X124523464Y-113418095D01*
X124644399Y-113450500D01*
X124644401Y-113450500D01*
X124769599Y-113450500D01*
X124769601Y-113450500D01*
X124890536Y-113418095D01*
X124998964Y-113355495D01*
X125087495Y-113266964D01*
X125150095Y-113158536D01*
X125182500Y-113037601D01*
X125182500Y-112912399D01*
X125150095Y-112791464D01*
X125109708Y-112721511D01*
X125093236Y-112653613D01*
X125109708Y-112597515D01*
X125155595Y-112518036D01*
X125188000Y-112397101D01*
X125188000Y-112271899D01*
X125155595Y-112150964D01*
X125119223Y-112087966D01*
X125102752Y-112020067D01*
X125119224Y-111963969D01*
X125142011Y-111924500D01*
X125180095Y-111858536D01*
X125212500Y-111737601D01*
X125212500Y-111612399D01*
X125180095Y-111491464D01*
X125117495Y-111383036D01*
X125028964Y-111294505D01*
X124920536Y-111231905D01*
X124920537Y-111231905D01*
X124865086Y-111217047D01*
X124799601Y-111199500D01*
X124674399Y-111199500D01*
X124608914Y-111217047D01*
X124553463Y-111231905D01*
X124445037Y-111294504D01*
X124445034Y-111294506D01*
X124401360Y-111338181D01*
X124340037Y-111371666D01*
X124313679Y-111374500D01*
X123831971Y-111374500D01*
X123764932Y-111354815D01*
X123728869Y-111319391D01*
X123719552Y-111305447D01*
X123653230Y-111261132D01*
X123653229Y-111261131D01*
X123594752Y-111249500D01*
X123594748Y-111249500D01*
X121805252Y-111249500D01*
X121805247Y-111249500D01*
X121746770Y-111261131D01*
X121746769Y-111261132D01*
X121680447Y-111305447D01*
X121636132Y-111371769D01*
X121635922Y-111372827D01*
X121634828Y-111374917D01*
X121631458Y-111383054D01*
X121630729Y-111382752D01*
X121603536Y-111434737D01*
X121542820Y-111469311D01*
X121473051Y-111465570D01*
X121416379Y-111424703D01*
X121396599Y-111387638D01*
X121368453Y-111302699D01*
X121368448Y-111302688D01*
X121277947Y-111155965D01*
X121277944Y-111155961D01*
X121156038Y-111034055D01*
X121156034Y-111034052D01*
X121009311Y-110943551D01*
X121009300Y-110943546D01*
X120845652Y-110889319D01*
X120744654Y-110879000D01*
X120708000Y-110879000D01*
X120708000Y-111742500D01*
X120688315Y-111809539D01*
X120635511Y-111855294D01*
X120584000Y-111866500D01*
X120458000Y-111866500D01*
X120458000Y-111992500D01*
X120438315Y-112059539D01*
X120385511Y-112105294D01*
X120334000Y-112116500D01*
X119483001Y-112116500D01*
X119483001Y-112165654D01*
X119493319Y-112266652D01*
X119547546Y-112430300D01*
X119547551Y-112430311D01*
X119638052Y-112577034D01*
X119638055Y-112577038D01*
X119759961Y-112698944D01*
X119759965Y-112698947D01*
X119906688Y-112789448D01*
X119906701Y-112789454D01*
X119999205Y-112820106D01*
X120056650Y-112859878D01*
X120083474Y-112924393D01*
X120071160Y-112993169D01*
X120023617Y-113044370D01*
X120018150Y-113047439D01*
X120013523Y-113049884D01*
X119907289Y-113128288D01*
X119907288Y-113128289D01*
X119828884Y-113234523D01*
X119785274Y-113359150D01*
X119782500Y-113388739D01*
X119782500Y-113994260D01*
X119785274Y-114023849D01*
X119828884Y-114148476D01*
X119907288Y-114254710D01*
X119907289Y-114254711D01*
X120013523Y-114333115D01*
X120013524Y-114333115D01*
X120013525Y-114333116D01*
X120138151Y-114376725D01*
X120138150Y-114376725D01*
X120141526Y-114377042D01*
X120143863Y-114377973D01*
X120145520Y-114378335D01*
X120145460Y-114378609D01*
X120206435Y-114402899D01*
X120247060Y-114459744D01*
X120250503Y-114529529D01*
X120215671Y-114590097D01*
X120153623Y-114622219D01*
X120129949Y-114624500D01*
X119314133Y-114624500D01*
X119247094Y-114604815D01*
X119226452Y-114588181D01*
X118735819Y-114097548D01*
X118702334Y-114036225D01*
X118699500Y-114009867D01*
X118699500Y-111567345D01*
X119483000Y-111567345D01*
X119483000Y-111616500D01*
X120208000Y-111616500D01*
X120208000Y-110879000D01*
X120171361Y-110879000D01*
X120171343Y-110879001D01*
X120070347Y-110889319D01*
X119906699Y-110943546D01*
X119906688Y-110943551D01*
X119759965Y-111034052D01*
X119759961Y-111034055D01*
X119638055Y-111155961D01*
X119638052Y-111155965D01*
X119547551Y-111302688D01*
X119547546Y-111302699D01*
X119493319Y-111466347D01*
X119483000Y-111567345D01*
X118699500Y-111567345D01*
X118699500Y-110199439D01*
X118691704Y-110170344D01*
X118679021Y-110123011D01*
X118647177Y-110067855D01*
X118639464Y-110054495D01*
X118639458Y-110054487D01*
X117933819Y-109348848D01*
X117900334Y-109287525D01*
X117897500Y-109261167D01*
X117897500Y-107982240D01*
X117897499Y-107982236D01*
X117896826Y-107979725D01*
X117888176Y-107947440D01*
X117877022Y-107905812D01*
X117837460Y-107837289D01*
X116877819Y-106877648D01*
X116844334Y-106816325D01*
X116841500Y-106789967D01*
X116841500Y-105376481D01*
X116861185Y-105309442D01*
X116913989Y-105263687D01*
X116983147Y-105253743D01*
X117039130Y-105276709D01*
X117092525Y-105316116D01*
X117217151Y-105359725D01*
X117217150Y-105359725D01*
X117246740Y-105362500D01*
X117246744Y-105362500D01*
X117827260Y-105362500D01*
X117856849Y-105359725D01*
X117981475Y-105316116D01*
X118087711Y-105237711D01*
X118166116Y-105131475D01*
X118209725Y-105006849D01*
X118209725Y-105006847D01*
X118211335Y-104999480D01*
X118213070Y-104999858D01*
X118223170Y-104977742D01*
X118235016Y-104948010D01*
X118237588Y-104946172D01*
X118238901Y-104943297D01*
X118265820Y-104925997D01*
X118291863Y-104907387D01*
X118295818Y-104906718D01*
X118297679Y-104905523D01*
X118332614Y-104900500D01*
X118407003Y-104900500D01*
X118474042Y-104920185D01*
X118507923Y-104952450D01*
X118510805Y-104956487D01*
X118593514Y-105039196D01*
X118593515Y-105039196D01*
X118593517Y-105039198D01*
X118698607Y-105090573D01*
X118732673Y-105095536D01*
X118766739Y-105100500D01*
X118766740Y-105100500D01*
X120483261Y-105100500D01*
X120505971Y-105097191D01*
X120551393Y-105090573D01*
X120656483Y-105039198D01*
X120739198Y-104956483D01*
X120790573Y-104851393D01*
X120800500Y-104783260D01*
X120800500Y-104416740D01*
X120790573Y-104348607D01*
X120739198Y-104243517D01*
X120739196Y-104243515D01*
X120739196Y-104243514D01*
X120656485Y-104160803D01*
X120551391Y-104109426D01*
X120483261Y-104099500D01*
X120483260Y-104099500D01*
X118766740Y-104099500D01*
X118766739Y-104099500D01*
X118698608Y-104109426D01*
X118593514Y-104160803D01*
X118510805Y-104243512D01*
X118507923Y-104247550D01*
X118503206Y-104251249D01*
X118500716Y-104256703D01*
X118476034Y-104272564D01*
X118452949Y-104290674D01*
X118445684Y-104292069D01*
X118441938Y-104294477D01*
X118407003Y-104299500D01*
X118282783Y-104299500D01*
X118215744Y-104279815D01*
X118169989Y-104227011D01*
X118166349Y-104217966D01*
X118166115Y-104217523D01*
X118087711Y-104111289D01*
X118087710Y-104111288D01*
X117981479Y-104032887D01*
X117981475Y-104032884D01*
X117981470Y-104032882D01*
X117976852Y-104030441D01*
X117926781Y-103981710D01*
X117911004Y-103913645D01*
X117934531Y-103847855D01*
X117989891Y-103805229D01*
X117995794Y-103803106D01*
X118088298Y-103772454D01*
X118088311Y-103772448D01*
X118235033Y-103681948D01*
X118295958Y-103621023D01*
X118357281Y-103587538D01*
X118426973Y-103592522D01*
X118482907Y-103634393D01*
X118495040Y-103654242D01*
X118510803Y-103686485D01*
X118593514Y-103769196D01*
X118593515Y-103769196D01*
X118593517Y-103769198D01*
X118698607Y-103820573D01*
X118732673Y-103825536D01*
X118766739Y-103830500D01*
X118766740Y-103830500D01*
X120483261Y-103830500D01*
X120507934Y-103826905D01*
X120551393Y-103820573D01*
X120656483Y-103769198D01*
X120739198Y-103686483D01*
X120769623Y-103624245D01*
X120797041Y-103587475D01*
X120807136Y-103578181D01*
X120820511Y-103570460D01*
X120876460Y-103514511D01*
X121133152Y-103257819D01*
X121194475Y-103224334D01*
X121220833Y-103221500D01*
X121282599Y-103221500D01*
X121282601Y-103221500D01*
X121403536Y-103189095D01*
X121511964Y-103126495D01*
X121600495Y-103037964D01*
X121663095Y-102929536D01*
X121695500Y-102808601D01*
X121695500Y-102683399D01*
X121663095Y-102562464D01*
X121600495Y-102454036D01*
X121511964Y-102365505D01*
X121511961Y-102365503D01*
X121505515Y-102360557D01*
X121506490Y-102359285D01*
X121468336Y-102321131D01*
X121460462Y-102307492D01*
X121460458Y-102307487D01*
X121404512Y-102251541D01*
X121404504Y-102251535D01*
X121335995Y-102211982D01*
X121335990Y-102211979D01*
X121310513Y-102205152D01*
X121259562Y-102191500D01*
X121180438Y-102191500D01*
X121142224Y-102201739D01*
X121104009Y-102211979D01*
X121104004Y-102211982D01*
X121035495Y-102251535D01*
X121035491Y-102251538D01*
X121012180Y-102274849D01*
X120950856Y-102308333D01*
X120881164Y-102303347D01*
X120825232Y-102261475D01*
X120800816Y-102196010D01*
X120800500Y-102187166D01*
X120800500Y-101876739D01*
X120790573Y-101808608D01*
X120790573Y-101808607D01*
X120739198Y-101703517D01*
X120739195Y-101703514D01*
X120739195Y-101703513D01*
X120733227Y-101695153D01*
X120734340Y-101694357D01*
X120706029Y-101642509D01*
X120711013Y-101572817D01*
X120752885Y-101516884D01*
X120764075Y-101509419D01*
X120851550Y-101457687D01*
X120851561Y-101457678D01*
X120967678Y-101341561D01*
X120967685Y-101341552D01*
X121051281Y-101200198D01*
X121097100Y-101042486D01*
X121097295Y-101040001D01*
X121097295Y-101040000D01*
X118128032Y-101040000D01*
X118123243Y-101042864D01*
X118053409Y-101040615D01*
X118004476Y-101010505D01*
X117746819Y-100752848D01*
X117732115Y-100725920D01*
X117715523Y-100700102D01*
X117714631Y-100693901D01*
X117713334Y-100691525D01*
X117710500Y-100665167D01*
X117710500Y-100539998D01*
X118152704Y-100539998D01*
X118152705Y-100540000D01*
X119375000Y-100540000D01*
X119875000Y-100540000D01*
X121097295Y-100540000D01*
X121097295Y-100539998D01*
X121097100Y-100537513D01*
X121051281Y-100379801D01*
X120967685Y-100238447D01*
X120967678Y-100238438D01*
X120851561Y-100122321D01*
X120851552Y-100122314D01*
X120710196Y-100038717D01*
X120710193Y-100038716D01*
X120552495Y-99992900D01*
X120552489Y-99992899D01*
X120515649Y-99990000D01*
X119875000Y-99990000D01*
X119875000Y-100540000D01*
X119375000Y-100540000D01*
X119375000Y-99990000D01*
X118734350Y-99990000D01*
X118697510Y-99992899D01*
X118697504Y-99992900D01*
X118539806Y-100038716D01*
X118539803Y-100038717D01*
X118398447Y-100122314D01*
X118398438Y-100122321D01*
X118282321Y-100238438D01*
X118282314Y-100238447D01*
X118198718Y-100379801D01*
X118152899Y-100537513D01*
X118152704Y-100539998D01*
X117710500Y-100539998D01*
X117710500Y-98952986D01*
X118175001Y-98952986D01*
X118185494Y-99055697D01*
X118240641Y-99222119D01*
X118240643Y-99222124D01*
X118332684Y-99371345D01*
X118456654Y-99495315D01*
X118605875Y-99587356D01*
X118605880Y-99587358D01*
X118772302Y-99642505D01*
X118772309Y-99642506D01*
X118875019Y-99652999D01*
X119012499Y-99652999D01*
X119012500Y-99652998D01*
X119012500Y-98678000D01*
X118175001Y-98678000D01*
X118175001Y-98952986D01*
X117710500Y-98952986D01*
X117710500Y-97200321D01*
X117730185Y-97133282D01*
X117746819Y-97112640D01*
X117749187Y-97110272D01*
X117790495Y-97068964D01*
X117853095Y-96960536D01*
X117885500Y-96839601D01*
X117885500Y-96714399D01*
X117853095Y-96593464D01*
X117790495Y-96485036D01*
X117701964Y-96396505D01*
X117593536Y-96333905D01*
X117593537Y-96333905D01*
X117553224Y-96323103D01*
X117472601Y-96301500D01*
X117347399Y-96301500D01*
X117266775Y-96323103D01*
X117226463Y-96333905D01*
X117118037Y-96396504D01*
X117118034Y-96396506D01*
X117029506Y-96485034D01*
X117029504Y-96485037D01*
X116966905Y-96593463D01*
X116958917Y-96623274D01*
X116934500Y-96714399D01*
X116934500Y-96839601D01*
X116966905Y-96960536D01*
X116993005Y-97005744D01*
X117029504Y-97068962D01*
X117029506Y-97068965D01*
X117073181Y-97112640D01*
X117106666Y-97173963D01*
X117109500Y-97200321D01*
X117109500Y-100880562D01*
X117119739Y-100918775D01*
X117129979Y-100956991D01*
X117129981Y-100956994D01*
X117154239Y-100999009D01*
X117154240Y-100999011D01*
X117169537Y-101025507D01*
X117169541Y-101025512D01*
X117808833Y-101664804D01*
X117842318Y-101726127D01*
X117837334Y-101795819D01*
X117808834Y-101840165D01*
X117787000Y-101861999D01*
X117787000Y-102599500D01*
X118511997Y-102599500D01*
X118543529Y-102567968D01*
X118604852Y-102534483D01*
X118674544Y-102539467D01*
X118685658Y-102544242D01*
X118698607Y-102550573D01*
X118742066Y-102556905D01*
X118766739Y-102560500D01*
X118766740Y-102560500D01*
X120483261Y-102560500D01*
X120507934Y-102556905D01*
X120551393Y-102550573D01*
X120569819Y-102541564D01*
X120638691Y-102529805D01*
X120702989Y-102557148D01*
X120742297Y-102614912D01*
X120748149Y-102658660D01*
X120747531Y-102672084D01*
X120744500Y-102683399D01*
X120744500Y-102738031D01*
X120744369Y-102740881D01*
X120733884Y-102771336D01*
X120724815Y-102802225D01*
X120722587Y-102804155D01*
X120721627Y-102806945D01*
X120696338Y-102826900D01*
X120672011Y-102847980D01*
X120669092Y-102848399D01*
X120666777Y-102850227D01*
X120634723Y-102853341D01*
X120602853Y-102857924D01*
X120599185Y-102856794D01*
X120597235Y-102856984D01*
X120593390Y-102855010D01*
X120566044Y-102846589D01*
X120551393Y-102839427D01*
X120551388Y-102839425D01*
X120483261Y-102829500D01*
X120483260Y-102829500D01*
X118766740Y-102829500D01*
X118766739Y-102829500D01*
X118698608Y-102839426D01*
X118593514Y-102890803D01*
X118510803Y-102973514D01*
X118483209Y-103029960D01*
X118436081Y-103081543D01*
X118371808Y-103099500D01*
X117661000Y-103099500D01*
X117593961Y-103079815D01*
X117548206Y-103027011D01*
X117537000Y-102975500D01*
X117537000Y-102849500D01*
X117411000Y-102849500D01*
X117343961Y-102829815D01*
X117298206Y-102777011D01*
X117287000Y-102725500D01*
X117287000Y-101862000D01*
X117250361Y-101862000D01*
X117250343Y-101862001D01*
X117149346Y-101872319D01*
X117004503Y-101920315D01*
X116934675Y-101922717D01*
X116874633Y-101886985D01*
X116843441Y-101824464D01*
X116841500Y-101802609D01*
X116841500Y-101075439D01*
X116834370Y-101048829D01*
X116821021Y-100999011D01*
X116796760Y-100956989D01*
X116781464Y-100930495D01*
X116781458Y-100930487D01*
X116290512Y-100439541D01*
X116290504Y-100439535D01*
X116221995Y-100399982D01*
X116221990Y-100399979D01*
X116196513Y-100393152D01*
X116145562Y-100379500D01*
X116145560Y-100379500D01*
X115975436Y-100379500D01*
X115908397Y-100359815D01*
X115862642Y-100307011D01*
X115860875Y-100302953D01*
X115810941Y-100182402D01*
X115695977Y-100010345D01*
X115695976Y-100010344D01*
X115695975Y-100010342D01*
X115549657Y-99864024D01*
X115428480Y-99783057D01*
X115377598Y-99749059D01*
X115377593Y-99749057D01*
X115274758Y-99706461D01*
X115212890Y-99680834D01*
X115158488Y-99636994D01*
X115136423Y-99570700D01*
X115153702Y-99503001D01*
X115204839Y-99455390D01*
X115222026Y-99448343D01*
X115398217Y-99391095D01*
X115587557Y-99294620D01*
X115759459Y-99169727D01*
X115759464Y-99169723D01*
X115909723Y-99019464D01*
X115909727Y-99019459D01*
X116034620Y-98847557D01*
X116131095Y-98658217D01*
X116196757Y-98456129D01*
X116196757Y-98456126D01*
X116207231Y-98390000D01*
X115313012Y-98390000D01*
X115345925Y-98332993D01*
X115380000Y-98205826D01*
X115380000Y-98074174D01*
X115345925Y-97947007D01*
X115313012Y-97890000D01*
X116207231Y-97890000D01*
X116196757Y-97823873D01*
X116196757Y-97823870D01*
X116131095Y-97621782D01*
X116034620Y-97432442D01*
X115909727Y-97260540D01*
X115909723Y-97260535D01*
X115759464Y-97110276D01*
X115759459Y-97110272D01*
X115587557Y-96985379D01*
X115398216Y-96888904D01*
X115222026Y-96831656D01*
X115164350Y-96792218D01*
X115137152Y-96727860D01*
X115149067Y-96659013D01*
X115196311Y-96607538D01*
X115212882Y-96599168D01*
X115377598Y-96530941D01*
X115549655Y-96415977D01*
X115695977Y-96269655D01*
X115810941Y-96097598D01*
X115890130Y-95906420D01*
X115930500Y-95703465D01*
X115930500Y-95496535D01*
X115890130Y-95293580D01*
X115810941Y-95102402D01*
X115695977Y-94930345D01*
X115695976Y-94930344D01*
X115695975Y-94930342D01*
X115549657Y-94784024D01*
X115446186Y-94714888D01*
X115377598Y-94669059D01*
X115186420Y-94589870D01*
X115186412Y-94589868D01*
X114983469Y-94549500D01*
X114983465Y-94549500D01*
X114776535Y-94549500D01*
X114776530Y-94549500D01*
X114573587Y-94589868D01*
X114573579Y-94589870D01*
X114382403Y-94669058D01*
X114210342Y-94784024D01*
X114064022Y-94930344D01*
X113977602Y-95059683D01*
X113923990Y-95104488D01*
X113854665Y-95113195D01*
X113791638Y-95083041D01*
X113754918Y-95023598D01*
X113750500Y-94990792D01*
X113750500Y-93669207D01*
X113770185Y-93602168D01*
X113822989Y-93556413D01*
X113892147Y-93546469D01*
X113955703Y-93575494D01*
X113977601Y-93600315D01*
X113993839Y-93624616D01*
X114064024Y-93729657D01*
X114210342Y-93875975D01*
X114210345Y-93875977D01*
X114382402Y-93990941D01*
X114573580Y-94070130D01*
X114744506Y-94104129D01*
X114776530Y-94110499D01*
X114776534Y-94110500D01*
X114776535Y-94110500D01*
X114983466Y-94110500D01*
X114983467Y-94110499D01*
X115186420Y-94070130D01*
X115377598Y-93990941D01*
X115423890Y-93960008D01*
X115490565Y-93939132D01*
X115557945Y-93957616D01*
X115580460Y-93975431D01*
X115772540Y-94167511D01*
X115828489Y-94223460D01*
X115828491Y-94223461D01*
X115828495Y-94223464D01*
X115887327Y-94257430D01*
X115897011Y-94263021D01*
X115973438Y-94283500D01*
X118377167Y-94283500D01*
X118444206Y-94303185D01*
X118464848Y-94319819D01*
X119242547Y-95097518D01*
X119276032Y-95158841D01*
X119271048Y-95228533D01*
X119229176Y-95284466D01*
X119211161Y-95295683D01*
X119066805Y-95369236D01*
X118987077Y-95427163D01*
X118913927Y-95480310D01*
X118913925Y-95480312D01*
X118913924Y-95480312D01*
X118780312Y-95613924D01*
X118780312Y-95613925D01*
X118780310Y-95613927D01*
X118749742Y-95656000D01*
X118669240Y-95766800D01*
X118583454Y-95935163D01*
X118525059Y-96114881D01*
X118495500Y-96301513D01*
X118495500Y-96490486D01*
X118525059Y-96677118D01*
X118583454Y-96856836D01*
X118669239Y-97025198D01*
X118699791Y-97067249D01*
X118723270Y-97133056D01*
X118707444Y-97201110D01*
X118657338Y-97249804D01*
X118638477Y-97257839D01*
X118605886Y-97268638D01*
X118605875Y-97268643D01*
X118456654Y-97360684D01*
X118332684Y-97484654D01*
X118240643Y-97633875D01*
X118240641Y-97633880D01*
X118185494Y-97800302D01*
X118185493Y-97800309D01*
X118175000Y-97903013D01*
X118175000Y-98178000D01*
X119138500Y-98178000D01*
X119205539Y-98197685D01*
X119251294Y-98250489D01*
X119262500Y-98302000D01*
X119262500Y-98428000D01*
X119388500Y-98428000D01*
X119455539Y-98447685D01*
X119501294Y-98500489D01*
X119512500Y-98552000D01*
X119512500Y-99652999D01*
X119649972Y-99652999D01*
X119649986Y-99652998D01*
X119752697Y-99642505D01*
X119919119Y-99587358D01*
X119919124Y-99587356D01*
X120068345Y-99495315D01*
X120192315Y-99371345D01*
X120284356Y-99222124D01*
X120284359Y-99222117D01*
X120340094Y-99053918D01*
X120379866Y-98996473D01*
X120444382Y-98969649D01*
X120513158Y-98981964D01*
X120564358Y-99029506D01*
X120574841Y-99051965D01*
X120591987Y-99100964D01*
X120597207Y-99115882D01*
X120677850Y-99225150D01*
X120787118Y-99305793D01*
X120826373Y-99319529D01*
X120915299Y-99350646D01*
X120945730Y-99353500D01*
X120945734Y-99353500D01*
X121729270Y-99353500D01*
X121759699Y-99350646D01*
X121759701Y-99350646D01*
X121823790Y-99328219D01*
X121887882Y-99305793D01*
X121997150Y-99225150D01*
X122051974Y-99150866D01*
X122055954Y-99147843D01*
X122058031Y-99143297D01*
X122083504Y-99126926D01*
X122107622Y-99108615D01*
X122113752Y-99107487D01*
X122116809Y-99105523D01*
X122151744Y-99100500D01*
X122184679Y-99100500D01*
X122251718Y-99120185D01*
X122272360Y-99136819D01*
X122325036Y-99189495D01*
X122325037Y-99189496D01*
X122325039Y-99189497D01*
X122361394Y-99210486D01*
X122409611Y-99261052D01*
X122422835Y-99329659D01*
X122396868Y-99394524D01*
X122361397Y-99425261D01*
X122305490Y-99457539D01*
X122305487Y-99457541D01*
X121741541Y-100021487D01*
X121741535Y-100021495D01*
X121701982Y-100090004D01*
X121701979Y-100090009D01*
X121690078Y-100134425D01*
X121681500Y-100166438D01*
X121681500Y-101642562D01*
X121687460Y-101664804D01*
X121701979Y-101718990D01*
X121706100Y-101726127D01*
X121720272Y-101750674D01*
X121722756Y-101754975D01*
X121722757Y-101754979D01*
X121722758Y-101754979D01*
X121741539Y-101787509D01*
X121741541Y-101787512D01*
X122127845Y-102173816D01*
X122147551Y-102199497D01*
X122173540Y-102244511D01*
X122229489Y-102300460D01*
X122229491Y-102300461D01*
X122229495Y-102300464D01*
X122298004Y-102340017D01*
X122298011Y-102340021D01*
X122374438Y-102360500D01*
X123357003Y-102360500D01*
X123424042Y-102380185D01*
X123457923Y-102412450D01*
X123460805Y-102416487D01*
X123543514Y-102499196D01*
X123543515Y-102499196D01*
X123543517Y-102499198D01*
X123648607Y-102550573D01*
X123671819Y-102553955D01*
X123716739Y-102560500D01*
X123716740Y-102560500D01*
X125433261Y-102560500D01*
X125457934Y-102556905D01*
X125501393Y-102550573D01*
X125606483Y-102499198D01*
X125611558Y-102494123D01*
X125660819Y-102444863D01*
X125722142Y-102411378D01*
X125791834Y-102416362D01*
X125847767Y-102458234D01*
X125872184Y-102523698D01*
X125872500Y-102532544D01*
X125872500Y-102824167D01*
X125863853Y-102853612D01*
X125857330Y-102883597D01*
X125853577Y-102888609D01*
X125852815Y-102891206D01*
X125836183Y-102911845D01*
X125819537Y-102928492D01*
X125819534Y-102928495D01*
X125758209Y-102961978D01*
X125688518Y-102956991D01*
X125644174Y-102928492D01*
X125606485Y-102890803D01*
X125501391Y-102839426D01*
X125433261Y-102829500D01*
X125433260Y-102829500D01*
X123716740Y-102829500D01*
X123716739Y-102829500D01*
X123648608Y-102839426D01*
X123543514Y-102890803D01*
X123460803Y-102973514D01*
X123409426Y-103078608D01*
X123399500Y-103146739D01*
X123399500Y-103513260D01*
X123409426Y-103581391D01*
X123460803Y-103686485D01*
X123543514Y-103769196D01*
X123543515Y-103769196D01*
X123543517Y-103769198D01*
X123648607Y-103820573D01*
X123682673Y-103825536D01*
X123716739Y-103830500D01*
X123716740Y-103830500D01*
X125433261Y-103830500D01*
X125457934Y-103826905D01*
X125501393Y-103820573D01*
X125606483Y-103769198D01*
X125689198Y-103686483D01*
X125689200Y-103686477D01*
X125692077Y-103682450D01*
X125747051Y-103639326D01*
X125792997Y-103630500D01*
X125882560Y-103630500D01*
X125882562Y-103630500D01*
X125958989Y-103610021D01*
X126027511Y-103570460D01*
X126083460Y-103514511D01*
X126204436Y-103393534D01*
X126265755Y-103360052D01*
X126335447Y-103365036D01*
X126391381Y-103406907D01*
X126409155Y-103440263D01*
X126432884Y-103508075D01*
X126432884Y-103508076D01*
X126511288Y-103614310D01*
X126511289Y-103614311D01*
X126617523Y-103692715D01*
X126617524Y-103692715D01*
X126617525Y-103692716D01*
X126742151Y-103736325D01*
X126742150Y-103736325D01*
X126771740Y-103739100D01*
X126771744Y-103739100D01*
X127352260Y-103739100D01*
X127381849Y-103736325D01*
X127412559Y-103725579D01*
X127506475Y-103692716D01*
X127612711Y-103614311D01*
X127691116Y-103508075D01*
X127716692Y-103434982D01*
X127757412Y-103378210D01*
X127822365Y-103352463D01*
X127890926Y-103365919D01*
X127909222Y-103377568D01*
X127913036Y-103380495D01*
X128021464Y-103443095D01*
X128142399Y-103475500D01*
X128142401Y-103475500D01*
X128267599Y-103475500D01*
X128267601Y-103475500D01*
X128388536Y-103443095D01*
X128496964Y-103380495D01*
X128585495Y-103291964D01*
X128648095Y-103183536D01*
X128680500Y-103062601D01*
X128680500Y-102937399D01*
X128648095Y-102816464D01*
X128585495Y-102708036D01*
X128496964Y-102619505D01*
X128388536Y-102556905D01*
X128388537Y-102556905D01*
X128331287Y-102541565D01*
X128267601Y-102524500D01*
X128142399Y-102524500D01*
X128078713Y-102541565D01*
X128021463Y-102556905D01*
X127947686Y-102599500D01*
X127916830Y-102617315D01*
X127911507Y-102620388D01*
X127896018Y-102624538D01*
X127884443Y-102631977D01*
X127849508Y-102637000D01*
X127829093Y-102637000D01*
X127762054Y-102617315D01*
X127716299Y-102564511D01*
X127712052Y-102553955D01*
X127692890Y-102499196D01*
X127691116Y-102494125D01*
X127664627Y-102458234D01*
X127612711Y-102387889D01*
X127612710Y-102387888D01*
X127506476Y-102309484D01*
X127381848Y-102265874D01*
X127381849Y-102265874D01*
X127352260Y-102263100D01*
X127352256Y-102263100D01*
X127126233Y-102263100D01*
X127059194Y-102243415D01*
X127013439Y-102190611D01*
X127003495Y-102121453D01*
X127032520Y-102057897D01*
X127038552Y-102051419D01*
X127359472Y-101730499D01*
X127683460Y-101406511D01*
X127697248Y-101382629D01*
X127723021Y-101337989D01*
X127743500Y-101261562D01*
X127743500Y-100420438D01*
X127740837Y-100410500D01*
X127723022Y-100344012D01*
X127683460Y-100275489D01*
X126992511Y-99584540D01*
X126992509Y-99584539D01*
X126992504Y-99584535D01*
X126949985Y-99559987D01*
X126949983Y-99559987D01*
X126923989Y-99544979D01*
X126894215Y-99537001D01*
X126847562Y-99524500D01*
X126847560Y-99524500D01*
X126507833Y-99524500D01*
X126440794Y-99504815D01*
X126420152Y-99488181D01*
X125019808Y-98087837D01*
X124986323Y-98026514D01*
X124991307Y-97956822D01*
X125033179Y-97900889D01*
X125033521Y-97900634D01*
X125072711Y-97871711D01*
X125151116Y-97765475D01*
X125194725Y-97640849D01*
X125194805Y-97640000D01*
X125197500Y-97611260D01*
X125197500Y-97005739D01*
X125194725Y-96976150D01*
X125164196Y-96888904D01*
X125151116Y-96851525D01*
X125150515Y-96850711D01*
X125072711Y-96745289D01*
X125072710Y-96745288D01*
X124966476Y-96666884D01*
X124841848Y-96623274D01*
X124841849Y-96623274D01*
X124812260Y-96620500D01*
X124812256Y-96620500D01*
X124231744Y-96620500D01*
X124231740Y-96620500D01*
X124202150Y-96623274D01*
X124077523Y-96666884D01*
X123971289Y-96745288D01*
X123971288Y-96745289D01*
X123892884Y-96851523D01*
X123849274Y-96976150D01*
X123846500Y-97005739D01*
X123846500Y-97611260D01*
X123849274Y-97640849D01*
X123892884Y-97765476D01*
X123971288Y-97871710D01*
X123971289Y-97871711D01*
X124036034Y-97919495D01*
X124077525Y-97950116D01*
X124143658Y-97973257D01*
X124200431Y-98013977D01*
X124222475Y-98058201D01*
X124226755Y-98074174D01*
X124241979Y-98130990D01*
X124241980Y-98130991D01*
X124273169Y-98185012D01*
X124281540Y-98199511D01*
X126147489Y-100065460D01*
X126206829Y-100099720D01*
X126213545Y-100103598D01*
X126216012Y-100105022D01*
X126292438Y-100125500D01*
X126358174Y-100125500D01*
X126388570Y-100134425D01*
X126419416Y-100141679D01*
X126421852Y-100144198D01*
X126425213Y-100145185D01*
X126445953Y-100169120D01*
X126467987Y-100191905D01*
X126468674Y-100195342D01*
X126470968Y-100197989D01*
X126475476Y-100229347D01*
X126481692Y-100260417D01*
X126480413Y-100263677D01*
X126480912Y-100267147D01*
X126467746Y-100295974D01*
X126456182Y-100325463D01*
X126453019Y-100328222D01*
X126451887Y-100330703D01*
X126430811Y-100349998D01*
X126425666Y-100353715D01*
X126329036Y-100409505D01*
X126278348Y-100460192D01*
X126270316Y-100465998D01*
X126246349Y-100474482D01*
X126224037Y-100486666D01*
X126206654Y-100488534D01*
X126204451Y-100489315D01*
X126202866Y-100488942D01*
X126197679Y-100489500D01*
X125792997Y-100489500D01*
X125725958Y-100469815D01*
X125692077Y-100437550D01*
X125689194Y-100433512D01*
X125606485Y-100350803D01*
X125598511Y-100346905D01*
X125501393Y-100299427D01*
X125501391Y-100299426D01*
X125433261Y-100289500D01*
X125433260Y-100289500D01*
X123716740Y-100289500D01*
X123716739Y-100289500D01*
X123648608Y-100299426D01*
X123543514Y-100350803D01*
X123460803Y-100433514D01*
X123409426Y-100538608D01*
X123399500Y-100606739D01*
X123399500Y-100973260D01*
X123409426Y-101041391D01*
X123460803Y-101146485D01*
X123543514Y-101229196D01*
X123543515Y-101229196D01*
X123543517Y-101229198D01*
X123648607Y-101280573D01*
X123680261Y-101285185D01*
X123716739Y-101290500D01*
X123716740Y-101290500D01*
X125433261Y-101290500D01*
X125455971Y-101287191D01*
X125501393Y-101280573D01*
X125606483Y-101229198D01*
X125689198Y-101146483D01*
X125689200Y-101146477D01*
X125692077Y-101142450D01*
X125747051Y-101099326D01*
X125792997Y-101090500D01*
X126197679Y-101090500D01*
X126264718Y-101110185D01*
X126285360Y-101126819D01*
X126329036Y-101170495D01*
X126437464Y-101233095D01*
X126558399Y-101265500D01*
X126558401Y-101265500D01*
X126675167Y-101265500D01*
X126742206Y-101285185D01*
X126787961Y-101337989D01*
X126797905Y-101407147D01*
X126768880Y-101470703D01*
X126762848Y-101477181D01*
X125962181Y-102277848D01*
X125900858Y-102311333D01*
X125831166Y-102306349D01*
X125775233Y-102264477D01*
X125750816Y-102199013D01*
X125750500Y-102190167D01*
X125750500Y-101876739D01*
X125740573Y-101808608D01*
X125740573Y-101808607D01*
X125689198Y-101703517D01*
X125689196Y-101703515D01*
X125689196Y-101703514D01*
X125606485Y-101620803D01*
X125501391Y-101569426D01*
X125433261Y-101559500D01*
X125433260Y-101559500D01*
X123716740Y-101559500D01*
X123716739Y-101559500D01*
X123648608Y-101569426D01*
X123543514Y-101620803D01*
X123460805Y-101703512D01*
X123457923Y-101707550D01*
X123402949Y-101750674D01*
X123357003Y-101759500D01*
X122614833Y-101759500D01*
X122547794Y-101739815D01*
X122527152Y-101723181D01*
X122318819Y-101514848D01*
X122285334Y-101453525D01*
X122282500Y-101427167D01*
X122282500Y-100381833D01*
X122302185Y-100314794D01*
X122318819Y-100294152D01*
X122578152Y-100034819D01*
X122639475Y-100001334D01*
X122665833Y-99998500D01*
X123037560Y-99998500D01*
X123037562Y-99998500D01*
X123113989Y-99978021D01*
X123182511Y-99938460D01*
X123238460Y-99882511D01*
X123492460Y-99628511D01*
X123514416Y-99590482D01*
X123532021Y-99559989D01*
X123552500Y-99483562D01*
X123552500Y-98261438D01*
X123542458Y-98223962D01*
X123532022Y-98185012D01*
X123492460Y-98116489D01*
X123434821Y-98058850D01*
X123427189Y-98046443D01*
X123421681Y-98026222D01*
X123411639Y-98007830D01*
X123412685Y-97993190D01*
X123408829Y-97979029D01*
X123415128Y-97959042D01*
X123416623Y-97938138D01*
X123425419Y-97926387D01*
X123429831Y-97912390D01*
X123445936Y-97898981D01*
X123458495Y-97882205D01*
X123458837Y-97881950D01*
X123472711Y-97871711D01*
X123551116Y-97765475D01*
X123594725Y-97640849D01*
X123594805Y-97640000D01*
X123597500Y-97611260D01*
X123597500Y-97005739D01*
X123594725Y-96976150D01*
X123564196Y-96888904D01*
X123551116Y-96851525D01*
X123550515Y-96850711D01*
X123472711Y-96745289D01*
X123472710Y-96745288D01*
X123366476Y-96666884D01*
X123241848Y-96623274D01*
X123241849Y-96623274D01*
X123212260Y-96620500D01*
X123212256Y-96620500D01*
X122631744Y-96620500D01*
X122631740Y-96620500D01*
X122602150Y-96623274D01*
X122477523Y-96666884D01*
X122371289Y-96745288D01*
X122371288Y-96745289D01*
X122292884Y-96851523D01*
X122249274Y-96976150D01*
X122246500Y-97005739D01*
X122246500Y-97591876D01*
X122226815Y-97658915D01*
X122174011Y-97704670D01*
X122104853Y-97714614D01*
X122041297Y-97685589D01*
X122022730Y-97665510D01*
X122017863Y-97658915D01*
X121997150Y-97630850D01*
X121887882Y-97550207D01*
X121887880Y-97550206D01*
X121759700Y-97505353D01*
X121729270Y-97502500D01*
X121729266Y-97502500D01*
X120945734Y-97502500D01*
X120945730Y-97502500D01*
X120915300Y-97505353D01*
X120915298Y-97505353D01*
X120787119Y-97550206D01*
X120787117Y-97550207D01*
X120677850Y-97630850D01*
X120597207Y-97740117D01*
X120574842Y-97804033D01*
X120559112Y-97825963D01*
X120546440Y-97849789D01*
X120539055Y-97853927D01*
X120534120Y-97860808D01*
X120509030Y-97870753D01*
X120485489Y-97883946D01*
X120477038Y-97883434D01*
X120469167Y-97886555D01*
X120442684Y-97881357D01*
X120415747Y-97879728D01*
X120408913Y-97874728D01*
X120400605Y-97873098D01*
X120381137Y-97854408D01*
X120359356Y-97838474D01*
X120354002Y-97828358D01*
X120350203Y-97824711D01*
X120342102Y-97807685D01*
X120255510Y-97583092D01*
X120253541Y-97559254D01*
X120247230Y-97536189D01*
X120250718Y-97525072D01*
X120249760Y-97513459D01*
X120260990Y-97492344D01*
X120268152Y-97469525D01*
X120277580Y-97461152D01*
X120282570Y-97451772D01*
X120297681Y-97443303D01*
X120314916Y-97427999D01*
X120325199Y-97422760D01*
X120478073Y-97311690D01*
X120611690Y-97178073D01*
X120722760Y-97025199D01*
X120808547Y-96856832D01*
X120866940Y-96677118D01*
X120866958Y-96677005D01*
X120896500Y-96490486D01*
X120896500Y-96301513D01*
X120866940Y-96114881D01*
X120832777Y-96009739D01*
X120808547Y-95935168D01*
X120808545Y-95935165D01*
X120808545Y-95935163D01*
X120737751Y-95796223D01*
X120722760Y-95766801D01*
X120611690Y-95613927D01*
X120478073Y-95480310D01*
X120363155Y-95396816D01*
X120320491Y-95341488D01*
X120314512Y-95271874D01*
X120347118Y-95210079D01*
X120407957Y-95175722D01*
X120436042Y-95172500D01*
X121005560Y-95172500D01*
X121005562Y-95172500D01*
X121081989Y-95152021D01*
X121150511Y-95112460D01*
X121206460Y-95056511D01*
X121460460Y-94802511D01*
X121463954Y-94796460D01*
X121464512Y-94795494D01*
X121476901Y-94774032D01*
X121500021Y-94733989D01*
X121520500Y-94657562D01*
X121520500Y-93517321D01*
X121540185Y-93450282D01*
X121556819Y-93429640D01*
X121577161Y-93409298D01*
X121600495Y-93385964D01*
X121663095Y-93277536D01*
X121695500Y-93156601D01*
X121695500Y-93031399D01*
X121663095Y-92910464D01*
X121600495Y-92802036D01*
X121511964Y-92713505D01*
X121403536Y-92650905D01*
X121403537Y-92650905D01*
X121363224Y-92640103D01*
X121282601Y-92618500D01*
X121157399Y-92618500D01*
X121076775Y-92640103D01*
X121036463Y-92650905D01*
X120928037Y-92713503D01*
X120850987Y-92790554D01*
X120789663Y-92824038D01*
X120719972Y-92819054D01*
X120664038Y-92777182D01*
X120663536Y-92776506D01*
X120646621Y-92753587D01*
X120642711Y-92748289D01*
X120642709Y-92748288D01*
X120642709Y-92748287D01*
X120536476Y-92669884D01*
X120411848Y-92626274D01*
X120411849Y-92626274D01*
X120382260Y-92623500D01*
X120382256Y-92623500D01*
X119801744Y-92623500D01*
X119801740Y-92623500D01*
X119772150Y-92626274D01*
X119647523Y-92669884D01*
X119541289Y-92748288D01*
X119541288Y-92748289D01*
X119462884Y-92854523D01*
X119419274Y-92979150D01*
X119416500Y-93008739D01*
X119416500Y-93614256D01*
X119419274Y-93643849D01*
X119462884Y-93768476D01*
X119541288Y-93874710D01*
X119541289Y-93874711D01*
X119647523Y-93953115D01*
X119647524Y-93953115D01*
X119647525Y-93953116D01*
X119667227Y-93960010D01*
X119779274Y-93999218D01*
X119778713Y-94000819D01*
X119831914Y-94029921D01*
X119834048Y-94032111D01*
X119844192Y-94042784D01*
X119851540Y-94055511D01*
X119947307Y-94151278D01*
X119948381Y-94152408D01*
X119963656Y-94182155D01*
X119979666Y-94211475D01*
X119979918Y-94213825D01*
X119980297Y-94214562D01*
X119980155Y-94216023D01*
X119982500Y-94237833D01*
X119982500Y-94299601D01*
X120013530Y-94415408D01*
X120011868Y-94485256D01*
X119972706Y-94543118D01*
X119908478Y-94570623D01*
X119893756Y-94571500D01*
X119617833Y-94571500D01*
X119550794Y-94551815D01*
X119530152Y-94535181D01*
X118737512Y-93742541D01*
X118737504Y-93742535D01*
X118713416Y-93728628D01*
X118713416Y-93728627D01*
X118713413Y-93728627D01*
X118668994Y-93702981D01*
X118668991Y-93702979D01*
X118630775Y-93692739D01*
X118592562Y-93682500D01*
X118592560Y-93682500D01*
X116188833Y-93682500D01*
X116159392Y-93673855D01*
X116129406Y-93667332D01*
X116124390Y-93663577D01*
X116121794Y-93662815D01*
X116101152Y-93646181D01*
X115925592Y-93470621D01*
X115892107Y-93409298D01*
X115891656Y-93358749D01*
X115908881Y-93272150D01*
X115930500Y-93163465D01*
X115930500Y-92956535D01*
X115890130Y-92753580D01*
X115810941Y-92562402D01*
X115695977Y-92390345D01*
X115695976Y-92390344D01*
X115695975Y-92390342D01*
X115549657Y-92244024D01*
X115441453Y-92171725D01*
X115377598Y-92129059D01*
X115375321Y-92128116D01*
X115186420Y-92049870D01*
X115186412Y-92049868D01*
X114983469Y-92009500D01*
X114983465Y-92009500D01*
X114776535Y-92009500D01*
X114776530Y-92009500D01*
X114573587Y-92049868D01*
X114573579Y-92049870D01*
X114382403Y-92129058D01*
X114210342Y-92244024D01*
X114064022Y-92390344D01*
X113977602Y-92519683D01*
X113923990Y-92564488D01*
X113854665Y-92573195D01*
X113791638Y-92543041D01*
X113754918Y-92483598D01*
X113750500Y-92450792D01*
X113750500Y-91129207D01*
X113770185Y-91062168D01*
X113822989Y-91016413D01*
X113892147Y-91006469D01*
X113955703Y-91035494D01*
X113977601Y-91060315D01*
X113994713Y-91085924D01*
X114064024Y-91189657D01*
X114210342Y-91335975D01*
X114210345Y-91335977D01*
X114382402Y-91450941D01*
X114573580Y-91530130D01*
X114744506Y-91564129D01*
X114776530Y-91570499D01*
X114776534Y-91570500D01*
X114776535Y-91570500D01*
X114983466Y-91570500D01*
X114983467Y-91570499D01*
X115186420Y-91530130D01*
X115377598Y-91450941D01*
X115549655Y-91335977D01*
X115695977Y-91189655D01*
X115810941Y-91017598D01*
X115890130Y-90826420D01*
X115930500Y-90623465D01*
X115930500Y-90416535D01*
X115890130Y-90213580D01*
X115810941Y-90022402D01*
X115695977Y-89850345D01*
X115695976Y-89850344D01*
X115695975Y-89850342D01*
X115549657Y-89704024D01*
X115432871Y-89625991D01*
X115377598Y-89589059D01*
X115338024Y-89572667D01*
X115186420Y-89509870D01*
X115186412Y-89509868D01*
X114983469Y-89469500D01*
X114983465Y-89469500D01*
X114776535Y-89469500D01*
X114776530Y-89469500D01*
X114573587Y-89509868D01*
X114573579Y-89509870D01*
X114382403Y-89589058D01*
X114210342Y-89704024D01*
X114064022Y-89850344D01*
X113977602Y-89979683D01*
X113923990Y-90024488D01*
X113854665Y-90033195D01*
X113791638Y-90003041D01*
X113754918Y-89943598D01*
X113750500Y-89910792D01*
X113750500Y-88174345D01*
X113770185Y-88107306D01*
X113822989Y-88061551D01*
X113892147Y-88051607D01*
X113955703Y-88080632D01*
X113962181Y-88086664D01*
X114044961Y-88169444D01*
X114044965Y-88169447D01*
X114191688Y-88259948D01*
X114191699Y-88259953D01*
X114355347Y-88314180D01*
X114456352Y-88324499D01*
X114493000Y-88324499D01*
X114493000Y-87587000D01*
X114993000Y-87587000D01*
X114993000Y-88324499D01*
X115029640Y-88324499D01*
X115029654Y-88324498D01*
X115130652Y-88314180D01*
X115294300Y-88259953D01*
X115294311Y-88259948D01*
X115441033Y-88169448D01*
X115549667Y-88060814D01*
X115610990Y-88027329D01*
X115680682Y-88032313D01*
X115725030Y-88060813D01*
X115822965Y-88158747D01*
X115969688Y-88249248D01*
X115969699Y-88249253D01*
X116133347Y-88303480D01*
X116234352Y-88313799D01*
X116271000Y-88313799D01*
X116771000Y-88313799D01*
X116807640Y-88313799D01*
X116807654Y-88313798D01*
X116908652Y-88303480D01*
X117072300Y-88249253D01*
X117072311Y-88249248D01*
X117219034Y-88158747D01*
X117219038Y-88158744D01*
X117316969Y-88060814D01*
X117378292Y-88027329D01*
X117447984Y-88032313D01*
X117492331Y-88060814D01*
X117600961Y-88169444D01*
X117600965Y-88169447D01*
X117747688Y-88259948D01*
X117747699Y-88259953D01*
X117911347Y-88314180D01*
X118012352Y-88324499D01*
X118049000Y-88324499D01*
X118549000Y-88324499D01*
X118585640Y-88324499D01*
X118585654Y-88324498D01*
X118686652Y-88314180D01*
X118850300Y-88259953D01*
X118850311Y-88259948D01*
X118997034Y-88169447D01*
X118997038Y-88169444D01*
X119100319Y-88066164D01*
X119161642Y-88032679D01*
X119231334Y-88037663D01*
X119275681Y-88066164D01*
X119378961Y-88169444D01*
X119378965Y-88169447D01*
X119525688Y-88259948D01*
X119525699Y-88259953D01*
X119689347Y-88314180D01*
X119790352Y-88324499D01*
X119827000Y-88324499D01*
X119827000Y-87587000D01*
X118549000Y-87587000D01*
X118549000Y-88324499D01*
X118049000Y-88324499D01*
X118049000Y-87587000D01*
X117256062Y-87587000D01*
X117219622Y-87576300D01*
X116771000Y-87576300D01*
X116771000Y-88313799D01*
X116271000Y-88313799D01*
X116271000Y-87576300D01*
X115826701Y-87576300D01*
X115812296Y-87584166D01*
X115785938Y-87587000D01*
X114993000Y-87587000D01*
X114493000Y-87587000D01*
X114493000Y-87461000D01*
X114512685Y-87393961D01*
X114565489Y-87348206D01*
X114617000Y-87337000D01*
X114743000Y-87337000D01*
X114743000Y-87211000D01*
X114762685Y-87143961D01*
X114815489Y-87098206D01*
X114867000Y-87087000D01*
X115437299Y-87087000D01*
X115451704Y-87079134D01*
X115478062Y-87076300D01*
X117563938Y-87076300D01*
X117600378Y-87087000D01*
G37*
%TD.AperFunction*%
%TA.AperFunction,Conductor*%
G36*
X114679409Y-81270185D02*
G01*
X114725164Y-81322989D01*
X114735108Y-81392147D01*
X114706083Y-81455703D01*
X114674369Y-81481887D01*
X114672271Y-81483099D01*
X114578037Y-81537504D01*
X114578034Y-81537506D01*
X114489506Y-81626034D01*
X114489500Y-81626042D01*
X114476309Y-81648890D01*
X114474597Y-81650521D01*
X114473956Y-81652798D01*
X114449438Y-81674510D01*
X114425742Y-81697105D01*
X114423420Y-81697552D01*
X114421649Y-81699121D01*
X114388323Y-81709362D01*
X114355582Y-81714548D01*
X114355580Y-81714548D01*
X114355580Y-81714549D01*
X114237249Y-81774842D01*
X114237248Y-81774843D01*
X114237243Y-81774846D01*
X114143346Y-81868743D01*
X114143343Y-81868748D01*
X114143342Y-81868749D01*
X114127468Y-81899904D01*
X114083047Y-81987082D01*
X114067500Y-82085248D01*
X114067500Y-82588751D01*
X114083047Y-82686917D01*
X114083049Y-82686920D01*
X114143342Y-82805251D01*
X114143344Y-82805253D01*
X114143346Y-82805256D01*
X114237243Y-82899153D01*
X114237245Y-82899154D01*
X114237249Y-82899158D01*
X114355580Y-82959451D01*
X114355581Y-82959451D01*
X114355583Y-82959452D01*
X114355582Y-82959452D01*
X114453749Y-82975000D01*
X114453754Y-82975000D01*
X115032251Y-82975000D01*
X115130417Y-82959452D01*
X115130418Y-82959451D01*
X115130420Y-82959451D01*
X115248751Y-82899158D01*
X115342658Y-82805251D01*
X115402951Y-82686920D01*
X115402951Y-82686918D01*
X115402952Y-82686917D01*
X115418500Y-82588751D01*
X115418500Y-82085248D01*
X115402952Y-81987084D01*
X115402951Y-81987082D01*
X115402951Y-81987080D01*
X115358531Y-81899900D01*
X115346077Y-81859788D01*
X115345500Y-81855404D01*
X115345500Y-81855399D01*
X115313095Y-81734464D01*
X115250495Y-81626036D01*
X115161964Y-81537505D01*
X115065630Y-81481887D01*
X115017415Y-81431321D01*
X115004191Y-81362714D01*
X115030159Y-81297849D01*
X115087073Y-81257320D01*
X115127630Y-81250500D01*
X116390370Y-81250500D01*
X116457409Y-81270185D01*
X116503164Y-81322989D01*
X116513108Y-81392147D01*
X116484083Y-81455703D01*
X116452369Y-81481887D01*
X116450271Y-81483099D01*
X116356037Y-81537504D01*
X116356034Y-81537506D01*
X116267507Y-81626033D01*
X116267500Y-81626042D01*
X116258278Y-81642015D01*
X116207709Y-81690228D01*
X116170294Y-81702483D01*
X116133582Y-81708298D01*
X116133580Y-81708298D01*
X116133580Y-81708299D01*
X116015249Y-81768592D01*
X116015248Y-81768593D01*
X116015243Y-81768596D01*
X115921346Y-81862493D01*
X115921343Y-81862498D01*
X115921342Y-81862499D01*
X115916807Y-81871400D01*
X115861047Y-81980832D01*
X115845500Y-82078998D01*
X115845500Y-82582501D01*
X115861047Y-82680667D01*
X115874298Y-82706672D01*
X115921342Y-82799001D01*
X115921344Y-82799003D01*
X115921346Y-82799006D01*
X116015243Y-82892903D01*
X116015245Y-82892904D01*
X116015249Y-82892908D01*
X116133580Y-82953201D01*
X116133581Y-82953201D01*
X116133583Y-82953202D01*
X116133582Y-82953202D01*
X116231749Y-82968750D01*
X116231754Y-82968750D01*
X116810251Y-82968750D01*
X116908417Y-82953202D01*
X116908418Y-82953201D01*
X116908420Y-82953201D01*
X117026751Y-82892908D01*
X117120658Y-82799001D01*
X117180951Y-82680670D01*
X117180951Y-82680668D01*
X117180952Y-82680667D01*
X117196500Y-82582501D01*
X117196500Y-82078998D01*
X117180952Y-81980832D01*
X117135423Y-81891475D01*
X117126577Y-81862987D01*
X117125603Y-81863249D01*
X117123066Y-81853780D01*
X117091095Y-81734464D01*
X117028495Y-81626036D01*
X116939964Y-81537505D01*
X116843630Y-81481887D01*
X116795415Y-81431321D01*
X116782191Y-81362714D01*
X116808159Y-81297849D01*
X116865073Y-81257320D01*
X116905630Y-81250500D01*
X118168370Y-81250500D01*
X118235409Y-81270185D01*
X118281164Y-81322989D01*
X118291108Y-81392147D01*
X118262083Y-81455703D01*
X118230369Y-81481887D01*
X118228271Y-81483099D01*
X118134037Y-81537504D01*
X118134034Y-81537506D01*
X118045506Y-81626034D01*
X118045500Y-81626042D01*
X118032309Y-81648890D01*
X117981742Y-81697105D01*
X117944323Y-81709362D01*
X117911582Y-81714548D01*
X117911580Y-81714548D01*
X117911580Y-81714549D01*
X117793249Y-81774842D01*
X117793248Y-81774843D01*
X117793243Y-81774846D01*
X117699346Y-81868743D01*
X117699343Y-81868748D01*
X117699342Y-81868749D01*
X117683468Y-81899904D01*
X117639047Y-81987082D01*
X117623500Y-82085248D01*
X117623500Y-82588751D01*
X117639047Y-82686917D01*
X117639049Y-82686920D01*
X117699342Y-82805251D01*
X117699344Y-82805253D01*
X117699346Y-82805256D01*
X117793243Y-82899153D01*
X117793245Y-82899154D01*
X117793249Y-82899158D01*
X117911580Y-82959451D01*
X117911581Y-82959451D01*
X117911583Y-82959452D01*
X117911582Y-82959452D01*
X118009749Y-82975000D01*
X118009754Y-82975000D01*
X118588251Y-82975000D01*
X118686417Y-82959452D01*
X118686418Y-82959451D01*
X118686420Y-82959451D01*
X118804751Y-82899158D01*
X118898658Y-82805251D01*
X118958951Y-82686920D01*
X118958951Y-82686918D01*
X118958952Y-82686917D01*
X118974500Y-82588751D01*
X118974500Y-82085248D01*
X118958952Y-81987084D01*
X118958951Y-81987082D01*
X118958951Y-81987080D01*
X118914531Y-81899900D01*
X118902077Y-81859788D01*
X118901500Y-81855404D01*
X118901500Y-81855399D01*
X118869095Y-81734464D01*
X118806495Y-81626036D01*
X118717964Y-81537505D01*
X118621630Y-81481887D01*
X118573415Y-81431321D01*
X118560191Y-81362714D01*
X118586159Y-81297849D01*
X118643073Y-81257320D01*
X118683630Y-81250500D01*
X119946370Y-81250500D01*
X120013409Y-81270185D01*
X120059164Y-81322989D01*
X120069108Y-81392147D01*
X120040083Y-81455703D01*
X120008369Y-81481887D01*
X120006271Y-81483099D01*
X119912037Y-81537504D01*
X119912034Y-81537506D01*
X119823506Y-81626034D01*
X119823500Y-81626042D01*
X119810309Y-81648890D01*
X119759742Y-81697105D01*
X119722323Y-81709362D01*
X119689582Y-81714548D01*
X119689580Y-81714548D01*
X119689580Y-81714549D01*
X119571249Y-81774842D01*
X119571248Y-81774843D01*
X119571243Y-81774846D01*
X119477346Y-81868743D01*
X119477343Y-81868748D01*
X119477342Y-81868749D01*
X119461468Y-81899904D01*
X119417047Y-81987082D01*
X119401500Y-82085248D01*
X119401500Y-82588751D01*
X119417047Y-82686917D01*
X119417049Y-82686920D01*
X119477342Y-82805251D01*
X119477344Y-82805253D01*
X119477346Y-82805256D01*
X119571243Y-82899153D01*
X119571245Y-82899154D01*
X119571249Y-82899158D01*
X119689580Y-82959451D01*
X119689581Y-82959451D01*
X119689583Y-82959452D01*
X119689582Y-82959452D01*
X119787749Y-82975000D01*
X119787754Y-82975000D01*
X120366251Y-82975000D01*
X120464417Y-82959452D01*
X120464418Y-82959451D01*
X120464420Y-82959451D01*
X120582751Y-82899158D01*
X120676658Y-82805251D01*
X120736951Y-82686920D01*
X120736951Y-82686918D01*
X120736952Y-82686917D01*
X120752500Y-82588751D01*
X120752500Y-82085248D01*
X120736952Y-81987084D01*
X120736951Y-81987082D01*
X120736951Y-81987080D01*
X120692531Y-81899900D01*
X120680077Y-81859788D01*
X120679500Y-81855404D01*
X120679500Y-81855399D01*
X120647095Y-81734464D01*
X120584495Y-81626036D01*
X120495964Y-81537505D01*
X120399630Y-81481887D01*
X120351415Y-81431321D01*
X120338191Y-81362714D01*
X120364159Y-81297849D01*
X120421073Y-81257320D01*
X120461630Y-81250500D01*
X131533840Y-81250500D01*
X131600879Y-81270185D01*
X131646634Y-81322989D01*
X131656578Y-81392147D01*
X131639378Y-81439598D01*
X131612549Y-81483092D01*
X131612546Y-81483099D01*
X131558319Y-81646747D01*
X131548000Y-81747745D01*
X131548000Y-81796900D01*
X132399000Y-81796900D01*
X132466039Y-81816585D01*
X132511794Y-81869389D01*
X132523000Y-81920900D01*
X132523000Y-82172900D01*
X132503315Y-82239939D01*
X132450511Y-82285694D01*
X132399000Y-82296900D01*
X131548001Y-82296900D01*
X131548001Y-82346054D01*
X131558319Y-82447052D01*
X131612546Y-82610700D01*
X131612551Y-82610711D01*
X131703052Y-82757434D01*
X131703055Y-82757438D01*
X131824961Y-82879344D01*
X131824965Y-82879347D01*
X131971688Y-82969848D01*
X131971701Y-82969854D01*
X132064205Y-83000506D01*
X132121650Y-83040278D01*
X132148474Y-83104793D01*
X132136160Y-83173569D01*
X132088617Y-83224770D01*
X132083150Y-83227839D01*
X132078523Y-83230284D01*
X131972289Y-83308688D01*
X131972288Y-83308689D01*
X131893884Y-83414923D01*
X131850274Y-83539550D01*
X131847500Y-83569139D01*
X131847500Y-84174660D01*
X131850274Y-84204249D01*
X131893884Y-84328876D01*
X131972288Y-84435110D01*
X131972289Y-84435111D01*
X132078523Y-84513515D01*
X132078524Y-84513515D01*
X132078525Y-84513516D01*
X132203151Y-84557125D01*
X132203150Y-84557125D01*
X132232740Y-84559900D01*
X132232744Y-84559900D01*
X132813260Y-84559900D01*
X132842849Y-84557125D01*
X132855149Y-84552821D01*
X132967475Y-84513516D01*
X133073711Y-84435111D01*
X133152116Y-84328875D01*
X133177264Y-84257007D01*
X133177811Y-84255445D01*
X133191429Y-84236457D01*
X133201139Y-84215197D01*
X133211415Y-84208593D01*
X133218533Y-84198669D01*
X133240256Y-84190057D01*
X133259917Y-84177423D01*
X133279083Y-84174667D01*
X133283486Y-84172922D01*
X133294852Y-84172400D01*
X133429428Y-84172400D01*
X133496467Y-84192085D01*
X133517109Y-84208719D01*
X133617443Y-84309053D01*
X133617445Y-84309054D01*
X133617449Y-84309058D01*
X133735780Y-84369351D01*
X133735781Y-84369351D01*
X133735783Y-84369352D01*
X133735782Y-84369352D01*
X133833949Y-84384900D01*
X133833954Y-84384900D01*
X134412451Y-84384900D01*
X134510617Y-84369352D01*
X134510618Y-84369351D01*
X134510620Y-84369351D01*
X134628951Y-84309058D01*
X134722858Y-84215151D01*
X134783151Y-84096820D01*
X134783151Y-84096818D01*
X134783152Y-84096817D01*
X134798700Y-83998651D01*
X134798700Y-83495148D01*
X134783152Y-83396982D01*
X134771542Y-83374197D01*
X134722858Y-83278649D01*
X134722854Y-83278645D01*
X134722853Y-83278643D01*
X134628956Y-83184746D01*
X134628953Y-83184744D01*
X134628951Y-83184742D01*
X134510620Y-83124449D01*
X134510619Y-83124448D01*
X134510616Y-83124447D01*
X134510617Y-83124447D01*
X134412451Y-83108900D01*
X134412446Y-83108900D01*
X133833954Y-83108900D01*
X133833949Y-83108900D01*
X133735782Y-83124447D01*
X133658503Y-83163824D01*
X133617449Y-83184742D01*
X133617448Y-83184743D01*
X133617443Y-83184746D01*
X133523546Y-83278643D01*
X133523543Y-83278648D01*
X133523542Y-83278649D01*
X133508236Y-83308689D01*
X133463247Y-83396983D01*
X133452190Y-83466798D01*
X133437593Y-83497589D01*
X133423430Y-83528603D01*
X133422655Y-83529100D01*
X133422261Y-83529933D01*
X133393322Y-83547951D01*
X133364652Y-83566377D01*
X133363454Y-83566549D01*
X133362949Y-83566864D01*
X133329717Y-83571400D01*
X133294852Y-83571400D01*
X133227813Y-83551715D01*
X133182058Y-83498911D01*
X133177811Y-83488355D01*
X133162202Y-83443749D01*
X133152116Y-83414925D01*
X133138874Y-83396983D01*
X133073711Y-83308689D01*
X133073710Y-83308688D01*
X132967479Y-83230287D01*
X132967475Y-83230284D01*
X132967470Y-83230282D01*
X132962852Y-83227841D01*
X132912781Y-83179110D01*
X132897004Y-83111045D01*
X132920531Y-83045255D01*
X132975891Y-83002629D01*
X132981794Y-83000506D01*
X133074298Y-82969854D01*
X133074311Y-82969848D01*
X133221034Y-82879347D01*
X133221038Y-82879344D01*
X133342945Y-82757437D01*
X133374257Y-82706672D01*
X133426204Y-82659947D01*
X133495166Y-82648724D01*
X133559249Y-82676567D01*
X133567477Y-82684087D01*
X133617443Y-82734053D01*
X133617445Y-82734054D01*
X133617449Y-82734058D01*
X133735780Y-82794351D01*
X133735781Y-82794351D01*
X133735783Y-82794352D01*
X133735782Y-82794352D01*
X133833949Y-82809900D01*
X133833954Y-82809900D01*
X134412451Y-82809900D01*
X134510617Y-82794352D01*
X134510618Y-82794351D01*
X134510620Y-82794351D01*
X134628951Y-82734058D01*
X134722858Y-82640151D01*
X134773835Y-82540102D01*
X134784282Y-82529040D01*
X134790605Y-82515197D01*
X134807784Y-82504156D01*
X134821807Y-82489309D01*
X134837488Y-82485067D01*
X134849383Y-82477423D01*
X134884318Y-82472400D01*
X134995179Y-82472400D01*
X135062218Y-82492085D01*
X135082860Y-82508719D01*
X135152036Y-82577895D01*
X135260464Y-82640495D01*
X135381399Y-82672900D01*
X135381401Y-82672900D01*
X135506599Y-82672900D01*
X135506601Y-82672900D01*
X135627536Y-82640495D01*
X135658291Y-82622738D01*
X135726190Y-82606265D01*
X135792217Y-82629117D01*
X135835408Y-82684037D01*
X135841483Y-82723929D01*
X136584591Y-83467037D01*
X136521007Y-83484075D01*
X136406993Y-83549901D01*
X136313901Y-83642993D01*
X136248075Y-83757007D01*
X136231037Y-83820590D01*
X135491340Y-83080894D01*
X135431084Y-83163830D01*
X135323897Y-83374197D01*
X135250934Y-83598752D01*
X135214000Y-83831947D01*
X135214000Y-84068052D01*
X135250934Y-84301247D01*
X135323897Y-84525802D01*
X135431087Y-84736174D01*
X135491338Y-84819104D01*
X135491340Y-84819105D01*
X136231037Y-84079408D01*
X136248075Y-84142993D01*
X136313901Y-84257007D01*
X136406993Y-84350099D01*
X136521007Y-84415925D01*
X136584590Y-84432962D01*
X135844893Y-85172658D01*
X135927828Y-85232914D01*
X136138197Y-85340102D01*
X136362752Y-85413065D01*
X136362751Y-85413065D01*
X136595948Y-85450000D01*
X136832052Y-85450000D01*
X137065247Y-85413065D01*
X137289802Y-85340102D01*
X137500163Y-85232918D01*
X137500169Y-85232914D01*
X137583104Y-85172658D01*
X137583105Y-85172658D01*
X136843408Y-84432962D01*
X136906993Y-84415925D01*
X137021007Y-84350099D01*
X137114099Y-84257007D01*
X137179925Y-84142993D01*
X137196962Y-84079408D01*
X137936658Y-84819105D01*
X137936658Y-84819104D01*
X137996914Y-84736169D01*
X137996918Y-84736163D01*
X138104102Y-84525802D01*
X138177065Y-84301247D01*
X138214000Y-84068052D01*
X138214000Y-83831947D01*
X138177065Y-83598752D01*
X138104102Y-83374197D01*
X137996912Y-83163824D01*
X137964563Y-83119300D01*
X137941082Y-83053494D01*
X137956907Y-82985440D01*
X138007012Y-82936745D01*
X138052732Y-82923011D01*
X138057918Y-82922500D01*
X138202913Y-82893658D01*
X138339495Y-82837084D01*
X138462416Y-82754951D01*
X138566951Y-82650416D01*
X138573582Y-82640492D01*
X138622398Y-82567434D01*
X138676010Y-82522629D01*
X138745335Y-82513922D01*
X138808362Y-82544076D01*
X138845082Y-82603519D01*
X138849500Y-82636325D01*
X138849500Y-89929826D01*
X138829815Y-89996865D01*
X138777011Y-90042620D01*
X138707853Y-90052564D01*
X138644297Y-90023539D01*
X138622398Y-89998717D01*
X138545977Y-89884344D01*
X138399657Y-89738024D01*
X138227595Y-89623057D01*
X138107047Y-89573124D01*
X138052643Y-89529282D01*
X138030579Y-89462988D01*
X138030500Y-89458563D01*
X138030500Y-86405321D01*
X138050185Y-86338282D01*
X138066819Y-86317640D01*
X138110495Y-86273964D01*
X138173095Y-86165536D01*
X138205500Y-86044601D01*
X138205500Y-85919399D01*
X138173095Y-85798464D01*
X138110495Y-85690036D01*
X138021964Y-85601505D01*
X137913536Y-85538905D01*
X137913537Y-85538905D01*
X137873224Y-85528103D01*
X137792601Y-85506500D01*
X137667399Y-85506500D01*
X137586775Y-85528103D01*
X137546463Y-85538905D01*
X137438037Y-85601504D01*
X137438034Y-85601506D01*
X137349506Y-85690034D01*
X137349504Y-85690037D01*
X137286905Y-85798463D01*
X137282539Y-85814756D01*
X137254500Y-85919399D01*
X137254500Y-86044601D01*
X137286905Y-86165536D01*
X137335403Y-86249539D01*
X137349504Y-86273962D01*
X137349506Y-86273965D01*
X137393181Y-86317640D01*
X137426666Y-86378963D01*
X137429500Y-86405321D01*
X137429500Y-89458563D01*
X137409815Y-89525602D01*
X137357011Y-89571357D01*
X137352953Y-89573124D01*
X137232404Y-89623057D01*
X137060342Y-89738024D01*
X137060341Y-89738025D01*
X136972181Y-89826186D01*
X136910858Y-89859671D01*
X136841166Y-89854687D01*
X136785233Y-89812815D01*
X136760816Y-89747351D01*
X136760500Y-89738505D01*
X136760500Y-87040321D01*
X136780185Y-86973282D01*
X136796819Y-86952640D01*
X136817312Y-86932147D01*
X136840495Y-86908964D01*
X136903095Y-86800536D01*
X136935500Y-86679601D01*
X136935500Y-86554399D01*
X136903095Y-86433464D01*
X136840495Y-86325036D01*
X136751964Y-86236505D01*
X136643536Y-86173905D01*
X136643537Y-86173905D01*
X136588392Y-86159129D01*
X136522601Y-86141500D01*
X136397399Y-86141500D01*
X136331608Y-86159129D01*
X136276463Y-86173905D01*
X136168037Y-86236504D01*
X136168034Y-86236506D01*
X136079506Y-86325034D01*
X136079504Y-86325037D01*
X136016905Y-86433463D01*
X136000724Y-86493852D01*
X135984500Y-86554399D01*
X135984500Y-86679601D01*
X136016905Y-86800536D01*
X136067930Y-86888916D01*
X136079504Y-86908962D01*
X136079506Y-86908965D01*
X136123181Y-86952640D01*
X136156666Y-87013963D01*
X136159500Y-87040321D01*
X136159500Y-88174035D01*
X136139815Y-88241074D01*
X136087011Y-88286829D01*
X136017853Y-88296773D01*
X135954297Y-88267748D01*
X135947819Y-88261716D01*
X134575019Y-86888916D01*
X134541534Y-86827593D01*
X134538700Y-86801235D01*
X134538700Y-86205249D01*
X134538699Y-86205247D01*
X134527068Y-86146770D01*
X134527067Y-86146769D01*
X134482752Y-86080447D01*
X134416430Y-86036132D01*
X134416429Y-86036131D01*
X134357952Y-86024500D01*
X134357948Y-86024500D01*
X132618452Y-86024500D01*
X132618447Y-86024500D01*
X132559970Y-86036131D01*
X132559969Y-86036132D01*
X132493647Y-86080447D01*
X132449332Y-86146769D01*
X132449331Y-86146770D01*
X132437700Y-86205247D01*
X132437700Y-87944752D01*
X132449331Y-88003229D01*
X132449332Y-88003230D01*
X132493647Y-88069552D01*
X132559969Y-88113867D01*
X132559970Y-88113868D01*
X132618447Y-88125499D01*
X132618450Y-88125500D01*
X132922152Y-88125500D01*
X132989191Y-88145185D01*
X133034946Y-88197989D01*
X133044890Y-88267147D01*
X133015865Y-88330703D01*
X132973935Y-88360938D01*
X132974321Y-88361694D01*
X132780642Y-88460379D01*
X132608740Y-88585272D01*
X132608735Y-88585276D01*
X132458476Y-88735535D01*
X132458472Y-88735540D01*
X132333579Y-88907442D01*
X132237104Y-89096782D01*
X132171442Y-89298870D01*
X132171442Y-89298873D01*
X132160969Y-89365000D01*
X133055188Y-89365000D01*
X133022275Y-89422007D01*
X132988200Y-89549174D01*
X132988200Y-89680826D01*
X133022275Y-89807993D01*
X133055188Y-89865000D01*
X132160969Y-89865000D01*
X132171442Y-89931126D01*
X132171442Y-89931129D01*
X132237104Y-90133217D01*
X132333579Y-90322557D01*
X132458472Y-90494459D01*
X132458476Y-90494464D01*
X132608735Y-90644723D01*
X132608740Y-90644727D01*
X132780642Y-90769620D01*
X132969982Y-90866095D01*
X133146173Y-90923343D01*
X133203848Y-90962780D01*
X133231047Y-91027139D01*
X133219132Y-91095985D01*
X133171888Y-91147461D01*
X133155308Y-91155835D01*
X132990603Y-91224057D01*
X132818542Y-91339024D01*
X132672224Y-91485342D01*
X132557258Y-91657403D01*
X132478070Y-91848579D01*
X132478068Y-91848587D01*
X132437700Y-92051530D01*
X132437700Y-92088294D01*
X132418015Y-92155333D01*
X132365211Y-92201088D01*
X132296053Y-92211032D01*
X132251701Y-92195682D01*
X132184536Y-92156905D01*
X132184537Y-92156905D01*
X132136393Y-92144005D01*
X132063601Y-92124500D01*
X131938399Y-92124500D01*
X131903677Y-92133804D01*
X131817462Y-92156905D01*
X131817459Y-92156907D01*
X131761755Y-92189067D01*
X131693855Y-92205538D01*
X131627828Y-92182685D01*
X131584639Y-92127763D01*
X131582728Y-92122667D01*
X131552793Y-92037118D01*
X131472150Y-91927850D01*
X131362882Y-91847207D01*
X131362880Y-91847206D01*
X131234700Y-91802353D01*
X131204270Y-91799500D01*
X131204266Y-91799500D01*
X130195734Y-91799500D01*
X130195730Y-91799500D01*
X130165300Y-91802353D01*
X130165298Y-91802353D01*
X130037119Y-91847206D01*
X130037117Y-91847207D01*
X129927850Y-91927850D01*
X129847207Y-92037117D01*
X129847206Y-92037119D01*
X129817041Y-92123326D01*
X129776319Y-92180102D01*
X129711366Y-92205849D01*
X129642805Y-92192392D01*
X129592402Y-92144005D01*
X129582959Y-92123326D01*
X129552793Y-92037119D01*
X129552792Y-92037117D01*
X129472150Y-91927850D01*
X129362882Y-91847207D01*
X129362880Y-91847206D01*
X129234700Y-91802353D01*
X129204270Y-91799500D01*
X129204266Y-91799500D01*
X128195734Y-91799500D01*
X128195730Y-91799500D01*
X128165300Y-91802353D01*
X128165298Y-91802353D01*
X128037116Y-91847207D01*
X128032434Y-91849682D01*
X127963964Y-91863600D01*
X127898840Y-91838290D01*
X127857737Y-91781789D01*
X127850500Y-91740048D01*
X127850500Y-91459951D01*
X127870185Y-91392912D01*
X127922989Y-91347157D01*
X127992147Y-91337213D01*
X128032440Y-91350320D01*
X128037112Y-91352789D01*
X128037118Y-91352793D01*
X128101209Y-91375219D01*
X128165299Y-91397646D01*
X128195730Y-91400500D01*
X128195734Y-91400500D01*
X129204270Y-91400500D01*
X129234699Y-91397646D01*
X129234701Y-91397646D01*
X129298790Y-91375219D01*
X129362882Y-91352793D01*
X129472150Y-91272150D01*
X129552793Y-91162882D01*
X129582959Y-91076673D01*
X129623681Y-91019897D01*
X129688633Y-90994150D01*
X129757195Y-91007606D01*
X129807598Y-91055994D01*
X129817041Y-91076673D01*
X129844151Y-91154150D01*
X129847207Y-91162882D01*
X129927850Y-91272150D01*
X130037118Y-91352793D01*
X130079845Y-91367744D01*
X130165299Y-91397646D01*
X130195730Y-91400500D01*
X130195734Y-91400500D01*
X131204270Y-91400500D01*
X131234699Y-91397646D01*
X131234701Y-91397646D01*
X131298790Y-91375219D01*
X131362882Y-91352793D01*
X131472150Y-91272150D01*
X131552793Y-91162882D01*
X131582959Y-91076673D01*
X131597646Y-91034701D01*
X131597646Y-91034699D01*
X131600500Y-91004269D01*
X131600500Y-90195730D01*
X131597646Y-90165300D01*
X131597646Y-90165298D01*
X131552793Y-90037119D01*
X131552792Y-90037117D01*
X131472150Y-89927850D01*
X131362882Y-89847207D01*
X131362880Y-89847206D01*
X131234700Y-89802353D01*
X131204270Y-89799500D01*
X131204266Y-89799500D01*
X131124500Y-89799500D01*
X131057461Y-89779815D01*
X131011706Y-89727011D01*
X131000500Y-89675500D01*
X131000500Y-88909520D01*
X131020185Y-88842481D01*
X131055609Y-88806419D01*
X131066542Y-88799114D01*
X131164114Y-88701542D01*
X131240775Y-88586811D01*
X131241413Y-88585272D01*
X131287752Y-88473397D01*
X131293580Y-88459328D01*
X131313203Y-88360678D01*
X131320500Y-88323995D01*
X131320500Y-87086004D01*
X131293581Y-86950677D01*
X131293580Y-86950676D01*
X131293580Y-86950672D01*
X131285907Y-86932147D01*
X131240778Y-86823195D01*
X131240771Y-86823182D01*
X131164114Y-86708458D01*
X131164111Y-86708454D01*
X131066545Y-86610888D01*
X131066541Y-86610885D01*
X130975609Y-86550126D01*
X130930804Y-86496514D01*
X130920500Y-86447024D01*
X130920500Y-84632975D01*
X130940185Y-84565936D01*
X130975607Y-84529874D01*
X131066542Y-84469114D01*
X131164114Y-84371542D01*
X131240775Y-84256811D01*
X131293580Y-84129328D01*
X131316157Y-84015826D01*
X131320500Y-83993995D01*
X131320500Y-83056004D01*
X131293581Y-82920677D01*
X131293580Y-82920676D01*
X131293580Y-82920672D01*
X131282391Y-82893659D01*
X131240778Y-82793195D01*
X131240771Y-82793182D01*
X131164114Y-82678458D01*
X131164111Y-82678454D01*
X131066545Y-82580888D01*
X131066541Y-82580885D01*
X130951817Y-82504228D01*
X130951804Y-82504221D01*
X130824332Y-82451421D01*
X130824322Y-82451418D01*
X130688995Y-82424500D01*
X130688993Y-82424500D01*
X130551007Y-82424500D01*
X130551005Y-82424500D01*
X130415677Y-82451418D01*
X130415667Y-82451421D01*
X130288195Y-82504221D01*
X130288182Y-82504228D01*
X130173458Y-82580885D01*
X130173454Y-82580888D01*
X130075888Y-82678454D01*
X130075885Y-82678458D01*
X129999228Y-82793182D01*
X129999221Y-82793195D01*
X129946421Y-82920667D01*
X129946418Y-82920677D01*
X129919500Y-83056004D01*
X129919500Y-83100500D01*
X129899815Y-83167539D01*
X129847011Y-83213294D01*
X129795500Y-83224500D01*
X122804500Y-83224500D01*
X122737461Y-83204815D01*
X122691706Y-83152011D01*
X122680500Y-83100500D01*
X122680500Y-83056004D01*
X122653581Y-82920677D01*
X122653580Y-82920676D01*
X122653580Y-82920672D01*
X122642391Y-82893659D01*
X122600778Y-82793195D01*
X122600771Y-82793182D01*
X122524114Y-82678458D01*
X122524111Y-82678454D01*
X122426545Y-82580888D01*
X122426541Y-82580885D01*
X122311817Y-82504228D01*
X122311804Y-82504221D01*
X122184332Y-82451421D01*
X122184322Y-82451418D01*
X122048995Y-82424500D01*
X122048993Y-82424500D01*
X121911007Y-82424500D01*
X121911005Y-82424500D01*
X121775677Y-82451418D01*
X121775667Y-82451421D01*
X121648195Y-82504221D01*
X121648182Y-82504228D01*
X121533458Y-82580885D01*
X121533454Y-82580888D01*
X121435888Y-82678454D01*
X121435885Y-82678458D01*
X121359228Y-82793182D01*
X121359221Y-82793195D01*
X121306421Y-82920667D01*
X121306418Y-82920677D01*
X121279500Y-83056004D01*
X121279500Y-83056007D01*
X121279500Y-83993993D01*
X121279500Y-83993995D01*
X121279499Y-83993995D01*
X121306418Y-84129322D01*
X121306421Y-84129332D01*
X121359221Y-84256804D01*
X121359228Y-84256817D01*
X121435885Y-84371541D01*
X121435888Y-84371545D01*
X121533455Y-84469112D01*
X121533458Y-84469114D01*
X121624391Y-84529874D01*
X121669196Y-84583484D01*
X121679500Y-84632975D01*
X121679500Y-86447024D01*
X121659815Y-86514063D01*
X121624391Y-86550126D01*
X121533458Y-86610885D01*
X121533454Y-86610888D01*
X121435888Y-86708454D01*
X121435885Y-86708458D01*
X121359228Y-86823182D01*
X121359221Y-86823195D01*
X121306421Y-86950667D01*
X121306418Y-86950676D01*
X121293512Y-87015560D01*
X121261126Y-87077470D01*
X121200410Y-87112044D01*
X121130641Y-87108303D01*
X121073969Y-87067436D01*
X121048537Y-87003968D01*
X121041680Y-86936847D01*
X120987453Y-86773199D01*
X120987448Y-86773188D01*
X120896947Y-86626465D01*
X120896944Y-86626461D01*
X120775038Y-86504555D01*
X120775034Y-86504552D01*
X120628311Y-86414051D01*
X120628300Y-86414046D01*
X120535793Y-86383393D01*
X120478348Y-86343621D01*
X120451525Y-86279105D01*
X120463840Y-86210329D01*
X120511383Y-86159129D01*
X120516859Y-86156055D01*
X120521470Y-86153617D01*
X120521475Y-86153616D01*
X120627711Y-86075211D01*
X120706116Y-85968975D01*
X120749725Y-85844349D01*
X120752500Y-85814756D01*
X120752500Y-85209244D01*
X120751496Y-85198539D01*
X120749725Y-85179650D01*
X120706115Y-85055023D01*
X120627711Y-84948789D01*
X120627710Y-84948788D01*
X120521476Y-84870384D01*
X120521475Y-84870383D01*
X120460545Y-84849063D01*
X120441557Y-84835444D01*
X120420297Y-84825735D01*
X120413693Y-84815458D01*
X120403769Y-84808341D01*
X120395157Y-84786617D01*
X120382523Y-84766957D01*
X120379767Y-84747790D01*
X120378022Y-84743388D01*
X120377500Y-84732022D01*
X120377500Y-84652784D01*
X120397185Y-84585745D01*
X120449989Y-84539990D01*
X120463180Y-84534854D01*
X120464414Y-84534452D01*
X120464414Y-84534451D01*
X120464420Y-84534451D01*
X120582751Y-84474158D01*
X120676658Y-84380251D01*
X120736951Y-84261920D01*
X120736951Y-84261918D01*
X120736952Y-84261917D01*
X120752500Y-84163751D01*
X120752500Y-83660248D01*
X120736952Y-83562082D01*
X120720571Y-83529933D01*
X120676658Y-83443749D01*
X120676654Y-83443745D01*
X120676653Y-83443743D01*
X120582756Y-83349846D01*
X120582753Y-83349844D01*
X120582751Y-83349842D01*
X120464420Y-83289549D01*
X120464419Y-83289548D01*
X120464416Y-83289547D01*
X120464417Y-83289547D01*
X120366251Y-83274000D01*
X120366246Y-83274000D01*
X119787754Y-83274000D01*
X119787749Y-83274000D01*
X119689582Y-83289547D01*
X119610692Y-83329744D01*
X119571249Y-83349842D01*
X119571248Y-83349843D01*
X119571243Y-83349846D01*
X119477346Y-83443743D01*
X119477343Y-83443748D01*
X119417047Y-83562082D01*
X119401500Y-83660248D01*
X119401500Y-84163751D01*
X119417047Y-84261917D01*
X119417049Y-84261920D01*
X119477342Y-84380251D01*
X119477344Y-84380253D01*
X119477346Y-84380256D01*
X119571243Y-84474153D01*
X119571245Y-84474154D01*
X119571249Y-84474158D01*
X119689580Y-84534451D01*
X119689584Y-84534451D01*
X119689585Y-84534452D01*
X119690820Y-84534854D01*
X119692128Y-84535748D01*
X119698276Y-84538881D01*
X119697871Y-84539675D01*
X119711219Y-84548803D01*
X119733703Y-84559071D01*
X119739557Y-84568180D01*
X119748495Y-84574292D01*
X119758115Y-84597057D01*
X119771477Y-84617849D01*
X119773836Y-84634260D01*
X119775692Y-84638651D01*
X119776500Y-84652784D01*
X119776500Y-84732022D01*
X119756815Y-84799061D01*
X119704011Y-84844816D01*
X119693455Y-84849063D01*
X119632524Y-84870383D01*
X119632523Y-84870384D01*
X119526289Y-84948788D01*
X119526288Y-84948789D01*
X119447884Y-85055023D01*
X119404274Y-85179650D01*
X119401500Y-85209239D01*
X119401500Y-85814760D01*
X119404274Y-85844349D01*
X119447884Y-85968976D01*
X119503698Y-86044601D01*
X119526289Y-86075211D01*
X119632525Y-86153616D01*
X119632529Y-86153617D01*
X119637144Y-86156057D01*
X119687216Y-86204786D01*
X119702995Y-86272850D01*
X119679470Y-86338641D01*
X119624111Y-86381269D01*
X119618206Y-86383393D01*
X119525699Y-86414046D01*
X119525688Y-86414051D01*
X119378965Y-86504552D01*
X119378961Y-86504555D01*
X119275681Y-86607836D01*
X119214358Y-86641321D01*
X119144666Y-86636337D01*
X119100319Y-86607836D01*
X118997038Y-86504555D01*
X118997034Y-86504552D01*
X118850311Y-86414051D01*
X118850300Y-86414046D01*
X118757793Y-86383393D01*
X118700348Y-86343621D01*
X118673525Y-86279105D01*
X118685840Y-86210329D01*
X118733383Y-86159129D01*
X118738859Y-86156055D01*
X118743470Y-86153617D01*
X118743475Y-86153616D01*
X118849711Y-86075211D01*
X118928116Y-85968975D01*
X118971725Y-85844349D01*
X118974500Y-85814756D01*
X118974500Y-85209244D01*
X118973496Y-85198539D01*
X118971725Y-85179650D01*
X118928115Y-85055023D01*
X118849711Y-84948789D01*
X118849710Y-84948788D01*
X118743476Y-84870384D01*
X118743475Y-84870383D01*
X118682545Y-84849063D01*
X118663557Y-84835444D01*
X118642297Y-84825735D01*
X118635693Y-84815458D01*
X118625769Y-84808341D01*
X118617157Y-84786617D01*
X118604523Y-84766957D01*
X118601767Y-84747790D01*
X118600022Y-84743388D01*
X118599500Y-84732022D01*
X118599500Y-84652784D01*
X118619185Y-84585745D01*
X118671989Y-84539990D01*
X118685180Y-84534854D01*
X118686414Y-84534452D01*
X118686414Y-84534451D01*
X118686420Y-84534451D01*
X118804751Y-84474158D01*
X118898658Y-84380251D01*
X118958951Y-84261920D01*
X118958951Y-84261918D01*
X118958952Y-84261917D01*
X118974500Y-84163751D01*
X118974500Y-83660248D01*
X118958952Y-83562082D01*
X118942571Y-83529933D01*
X118898658Y-83443749D01*
X118898654Y-83443745D01*
X118898653Y-83443743D01*
X118804756Y-83349846D01*
X118804753Y-83349844D01*
X118804751Y-83349842D01*
X118686420Y-83289549D01*
X118686419Y-83289548D01*
X118686416Y-83289547D01*
X118686417Y-83289547D01*
X118588251Y-83274000D01*
X118588246Y-83274000D01*
X118009754Y-83274000D01*
X118009749Y-83274000D01*
X117911582Y-83289547D01*
X117832692Y-83329744D01*
X117793249Y-83349842D01*
X117793248Y-83349843D01*
X117793243Y-83349846D01*
X117699346Y-83443743D01*
X117699343Y-83443748D01*
X117639047Y-83562082D01*
X117623500Y-83660248D01*
X117623500Y-84163751D01*
X117639047Y-84261917D01*
X117639049Y-84261920D01*
X117699342Y-84380251D01*
X117699344Y-84380253D01*
X117699346Y-84380256D01*
X117793243Y-84474153D01*
X117793245Y-84474154D01*
X117793249Y-84474158D01*
X117911580Y-84534451D01*
X117911584Y-84534451D01*
X117911585Y-84534452D01*
X117912820Y-84534854D01*
X117914128Y-84535748D01*
X117920276Y-84538881D01*
X117919871Y-84539675D01*
X117933219Y-84548803D01*
X117955703Y-84559071D01*
X117961557Y-84568180D01*
X117970495Y-84574292D01*
X117980115Y-84597057D01*
X117993477Y-84617849D01*
X117995836Y-84634260D01*
X117997692Y-84638651D01*
X117998500Y-84652784D01*
X117998500Y-84732022D01*
X117978815Y-84799061D01*
X117926011Y-84844816D01*
X117915455Y-84849063D01*
X117854524Y-84870383D01*
X117854523Y-84870384D01*
X117748289Y-84948788D01*
X117748288Y-84948789D01*
X117669884Y-85055023D01*
X117626274Y-85179650D01*
X117623500Y-85209239D01*
X117623500Y-85814760D01*
X117626274Y-85844349D01*
X117669884Y-85968976D01*
X117725698Y-86044601D01*
X117748289Y-86075211D01*
X117854525Y-86153616D01*
X117854529Y-86153617D01*
X117859144Y-86156057D01*
X117909216Y-86204786D01*
X117924995Y-86272850D01*
X117901470Y-86338641D01*
X117846111Y-86381269D01*
X117840206Y-86383393D01*
X117747699Y-86414046D01*
X117747688Y-86414051D01*
X117600965Y-86504552D01*
X117600961Y-86504555D01*
X117503029Y-86602486D01*
X117441706Y-86635970D01*
X117372014Y-86630985D01*
X117327668Y-86602485D01*
X117219038Y-86493855D01*
X117219034Y-86493852D01*
X117072311Y-86403351D01*
X117072300Y-86403346D01*
X116979793Y-86372693D01*
X116922348Y-86332921D01*
X116895525Y-86268405D01*
X116907840Y-86199629D01*
X116955383Y-86148429D01*
X116960859Y-86145355D01*
X116965470Y-86142917D01*
X116965475Y-86142916D01*
X117071711Y-86064511D01*
X117150116Y-85958275D01*
X117193725Y-85833649D01*
X117196500Y-85804060D01*
X117196500Y-85198539D01*
X117193725Y-85168950D01*
X117150115Y-85044323D01*
X117071711Y-84938089D01*
X117071710Y-84938088D01*
X116965476Y-84859684D01*
X116965475Y-84859683D01*
X116904545Y-84838363D01*
X116885557Y-84824744D01*
X116864297Y-84815035D01*
X116857693Y-84804758D01*
X116847769Y-84797641D01*
X116839157Y-84775917D01*
X116826523Y-84756257D01*
X116823767Y-84737090D01*
X116822022Y-84732688D01*
X116821500Y-84721322D01*
X116821500Y-84646534D01*
X116841185Y-84579495D01*
X116893989Y-84533740D01*
X116907180Y-84528604D01*
X116908414Y-84528202D01*
X116908414Y-84528201D01*
X116908420Y-84528201D01*
X117026751Y-84467908D01*
X117120658Y-84374001D01*
X117180951Y-84255670D01*
X117180951Y-84255668D01*
X117180952Y-84255667D01*
X117196500Y-84157501D01*
X117196500Y-83653998D01*
X117180952Y-83555832D01*
X117172656Y-83539550D01*
X117120658Y-83437499D01*
X117120654Y-83437495D01*
X117120653Y-83437493D01*
X117026756Y-83343596D01*
X117026753Y-83343594D01*
X117026751Y-83343592D01*
X116908420Y-83283299D01*
X116908419Y-83283298D01*
X116908416Y-83283297D01*
X116908417Y-83283297D01*
X116810251Y-83267750D01*
X116810246Y-83267750D01*
X116231754Y-83267750D01*
X116231749Y-83267750D01*
X116133582Y-83283297D01*
X116054692Y-83323494D01*
X116015249Y-83343592D01*
X116015248Y-83343593D01*
X116015243Y-83343596D01*
X115921346Y-83437493D01*
X115921343Y-83437498D01*
X115921342Y-83437499D01*
X115906413Y-83466798D01*
X115861047Y-83555832D01*
X115845500Y-83653998D01*
X115845500Y-84157501D01*
X115861047Y-84255667D01*
X115880364Y-84293579D01*
X115921342Y-84374001D01*
X115921344Y-84374003D01*
X115921346Y-84374006D01*
X116015243Y-84467903D01*
X116015245Y-84467904D01*
X116015249Y-84467908D01*
X116133580Y-84528201D01*
X116133584Y-84528201D01*
X116133585Y-84528202D01*
X116134820Y-84528604D01*
X116136128Y-84529498D01*
X116142276Y-84532631D01*
X116141871Y-84533425D01*
X116155219Y-84542553D01*
X116177703Y-84552821D01*
X116183557Y-84561930D01*
X116192495Y-84568042D01*
X116202115Y-84590807D01*
X116215477Y-84611599D01*
X116217836Y-84628010D01*
X116219692Y-84632401D01*
X116220500Y-84646534D01*
X116220500Y-84721322D01*
X116200815Y-84788361D01*
X116148011Y-84834116D01*
X116137455Y-84838363D01*
X116076524Y-84859683D01*
X116076523Y-84859684D01*
X115970289Y-84938088D01*
X115970288Y-84938089D01*
X115891884Y-85044323D01*
X115848274Y-85168950D01*
X115845500Y-85198539D01*
X115845500Y-85804060D01*
X115848274Y-85833649D01*
X115891884Y-85958276D01*
X115949345Y-86036133D01*
X115970289Y-86064511D01*
X116076525Y-86142916D01*
X116076529Y-86142917D01*
X116081144Y-86145357D01*
X116131216Y-86194086D01*
X116146995Y-86262150D01*
X116123470Y-86327941D01*
X116068111Y-86370569D01*
X116062206Y-86372693D01*
X115969699Y-86403346D01*
X115969688Y-86403351D01*
X115822965Y-86493852D01*
X115822961Y-86493855D01*
X115714329Y-86602486D01*
X115653006Y-86635970D01*
X115583314Y-86630985D01*
X115538968Y-86602485D01*
X115441038Y-86504555D01*
X115441034Y-86504552D01*
X115294311Y-86414051D01*
X115294300Y-86414046D01*
X115201793Y-86383393D01*
X115144348Y-86343621D01*
X115117525Y-86279105D01*
X115129840Y-86210329D01*
X115177383Y-86159129D01*
X115182859Y-86156055D01*
X115187470Y-86153617D01*
X115187475Y-86153616D01*
X115293711Y-86075211D01*
X115372116Y-85968975D01*
X115415725Y-85844349D01*
X115418500Y-85814756D01*
X115418500Y-85209244D01*
X115417496Y-85198539D01*
X115415725Y-85179650D01*
X115372115Y-85055023D01*
X115293711Y-84948789D01*
X115293710Y-84948788D01*
X115187476Y-84870384D01*
X115187475Y-84870383D01*
X115126545Y-84849063D01*
X115107557Y-84835444D01*
X115086297Y-84825735D01*
X115079693Y-84815458D01*
X115069769Y-84808341D01*
X115061157Y-84786617D01*
X115048523Y-84766957D01*
X115045767Y-84747790D01*
X115044022Y-84743388D01*
X115043500Y-84732022D01*
X115043500Y-84652784D01*
X115063185Y-84585745D01*
X115115989Y-84539990D01*
X115129180Y-84534854D01*
X115130414Y-84534452D01*
X115130414Y-84534451D01*
X115130420Y-84534451D01*
X115248751Y-84474158D01*
X115342658Y-84380251D01*
X115402951Y-84261920D01*
X115402951Y-84261918D01*
X115402952Y-84261917D01*
X115418500Y-84163751D01*
X115418500Y-83660248D01*
X115402952Y-83562082D01*
X115386571Y-83529933D01*
X115342658Y-83443749D01*
X115342654Y-83443745D01*
X115342653Y-83443743D01*
X115248756Y-83349846D01*
X115248753Y-83349844D01*
X115248751Y-83349842D01*
X115130420Y-83289549D01*
X115130419Y-83289548D01*
X115130416Y-83289547D01*
X115130417Y-83289547D01*
X115032251Y-83274000D01*
X115032246Y-83274000D01*
X114453754Y-83274000D01*
X114453749Y-83274000D01*
X114355582Y-83289547D01*
X114276692Y-83329744D01*
X114237249Y-83349842D01*
X114237248Y-83349843D01*
X114237243Y-83349846D01*
X114143346Y-83443743D01*
X114143343Y-83443748D01*
X114083047Y-83562082D01*
X114067500Y-83660248D01*
X114067500Y-84163751D01*
X114083047Y-84261917D01*
X114083049Y-84261920D01*
X114143342Y-84380251D01*
X114143344Y-84380253D01*
X114143346Y-84380256D01*
X114237243Y-84474153D01*
X114237245Y-84474154D01*
X114237249Y-84474158D01*
X114355580Y-84534451D01*
X114355584Y-84534451D01*
X114355585Y-84534452D01*
X114356820Y-84534854D01*
X114358128Y-84535748D01*
X114364276Y-84538881D01*
X114363871Y-84539675D01*
X114377219Y-84548803D01*
X114399703Y-84559071D01*
X114405557Y-84568180D01*
X114414495Y-84574292D01*
X114424115Y-84597057D01*
X114437477Y-84617849D01*
X114439836Y-84634260D01*
X114441692Y-84638651D01*
X114442500Y-84652784D01*
X114442500Y-84732022D01*
X114422815Y-84799061D01*
X114370011Y-84844816D01*
X114359455Y-84849063D01*
X114298524Y-84870383D01*
X114298523Y-84870384D01*
X114192289Y-84948788D01*
X114192288Y-84948789D01*
X114113884Y-85055023D01*
X114070274Y-85179650D01*
X114067500Y-85209239D01*
X114067500Y-85814760D01*
X114070274Y-85844349D01*
X114113884Y-85968976D01*
X114169698Y-86044601D01*
X114192289Y-86075211D01*
X114298525Y-86153616D01*
X114298529Y-86153617D01*
X114303144Y-86156057D01*
X114353216Y-86204786D01*
X114368995Y-86272850D01*
X114345470Y-86338641D01*
X114290111Y-86381269D01*
X114284206Y-86383393D01*
X114191699Y-86414046D01*
X114191688Y-86414051D01*
X114044965Y-86504552D01*
X114044961Y-86504555D01*
X113962181Y-86587336D01*
X113900858Y-86620821D01*
X113831166Y-86615837D01*
X113775233Y-86573965D01*
X113750816Y-86508501D01*
X113750500Y-86499655D01*
X113750500Y-82006092D01*
X113751097Y-81993939D01*
X113758290Y-81920900D01*
X113763704Y-81865928D01*
X113768442Y-81842104D01*
X113804010Y-81724855D01*
X113813306Y-81702413D01*
X113871061Y-81594363D01*
X113884556Y-81574165D01*
X113962279Y-81479458D01*
X113979458Y-81462279D01*
X114074165Y-81384556D01*
X114094363Y-81371061D01*
X114202413Y-81313306D01*
X114207071Y-81311376D01*
X114208135Y-81310435D01*
X114210067Y-81310135D01*
X114224855Y-81304010D01*
X114342104Y-81268442D01*
X114365928Y-81263704D01*
X114484614Y-81252015D01*
X114493939Y-81251097D01*
X114506092Y-81250500D01*
X114544170Y-81250500D01*
X114612370Y-81250500D01*
X114679409Y-81270185D01*
G37*
%TD.AperFunction*%
%TD*%
M02*
