M48
; DRILL file {KiCad 9.0.0} date 2025-03-25T16:10:18-0300
; FORMAT={-:-/ absolute / metric / decimal}
; #@! TF.CreationDate,2025-03-25T16:10:18-03:00
; #@! TF.GenerationSoftware,Kicad,Pcbnew,9.0.0
; #@! TF.FileFunction,Plated,1,2,PTH
FMAT,2
METRIC
; #@! TA.AperFunction,Plated,PTH,ViaDrill
T1C0.250
; #@! TA.AperFunction,Plated,PTH,ComponentDrill
T2C0.600
; #@! TA.AperFunction,Plated,PTH,ComponentDrill
T3C1.000
%
G90
G05
T1
X114.87Y-81.918
X116.648Y-81.918
X117.41Y-96.777
X118.426Y-81.918
X120.204Y-81.918
X120.458Y-94.237
X121.22Y-93.094
X121.22Y-102.746
X121.22Y-108.461
X122.617Y-98.809
X123.1Y-89.182
X123.725Y-94.618
X124.707Y-112.975
X124.712Y-112.334
X124.737Y-111.675
X124.776Y-114.303
X125.665Y-94.491
X126.046Y-108.461
X126.621Y-100.79
X126.681Y-97.539
X128.078Y-114.275
X128.205Y-103.0
X129.729Y-89.411
X131.126Y-98.174
X131.126Y-99.444
X131.126Y-104.27
X131.126Y-105.032
X131.126Y-105.794
X131.507Y-120.145
X131.888Y-98.174
X131.888Y-99.444
X132.001Y-92.6
X132.142Y-119.51
X132.396Y-104.27
X132.396Y-105.032
X132.396Y-105.794
X132.65Y-118.75
X133.158Y-118.113
X133.666Y-108.842
X133.666Y-117.478
X134.428Y-116.97
X135.19Y-98.682
X135.25Y-118.494
X135.444Y-82.197
X136.46Y-86.617
X137.73Y-85.982
T3
X114.88Y-90.52
X114.88Y-93.06
X114.88Y-95.6
X114.88Y-98.14
X114.88Y-100.68
X114.88Y-103.22
X114.88Y-105.76
X114.88Y-108.3
X114.88Y-110.84
X114.88Y-113.38
X114.88Y-115.92
X114.88Y-118.46
X114.88Y-121.0
X117.395Y-123.263
X119.696Y-96.396
X119.935Y-123.263
X122.475Y-123.263
X125.015Y-123.263
X127.555Y-123.263
X130.095Y-123.263
X130.618Y-94.618
X132.635Y-123.263
X133.488Y-87.075
X133.488Y-89.615
X133.488Y-92.155
X133.666Y-95.888
X135.175Y-123.263
X136.714Y-83.95
X137.73Y-90.554
X137.73Y-93.094
X137.73Y-95.634
X137.73Y-98.174
X137.73Y-100.714
X137.73Y-103.254
X137.73Y-105.794
X137.73Y-108.334
X137.73Y-110.874
X137.73Y-113.414
X137.73Y-115.954
X137.73Y-118.494
X137.73Y-121.034
T2
G00X121.98Y-83.925
M15
G01X121.98Y-83.125
M16
G05
G00X121.98Y-88.255
M15
G01X121.98Y-87.155
M16
G05
G00X130.62Y-83.925
M15
G01X130.62Y-83.125
M16
G05
G00X130.62Y-88.255
M15
G01X130.62Y-87.155
M16
G05
M30
