%TF.GenerationSoftware,KiCad,Pcbnew,9.0.0*%
%TF.CreationDate,2025-03-26T16:15:19-03:00*%
%TF.ProjectId,IOExtender,494f4578-7465-46e6-9465-722e6b696361,1.1*%
%TF.SameCoordinates,Original*%
%TF.FileFunction,Soldermask,Top*%
%TF.FilePolarity,Negative*%
%FSLAX46Y46*%
G04 Gerber Fmt 4.6, Leading zero omitted, Abs format (unit mm)*
G04 Created by KiCad (PCBNEW 9.0.0) date 2025-03-26 16:15:19*
%MOMM*%
%LPD*%
G01*
G04 APERTURE LIST*
G04 Aperture macros list*
%AMRoundRect*
0 Rectangle with rounded corners*
0 $1 Rounding radius*
0 $2 $3 $4 $5 $6 $7 $8 $9 X,Y pos of 4 corners*
0 Add a 4 corners polygon primitive as box body*
4,1,4,$2,$3,$4,$5,$6,$7,$8,$9,$2,$3,0*
0 Add four circle primitives for the rounded corners*
1,1,$1+$1,$2,$3*
1,1,$1+$1,$4,$5*
1,1,$1+$1,$6,$7*
1,1,$1+$1,$8,$9*
0 Add four rect primitives between the rounded corners*
20,1,$1+$1,$2,$3,$4,$5,0*
20,1,$1+$1,$4,$5,$6,$7,0*
20,1,$1+$1,$6,$7,$8,$9,0*
20,1,$1+$1,$8,$9,$2,$3,0*%
G04 Aperture macros list end*
%ADD10C,2.100000*%
%ADD11RoundRect,0.050000X0.875000X0.225000X-0.875000X0.225000X-0.875000X-0.225000X0.875000X-0.225000X0*%
%ADD12C,1.500000*%
%ADD13RoundRect,0.262500X-0.262500X0.275000X-0.262500X-0.275000X0.262500X-0.275000X0.262500X0.275000X0*%
%ADD14RoundRect,0.262500X0.262500X-0.275000X0.262500X0.275000X-0.262500X0.275000X-0.262500X-0.275000X0*%
%ADD15RoundRect,0.262500X0.325000X0.262500X-0.325000X0.262500X-0.325000X-0.262500X0.325000X-0.262500X0*%
%ADD16RoundRect,0.270833X0.479167X-0.379167X0.479167X0.379167X-0.479167X0.379167X-0.479167X-0.379167X0*%
%ADD17RoundRect,0.243750X-0.281250X0.243750X-0.281250X-0.243750X0.281250X-0.243750X0.281250X0.243750X0*%
%ADD18C,0.750000*%
%ADD19RoundRect,0.175000X0.175000X0.450000X-0.175000X0.450000X-0.175000X-0.450000X0.175000X-0.450000X0*%
%ADD20RoundRect,0.100000X0.100000X0.525000X-0.100000X0.525000X-0.100000X-0.525000X0.100000X-0.525000X0*%
%ADD21O,1.100000X2.200000*%
%ADD22O,1.100000X1.900000*%
%ADD23RoundRect,0.050000X-0.850000X0.850000X-0.850000X-0.850000X0.850000X-0.850000X0.850000X0.850000X0*%
%ADD24O,1.800000X1.800000*%
%ADD25RoundRect,0.050000X-0.850000X-0.850000X0.850000X-0.850000X0.850000X0.850000X-0.850000X0.850000X0*%
%ADD26RoundRect,0.400000X-0.400000X0.650000X-0.400000X-0.650000X0.400000X-0.650000X0.400000X0.650000X0*%
%ADD27RoundRect,0.525000X-1.425000X0.525000X-1.425000X-0.525000X1.425000X-0.525000X1.425000X0.525000X0*%
%ADD28RoundRect,0.175000X-0.850000X-0.175000X0.850000X-0.175000X0.850000X0.175000X-0.850000X0.175000X0*%
%ADD29RoundRect,0.262500X-0.325000X-0.262500X0.325000X-0.262500X0.325000X0.262500X-0.325000X0.262500X0*%
%ADD30RoundRect,0.262500X0.275000X0.262500X-0.275000X0.262500X-0.275000X-0.262500X0.275000X-0.262500X0*%
%ADD31RoundRect,0.270833X-0.479167X0.379167X-0.479167X-0.379167X0.479167X-0.379167X0.479167X0.379167X0*%
%ADD32RoundRect,0.271277X0.366223X0.503723X-0.366223X0.503723X-0.366223X-0.503723X0.366223X-0.503723X0*%
%ADD33RoundRect,0.175000X-0.175000X0.537500X-0.175000X-0.537500X0.175000X-0.537500X0.175000X0.537500X0*%
%ADD34RoundRect,0.262500X-0.262500X0.325000X-0.262500X-0.325000X0.262500X-0.325000X0.262500X0.325000X0*%
G04 APERTURE END LIST*
D10*
%TO.C,TP4*%
X119696000Y-96396000D03*
%TD*%
%TO.C,TP3*%
X136714000Y-83950000D03*
%TD*%
%TO.C,TP2*%
X133666000Y-95888000D03*
%TD*%
%TO.C,TP1*%
X130618000Y-94618000D03*
%TD*%
D11*
%TO.C,U1*%
X129900000Y-120125000D03*
X129900000Y-119475000D03*
X129900000Y-118825000D03*
X129900000Y-118175000D03*
X129900000Y-117525000D03*
X129900000Y-116875000D03*
X129900000Y-116225000D03*
X129900000Y-115575000D03*
X129900000Y-114925000D03*
X129900000Y-114275000D03*
X129900000Y-113625000D03*
X129900000Y-112975000D03*
X129900000Y-112325000D03*
X129900000Y-111675000D03*
X122700000Y-111675000D03*
X122700000Y-112325000D03*
X122700000Y-112975000D03*
X122700000Y-113625000D03*
X122700000Y-114275000D03*
X122700000Y-114925000D03*
X122700000Y-115575000D03*
X122700000Y-116225000D03*
X122700000Y-116875000D03*
X122700000Y-117525000D03*
X122700000Y-118175000D03*
X122700000Y-118825000D03*
X122700000Y-119475000D03*
X122700000Y-120125000D03*
%TD*%
D12*
%TO.C,FID3*%
X114616000Y-123800000D03*
%TD*%
D13*
%TO.C,R9*%
X117537000Y-102849500D03*
X117537000Y-104674500D03*
%TD*%
D12*
%TO.C,FID2*%
X137984000Y-123828000D03*
%TD*%
D13*
%TO.C,R8*%
X132523000Y-82046900D03*
X132523000Y-83871900D03*
%TD*%
%TO.C,R11*%
X124522000Y-95483500D03*
X124522000Y-97308500D03*
%TD*%
D14*
%TO.C,R7*%
X120077000Y-87337000D03*
X120077000Y-85512000D03*
%TD*%
D15*
%TO.C,C2*%
X134147500Y-107191000D03*
X132422500Y-107191000D03*
%TD*%
D16*
%TO.C,L1*%
X130700000Y-92600000D03*
X130700000Y-90600000D03*
%TD*%
D17*
%TO.C,D6*%
X120077000Y-82337000D03*
X120077000Y-83912000D03*
%TD*%
D14*
%TO.C,R4*%
X114743000Y-87337000D03*
X114743000Y-85512000D03*
%TD*%
D17*
%TO.C,D1*%
X116521000Y-82330750D03*
X116521000Y-83905750D03*
%TD*%
D18*
%TO.C,C5*%
X129190000Y-87205000D03*
X123410000Y-87205000D03*
D19*
X129500000Y-88280000D03*
X128700000Y-88280000D03*
D20*
X127550000Y-88280000D03*
X126550000Y-88280000D03*
X126050000Y-88280000D03*
X125050000Y-88280000D03*
D19*
X123900000Y-88280000D03*
X123100000Y-88280000D03*
X123100000Y-88280000D03*
X123900000Y-88280000D03*
D20*
X124550000Y-88280000D03*
X125550000Y-88280000D03*
X127050000Y-88280000D03*
X128050000Y-88280000D03*
D19*
X128700000Y-88280000D03*
X129500000Y-88280000D03*
D21*
X130620000Y-87705000D03*
D22*
X130620000Y-83525000D03*
D21*
X121980000Y-87705000D03*
D22*
X121980000Y-83525000D03*
%TD*%
D14*
%TO.C,R3*%
X127300000Y-109119500D03*
X127300000Y-107294500D03*
%TD*%
%TO.C,R5*%
X116521000Y-87326300D03*
X116521000Y-85501300D03*
%TD*%
D23*
%TO.C,J9*%
X135175000Y-123263000D03*
D24*
X132635000Y-123263000D03*
X130095000Y-123263000D03*
X127555000Y-123263000D03*
X125015000Y-123263000D03*
X122475000Y-123263000D03*
X119935000Y-123263000D03*
X117395000Y-123263000D03*
%TD*%
D25*
%TO.C,J1*%
X133488200Y-87075000D03*
D24*
X133488200Y-89615000D03*
X133488200Y-92155000D03*
%TD*%
D17*
%TO.C,D5*%
X114743000Y-82337000D03*
X114743000Y-83912000D03*
%TD*%
%TO.C,D2*%
X118299000Y-82337000D03*
X118299000Y-83912000D03*
%TD*%
D26*
%TO.C,U3*%
X133705400Y-98757800D03*
X131405400Y-98757800D03*
D27*
X131405400Y-105057800D03*
D26*
X129105400Y-98757800D03*
%TD*%
D12*
%TO.C,FID1*%
X137984000Y-82172000D03*
%TD*%
D28*
%TO.C,U2*%
X119625000Y-100790000D03*
X119625000Y-102060000D03*
X119625000Y-103330000D03*
X119625000Y-104600000D03*
X119625000Y-105870000D03*
X119625000Y-107140000D03*
X119625000Y-108410000D03*
X124575000Y-108410000D03*
X124575000Y-107140000D03*
X124575000Y-105870000D03*
X124575000Y-104600000D03*
X124575000Y-103330000D03*
X124575000Y-102060000D03*
X124575000Y-100790000D03*
%TD*%
D14*
%TO.C,R2*%
X129400000Y-109119500D03*
X129400000Y-107294500D03*
%TD*%
D29*
%TO.C,C6*%
X126737500Y-96300000D03*
X128462500Y-96300000D03*
%TD*%
D30*
%TO.C,R12*%
X128609500Y-94745000D03*
X126784500Y-94745000D03*
%TD*%
D13*
%TO.C,R1*%
X122922000Y-95483500D03*
X122922000Y-97308500D03*
%TD*%
%TO.C,R10*%
X120458000Y-111866500D03*
X120458000Y-113691500D03*
%TD*%
D31*
%TO.C,L2*%
X128700000Y-90600000D03*
X128700000Y-92600000D03*
%TD*%
D17*
%TO.C,D7*%
X134123200Y-82171900D03*
X134123200Y-83746900D03*
%TD*%
D32*
%TO.C,C8*%
X121337500Y-98428000D03*
X119262500Y-98428000D03*
%TD*%
D33*
%TO.C,D4*%
X124522000Y-91316000D03*
X122622000Y-91316000D03*
X123572000Y-93591000D03*
%TD*%
D34*
%TO.C,C1*%
X127062000Y-103001100D03*
X127062000Y-104726100D03*
%TD*%
D14*
%TO.C,R6*%
X118299000Y-87337000D03*
X118299000Y-85512000D03*
%TD*%
D13*
%TO.C,R13*%
X120092000Y-91486500D03*
X120092000Y-93311500D03*
%TD*%
D25*
%TO.C,J2*%
X137730000Y-121034000D03*
D24*
X137730000Y-118494000D03*
X137730000Y-115954000D03*
X137730000Y-113414000D03*
X137730000Y-110874000D03*
X137730000Y-108334000D03*
X137730000Y-105794000D03*
X137730000Y-103254000D03*
X137730000Y-100714000D03*
X137730000Y-98174000D03*
X137730000Y-95634000D03*
X137730000Y-93094000D03*
X137730000Y-90554000D03*
%TD*%
D25*
%TO.C,J5*%
X114880000Y-121000000D03*
D24*
X114880000Y-118460000D03*
X114880000Y-115920000D03*
X114880000Y-113380000D03*
X114880000Y-110840000D03*
X114880000Y-108300000D03*
X114880000Y-105760000D03*
X114880000Y-103220000D03*
X114880000Y-100680000D03*
X114880000Y-98140000D03*
X114880000Y-95600000D03*
X114880000Y-93060000D03*
X114880000Y-90520000D03*
%TD*%
M02*
