%TF.GenerationSoftware,KiCad,Pcbnew,9.0.0*%
%TF.CreationDate,2025-03-25T17:20:35-03:00*%
%TF.ProjectId,IOExtender,494f4578-7465-46e6-9465-722e6b696361,1.1*%
%TF.SameCoordinates,Original*%
%TF.FileFunction,Copper,L2,Bot*%
%TF.FilePolarity,Positive*%
%FSLAX46Y46*%
G04 Gerber Fmt 4.6, Leading zero omitted, Abs format (unit mm)*
G04 Created by KiCad (PCBNEW 9.0.0) date 2025-03-25 17:20:35*
%MOMM*%
%LPD*%
G01*
G04 APERTURE LIST*
G04 Aperture macros list*
%AMFreePoly0*
4,1,6,1.000000,0.000000,0.500000,-0.750000,-0.500000,-0.750000,-0.500000,0.750000,0.500000,0.750000,1.000000,0.000000,1.000000,0.000000,$1*%
%AMFreePoly1*
4,1,6,0.500000,-0.750000,-0.650000,-0.750000,-0.150000,0.000000,-0.650000,0.750000,0.500000,0.750000,0.500000,-0.750000,0.500000,-0.750000,$1*%
G04 Aperture macros list end*
%TA.AperFunction,HeatsinkPad*%
%ADD10O,1.000000X2.100000*%
%TD*%
%TA.AperFunction,HeatsinkPad*%
%ADD11O,1.000000X1.800000*%
%TD*%
%TA.AperFunction,ComponentPad*%
%ADD12R,1.700000X1.700000*%
%TD*%
%TA.AperFunction,ComponentPad*%
%ADD13O,1.700000X1.700000*%
%TD*%
%TA.AperFunction,ComponentPad*%
%ADD14C,2.000000*%
%TD*%
%TA.AperFunction,SMDPad,CuDef*%
%ADD15FreePoly0,90.000000*%
%TD*%
%TA.AperFunction,SMDPad,CuDef*%
%ADD16FreePoly1,90.000000*%
%TD*%
%TA.AperFunction,ViaPad*%
%ADD17C,0.550000*%
%TD*%
%TA.AperFunction,Conductor*%
%ADD18C,0.200000*%
%TD*%
G04 APERTURE END LIST*
D10*
%TO.P,C5,S1,SHIELD*%
%TO.N,Net-(C5-SHIELD)*%
X130620000Y-87705000D03*
D11*
X130620000Y-83525000D03*
D10*
X121980000Y-87705000D03*
D11*
X121980000Y-83525000D03*
%TD*%
D12*
%TO.P,J9,1,Pin_1*%
%TO.N,VDD*%
X135175000Y-123263000D03*
D13*
%TO.P,J9,2,Pin_2*%
%TO.N,/Project Architecture/Board/SCL*%
X132635000Y-123263000D03*
%TO.P,J9,3,Pin_3*%
%TO.N,/Project Architecture/Board/SDA*%
X130095000Y-123263000D03*
%TO.P,J9,4,Pin_4*%
%TO.N,GND*%
X127555000Y-123263000D03*
%TO.P,J9,5,Pin_5*%
X125015000Y-123263000D03*
%TO.P,J9,6,Pin_6*%
%TO.N,/Project Architecture/Board/UART_RX*%
X122475000Y-123263000D03*
%TO.P,J9,7,Pin_7*%
%TO.N,/Project Architecture/Board/UART_TX*%
X119935000Y-123263000D03*
%TO.P,J9,8,Pin_8*%
%TO.N,VDD*%
X117395000Y-123263000D03*
%TD*%
D12*
%TO.P,J1,1,Pin_1*%
%TO.N,+3V3*%
X133488200Y-87075000D03*
D13*
%TO.P,J1,2,Pin_2*%
%TO.N,VDD*%
X133488200Y-89615000D03*
%TO.P,J1,3,Pin_3*%
%TO.N,+5V*%
X133488200Y-92155000D03*
%TD*%
D14*
%TO.P,TP3,1,1*%
%TO.N,VDD*%
X136714000Y-83950000D03*
%TD*%
D12*
%TO.P,J2,1,Pin_1*%
%TO.N,/Project Architecture/Board/GPB7*%
X137730000Y-121034000D03*
D13*
%TO.P,J2,2,Pin_2*%
%TO.N,/Project Architecture/Board/GPB6*%
X137730000Y-118494000D03*
%TO.P,J2,3,Pin_3*%
%TO.N,/Project Architecture/Board/GPB5*%
X137730000Y-115954000D03*
%TO.P,J2,4,Pin_4*%
%TO.N,/Project Architecture/Board/GPB4*%
X137730000Y-113414000D03*
%TO.P,J2,5,Pin_5*%
%TO.N,/Project Architecture/Board/GPB3*%
X137730000Y-110874000D03*
%TO.P,J2,6,Pin_6*%
%TO.N,/Project Architecture/Board/GPB2*%
X137730000Y-108334000D03*
%TO.P,J2,7,Pin_7*%
%TO.N,/Project Architecture/Board/GPB1*%
X137730000Y-105794000D03*
%TO.P,J2,8,Pin_8*%
%TO.N,/Project Architecture/Board/GPB0*%
X137730000Y-103254000D03*
%TO.P,J2,9,Pin_9*%
%TO.N,/Project Architecture/Board/INTB*%
X137730000Y-100714000D03*
%TO.P,J2,10,Pin_10*%
%TO.N,VDD*%
X137730000Y-98174000D03*
%TO.P,J2,11,Pin_11*%
%TO.N,GND*%
X137730000Y-95634000D03*
%TO.P,J2,12,Pin_12*%
%TO.N,/Project Architecture/Board/LED_USBCONF*%
X137730000Y-93094000D03*
%TO.P,J2,13,Pin_13*%
%TO.N,/Project Architecture/Board/LED_I2C*%
X137730000Y-90554000D03*
%TD*%
D14*
%TO.P,TP4,1,1*%
%TO.N,GND*%
X119696000Y-96396000D03*
%TD*%
D15*
%TO.P,J6,1,A*%
%TO.N,/Project Architecture/Board/LED_UTX*%
X121524800Y-92980800D03*
D16*
%TO.P,J6,2,B*%
%TO.N,Net-(D1-K)*%
X121524800Y-91530800D03*
%TD*%
D15*
%TO.P,J7,1,A*%
%TO.N,/Project Architecture/Board/LED_USBCONF*%
X124039400Y-92980800D03*
D16*
%TO.P,J7,2,B*%
%TO.N,Net-(D2-K)*%
X124039400Y-91530800D03*
%TD*%
D15*
%TO.P,J3,1,A*%
%TO.N,/Project Architecture/Board/LED_URX*%
X119010200Y-93006200D03*
D16*
%TO.P,J3,2,B*%
%TO.N,Net-(D5-K)*%
X119010200Y-91556200D03*
%TD*%
D15*
%TO.P,J8,1,A*%
%TO.N,/Project Architecture/Board/LED_I2C*%
X126554000Y-92980800D03*
D16*
%TO.P,J8,2,B*%
%TO.N,Net-(D6-K)*%
X126554000Y-91530800D03*
%TD*%
D14*
%TO.P,TP1,1,1*%
%TO.N,+5V*%
X130618000Y-94618000D03*
%TD*%
%TO.P,TP2,1,1*%
%TO.N,+3V3*%
X133666000Y-95888000D03*
%TD*%
D12*
%TO.P,J5,1,Pin_1*%
%TO.N,/Project Architecture/Board/GPA7*%
X114880000Y-121000000D03*
D13*
%TO.P,J5,2,Pin_2*%
%TO.N,/Project Architecture/Board/GPA6*%
X114880000Y-118460000D03*
%TO.P,J5,3,Pin_3*%
%TO.N,/Project Architecture/Board/GPA5*%
X114880000Y-115920000D03*
%TO.P,J5,4,Pin_4*%
%TO.N,/Project Architecture/Board/GPA4*%
X114880000Y-113380000D03*
%TO.P,J5,5,Pin_5*%
%TO.N,/Project Architecture/Board/GPA3*%
X114880000Y-110840000D03*
%TO.P,J5,6,Pin_6*%
%TO.N,/Project Architecture/Board/GPA2*%
X114880000Y-108300000D03*
%TO.P,J5,7,Pin_7*%
%TO.N,/Project Architecture/Board/GPA1*%
X114880000Y-105760000D03*
%TO.P,J5,8,Pin_8*%
%TO.N,/Project Architecture/Board/GPA0*%
X114880000Y-103220000D03*
%TO.P,J5,9,Pin_9*%
%TO.N,/Project Architecture/Board/INTA*%
X114880000Y-100680000D03*
%TO.P,J5,10,Pin_10*%
%TO.N,VDD*%
X114880000Y-98140000D03*
%TO.P,J5,11,Pin_11*%
%TO.N,GND*%
X114880000Y-95600000D03*
%TO.P,J5,12,Pin_12*%
%TO.N,/Project Architecture/Board/LED_UTX*%
X114880000Y-93060000D03*
%TO.P,J5,13,Pin_13*%
%TO.N,/Project Architecture/Board/LED_URX*%
X114880000Y-90520000D03*
%TD*%
D17*
%TO.N,GND*%
X122617000Y-98809000D03*
X125665000Y-94491000D03*
X135444000Y-82197400D03*
X126681000Y-97539000D03*
X133666000Y-108842000D03*
X126621000Y-100790000D03*
X123100000Y-89182000D03*
X129729000Y-89411000D03*
X124712500Y-112334500D03*
X132001000Y-92600000D03*
X123725000Y-94618000D03*
X120458000Y-94237000D03*
X135190000Y-98682000D03*
X128205000Y-103000000D03*
X124737000Y-111675000D03*
X124707000Y-112975000D03*
X128078000Y-114275000D03*
%TO.N,Net-(D1-K)*%
X116648000Y-81918000D03*
%TO.N,Net-(D2-K)*%
X118426000Y-81918000D03*
%TO.N,Net-(D5-K)*%
X114870000Y-81918000D03*
%TO.N,Net-(D6-K)*%
X120204000Y-81918000D03*
%TO.N,+3V3*%
X131126000Y-99444000D03*
X132396000Y-105794000D03*
X132396000Y-104270000D03*
X131888000Y-99444000D03*
X132396000Y-105032000D03*
X131126000Y-104270000D03*
X131126000Y-105794000D03*
X131126000Y-98174000D03*
X131126000Y-105032000D03*
X131888000Y-98174000D03*
%TO.N,/Project Architecture/Board/GPB3*%
X133158000Y-118113000D03*
%TO.N,/Project Architecture/Board/GPB4*%
X133666000Y-117478000D03*
%TO.N,/Project Architecture/Board/GPB0*%
X131507000Y-120145000D03*
%TO.N,/Project Architecture/Board/GPB1*%
X132142000Y-119510000D03*
%TO.N,/Project Architecture/Board/INTB*%
X124776000Y-114303000D03*
%TO.N,/Project Architecture/Board/LED_USBCONF*%
X136460000Y-86617000D03*
X121220000Y-108461000D03*
%TO.N,/Project Architecture/Board/LED_I2C*%
X126046000Y-108461000D03*
X137730000Y-85982000D03*
%TO.N,/Project Architecture/Board/GPB2*%
X132650000Y-118750000D03*
%TO.N,/Project Architecture/Board/GPB6*%
X135250000Y-118494000D03*
%TO.N,/Project Architecture/Board/GPB5*%
X134428000Y-116970000D03*
%TO.N,/Project Architecture/Board/LED_URX*%
X117410000Y-96777000D03*
%TO.N,/Project Architecture/Board/LED_UTX*%
X121220000Y-93094000D03*
X121220000Y-102746000D03*
%TD*%
D18*
%TO.N,Net-(D1-K)*%
X121524800Y-91530800D02*
X120889800Y-91530800D01*
X120889800Y-91530800D02*
X116648000Y-87289000D01*
X116648000Y-87289000D02*
X116648000Y-81918000D01*
%TO.N,Net-(D2-K)*%
X118426000Y-87252000D02*
X118426000Y-81918000D01*
X123531400Y-91480000D02*
X122752400Y-90701000D01*
X121875000Y-90701000D02*
X118426000Y-87252000D01*
X122752400Y-90701000D02*
X121875000Y-90701000D01*
%TO.N,Net-(D5-K)*%
X119010200Y-91353000D02*
X118922400Y-91353000D01*
X118908600Y-91366800D02*
X118894800Y-91353000D01*
X114870000Y-88051000D02*
X114870000Y-81918000D01*
X118172000Y-91353000D02*
X114870000Y-88051000D01*
X118922400Y-91353000D02*
X118908600Y-91366800D01*
X118894800Y-91353000D02*
X118172000Y-91353000D01*
%TO.N,Net-(D6-K)*%
X125792000Y-91353000D02*
X124739000Y-90300000D01*
X120204000Y-88268000D02*
X120204000Y-81918000D01*
X124739000Y-90300000D02*
X122236000Y-90300000D01*
X122236000Y-90300000D02*
X120204000Y-88268000D01*
%TO.N,/Project Architecture/Board/GPB3*%
X133090000Y-118045000D02*
X133090000Y-114311919D01*
X133090000Y-114311919D02*
X136527919Y-110874000D01*
X133158000Y-118113000D02*
X133090000Y-118045000D01*
X136527919Y-110874000D02*
X137730000Y-110874000D01*
%TO.N,/Project Architecture/Board/GPB4*%
X133666000Y-115192000D02*
X135444000Y-113414000D01*
X133666000Y-117478000D02*
X133666000Y-115192000D01*
X135444000Y-113414000D02*
X137730000Y-113414000D01*
%TO.N,/Project Architecture/Board/GPB0*%
X131507000Y-120145000D02*
X131507000Y-112652000D01*
X135698000Y-105286000D02*
X137730000Y-103254000D01*
X135698000Y-108461000D02*
X135698000Y-105286000D01*
X131507000Y-112652000D02*
X135698000Y-108461000D01*
%TO.N,/Project Architecture/Board/GPB1*%
X132074000Y-112974000D02*
X136333000Y-108715000D01*
X132142000Y-119510000D02*
X132074000Y-119442000D01*
X132074000Y-119442000D02*
X132074000Y-112974000D01*
X136333000Y-107191000D02*
X137730000Y-105794000D01*
X136333000Y-108715000D02*
X136333000Y-107191000D01*
%TO.N,/Project Architecture/Board/INTB*%
X135698000Y-100714000D02*
X134555000Y-101857000D01*
X137730000Y-100714000D02*
X135698000Y-100714000D01*
X126681000Y-114303000D02*
X124776000Y-114303000D01*
X134555000Y-106429000D02*
X126681000Y-114303000D01*
X134555000Y-101857000D02*
X134555000Y-106429000D01*
%TO.N,/Project Architecture/Board/LED_USBCONF*%
X128967000Y-85728000D02*
X135825000Y-85728000D01*
X135825000Y-85728000D02*
X136460000Y-86363000D01*
X124330400Y-93881400D02*
X127417600Y-93881400D01*
X124039400Y-93590400D02*
X124141000Y-93692000D01*
X124141000Y-93692000D02*
X124330400Y-93881400D01*
X124301000Y-93852000D02*
X124141000Y-93692000D01*
X136460000Y-86363000D02*
X136460000Y-86617000D01*
X128281200Y-93017800D02*
X128281200Y-86413800D01*
X128281200Y-86413800D02*
X128967000Y-85728000D01*
X121220000Y-108461000D02*
X124301000Y-105380000D01*
X127417600Y-93881400D02*
X128281200Y-93017800D01*
X124301000Y-105380000D02*
X124301000Y-93852000D01*
X124039400Y-92980800D02*
X124039400Y-93590400D01*
%TO.N,/Project Architecture/Board/LED_I2C*%
X127824000Y-85537500D02*
X128522500Y-84839000D01*
X126554000Y-92980800D02*
X127276800Y-92980800D01*
X127276800Y-92980800D02*
X127824000Y-92433600D01*
X129348000Y-92078000D02*
X130660000Y-90766000D01*
X127824000Y-92433600D02*
X127824000Y-85537500D01*
X137518000Y-90766000D02*
X137730000Y-90554000D01*
X137730000Y-85982000D02*
X136841000Y-85982000D01*
X129348000Y-93221000D02*
X129348000Y-92078000D01*
X136841000Y-85982000D02*
X135698000Y-84839000D01*
X128522500Y-84839000D02*
X135698000Y-84839000D01*
X126046000Y-108461000D02*
X126046000Y-96523000D01*
X130660000Y-90766000D02*
X137518000Y-90766000D01*
X126046000Y-96523000D02*
X129348000Y-93221000D01*
%TO.N,/Project Architecture/Board/GPB2*%
X132582000Y-113482000D02*
X137730000Y-108334000D01*
X132650000Y-118750000D02*
X132582000Y-118682000D01*
X132582000Y-118682000D02*
X132582000Y-113482000D01*
%TO.N,/Project Architecture/Board/GPB6*%
X135250000Y-118494000D02*
X137730000Y-118494000D01*
%TO.N,/Project Architecture/Board/GPB5*%
X134428000Y-116970000D02*
X136714000Y-116970000D01*
X136714000Y-116970000D02*
X137730000Y-115954000D01*
%TO.N,/Project Architecture/Board/LED_URX*%
X118172000Y-92803000D02*
X117511600Y-92803000D01*
X116106000Y-90520000D02*
X114880000Y-90520000D01*
X119010200Y-95176800D02*
X119010200Y-92803000D01*
X119010200Y-92803000D02*
X117511600Y-92803000D01*
X117119000Y-92803000D02*
X116394000Y-92078000D01*
X116394000Y-90808000D02*
X116106000Y-90520000D01*
X117511600Y-92803000D02*
X117119000Y-92803000D01*
X117410000Y-96777000D02*
X119010200Y-95176800D01*
X116394000Y-92078000D02*
X116394000Y-90808000D01*
%TO.N,/Project Architecture/Board/LED_UTX*%
X121220000Y-102746000D02*
X121220000Y-93094000D01*
X115100000Y-92840000D02*
X114880000Y-93060000D01*
%TD*%
%TA.AperFunction,Conductor*%
%TO.N,+3V3*%
G36*
X133228039Y-97634885D02*
G01*
X133273794Y-97687689D01*
X133285000Y-97739200D01*
X133285000Y-107222667D01*
X133265315Y-107289706D01*
X133248681Y-107310348D01*
X132718548Y-107840481D01*
X132657225Y-107873966D01*
X132630867Y-107876800D01*
X130487694Y-107876800D01*
X130420655Y-107857115D01*
X130374900Y-107804311D01*
X130363694Y-107753107D01*
X130338908Y-97739507D01*
X130358427Y-97672419D01*
X130411118Y-97626533D01*
X130462908Y-97615200D01*
X133161000Y-97615200D01*
X133228039Y-97634885D01*
G37*
%TD.AperFunction*%
%TD*%
%TA.AperFunction,Conductor*%
%TO.N,GND*%
G36*
X138106061Y-81251097D02*
G01*
X138108732Y-81251360D01*
X138234069Y-81263704D01*
X138257897Y-81268443D01*
X138375140Y-81304008D01*
X138397589Y-81313308D01*
X138490021Y-81362714D01*
X138505630Y-81371057D01*
X138525840Y-81384561D01*
X138620535Y-81462274D01*
X138637725Y-81479464D01*
X138715438Y-81574159D01*
X138728942Y-81594369D01*
X138786690Y-81702407D01*
X138795992Y-81724864D01*
X138798904Y-81734463D01*
X138831554Y-81842093D01*
X138836296Y-81865935D01*
X138848903Y-81993938D01*
X138849500Y-82006092D01*
X138849500Y-89929826D01*
X138829815Y-89996865D01*
X138777011Y-90042620D01*
X138707853Y-90052564D01*
X138644297Y-90023539D01*
X138622398Y-89998717D01*
X138545977Y-89884344D01*
X138399657Y-89738024D01*
X138313626Y-89680541D01*
X138227598Y-89623059D01*
X138036420Y-89543870D01*
X138036412Y-89543868D01*
X137833469Y-89503500D01*
X137833465Y-89503500D01*
X137626535Y-89503500D01*
X137626530Y-89503500D01*
X137423587Y-89543868D01*
X137423579Y-89543870D01*
X137232403Y-89623058D01*
X137060342Y-89738024D01*
X136914024Y-89884342D01*
X136799058Y-90056403D01*
X136719870Y-90247579D01*
X136719868Y-90247587D01*
X136696376Y-90365691D01*
X136663991Y-90427602D01*
X136603276Y-90462176D01*
X136574759Y-90465500D01*
X134415328Y-90465500D01*
X134348289Y-90445815D01*
X134302534Y-90393011D01*
X134292590Y-90323853D01*
X134312226Y-90272610D01*
X134419140Y-90112600D01*
X134419140Y-90112599D01*
X134419141Y-90112598D01*
X134498330Y-89921420D01*
X134538700Y-89718465D01*
X134538700Y-89511535D01*
X134498330Y-89308580D01*
X134419141Y-89117402D01*
X134304177Y-88945345D01*
X134304175Y-88945342D01*
X134157857Y-88799024D01*
X134071826Y-88741541D01*
X133985798Y-88684059D01*
X133794620Y-88604870D01*
X133794612Y-88604868D01*
X133591669Y-88564500D01*
X133591665Y-88564500D01*
X133384735Y-88564500D01*
X133384730Y-88564500D01*
X133181787Y-88604868D01*
X133181779Y-88604870D01*
X132990603Y-88684058D01*
X132818542Y-88799024D01*
X132672224Y-88945342D01*
X132557258Y-89117403D01*
X132478070Y-89308579D01*
X132478068Y-89308587D01*
X132437700Y-89511530D01*
X132437700Y-89718469D01*
X132478068Y-89921412D01*
X132478070Y-89921420D01*
X132557259Y-90112599D01*
X132557259Y-90112600D01*
X132664174Y-90272610D01*
X132685052Y-90339287D01*
X132666567Y-90406667D01*
X132614588Y-90453357D01*
X132561072Y-90465500D01*
X130620438Y-90465500D01*
X130553039Y-90483559D01*
X130544007Y-90485980D01*
X130491167Y-90516488D01*
X130475492Y-90525537D01*
X130475487Y-90525541D01*
X129107541Y-91893487D01*
X129107535Y-91893495D01*
X129067982Y-91962004D01*
X129067979Y-91962009D01*
X129047500Y-92038439D01*
X129047500Y-93045167D01*
X129027815Y-93112206D01*
X129011181Y-93132848D01*
X125805541Y-96338487D01*
X125805535Y-96338495D01*
X125765982Y-96407004D01*
X125765979Y-96407009D01*
X125745500Y-96483439D01*
X125745500Y-108037679D01*
X125725815Y-108104718D01*
X125709181Y-108125360D01*
X125665506Y-108169034D01*
X125665504Y-108169037D01*
X125602905Y-108277463D01*
X125602905Y-108277464D01*
X125570500Y-108398399D01*
X125570500Y-108523601D01*
X125602905Y-108644536D01*
X125665505Y-108752964D01*
X125754036Y-108841495D01*
X125862464Y-108904095D01*
X125983399Y-108936500D01*
X125983401Y-108936500D01*
X126108599Y-108936500D01*
X126108601Y-108936500D01*
X126229536Y-108904095D01*
X126337964Y-108841495D01*
X126426495Y-108752964D01*
X126489095Y-108644536D01*
X126521500Y-108523601D01*
X126521500Y-108398399D01*
X126489095Y-108277464D01*
X126426495Y-108169036D01*
X126382819Y-108125360D01*
X126349334Y-108064037D01*
X126346500Y-108037679D01*
X126346500Y-96698833D01*
X126366185Y-96631794D01*
X126382819Y-96611152D01*
X128470458Y-94523513D01*
X129417500Y-94523513D01*
X129417500Y-94712486D01*
X129447059Y-94899118D01*
X129505454Y-95078836D01*
X129575528Y-95216362D01*
X129591240Y-95247199D01*
X129702310Y-95400073D01*
X129835927Y-95533690D01*
X129988801Y-95644760D01*
X130054356Y-95678162D01*
X130157163Y-95730545D01*
X130157165Y-95730545D01*
X130157168Y-95730547D01*
X130247814Y-95760000D01*
X130336881Y-95788940D01*
X130523514Y-95818500D01*
X130523519Y-95818500D01*
X130712486Y-95818500D01*
X130870246Y-95793513D01*
X132465500Y-95793513D01*
X132465500Y-95982486D01*
X132495059Y-96169118D01*
X132553454Y-96348836D01*
X132637334Y-96513459D01*
X132639240Y-96517199D01*
X132750310Y-96670073D01*
X132883927Y-96803690D01*
X133036801Y-96914760D01*
X133116347Y-96955290D01*
X133205163Y-97000545D01*
X133205165Y-97000545D01*
X133205168Y-97000547D01*
X133297969Y-97030700D01*
X133384881Y-97058940D01*
X133571514Y-97088500D01*
X133571519Y-97088500D01*
X133760486Y-97088500D01*
X133947118Y-97058940D01*
X133986515Y-97046139D01*
X134126832Y-97000547D01*
X134295199Y-96914760D01*
X134448073Y-96803690D01*
X134581690Y-96670073D01*
X134692760Y-96517199D01*
X134778547Y-96348832D01*
X134836940Y-96169118D01*
X134847899Y-96099925D01*
X134866500Y-95982486D01*
X134866500Y-95793513D01*
X134836940Y-95606881D01*
X134788074Y-95456489D01*
X134778547Y-95427168D01*
X134778545Y-95427165D01*
X134778545Y-95427163D01*
X134727505Y-95326993D01*
X134692760Y-95258801D01*
X134581690Y-95105927D01*
X134448073Y-94972310D01*
X134295199Y-94861240D01*
X134126836Y-94775454D01*
X133947118Y-94717059D01*
X133760486Y-94687500D01*
X133760481Y-94687500D01*
X133571519Y-94687500D01*
X133571514Y-94687500D01*
X133384881Y-94717059D01*
X133205163Y-94775454D01*
X133036800Y-94861240D01*
X132949579Y-94924610D01*
X132883927Y-94972310D01*
X132883925Y-94972312D01*
X132883924Y-94972312D01*
X132750312Y-95105924D01*
X132750312Y-95105925D01*
X132750310Y-95105927D01*
X132745108Y-95113087D01*
X132639240Y-95258800D01*
X132553454Y-95427163D01*
X132495059Y-95606881D01*
X132465500Y-95793513D01*
X130870246Y-95793513D01*
X130899118Y-95788940D01*
X131078832Y-95730547D01*
X131247199Y-95644760D01*
X131400073Y-95533690D01*
X131533690Y-95400073D01*
X131644760Y-95247199D01*
X131730547Y-95078832D01*
X131788940Y-94899118D01*
X131794939Y-94861240D01*
X131818500Y-94712486D01*
X131818500Y-94523513D01*
X131788940Y-94336881D01*
X131757091Y-94238861D01*
X131730547Y-94157168D01*
X131730545Y-94157165D01*
X131730545Y-94157163D01*
X131680612Y-94059164D01*
X131644760Y-93988801D01*
X131533690Y-93835927D01*
X131400073Y-93702310D01*
X131247199Y-93591240D01*
X131216296Y-93575494D01*
X131078836Y-93505454D01*
X130899118Y-93447059D01*
X130712486Y-93417500D01*
X130712481Y-93417500D01*
X130523519Y-93417500D01*
X130523514Y-93417500D01*
X130336881Y-93447059D01*
X130157163Y-93505454D01*
X129988800Y-93591240D01*
X129929498Y-93634326D01*
X129835927Y-93702310D01*
X129835925Y-93702312D01*
X129835924Y-93702312D01*
X129702312Y-93835924D01*
X129702312Y-93835925D01*
X129702310Y-93835927D01*
X129673213Y-93875975D01*
X129591240Y-93988800D01*
X129505454Y-94157163D01*
X129447059Y-94336881D01*
X129417500Y-94523513D01*
X128470458Y-94523513D01*
X128563005Y-94430966D01*
X129053819Y-93940152D01*
X129588460Y-93405511D01*
X129591399Y-93400420D01*
X129628021Y-93336989D01*
X129648500Y-93260562D01*
X129648500Y-92253833D01*
X129668185Y-92186794D01*
X129684819Y-92166152D01*
X130748152Y-91102819D01*
X130809475Y-91069334D01*
X130835833Y-91066500D01*
X132817632Y-91066500D01*
X132884671Y-91086185D01*
X132930426Y-91138989D01*
X132940370Y-91208147D01*
X132911345Y-91271703D01*
X132886524Y-91293601D01*
X132865217Y-91307837D01*
X132818542Y-91339024D01*
X132672224Y-91485342D01*
X132557258Y-91657403D01*
X132478070Y-91848579D01*
X132478068Y-91848587D01*
X132437700Y-92051530D01*
X132437700Y-92258469D01*
X132478068Y-92461412D01*
X132478070Y-92461420D01*
X132557258Y-92652596D01*
X132672224Y-92824657D01*
X132818542Y-92970975D01*
X132818545Y-92970977D01*
X132990602Y-93085941D01*
X133181780Y-93165130D01*
X133368698Y-93202310D01*
X133384730Y-93205499D01*
X133384734Y-93205500D01*
X133384735Y-93205500D01*
X133591666Y-93205500D01*
X133591667Y-93205499D01*
X133794620Y-93165130D01*
X133985798Y-93085941D01*
X134157855Y-92970977D01*
X134304177Y-92824655D01*
X134419141Y-92652598D01*
X134498330Y-92461420D01*
X134538700Y-92258465D01*
X134538700Y-92051535D01*
X134498330Y-91848580D01*
X134419141Y-91657402D01*
X134304177Y-91485345D01*
X134304175Y-91485342D01*
X134157857Y-91339024D01*
X134129090Y-91319803D01*
X134089877Y-91293601D01*
X134045073Y-91239991D01*
X134036365Y-91170666D01*
X134066519Y-91107638D01*
X134125961Y-91070919D01*
X134158768Y-91066500D01*
X136742737Y-91066500D01*
X136809776Y-91086185D01*
X136845837Y-91121607D01*
X136866969Y-91153233D01*
X136914024Y-91223657D01*
X137060342Y-91369975D01*
X137060345Y-91369977D01*
X137232402Y-91484941D01*
X137423580Y-91564130D01*
X137571023Y-91593458D01*
X137626530Y-91604499D01*
X137626534Y-91604500D01*
X137626535Y-91604500D01*
X137833466Y-91604500D01*
X137833467Y-91604499D01*
X138036420Y-91564130D01*
X138227598Y-91484941D01*
X138399655Y-91369977D01*
X138545977Y-91223655D01*
X138622397Y-91109282D01*
X138676009Y-91064477D01*
X138745334Y-91055770D01*
X138808362Y-91085924D01*
X138845082Y-91145367D01*
X138849500Y-91178173D01*
X138849500Y-92469826D01*
X138829815Y-92536865D01*
X138777011Y-92582620D01*
X138707853Y-92592564D01*
X138644297Y-92563539D01*
X138622398Y-92538717D01*
X138545977Y-92424344D01*
X138399657Y-92278024D01*
X138292165Y-92206201D01*
X138227598Y-92163059D01*
X138117754Y-92117560D01*
X138036420Y-92083870D01*
X138036412Y-92083868D01*
X137833469Y-92043500D01*
X137833465Y-92043500D01*
X137626535Y-92043500D01*
X137626530Y-92043500D01*
X137423587Y-92083868D01*
X137423579Y-92083870D01*
X137232403Y-92163058D01*
X137060342Y-92278024D01*
X136914024Y-92424342D01*
X136799058Y-92596403D01*
X136719870Y-92787579D01*
X136719868Y-92787587D01*
X136679500Y-92990530D01*
X136679500Y-93197469D01*
X136719868Y-93400412D01*
X136719870Y-93400420D01*
X136771033Y-93523939D01*
X136799059Y-93591598D01*
X136837603Y-93649283D01*
X136914024Y-93763657D01*
X137060342Y-93909975D01*
X137232405Y-94024943D01*
X137315023Y-94059164D01*
X137397108Y-94093164D01*
X137451511Y-94137005D01*
X137473576Y-94203299D01*
X137456297Y-94270998D01*
X137405160Y-94318609D01*
X137387974Y-94325656D01*
X137211781Y-94382905D01*
X137022442Y-94479379D01*
X136850540Y-94604272D01*
X136850535Y-94604276D01*
X136700276Y-94754535D01*
X136700272Y-94754540D01*
X136575379Y-94926442D01*
X136478904Y-95115782D01*
X136413242Y-95317870D01*
X136413242Y-95317873D01*
X136402769Y-95384000D01*
X137296988Y-95384000D01*
X137264075Y-95441007D01*
X137230000Y-95568174D01*
X137230000Y-95699826D01*
X137264075Y-95826993D01*
X137296988Y-95884000D01*
X136402769Y-95884000D01*
X136413242Y-95950126D01*
X136413242Y-95950129D01*
X136478904Y-96152217D01*
X136575379Y-96341557D01*
X136700272Y-96513459D01*
X136700276Y-96513464D01*
X136850535Y-96663723D01*
X136850540Y-96663727D01*
X137022442Y-96788620D01*
X137211782Y-96885095D01*
X137387973Y-96942343D01*
X137445648Y-96981780D01*
X137472847Y-97046139D01*
X137460932Y-97114985D01*
X137413688Y-97166461D01*
X137397108Y-97174835D01*
X137232403Y-97243057D01*
X137060342Y-97358024D01*
X136914024Y-97504342D01*
X136799058Y-97676403D01*
X136719870Y-97867579D01*
X136719868Y-97867587D01*
X136679500Y-98070530D01*
X136679500Y-98277469D01*
X136713105Y-98446412D01*
X136719870Y-98480420D01*
X136799059Y-98671598D01*
X136821995Y-98705924D01*
X136914024Y-98843657D01*
X137060342Y-98989975D01*
X137060345Y-98989977D01*
X137232402Y-99104941D01*
X137423580Y-99184130D01*
X137626530Y-99224499D01*
X137626534Y-99224500D01*
X137626535Y-99224500D01*
X137833466Y-99224500D01*
X137833467Y-99224499D01*
X138036420Y-99184130D01*
X138227598Y-99104941D01*
X138399655Y-98989977D01*
X138545977Y-98843655D01*
X138622397Y-98729282D01*
X138676009Y-98684477D01*
X138745334Y-98675770D01*
X138808362Y-98705924D01*
X138845082Y-98765367D01*
X138849500Y-98798173D01*
X138849500Y-100089826D01*
X138829815Y-100156865D01*
X138777011Y-100202620D01*
X138707853Y-100212564D01*
X138644297Y-100183539D01*
X138622398Y-100158717D01*
X138545977Y-100044344D01*
X138399657Y-99898024D01*
X138313626Y-99840541D01*
X138227598Y-99783059D01*
X138036420Y-99703870D01*
X138036412Y-99703868D01*
X137833469Y-99663500D01*
X137833465Y-99663500D01*
X137626535Y-99663500D01*
X137626530Y-99663500D01*
X137423587Y-99703868D01*
X137423579Y-99703870D01*
X137232403Y-99783058D01*
X137060342Y-99898024D01*
X136914024Y-100044342D01*
X136799058Y-100216403D01*
X136749125Y-100336953D01*
X136705284Y-100391356D01*
X136638990Y-100413421D01*
X136634564Y-100413500D01*
X135658438Y-100413500D01*
X135627867Y-100421691D01*
X135582008Y-100433979D01*
X135582007Y-100433980D01*
X135537081Y-100459919D01*
X135537080Y-100459920D01*
X135513490Y-100473539D01*
X135513487Y-100473541D01*
X134314541Y-101672487D01*
X134314535Y-101672495D01*
X134274982Y-101741004D01*
X134274979Y-101741009D01*
X134254500Y-101817439D01*
X134254500Y-106253167D01*
X134234815Y-106320206D01*
X134218181Y-106340848D01*
X133702181Y-106856848D01*
X133640858Y-106890333D01*
X133571166Y-106885349D01*
X133515233Y-106843477D01*
X133490816Y-106778013D01*
X133490500Y-106769167D01*
X133490500Y-97739208D01*
X133490499Y-97739192D01*
X133485803Y-97695516D01*
X133478647Y-97662620D01*
X133474602Y-97644025D01*
X133474205Y-97642400D01*
X133472110Y-97633827D01*
X133429100Y-97553115D01*
X133392358Y-97510713D01*
X133383339Y-97500304D01*
X133365757Y-97482360D01*
X133365756Y-97482359D01*
X133365754Y-97482357D01*
X133365752Y-97482356D01*
X133365750Y-97482354D01*
X133285940Y-97437711D01*
X133285935Y-97437709D01*
X133218903Y-97418026D01*
X133218899Y-97418025D01*
X133218898Y-97418025D01*
X133161000Y-97409700D01*
X130462908Y-97409700D01*
X130462899Y-97409700D01*
X130418985Y-97414449D01*
X130418980Y-97414449D01*
X130418979Y-97414450D01*
X130418976Y-97414450D01*
X130418974Y-97414451D01*
X130367197Y-97425781D01*
X130356764Y-97428351D01*
X130276161Y-97471559D01*
X130223465Y-97517449D01*
X130205558Y-97535082D01*
X130161107Y-97615013D01*
X130141589Y-97682101D01*
X130133409Y-97740007D01*
X130133408Y-97740016D01*
X130158195Y-107753623D01*
X130162944Y-107797039D01*
X130174154Y-107848259D01*
X130176582Y-107858170D01*
X130219593Y-107938883D01*
X130219595Y-107938886D01*
X130265354Y-107991695D01*
X130282936Y-108009639D01*
X130282940Y-108009643D01*
X130282941Y-108009644D01*
X130282943Y-108009645D01*
X130362753Y-108054288D01*
X130362757Y-108054290D01*
X130429796Y-108073975D01*
X130487694Y-108082300D01*
X132177367Y-108082300D01*
X132244406Y-108101985D01*
X132290161Y-108154789D01*
X132300105Y-108223947D01*
X132271080Y-108287503D01*
X132265048Y-108293981D01*
X126592848Y-113966181D01*
X126531525Y-113999666D01*
X126505167Y-114002500D01*
X125199321Y-114002500D01*
X125132282Y-113982815D01*
X125111640Y-113966181D01*
X125067965Y-113922506D01*
X125067964Y-113922505D01*
X124959536Y-113859905D01*
X124959537Y-113859905D01*
X124917532Y-113848650D01*
X124838601Y-113827500D01*
X124713399Y-113827500D01*
X124634468Y-113848650D01*
X124592463Y-113859905D01*
X124484037Y-113922504D01*
X124484034Y-113922506D01*
X124395506Y-114011034D01*
X124395504Y-114011037D01*
X124332905Y-114119463D01*
X124332905Y-114119464D01*
X124300500Y-114240399D01*
X124300500Y-114365601D01*
X124332905Y-114486536D01*
X124395505Y-114594964D01*
X124484036Y-114683495D01*
X124592464Y-114746095D01*
X124713399Y-114778500D01*
X124713401Y-114778500D01*
X124838599Y-114778500D01*
X124838601Y-114778500D01*
X124959536Y-114746095D01*
X125067964Y-114683495D01*
X125111640Y-114639819D01*
X125172963Y-114606334D01*
X125199321Y-114603500D01*
X126720560Y-114603500D01*
X126720562Y-114603500D01*
X126796989Y-114583021D01*
X126865511Y-114543460D01*
X126921460Y-114487511D01*
X134795460Y-106613511D01*
X134835022Y-106544988D01*
X134855500Y-106468562D01*
X134855500Y-106389438D01*
X134855500Y-102032833D01*
X134875185Y-101965794D01*
X134891819Y-101945152D01*
X135786152Y-101050819D01*
X135847475Y-101017334D01*
X135873833Y-101014500D01*
X136634564Y-101014500D01*
X136701603Y-101034185D01*
X136747358Y-101086989D01*
X136749121Y-101091039D01*
X136799059Y-101211598D01*
X136821995Y-101245924D01*
X136914024Y-101383657D01*
X137060342Y-101529975D01*
X137060345Y-101529977D01*
X137232402Y-101644941D01*
X137423580Y-101724130D01*
X137626530Y-101764499D01*
X137626534Y-101764500D01*
X137626535Y-101764500D01*
X137833466Y-101764500D01*
X137833467Y-101764499D01*
X138036420Y-101724130D01*
X138227598Y-101644941D01*
X138399655Y-101529977D01*
X138545977Y-101383655D01*
X138622397Y-101269282D01*
X138676009Y-101224477D01*
X138745334Y-101215770D01*
X138808362Y-101245924D01*
X138845082Y-101305367D01*
X138849500Y-101338173D01*
X138849500Y-102629826D01*
X138829815Y-102696865D01*
X138777011Y-102742620D01*
X138707853Y-102752564D01*
X138644297Y-102723539D01*
X138622398Y-102698717D01*
X138545977Y-102584344D01*
X138399657Y-102438024D01*
X138266477Y-102349037D01*
X138227598Y-102323059D01*
X138036420Y-102243870D01*
X138036412Y-102243868D01*
X137833469Y-102203500D01*
X137833465Y-102203500D01*
X137626535Y-102203500D01*
X137626530Y-102203500D01*
X137423587Y-102243868D01*
X137423579Y-102243870D01*
X137232403Y-102323058D01*
X137060342Y-102438024D01*
X136914024Y-102584342D01*
X136799058Y-102756403D01*
X136719870Y-102947579D01*
X136719868Y-102947587D01*
X136679500Y-103150530D01*
X136679500Y-103357469D01*
X136719868Y-103560412D01*
X136719871Y-103560424D01*
X136769803Y-103680971D01*
X136777272Y-103750440D01*
X136745997Y-103812919D01*
X136742923Y-103816104D01*
X135513489Y-105045540D01*
X135457541Y-105101487D01*
X135457535Y-105101495D01*
X135417982Y-105170004D01*
X135417979Y-105170009D01*
X135397500Y-105246439D01*
X135397500Y-108285167D01*
X135377815Y-108352206D01*
X135361181Y-108372848D01*
X131266541Y-112467487D01*
X131266535Y-112467495D01*
X131226982Y-112536004D01*
X131226979Y-112536009D01*
X131206500Y-112612439D01*
X131206500Y-119721679D01*
X131186815Y-119788718D01*
X131170181Y-119809360D01*
X131126506Y-119853034D01*
X131126504Y-119853037D01*
X131063905Y-119961463D01*
X131054883Y-119995133D01*
X131031500Y-120082399D01*
X131031500Y-120207601D01*
X131063905Y-120328536D01*
X131126505Y-120436964D01*
X131215036Y-120525495D01*
X131323464Y-120588095D01*
X131444399Y-120620500D01*
X131444401Y-120620500D01*
X131569599Y-120620500D01*
X131569601Y-120620500D01*
X131690536Y-120588095D01*
X131798964Y-120525495D01*
X131887495Y-120436964D01*
X131950095Y-120328536D01*
X131982500Y-120207601D01*
X131982500Y-120109500D01*
X132002185Y-120042461D01*
X132054989Y-119996706D01*
X132106500Y-119985500D01*
X132204599Y-119985500D01*
X132204601Y-119985500D01*
X132325536Y-119953095D01*
X132433964Y-119890495D01*
X132522495Y-119801964D01*
X132585095Y-119693536D01*
X132617500Y-119572601D01*
X132617500Y-119447399D01*
X132599867Y-119381592D01*
X132601530Y-119311744D01*
X132640692Y-119253881D01*
X132704921Y-119226377D01*
X132706780Y-119226266D01*
X132712598Y-119225500D01*
X132712601Y-119225500D01*
X132833536Y-119193095D01*
X132941964Y-119130495D01*
X133030495Y-119041964D01*
X133093095Y-118933536D01*
X133125500Y-118812601D01*
X133125500Y-118709130D01*
X133145185Y-118642091D01*
X133197989Y-118596336D01*
X133217406Y-118589355D01*
X133220597Y-118588500D01*
X133220601Y-118588500D01*
X133341536Y-118556095D01*
X133449964Y-118493495D01*
X133538495Y-118404964D01*
X133601095Y-118296536D01*
X133633500Y-118175601D01*
X133633500Y-118074130D01*
X133653185Y-118007091D01*
X133705989Y-117961336D01*
X133725406Y-117954355D01*
X133728597Y-117953500D01*
X133728601Y-117953500D01*
X133849536Y-117921095D01*
X133957964Y-117858495D01*
X134046495Y-117769964D01*
X134109095Y-117661536D01*
X134141500Y-117540601D01*
X134141500Y-117540598D01*
X134142561Y-117532542D01*
X134145656Y-117532949D01*
X134161185Y-117480066D01*
X134213989Y-117434311D01*
X134283147Y-117424367D01*
X134297584Y-117427328D01*
X134365399Y-117445500D01*
X134365400Y-117445500D01*
X134490599Y-117445500D01*
X134490601Y-117445500D01*
X134611536Y-117413095D01*
X134719964Y-117350495D01*
X134763640Y-117306819D01*
X134824963Y-117273334D01*
X134851321Y-117270500D01*
X136753560Y-117270500D01*
X136753562Y-117270500D01*
X136829989Y-117250021D01*
X136898511Y-117210460D01*
X136954460Y-117154511D01*
X137167897Y-116941072D01*
X137229216Y-116907590D01*
X137298908Y-116912574D01*
X137303007Y-116914186D01*
X137423580Y-116964130D01*
X137626530Y-117004499D01*
X137626534Y-117004500D01*
X137626535Y-117004500D01*
X137833466Y-117004500D01*
X137833467Y-117004499D01*
X138036420Y-116964130D01*
X138227598Y-116884941D01*
X138399655Y-116769977D01*
X138545977Y-116623655D01*
X138622397Y-116509282D01*
X138676009Y-116464477D01*
X138745334Y-116455770D01*
X138808362Y-116485924D01*
X138845082Y-116545367D01*
X138849500Y-116578173D01*
X138849500Y-117869826D01*
X138829815Y-117936865D01*
X138777011Y-117982620D01*
X138707853Y-117992564D01*
X138644297Y-117963539D01*
X138622398Y-117938717D01*
X138545977Y-117824344D01*
X138399657Y-117678024D01*
X138313626Y-117620541D01*
X138227598Y-117563059D01*
X138154906Y-117532949D01*
X138036420Y-117483870D01*
X138036412Y-117483868D01*
X137833469Y-117443500D01*
X137833465Y-117443500D01*
X137626535Y-117443500D01*
X137626530Y-117443500D01*
X137423587Y-117483868D01*
X137423579Y-117483870D01*
X137232403Y-117563058D01*
X137060342Y-117678024D01*
X136914024Y-117824342D01*
X136799058Y-117996403D01*
X136776483Y-118050905D01*
X136750554Y-118113504D01*
X136749125Y-118116953D01*
X136705284Y-118171356D01*
X136638990Y-118193421D01*
X136634564Y-118193500D01*
X135673321Y-118193500D01*
X135606282Y-118173815D01*
X135585640Y-118157181D01*
X135541965Y-118113506D01*
X135541964Y-118113505D01*
X135433536Y-118050905D01*
X135433537Y-118050905D01*
X135393224Y-118040103D01*
X135312601Y-118018500D01*
X135187399Y-118018500D01*
X135106775Y-118040103D01*
X135066463Y-118050905D01*
X134958037Y-118113504D01*
X134958034Y-118113506D01*
X134869506Y-118202034D01*
X134869504Y-118202037D01*
X134806905Y-118310463D01*
X134806905Y-118310464D01*
X134774500Y-118431399D01*
X134774500Y-118556601D01*
X134806905Y-118677536D01*
X134869505Y-118785964D01*
X134958036Y-118874495D01*
X135066464Y-118937095D01*
X135187399Y-118969500D01*
X135187401Y-118969500D01*
X135312599Y-118969500D01*
X135312601Y-118969500D01*
X135433536Y-118937095D01*
X135541964Y-118874495D01*
X135585640Y-118830819D01*
X135646963Y-118797334D01*
X135673321Y-118794500D01*
X136634564Y-118794500D01*
X136701603Y-118814185D01*
X136747358Y-118866989D01*
X136749121Y-118871039D01*
X136799059Y-118991598D01*
X136821995Y-119025924D01*
X136914024Y-119163657D01*
X137060342Y-119309975D01*
X137060345Y-119309977D01*
X137232402Y-119424941D01*
X137423580Y-119504130D01*
X137626530Y-119544499D01*
X137626534Y-119544500D01*
X137626535Y-119544500D01*
X137833466Y-119544500D01*
X137833467Y-119544499D01*
X138036420Y-119504130D01*
X138227598Y-119424941D01*
X138399655Y-119309977D01*
X138545977Y-119163655D01*
X138622397Y-119049282D01*
X138676009Y-119004477D01*
X138745334Y-118995770D01*
X138808362Y-119025924D01*
X138845082Y-119085367D01*
X138849500Y-119118173D01*
X138849500Y-119890946D01*
X138829815Y-119957985D01*
X138777011Y-120003740D01*
X138707853Y-120013684D01*
X138669803Y-119999105D01*
X138669513Y-119999806D01*
X138658229Y-119995131D01*
X138599752Y-119983500D01*
X138599748Y-119983500D01*
X136860252Y-119983500D01*
X136860247Y-119983500D01*
X136801770Y-119995131D01*
X136801769Y-119995132D01*
X136735447Y-120039447D01*
X136691132Y-120105769D01*
X136691131Y-120105770D01*
X136679500Y-120164247D01*
X136679500Y-121903752D01*
X136691131Y-121962229D01*
X136691132Y-121962230D01*
X136735447Y-122028552D01*
X136801769Y-122072867D01*
X136801770Y-122072868D01*
X136860247Y-122084499D01*
X136860250Y-122084500D01*
X136860252Y-122084500D01*
X138599750Y-122084500D01*
X138599751Y-122084499D01*
X138614568Y-122081552D01*
X138658229Y-122072868D01*
X138669513Y-122068194D01*
X138670142Y-122069713D01*
X138723286Y-122053073D01*
X138790666Y-122071557D01*
X138837357Y-122123536D01*
X138849500Y-122177053D01*
X138849500Y-123993907D01*
X138848903Y-124006060D01*
X138848903Y-124006061D01*
X138836296Y-124134064D01*
X138831554Y-124157906D01*
X138795993Y-124275134D01*
X138786690Y-124297592D01*
X138728942Y-124405630D01*
X138715438Y-124425840D01*
X138637725Y-124520535D01*
X138620535Y-124537725D01*
X138525840Y-124615438D01*
X138505630Y-124628942D01*
X138397592Y-124686690D01*
X138375134Y-124695993D01*
X138257906Y-124731554D01*
X138234064Y-124736296D01*
X138106062Y-124748903D01*
X138093908Y-124749500D01*
X128127708Y-124749500D01*
X128060669Y-124729815D01*
X128014914Y-124677011D01*
X128004970Y-124607853D01*
X128033995Y-124544297D01*
X128071413Y-124515015D01*
X128262557Y-124417620D01*
X128434459Y-124292727D01*
X128434464Y-124292723D01*
X128584723Y-124142464D01*
X128584727Y-124142459D01*
X128709620Y-123970557D01*
X128806095Y-123781217D01*
X128863343Y-123605026D01*
X128902780Y-123547351D01*
X128967139Y-123520152D01*
X129035985Y-123532066D01*
X129087461Y-123579310D01*
X129095835Y-123595891D01*
X129150939Y-123728925D01*
X129164059Y-123760598D01*
X129177836Y-123781217D01*
X129279024Y-123932657D01*
X129425342Y-124078975D01*
X129425345Y-124078977D01*
X129597402Y-124193941D01*
X129788580Y-124273130D01*
X129911560Y-124297592D01*
X129991530Y-124313499D01*
X129991534Y-124313500D01*
X129991535Y-124313500D01*
X130198466Y-124313500D01*
X130198467Y-124313499D01*
X130401420Y-124273130D01*
X130592598Y-124193941D01*
X130764655Y-124078977D01*
X130910977Y-123932655D01*
X131025941Y-123760598D01*
X131105130Y-123569420D01*
X131145500Y-123366465D01*
X131145500Y-123159535D01*
X131145499Y-123159530D01*
X131584500Y-123159530D01*
X131584500Y-123366469D01*
X131624868Y-123569412D01*
X131624870Y-123569420D01*
X131690939Y-123728925D01*
X131704059Y-123760598D01*
X131717836Y-123781217D01*
X131819024Y-123932657D01*
X131965342Y-124078975D01*
X131965345Y-124078977D01*
X132137402Y-124193941D01*
X132328580Y-124273130D01*
X132451560Y-124297592D01*
X132531530Y-124313499D01*
X132531534Y-124313500D01*
X132531535Y-124313500D01*
X132738466Y-124313500D01*
X132738467Y-124313499D01*
X132941420Y-124273130D01*
X133132598Y-124193941D01*
X133304655Y-124078977D01*
X133450977Y-123932655D01*
X133565941Y-123760598D01*
X133645130Y-123569420D01*
X133685500Y-123366465D01*
X133685500Y-123159535D01*
X133645130Y-122956580D01*
X133565941Y-122765402D01*
X133450977Y-122593345D01*
X133450975Y-122593342D01*
X133304657Y-122447024D01*
X133224173Y-122393247D01*
X134124500Y-122393247D01*
X134124500Y-124132752D01*
X134136131Y-124191229D01*
X134136132Y-124191230D01*
X134180447Y-124257552D01*
X134246769Y-124301867D01*
X134246770Y-124301868D01*
X134305247Y-124313499D01*
X134305250Y-124313500D01*
X134305252Y-124313500D01*
X136044750Y-124313500D01*
X136044751Y-124313499D01*
X136059568Y-124310552D01*
X136103229Y-124301868D01*
X136103229Y-124301867D01*
X136103231Y-124301867D01*
X136169552Y-124257552D01*
X136213867Y-124191231D01*
X136213867Y-124191229D01*
X136213868Y-124191229D01*
X136225499Y-124132752D01*
X136225500Y-124132750D01*
X136225500Y-122393249D01*
X136225499Y-122393247D01*
X136213868Y-122334770D01*
X136213867Y-122334769D01*
X136169552Y-122268447D01*
X136103230Y-122224132D01*
X136103229Y-122224131D01*
X136044752Y-122212500D01*
X136044748Y-122212500D01*
X134305252Y-122212500D01*
X134305247Y-122212500D01*
X134246770Y-122224131D01*
X134246769Y-122224132D01*
X134180447Y-122268447D01*
X134136132Y-122334769D01*
X134136131Y-122334770D01*
X134124500Y-122393247D01*
X133224173Y-122393247D01*
X133136655Y-122334770D01*
X133132598Y-122332059D01*
X132941420Y-122252870D01*
X132941412Y-122252868D01*
X132738469Y-122212500D01*
X132738465Y-122212500D01*
X132531535Y-122212500D01*
X132531530Y-122212500D01*
X132328587Y-122252868D01*
X132328579Y-122252870D01*
X132137403Y-122332058D01*
X131965342Y-122447024D01*
X131819024Y-122593342D01*
X131704058Y-122765403D01*
X131624870Y-122956579D01*
X131624868Y-122956587D01*
X131584500Y-123159530D01*
X131145499Y-123159530D01*
X131105130Y-122956580D01*
X131025941Y-122765402D01*
X130910977Y-122593345D01*
X130910975Y-122593342D01*
X130764657Y-122447024D01*
X130596655Y-122334770D01*
X130592598Y-122332059D01*
X130401420Y-122252870D01*
X130401412Y-122252868D01*
X130198469Y-122212500D01*
X130198465Y-122212500D01*
X129991535Y-122212500D01*
X129991530Y-122212500D01*
X129788587Y-122252868D01*
X129788579Y-122252870D01*
X129597403Y-122332058D01*
X129425342Y-122447024D01*
X129279024Y-122593342D01*
X129164057Y-122765403D01*
X129095835Y-122930108D01*
X129051994Y-122984511D01*
X128985700Y-123006576D01*
X128918000Y-122989297D01*
X128870390Y-122938159D01*
X128863343Y-122920973D01*
X128806095Y-122744782D01*
X128709620Y-122555442D01*
X128584727Y-122383540D01*
X128584723Y-122383535D01*
X128434464Y-122233276D01*
X128434459Y-122233272D01*
X128262557Y-122108379D01*
X128073215Y-122011903D01*
X127871124Y-121946241D01*
X127805000Y-121935768D01*
X127805000Y-122829988D01*
X127747993Y-122797075D01*
X127620826Y-122763000D01*
X127489174Y-122763000D01*
X127362007Y-122797075D01*
X127305000Y-122829988D01*
X127305000Y-121935768D01*
X127304999Y-121935768D01*
X127238875Y-121946241D01*
X127036784Y-122011903D01*
X126847442Y-122108379D01*
X126675540Y-122233272D01*
X126675535Y-122233276D01*
X126525276Y-122383535D01*
X126525272Y-122383540D01*
X126400377Y-122555444D01*
X126395484Y-122565048D01*
X126347509Y-122615844D01*
X126279688Y-122632638D01*
X126213553Y-122610100D01*
X126174516Y-122565048D01*
X126169622Y-122555444D01*
X126044727Y-122383540D01*
X126044723Y-122383535D01*
X125894464Y-122233276D01*
X125894459Y-122233272D01*
X125722557Y-122108379D01*
X125533215Y-122011903D01*
X125331124Y-121946241D01*
X125265000Y-121935768D01*
X125265000Y-122829988D01*
X125207993Y-122797075D01*
X125080826Y-122763000D01*
X124949174Y-122763000D01*
X124822007Y-122797075D01*
X124765000Y-122829988D01*
X124765000Y-121935768D01*
X124764999Y-121935768D01*
X124698875Y-121946241D01*
X124496784Y-122011903D01*
X124307442Y-122108379D01*
X124135540Y-122233272D01*
X124135535Y-122233276D01*
X123985276Y-122383535D01*
X123985272Y-122383540D01*
X123860379Y-122555442D01*
X123763905Y-122744781D01*
X123706656Y-122920974D01*
X123667218Y-122978649D01*
X123602859Y-123005847D01*
X123534013Y-122993932D01*
X123482537Y-122946688D01*
X123474164Y-122930107D01*
X123405943Y-122765405D01*
X123290975Y-122593342D01*
X123144657Y-122447024D01*
X122976655Y-122334770D01*
X122972598Y-122332059D01*
X122781420Y-122252870D01*
X122781412Y-122252868D01*
X122578469Y-122212500D01*
X122578465Y-122212500D01*
X122371535Y-122212500D01*
X122371530Y-122212500D01*
X122168587Y-122252868D01*
X122168579Y-122252870D01*
X121977403Y-122332058D01*
X121805342Y-122447024D01*
X121659024Y-122593342D01*
X121544058Y-122765403D01*
X121464870Y-122956579D01*
X121464868Y-122956587D01*
X121424500Y-123159530D01*
X121424500Y-123366469D01*
X121464868Y-123569412D01*
X121464870Y-123569420D01*
X121530939Y-123728925D01*
X121544059Y-123760598D01*
X121557836Y-123781217D01*
X121659024Y-123932657D01*
X121805342Y-124078975D01*
X121805345Y-124078977D01*
X121977402Y-124193941D01*
X122168580Y-124273130D01*
X122291560Y-124297592D01*
X122371530Y-124313499D01*
X122371534Y-124313500D01*
X122371535Y-124313500D01*
X122578466Y-124313500D01*
X122578467Y-124313499D01*
X122781420Y-124273130D01*
X122972598Y-124193941D01*
X123144655Y-124078977D01*
X123290977Y-123932655D01*
X123405941Y-123760598D01*
X123474165Y-123595889D01*
X123518004Y-123541488D01*
X123584298Y-123519423D01*
X123651998Y-123536702D01*
X123699609Y-123587839D01*
X123706656Y-123605026D01*
X123763904Y-123781216D01*
X123860379Y-123970557D01*
X123985272Y-124142459D01*
X123985276Y-124142464D01*
X124135535Y-124292723D01*
X124135540Y-124292727D01*
X124307442Y-124417620D01*
X124498587Y-124515015D01*
X124549383Y-124562990D01*
X124566178Y-124630811D01*
X124543640Y-124696946D01*
X124488925Y-124740397D01*
X124442292Y-124749500D01*
X114506092Y-124749500D01*
X114493938Y-124748903D01*
X114365935Y-124736296D01*
X114342095Y-124731554D01*
X114224864Y-124695992D01*
X114202407Y-124686690D01*
X114094369Y-124628942D01*
X114074159Y-124615438D01*
X113979464Y-124537725D01*
X113962274Y-124520535D01*
X113884561Y-124425840D01*
X113871057Y-124405630D01*
X113813309Y-124297592D01*
X113804008Y-124275140D01*
X113768443Y-124157897D01*
X113763704Y-124134069D01*
X113751097Y-124006060D01*
X113750500Y-123993907D01*
X113750500Y-123159530D01*
X116344500Y-123159530D01*
X116344500Y-123366469D01*
X116384868Y-123569412D01*
X116384870Y-123569420D01*
X116450939Y-123728925D01*
X116464059Y-123760598D01*
X116477836Y-123781217D01*
X116579024Y-123932657D01*
X116725342Y-124078975D01*
X116725345Y-124078977D01*
X116897402Y-124193941D01*
X117088580Y-124273130D01*
X117211560Y-124297592D01*
X117291530Y-124313499D01*
X117291534Y-124313500D01*
X117291535Y-124313500D01*
X117498466Y-124313500D01*
X117498467Y-124313499D01*
X117701420Y-124273130D01*
X117892598Y-124193941D01*
X118064655Y-124078977D01*
X118210977Y-123932655D01*
X118325941Y-123760598D01*
X118405130Y-123569420D01*
X118445500Y-123366465D01*
X118445500Y-123159535D01*
X118445499Y-123159530D01*
X118884500Y-123159530D01*
X118884500Y-123366469D01*
X118924868Y-123569412D01*
X118924870Y-123569420D01*
X118990939Y-123728925D01*
X119004059Y-123760598D01*
X119017836Y-123781217D01*
X119119024Y-123932657D01*
X119265342Y-124078975D01*
X119265345Y-124078977D01*
X119437402Y-124193941D01*
X119628580Y-124273130D01*
X119751560Y-124297592D01*
X119831530Y-124313499D01*
X119831534Y-124313500D01*
X119831535Y-124313500D01*
X120038466Y-124313500D01*
X120038467Y-124313499D01*
X120241420Y-124273130D01*
X120432598Y-124193941D01*
X120604655Y-124078977D01*
X120750977Y-123932655D01*
X120865941Y-123760598D01*
X120945130Y-123569420D01*
X120985500Y-123366465D01*
X120985500Y-123159535D01*
X120945130Y-122956580D01*
X120865941Y-122765402D01*
X120750977Y-122593345D01*
X120750975Y-122593342D01*
X120604657Y-122447024D01*
X120436655Y-122334770D01*
X120432598Y-122332059D01*
X120241420Y-122252870D01*
X120241412Y-122252868D01*
X120038469Y-122212500D01*
X120038465Y-122212500D01*
X119831535Y-122212500D01*
X119831530Y-122212500D01*
X119628587Y-122252868D01*
X119628579Y-122252870D01*
X119437403Y-122332058D01*
X119265342Y-122447024D01*
X119119024Y-122593342D01*
X119004058Y-122765403D01*
X118924870Y-122956579D01*
X118924868Y-122956587D01*
X118884500Y-123159530D01*
X118445499Y-123159530D01*
X118405130Y-122956580D01*
X118325941Y-122765402D01*
X118210977Y-122593345D01*
X118210975Y-122593342D01*
X118064657Y-122447024D01*
X117896655Y-122334770D01*
X117892598Y-122332059D01*
X117701420Y-122252870D01*
X117701412Y-122252868D01*
X117498469Y-122212500D01*
X117498465Y-122212500D01*
X117291535Y-122212500D01*
X117291530Y-122212500D01*
X117088587Y-122252868D01*
X117088579Y-122252870D01*
X116897403Y-122332058D01*
X116725342Y-122447024D01*
X116579024Y-122593342D01*
X116464058Y-122765403D01*
X116384870Y-122956579D01*
X116384868Y-122956587D01*
X116344500Y-123159530D01*
X113750500Y-123159530D01*
X113750500Y-122136371D01*
X113770185Y-122069332D01*
X113822989Y-122023577D01*
X113892147Y-122013633D01*
X113943392Y-122033270D01*
X113951768Y-122038867D01*
X113951770Y-122038868D01*
X114010247Y-122050499D01*
X114010250Y-122050500D01*
X114010252Y-122050500D01*
X115749750Y-122050500D01*
X115749751Y-122050499D01*
X115764568Y-122047552D01*
X115808229Y-122038868D01*
X115808229Y-122038867D01*
X115808231Y-122038867D01*
X115874552Y-121994552D01*
X115918867Y-121928231D01*
X115918867Y-121928229D01*
X115918868Y-121928229D01*
X115930499Y-121869752D01*
X115930500Y-121869750D01*
X115930500Y-120130249D01*
X115930499Y-120130247D01*
X115918868Y-120071770D01*
X115918867Y-120071769D01*
X115874552Y-120005447D01*
X115808230Y-119961132D01*
X115808229Y-119961131D01*
X115749752Y-119949500D01*
X115749748Y-119949500D01*
X114010252Y-119949500D01*
X114010247Y-119949500D01*
X113951770Y-119961131D01*
X113951767Y-119961133D01*
X113943388Y-119966732D01*
X113876710Y-119987608D01*
X113809330Y-119969122D01*
X113762642Y-119917142D01*
X113750500Y-119863628D01*
X113750500Y-119069207D01*
X113770185Y-119002168D01*
X113822989Y-118956413D01*
X113892147Y-118946469D01*
X113955703Y-118975494D01*
X113977601Y-119000315D01*
X113994713Y-119025924D01*
X114064024Y-119129657D01*
X114210342Y-119275975D01*
X114210345Y-119275977D01*
X114382402Y-119390941D01*
X114573580Y-119470130D01*
X114744506Y-119504129D01*
X114776530Y-119510499D01*
X114776534Y-119510500D01*
X114776535Y-119510500D01*
X114983466Y-119510500D01*
X114983467Y-119510499D01*
X115186420Y-119470130D01*
X115377598Y-119390941D01*
X115549655Y-119275977D01*
X115695977Y-119129655D01*
X115810941Y-118957598D01*
X115890130Y-118766420D01*
X115930500Y-118563465D01*
X115930500Y-118356535D01*
X115890130Y-118153580D01*
X115810941Y-117962402D01*
X115695977Y-117790345D01*
X115695976Y-117790344D01*
X115695975Y-117790342D01*
X115549657Y-117644024D01*
X115394867Y-117540598D01*
X115377598Y-117529059D01*
X115186420Y-117449870D01*
X115186412Y-117449868D01*
X114983469Y-117409500D01*
X114983465Y-117409500D01*
X114776535Y-117409500D01*
X114776530Y-117409500D01*
X114573587Y-117449868D01*
X114573579Y-117449870D01*
X114382403Y-117529058D01*
X114210342Y-117644024D01*
X114064022Y-117790344D01*
X113977602Y-117919683D01*
X113923990Y-117964488D01*
X113854665Y-117973195D01*
X113791638Y-117943041D01*
X113754918Y-117883598D01*
X113750500Y-117850792D01*
X113750500Y-116529207D01*
X113770185Y-116462168D01*
X113822989Y-116416413D01*
X113892147Y-116406469D01*
X113955703Y-116435494D01*
X113977601Y-116460315D01*
X114012750Y-116512919D01*
X114064024Y-116589657D01*
X114210342Y-116735975D01*
X114210345Y-116735977D01*
X114382402Y-116850941D01*
X114573580Y-116930130D01*
X114744506Y-116964129D01*
X114776530Y-116970499D01*
X114776534Y-116970500D01*
X114776535Y-116970500D01*
X114983466Y-116970500D01*
X114983467Y-116970499D01*
X115186420Y-116930130D01*
X115377598Y-116850941D01*
X115549655Y-116735977D01*
X115695977Y-116589655D01*
X115810941Y-116417598D01*
X115890130Y-116226420D01*
X115930500Y-116023465D01*
X115930500Y-115816535D01*
X115890130Y-115613580D01*
X115810941Y-115422402D01*
X115695977Y-115250345D01*
X115695976Y-115250344D01*
X115695975Y-115250342D01*
X115549657Y-115104024D01*
X115428481Y-115023058D01*
X115377598Y-114989059D01*
X115186420Y-114909870D01*
X115186412Y-114909868D01*
X114983469Y-114869500D01*
X114983465Y-114869500D01*
X114776535Y-114869500D01*
X114776530Y-114869500D01*
X114573587Y-114909868D01*
X114573579Y-114909870D01*
X114382403Y-114989058D01*
X114210342Y-115104024D01*
X114064022Y-115250344D01*
X113977602Y-115379683D01*
X113923990Y-115424488D01*
X113854665Y-115433195D01*
X113791638Y-115403041D01*
X113754918Y-115343598D01*
X113750500Y-115310792D01*
X113750500Y-113989207D01*
X113770185Y-113922168D01*
X113822989Y-113876413D01*
X113892147Y-113866469D01*
X113955703Y-113895494D01*
X113977601Y-113920315D01*
X113994713Y-113945924D01*
X114064024Y-114049657D01*
X114210342Y-114195975D01*
X114210345Y-114195977D01*
X114382402Y-114310941D01*
X114573580Y-114390130D01*
X114744506Y-114424129D01*
X114776530Y-114430499D01*
X114776534Y-114430500D01*
X114776535Y-114430500D01*
X114983466Y-114430500D01*
X114983467Y-114430499D01*
X115186420Y-114390130D01*
X115377598Y-114310941D01*
X115549655Y-114195977D01*
X115695977Y-114049655D01*
X115810941Y-113877598D01*
X115890130Y-113686420D01*
X115930500Y-113483465D01*
X115930500Y-113276535D01*
X115890130Y-113073580D01*
X115810941Y-112882402D01*
X115695977Y-112710345D01*
X115695976Y-112710344D01*
X115695975Y-112710342D01*
X115549657Y-112564024D01*
X115428481Y-112483058D01*
X115377598Y-112449059D01*
X115186420Y-112369870D01*
X115186412Y-112369868D01*
X114983469Y-112329500D01*
X114983465Y-112329500D01*
X114776535Y-112329500D01*
X114776530Y-112329500D01*
X114573587Y-112369868D01*
X114573579Y-112369870D01*
X114382403Y-112449058D01*
X114210342Y-112564024D01*
X114064022Y-112710344D01*
X113977602Y-112839683D01*
X113923990Y-112884488D01*
X113854665Y-112893195D01*
X113791638Y-112863041D01*
X113754918Y-112803598D01*
X113750500Y-112770792D01*
X113750500Y-111449207D01*
X113770185Y-111382168D01*
X113822989Y-111336413D01*
X113892147Y-111326469D01*
X113955703Y-111355494D01*
X113977601Y-111380315D01*
X113994713Y-111405924D01*
X114064024Y-111509657D01*
X114210342Y-111655975D01*
X114210345Y-111655977D01*
X114382402Y-111770941D01*
X114573580Y-111850130D01*
X114744506Y-111884129D01*
X114776530Y-111890499D01*
X114776534Y-111890500D01*
X114776535Y-111890500D01*
X114983466Y-111890500D01*
X114983467Y-111890499D01*
X115186420Y-111850130D01*
X115377598Y-111770941D01*
X115549655Y-111655977D01*
X115695977Y-111509655D01*
X115810941Y-111337598D01*
X115890130Y-111146420D01*
X115930500Y-110943465D01*
X115930500Y-110736535D01*
X115890130Y-110533580D01*
X115810941Y-110342402D01*
X115695977Y-110170345D01*
X115695976Y-110170344D01*
X115695975Y-110170342D01*
X115549657Y-110024024D01*
X115428481Y-109943058D01*
X115377598Y-109909059D01*
X115186420Y-109829870D01*
X115186412Y-109829868D01*
X114983469Y-109789500D01*
X114983465Y-109789500D01*
X114776535Y-109789500D01*
X114776530Y-109789500D01*
X114573587Y-109829868D01*
X114573579Y-109829870D01*
X114382403Y-109909058D01*
X114210342Y-110024024D01*
X114064022Y-110170344D01*
X113977602Y-110299683D01*
X113923990Y-110344488D01*
X113854665Y-110353195D01*
X113791638Y-110323041D01*
X113754918Y-110263598D01*
X113750500Y-110230792D01*
X113750500Y-108909207D01*
X113770185Y-108842168D01*
X113822989Y-108796413D01*
X113892147Y-108786469D01*
X113955703Y-108815494D01*
X113977601Y-108840315D01*
X113994713Y-108865924D01*
X114064024Y-108969657D01*
X114210342Y-109115975D01*
X114210345Y-109115977D01*
X114382402Y-109230941D01*
X114573580Y-109310130D01*
X114744506Y-109344129D01*
X114776530Y-109350499D01*
X114776534Y-109350500D01*
X114776535Y-109350500D01*
X114983466Y-109350500D01*
X114983467Y-109350499D01*
X115186420Y-109310130D01*
X115377598Y-109230941D01*
X115549655Y-109115977D01*
X115695977Y-108969655D01*
X115810941Y-108797598D01*
X115890130Y-108606420D01*
X115930500Y-108403465D01*
X115930500Y-108196535D01*
X115890130Y-107993580D01*
X115810941Y-107802402D01*
X115695977Y-107630345D01*
X115695976Y-107630344D01*
X115695975Y-107630342D01*
X115549657Y-107484024D01*
X115428481Y-107403058D01*
X115377598Y-107369059D01*
X115186420Y-107289870D01*
X115186412Y-107289868D01*
X114983469Y-107249500D01*
X114983465Y-107249500D01*
X114776535Y-107249500D01*
X114776530Y-107249500D01*
X114573587Y-107289868D01*
X114573579Y-107289870D01*
X114382403Y-107369058D01*
X114210342Y-107484024D01*
X114064022Y-107630344D01*
X113977602Y-107759683D01*
X113923990Y-107804488D01*
X113854665Y-107813195D01*
X113791638Y-107783041D01*
X113754918Y-107723598D01*
X113750500Y-107690792D01*
X113750500Y-106369207D01*
X113770185Y-106302168D01*
X113822989Y-106256413D01*
X113892147Y-106246469D01*
X113955703Y-106275494D01*
X113977601Y-106300315D01*
X114010321Y-106349283D01*
X114064024Y-106429657D01*
X114210342Y-106575975D01*
X114210345Y-106575977D01*
X114382402Y-106690941D01*
X114573580Y-106770130D01*
X114729610Y-106801166D01*
X114776530Y-106810499D01*
X114776534Y-106810500D01*
X114776535Y-106810500D01*
X114983466Y-106810500D01*
X114983467Y-106810499D01*
X115186420Y-106770130D01*
X115377598Y-106690941D01*
X115549655Y-106575977D01*
X115695977Y-106429655D01*
X115810941Y-106257598D01*
X115890130Y-106066420D01*
X115930500Y-105863465D01*
X115930500Y-105656535D01*
X115890130Y-105453580D01*
X115810941Y-105262402D01*
X115695977Y-105090345D01*
X115695976Y-105090344D01*
X115695975Y-105090342D01*
X115549657Y-104944024D01*
X115428481Y-104863058D01*
X115377598Y-104829059D01*
X115186420Y-104749870D01*
X115186412Y-104749868D01*
X114983469Y-104709500D01*
X114983465Y-104709500D01*
X114776535Y-104709500D01*
X114776530Y-104709500D01*
X114573587Y-104749868D01*
X114573579Y-104749870D01*
X114382403Y-104829058D01*
X114210342Y-104944024D01*
X114064022Y-105090344D01*
X113977602Y-105219683D01*
X113923990Y-105264488D01*
X113854665Y-105273195D01*
X113791638Y-105243041D01*
X113754918Y-105183598D01*
X113750500Y-105150792D01*
X113750500Y-103829207D01*
X113770185Y-103762168D01*
X113822989Y-103716413D01*
X113892147Y-103706469D01*
X113955703Y-103735494D01*
X113977601Y-103760315D01*
X113994713Y-103785924D01*
X114064024Y-103889657D01*
X114210342Y-104035975D01*
X114210345Y-104035977D01*
X114382402Y-104150941D01*
X114573580Y-104230130D01*
X114744506Y-104264129D01*
X114776530Y-104270499D01*
X114776534Y-104270500D01*
X114776535Y-104270500D01*
X114983466Y-104270500D01*
X114983467Y-104270499D01*
X115186420Y-104230130D01*
X115377598Y-104150941D01*
X115549655Y-104035977D01*
X115695977Y-103889655D01*
X115810941Y-103717598D01*
X115890130Y-103526420D01*
X115930500Y-103323465D01*
X115930500Y-103116535D01*
X115890130Y-102913580D01*
X115810941Y-102722402D01*
X115695977Y-102550345D01*
X115695976Y-102550344D01*
X115695975Y-102550342D01*
X115549657Y-102404024D01*
X115427914Y-102322679D01*
X115377598Y-102289059D01*
X115186420Y-102209870D01*
X115186412Y-102209868D01*
X114983469Y-102169500D01*
X114983465Y-102169500D01*
X114776535Y-102169500D01*
X114776530Y-102169500D01*
X114573587Y-102209868D01*
X114573579Y-102209870D01*
X114382403Y-102289058D01*
X114210342Y-102404024D01*
X114064022Y-102550344D01*
X113977602Y-102679683D01*
X113923990Y-102724488D01*
X113854665Y-102733195D01*
X113791638Y-102703041D01*
X113754918Y-102643598D01*
X113750500Y-102610792D01*
X113750500Y-101289207D01*
X113770185Y-101222168D01*
X113822989Y-101176413D01*
X113892147Y-101166469D01*
X113955703Y-101195494D01*
X113977601Y-101220315D01*
X113994713Y-101245924D01*
X114064024Y-101349657D01*
X114210342Y-101495975D01*
X114210345Y-101495977D01*
X114382402Y-101610941D01*
X114573580Y-101690130D01*
X114744506Y-101724129D01*
X114776530Y-101730499D01*
X114776534Y-101730500D01*
X114776535Y-101730500D01*
X114983466Y-101730500D01*
X114983467Y-101730499D01*
X115186420Y-101690130D01*
X115377598Y-101610941D01*
X115549655Y-101495977D01*
X115695977Y-101349655D01*
X115810941Y-101177598D01*
X115890130Y-100986420D01*
X115930500Y-100783465D01*
X115930500Y-100576535D01*
X115890130Y-100373580D01*
X115810941Y-100182402D01*
X115695977Y-100010345D01*
X115695976Y-100010344D01*
X115695975Y-100010342D01*
X115549657Y-99864024D01*
X115428481Y-99783058D01*
X115377598Y-99749059D01*
X115186420Y-99669870D01*
X115186412Y-99669868D01*
X114983469Y-99629500D01*
X114983465Y-99629500D01*
X114776535Y-99629500D01*
X114776530Y-99629500D01*
X114573587Y-99669868D01*
X114573579Y-99669870D01*
X114382403Y-99749058D01*
X114210342Y-99864024D01*
X114064022Y-100010344D01*
X113977602Y-100139683D01*
X113923990Y-100184488D01*
X113854665Y-100193195D01*
X113791638Y-100163041D01*
X113754918Y-100103598D01*
X113750500Y-100070792D01*
X113750500Y-98749207D01*
X113770185Y-98682168D01*
X113822989Y-98636413D01*
X113892147Y-98626469D01*
X113955703Y-98655494D01*
X113977601Y-98680315D01*
X113994713Y-98705924D01*
X114064024Y-98809657D01*
X114210342Y-98955975D01*
X114210345Y-98955977D01*
X114382402Y-99070941D01*
X114573580Y-99150130D01*
X114744506Y-99184129D01*
X114776530Y-99190499D01*
X114776534Y-99190500D01*
X114776535Y-99190500D01*
X114983466Y-99190500D01*
X114983467Y-99190499D01*
X115186420Y-99150130D01*
X115377598Y-99070941D01*
X115549655Y-98955977D01*
X115695977Y-98809655D01*
X115810941Y-98637598D01*
X115890130Y-98446420D01*
X115930500Y-98243465D01*
X115930500Y-98036535D01*
X115890130Y-97833580D01*
X115810941Y-97642402D01*
X115810940Y-97642400D01*
X115809529Y-97640288D01*
X115809528Y-97640287D01*
X115695980Y-97470349D01*
X115695974Y-97470341D01*
X115549657Y-97324024D01*
X115461476Y-97265104D01*
X115377598Y-97209059D01*
X115377593Y-97209057D01*
X115274758Y-97166461D01*
X115212890Y-97140834D01*
X115158488Y-97096994D01*
X115136423Y-97030700D01*
X115153702Y-96963001D01*
X115204839Y-96915390D01*
X115222026Y-96908343D01*
X115398217Y-96851095D01*
X115587557Y-96754620D01*
X115759459Y-96629727D01*
X115759464Y-96629723D01*
X115909723Y-96479464D01*
X115909727Y-96479459D01*
X116034620Y-96307557D01*
X116131095Y-96118217D01*
X116196757Y-95916129D01*
X116196757Y-95916126D01*
X116207231Y-95850000D01*
X115313012Y-95850000D01*
X115345925Y-95792993D01*
X115380000Y-95665826D01*
X115380000Y-95534174D01*
X115345925Y-95407007D01*
X115313012Y-95350000D01*
X116207231Y-95350000D01*
X116196757Y-95283873D01*
X116196757Y-95283870D01*
X116131095Y-95081782D01*
X116034620Y-94892442D01*
X115909727Y-94720540D01*
X115909723Y-94720535D01*
X115759464Y-94570276D01*
X115759459Y-94570272D01*
X115587557Y-94445379D01*
X115398216Y-94348904D01*
X115222026Y-94291656D01*
X115164350Y-94252218D01*
X115137152Y-94187860D01*
X115149067Y-94119013D01*
X115196311Y-94067538D01*
X115212882Y-94059168D01*
X115377598Y-93990941D01*
X115549655Y-93875977D01*
X115695977Y-93729655D01*
X115810941Y-93557598D01*
X115890130Y-93366420D01*
X115930500Y-93163465D01*
X115930500Y-92956535D01*
X115890130Y-92753580D01*
X115810941Y-92562402D01*
X115695977Y-92390345D01*
X115695976Y-92390344D01*
X115695975Y-92390342D01*
X115549657Y-92244024D01*
X115428481Y-92163058D01*
X115377598Y-92129059D01*
X115186420Y-92049870D01*
X115186412Y-92049868D01*
X114983469Y-92009500D01*
X114983465Y-92009500D01*
X114776535Y-92009500D01*
X114776530Y-92009500D01*
X114573587Y-92049868D01*
X114573579Y-92049870D01*
X114382403Y-92129058D01*
X114210342Y-92244024D01*
X114064022Y-92390344D01*
X113977602Y-92519683D01*
X113923990Y-92564488D01*
X113854665Y-92573195D01*
X113791638Y-92543041D01*
X113754918Y-92483598D01*
X113750500Y-92450792D01*
X113750500Y-91129207D01*
X113770185Y-91062168D01*
X113822989Y-91016413D01*
X113892147Y-91006469D01*
X113955703Y-91035494D01*
X113977601Y-91060315D01*
X114007125Y-91104500D01*
X114064024Y-91189657D01*
X114210342Y-91335975D01*
X114210345Y-91335977D01*
X114382402Y-91450941D01*
X114573580Y-91530130D01*
X114744506Y-91564129D01*
X114776530Y-91570499D01*
X114776534Y-91570500D01*
X114776535Y-91570500D01*
X114983466Y-91570500D01*
X114983467Y-91570499D01*
X115186420Y-91530130D01*
X115377598Y-91450941D01*
X115549655Y-91335977D01*
X115695977Y-91189655D01*
X115810941Y-91017598D01*
X115847616Y-90929056D01*
X115868203Y-90903509D01*
X115887867Y-90877243D01*
X115890016Y-90876441D01*
X115891457Y-90874654D01*
X115922591Y-90864291D01*
X115953331Y-90852826D01*
X115955573Y-90853313D01*
X115957751Y-90852589D01*
X115989546Y-90860704D01*
X116021604Y-90867678D01*
X116024053Y-90869511D01*
X116025450Y-90869868D01*
X116049858Y-90888829D01*
X116057181Y-90896152D01*
X116090666Y-90957475D01*
X116093500Y-90983833D01*
X116093500Y-92117562D01*
X116096581Y-92129059D01*
X116113979Y-92193990D01*
X116113980Y-92193991D01*
X116121029Y-92206200D01*
X116153540Y-92262511D01*
X116878540Y-92987511D01*
X116934489Y-93043460D01*
X116934491Y-93043461D01*
X116934495Y-93043464D01*
X117003004Y-93083017D01*
X117003011Y-93083021D01*
X117079438Y-93103500D01*
X117472038Y-93103500D01*
X117930700Y-93103500D01*
X117997739Y-93123185D01*
X118043494Y-93175989D01*
X118054700Y-93227500D01*
X118054700Y-93506204D01*
X118059851Y-93551928D01*
X118099533Y-93634326D01*
X118099534Y-93634327D01*
X118171037Y-93691349D01*
X118237628Y-93706548D01*
X118260195Y-93711699D01*
X118260200Y-93711700D01*
X118585700Y-93711700D01*
X118652739Y-93731385D01*
X118698494Y-93784189D01*
X118709700Y-93835700D01*
X118709700Y-95000967D01*
X118690015Y-95068006D01*
X118673381Y-95088648D01*
X117496848Y-96265181D01*
X117435525Y-96298666D01*
X117409167Y-96301500D01*
X117347399Y-96301500D01*
X117266775Y-96323103D01*
X117226463Y-96333905D01*
X117118037Y-96396504D01*
X117118034Y-96396506D01*
X117029506Y-96485034D01*
X117029504Y-96485037D01*
X116966905Y-96593463D01*
X116957189Y-96629723D01*
X116934500Y-96714399D01*
X116934500Y-96839601D01*
X116966905Y-96960536D01*
X117029505Y-97068964D01*
X117118036Y-97157495D01*
X117226464Y-97220095D01*
X117347399Y-97252500D01*
X117347401Y-97252500D01*
X117472599Y-97252500D01*
X117472601Y-97252500D01*
X117593536Y-97220095D01*
X117701964Y-97157495D01*
X117790495Y-97068964D01*
X117853095Y-96960536D01*
X117885500Y-96839601D01*
X117885500Y-96777833D01*
X117894143Y-96748396D01*
X117900667Y-96718407D01*
X117904422Y-96713389D01*
X117905185Y-96710794D01*
X117921813Y-96690157D01*
X118010508Y-96601462D01*
X118071827Y-96567980D01*
X118141519Y-96572964D01*
X118197453Y-96614835D01*
X118220659Y-96669747D01*
X118232934Y-96747248D01*
X118305897Y-96971802D01*
X118413087Y-97182174D01*
X118473338Y-97265104D01*
X118473340Y-97265105D01*
X119213037Y-96525407D01*
X119230075Y-96588993D01*
X119295901Y-96703007D01*
X119388993Y-96796099D01*
X119503007Y-96861925D01*
X119566590Y-96878962D01*
X118826893Y-97618658D01*
X118909828Y-97678914D01*
X119120197Y-97786102D01*
X119344752Y-97859065D01*
X119344751Y-97859065D01*
X119577948Y-97896000D01*
X119814052Y-97896000D01*
X120047247Y-97859065D01*
X120271802Y-97786102D01*
X120482163Y-97678918D01*
X120482169Y-97678914D01*
X120565104Y-97618658D01*
X120565105Y-97618658D01*
X119825408Y-96878962D01*
X119888993Y-96861925D01*
X120003007Y-96796099D01*
X120096099Y-96703007D01*
X120161925Y-96588993D01*
X120178962Y-96525408D01*
X120883181Y-97229627D01*
X120916666Y-97290950D01*
X120919500Y-97317308D01*
X120919500Y-102322679D01*
X120899815Y-102389718D01*
X120883181Y-102410360D01*
X120839506Y-102454034D01*
X120839504Y-102454037D01*
X120776905Y-102562463D01*
X120776905Y-102562464D01*
X120744500Y-102683399D01*
X120744500Y-102808601D01*
X120776905Y-102929536D01*
X120839505Y-103037964D01*
X120928036Y-103126495D01*
X121036464Y-103189095D01*
X121157399Y-103221500D01*
X121157401Y-103221500D01*
X121282599Y-103221500D01*
X121282601Y-103221500D01*
X121403536Y-103189095D01*
X121511964Y-103126495D01*
X121600495Y-103037964D01*
X121663095Y-102929536D01*
X121695500Y-102808601D01*
X121695500Y-102683399D01*
X121663095Y-102562464D01*
X121600495Y-102454036D01*
X121556819Y-102410360D01*
X121523334Y-102349037D01*
X121520500Y-102322679D01*
X121520500Y-93810300D01*
X121540185Y-93743261D01*
X121592989Y-93697506D01*
X121644500Y-93686300D01*
X122274803Y-93686300D01*
X122274803Y-93686299D01*
X122320528Y-93681148D01*
X122402927Y-93641466D01*
X122459949Y-93569963D01*
X122480300Y-93480800D01*
X122480300Y-92480800D01*
X122479555Y-92463313D01*
X122451690Y-92376205D01*
X122451689Y-92376204D01*
X122449620Y-92369734D01*
X122447944Y-92299884D01*
X122456006Y-92278151D01*
X122459948Y-92269964D01*
X122459947Y-92269964D01*
X122459949Y-92269963D01*
X122480300Y-92180800D01*
X122480300Y-91153233D01*
X122499985Y-91086194D01*
X122552789Y-91040439D01*
X122621947Y-91030495D01*
X122685503Y-91059520D01*
X122691981Y-91065552D01*
X123047581Y-91421152D01*
X123081066Y-91482475D01*
X123083900Y-91508833D01*
X123083900Y-92180800D01*
X123095522Y-92244023D01*
X123097335Y-92253885D01*
X123097336Y-92253887D01*
X123100630Y-92258828D01*
X123121438Y-92325527D01*
X123109176Y-92381408D01*
X123104251Y-92391634D01*
X123083900Y-92480795D01*
X123083900Y-93480804D01*
X123089051Y-93526528D01*
X123128733Y-93608926D01*
X123128734Y-93608927D01*
X123200237Y-93665949D01*
X123266828Y-93681148D01*
X123289395Y-93686299D01*
X123289400Y-93686300D01*
X123676189Y-93686300D01*
X123743228Y-93705985D01*
X123783576Y-93748300D01*
X123792441Y-93763655D01*
X123798939Y-93774909D01*
X123798941Y-93774912D01*
X123964181Y-93940152D01*
X123997666Y-94001475D01*
X124000500Y-94027833D01*
X124000500Y-105204167D01*
X123980815Y-105271206D01*
X123964181Y-105291848D01*
X121306848Y-107949181D01*
X121245525Y-107982666D01*
X121219167Y-107985500D01*
X121157399Y-107985500D01*
X121076775Y-108007103D01*
X121036463Y-108017905D01*
X120928037Y-108080504D01*
X120928034Y-108080506D01*
X120839506Y-108169034D01*
X120839504Y-108169037D01*
X120776905Y-108277463D01*
X120776905Y-108277464D01*
X120744500Y-108398399D01*
X120744500Y-108523601D01*
X120776905Y-108644536D01*
X120839505Y-108752964D01*
X120928036Y-108841495D01*
X121036464Y-108904095D01*
X121157399Y-108936500D01*
X121157401Y-108936500D01*
X121282599Y-108936500D01*
X121282601Y-108936500D01*
X121403536Y-108904095D01*
X121511964Y-108841495D01*
X121600495Y-108752964D01*
X121663095Y-108644536D01*
X121695500Y-108523601D01*
X121695500Y-108461833D01*
X121715185Y-108394794D01*
X121731819Y-108374152D01*
X123099482Y-107006489D01*
X124541460Y-105564511D01*
X124547794Y-105553540D01*
X124581021Y-105495989D01*
X124601500Y-105419562D01*
X124601500Y-94305900D01*
X124621185Y-94238861D01*
X124673989Y-94193106D01*
X124725500Y-94181900D01*
X127457160Y-94181900D01*
X127457162Y-94181900D01*
X127533589Y-94161421D01*
X127602111Y-94121860D01*
X127658060Y-94065911D01*
X128521660Y-93202311D01*
X128533711Y-93181438D01*
X128561221Y-93133789D01*
X128581700Y-93057362D01*
X128581700Y-87639232D01*
X128601385Y-87572193D01*
X128654189Y-87526438D01*
X128723347Y-87516494D01*
X128786903Y-87545519D01*
X128793381Y-87551551D01*
X128867335Y-87625505D01*
X128987164Y-87694688D01*
X129120817Y-87730500D01*
X129120819Y-87730500D01*
X129259181Y-87730500D01*
X129259183Y-87730500D01*
X129392836Y-87694688D01*
X129512665Y-87625505D01*
X129610505Y-87527665D01*
X129679688Y-87407836D01*
X129679689Y-87407829D01*
X129680938Y-87404818D01*
X129682675Y-87402662D01*
X129683752Y-87400797D01*
X129684042Y-87400964D01*
X129724778Y-87350413D01*
X129791072Y-87328347D01*
X129858771Y-87345625D01*
X129906383Y-87396761D01*
X129919500Y-87452268D01*
X129919500Y-88323993D01*
X129919500Y-88323995D01*
X129919499Y-88323995D01*
X129946418Y-88459322D01*
X129946421Y-88459332D01*
X129999221Y-88586804D01*
X129999228Y-88586817D01*
X130075885Y-88701541D01*
X130075888Y-88701545D01*
X130173454Y-88799111D01*
X130173458Y-88799114D01*
X130288182Y-88875771D01*
X130288195Y-88875778D01*
X130415667Y-88928578D01*
X130415672Y-88928580D01*
X130415676Y-88928580D01*
X130415677Y-88928581D01*
X130551004Y-88955500D01*
X130551007Y-88955500D01*
X130688995Y-88955500D01*
X130780041Y-88937389D01*
X130824328Y-88928580D01*
X130951811Y-88875775D01*
X131066542Y-88799114D01*
X131164114Y-88701542D01*
X131240775Y-88586811D01*
X131250017Y-88564500D01*
X131293578Y-88459332D01*
X131293580Y-88459328D01*
X131320500Y-88323993D01*
X131320500Y-87086007D01*
X131320500Y-87086004D01*
X131293581Y-86950677D01*
X131293580Y-86950676D01*
X131293580Y-86950672D01*
X131293578Y-86950667D01*
X131240778Y-86823195D01*
X131240771Y-86823182D01*
X131164114Y-86708458D01*
X131164111Y-86708454D01*
X131066545Y-86610888D01*
X131066541Y-86610885D01*
X130951817Y-86534228D01*
X130951804Y-86534221D01*
X130824332Y-86481421D01*
X130824322Y-86481418D01*
X130688995Y-86454500D01*
X130688993Y-86454500D01*
X130551007Y-86454500D01*
X130551005Y-86454500D01*
X130415677Y-86481418D01*
X130415667Y-86481421D01*
X130288195Y-86534221D01*
X130288182Y-86534228D01*
X130173458Y-86610885D01*
X130173454Y-86610888D01*
X130075888Y-86708454D01*
X130075885Y-86708458D01*
X129999228Y-86823182D01*
X129999221Y-86823195D01*
X129946421Y-86950667D01*
X129946418Y-86950678D01*
X129930646Y-87029967D01*
X129898260Y-87091878D01*
X129837544Y-87126452D01*
X129767775Y-87122711D01*
X129711103Y-87081844D01*
X129689255Y-87037869D01*
X129679688Y-87002164D01*
X129613724Y-86887910D01*
X129610507Y-86882338D01*
X129610503Y-86882333D01*
X129512666Y-86784496D01*
X129512661Y-86784492D01*
X129392838Y-86715313D01*
X129392837Y-86715312D01*
X129392836Y-86715312D01*
X129259183Y-86679500D01*
X129120817Y-86679500D01*
X128987164Y-86715312D01*
X128987161Y-86715313D01*
X128867338Y-86784492D01*
X128867333Y-86784496D01*
X128793381Y-86858449D01*
X128773944Y-86869061D01*
X128757211Y-86883562D01*
X128743879Y-86885478D01*
X128732058Y-86891934D01*
X128709971Y-86890354D01*
X128688053Y-86893506D01*
X128675801Y-86887910D01*
X128662366Y-86886950D01*
X128644639Y-86873679D01*
X128624497Y-86864481D01*
X128617214Y-86853149D01*
X128606433Y-86845078D01*
X128598695Y-86824332D01*
X128586723Y-86805703D01*
X128583571Y-86783784D01*
X128582016Y-86779614D01*
X128581700Y-86770768D01*
X128581700Y-86589633D01*
X128601385Y-86522594D01*
X128618019Y-86501952D01*
X129055152Y-86064819D01*
X129116475Y-86031334D01*
X129142833Y-86028500D01*
X132321763Y-86028500D01*
X132388802Y-86048185D01*
X132434557Y-86100989D01*
X132444501Y-86170147D01*
X132443381Y-86176690D01*
X132437700Y-86205252D01*
X132437700Y-87944752D01*
X132449331Y-88003229D01*
X132449332Y-88003230D01*
X132493647Y-88069552D01*
X132559969Y-88113867D01*
X132559970Y-88113868D01*
X132618447Y-88125499D01*
X132618450Y-88125500D01*
X132618452Y-88125500D01*
X134357950Y-88125500D01*
X134357951Y-88125499D01*
X134372768Y-88122552D01*
X134416429Y-88113868D01*
X134416429Y-88113867D01*
X134416431Y-88113867D01*
X134482752Y-88069552D01*
X134527067Y-88003231D01*
X134527067Y-88003229D01*
X134527068Y-88003229D01*
X134538699Y-87944752D01*
X134538700Y-87944750D01*
X134538700Y-86205252D01*
X134533019Y-86176690D01*
X134539248Y-86107098D01*
X134582111Y-86051921D01*
X134648002Y-86028678D01*
X134654637Y-86028500D01*
X135649167Y-86028500D01*
X135716206Y-86048185D01*
X135736848Y-86064819D01*
X135985003Y-86312974D01*
X136018488Y-86374297D01*
X136017097Y-86432749D01*
X136016905Y-86433462D01*
X136016905Y-86433464D01*
X135984500Y-86554399D01*
X135984500Y-86679601D01*
X136016905Y-86800536D01*
X136079505Y-86908964D01*
X136168036Y-86997495D01*
X136276464Y-87060095D01*
X136397399Y-87092500D01*
X136397401Y-87092500D01*
X136522599Y-87092500D01*
X136522601Y-87092500D01*
X136643536Y-87060095D01*
X136751964Y-86997495D01*
X136840495Y-86908964D01*
X136903095Y-86800536D01*
X136935500Y-86679601D01*
X136935500Y-86554399D01*
X136904469Y-86438591D01*
X136906132Y-86368744D01*
X136945294Y-86310882D01*
X137009522Y-86283377D01*
X137024244Y-86282500D01*
X137306679Y-86282500D01*
X137373718Y-86302185D01*
X137394360Y-86318819D01*
X137438036Y-86362495D01*
X137546464Y-86425095D01*
X137667399Y-86457500D01*
X137667401Y-86457500D01*
X137792599Y-86457500D01*
X137792601Y-86457500D01*
X137913536Y-86425095D01*
X138021964Y-86362495D01*
X138110495Y-86273964D01*
X138173095Y-86165536D01*
X138205500Y-86044601D01*
X138205500Y-85919399D01*
X138173095Y-85798464D01*
X138110495Y-85690036D01*
X138021964Y-85601505D01*
X137913536Y-85538905D01*
X137913537Y-85538905D01*
X137873224Y-85528103D01*
X137792601Y-85506500D01*
X137667399Y-85506500D01*
X137586775Y-85528103D01*
X137546463Y-85538905D01*
X137438037Y-85601504D01*
X137438034Y-85601506D01*
X137394360Y-85645181D01*
X137333037Y-85678666D01*
X137306679Y-85681500D01*
X137016833Y-85681500D01*
X136949794Y-85661815D01*
X136929152Y-85645181D01*
X136646152Y-85362181D01*
X136612667Y-85300858D01*
X136617651Y-85231166D01*
X136659523Y-85175233D01*
X136724987Y-85150816D01*
X136733833Y-85150500D01*
X136808486Y-85150500D01*
X136995118Y-85120940D01*
X137174832Y-85062547D01*
X137343199Y-84976760D01*
X137496073Y-84865690D01*
X137629690Y-84732073D01*
X137740760Y-84579199D01*
X137826547Y-84410832D01*
X137884940Y-84231118D01*
X137914500Y-84044486D01*
X137914500Y-83855513D01*
X137884940Y-83668881D01*
X137826545Y-83489163D01*
X137740759Y-83320800D01*
X137629690Y-83167927D01*
X137496073Y-83034310D01*
X137343199Y-82923240D01*
X137338149Y-82920667D01*
X137174836Y-82837454D01*
X136995118Y-82779059D01*
X136808486Y-82749500D01*
X136808481Y-82749500D01*
X136619519Y-82749500D01*
X136619514Y-82749500D01*
X136432881Y-82779059D01*
X136253163Y-82837454D01*
X136084800Y-82923240D01*
X135997579Y-82986610D01*
X135931927Y-83034310D01*
X135931925Y-83034312D01*
X135931924Y-83034312D01*
X135798312Y-83167924D01*
X135798312Y-83167925D01*
X135798310Y-83167927D01*
X135750610Y-83233579D01*
X135687240Y-83320800D01*
X135601454Y-83489163D01*
X135543059Y-83668881D01*
X135513500Y-83855513D01*
X135513500Y-84044486D01*
X135543059Y-84231118D01*
X135568319Y-84308858D01*
X135590195Y-84376183D01*
X135592190Y-84446022D01*
X135556111Y-84505855D01*
X135493410Y-84536684D01*
X135472264Y-84538500D01*
X131284544Y-84538500D01*
X131217505Y-84518815D01*
X131171750Y-84466011D01*
X131161806Y-84396853D01*
X131181442Y-84345609D01*
X131187786Y-84336113D01*
X131240775Y-84256811D01*
X131293580Y-84129328D01*
X131320500Y-83993993D01*
X131320500Y-83056007D01*
X131320500Y-83056004D01*
X131293581Y-82920677D01*
X131293580Y-82920676D01*
X131293580Y-82920672D01*
X131259110Y-82837453D01*
X131240778Y-82793195D01*
X131240771Y-82793182D01*
X131164114Y-82678458D01*
X131164111Y-82678454D01*
X131066545Y-82580888D01*
X131066541Y-82580885D01*
X130951817Y-82504228D01*
X130951804Y-82504221D01*
X130824332Y-82451421D01*
X130824322Y-82451418D01*
X130688995Y-82424500D01*
X130688993Y-82424500D01*
X130551007Y-82424500D01*
X130551005Y-82424500D01*
X130415677Y-82451418D01*
X130415667Y-82451421D01*
X130288195Y-82504221D01*
X130288182Y-82504228D01*
X130173458Y-82580885D01*
X130173454Y-82580888D01*
X130075888Y-82678454D01*
X130075885Y-82678458D01*
X129999228Y-82793182D01*
X129999221Y-82793195D01*
X129946421Y-82920667D01*
X129946418Y-82920677D01*
X129919500Y-83056004D01*
X129919500Y-83056007D01*
X129919500Y-83993993D01*
X129919500Y-83993995D01*
X129919499Y-83993995D01*
X129946418Y-84129322D01*
X129946421Y-84129332D01*
X129999221Y-84256804D01*
X129999228Y-84256816D01*
X130058558Y-84345609D01*
X130079436Y-84412286D01*
X130060952Y-84479666D01*
X130008973Y-84526357D01*
X129955456Y-84538500D01*
X128482938Y-84538500D01*
X128455803Y-84545771D01*
X128406508Y-84558979D01*
X128406505Y-84558981D01*
X128371490Y-84579198D01*
X128371489Y-84579199D01*
X128361535Y-84584945D01*
X128337989Y-84598539D01*
X127583541Y-85352987D01*
X127583535Y-85352995D01*
X127543982Y-85421504D01*
X127543979Y-85421509D01*
X127523500Y-85497939D01*
X127523500Y-90719908D01*
X127503815Y-90786947D01*
X127451011Y-90832702D01*
X127381853Y-90842646D01*
X127371907Y-90840799D01*
X127304004Y-90825300D01*
X127304000Y-90825300D01*
X125804000Y-90825300D01*
X125803991Y-90825300D01*
X125760226Y-90830231D01*
X125691404Y-90818176D01*
X125658663Y-90794692D01*
X124923512Y-90059541D01*
X124923504Y-90059535D01*
X124887993Y-90039033D01*
X124887989Y-90039032D01*
X124862799Y-90024488D01*
X124854990Y-90019979D01*
X124854991Y-90019979D01*
X124816775Y-90009739D01*
X124778562Y-89999500D01*
X124778560Y-89999500D01*
X122411833Y-89999500D01*
X122344794Y-89979815D01*
X122324152Y-89963181D01*
X120684966Y-88323995D01*
X121279499Y-88323995D01*
X121306418Y-88459322D01*
X121306421Y-88459332D01*
X121359221Y-88586804D01*
X121359228Y-88586817D01*
X121435885Y-88701541D01*
X121435888Y-88701545D01*
X121533454Y-88799111D01*
X121533458Y-88799114D01*
X121648182Y-88875771D01*
X121648195Y-88875778D01*
X121775667Y-88928578D01*
X121775672Y-88928580D01*
X121775676Y-88928580D01*
X121775677Y-88928581D01*
X121911004Y-88955500D01*
X121911007Y-88955500D01*
X122048995Y-88955500D01*
X122140041Y-88937389D01*
X122184328Y-88928580D01*
X122311811Y-88875775D01*
X122426542Y-88799114D01*
X122524114Y-88701542D01*
X122600775Y-88586811D01*
X122610017Y-88564500D01*
X122653578Y-88459332D01*
X122653580Y-88459328D01*
X122680500Y-88323993D01*
X122680500Y-87452268D01*
X122700185Y-87385229D01*
X122752989Y-87339474D01*
X122822147Y-87329530D01*
X122885703Y-87358555D01*
X122916187Y-87400831D01*
X122916248Y-87400797D01*
X122916591Y-87401391D01*
X122919062Y-87404818D01*
X122920312Y-87407836D01*
X122989492Y-87527661D01*
X122989494Y-87527664D01*
X122989495Y-87527665D01*
X123087335Y-87625505D01*
X123207164Y-87694688D01*
X123340817Y-87730500D01*
X123340819Y-87730500D01*
X123479181Y-87730500D01*
X123479183Y-87730500D01*
X123612836Y-87694688D01*
X123732665Y-87625505D01*
X123830505Y-87527665D01*
X123899688Y-87407836D01*
X123935500Y-87274183D01*
X123935500Y-87135817D01*
X123899688Y-87002164D01*
X123833724Y-86887910D01*
X123830507Y-86882338D01*
X123830503Y-86882333D01*
X123732666Y-86784496D01*
X123732661Y-86784492D01*
X123612838Y-86715313D01*
X123612837Y-86715312D01*
X123612836Y-86715312D01*
X123479183Y-86679500D01*
X123340817Y-86679500D01*
X123207164Y-86715312D01*
X123207161Y-86715313D01*
X123087338Y-86784492D01*
X123087333Y-86784496D01*
X122989496Y-86882333D01*
X122989492Y-86882338D01*
X122920313Y-87002161D01*
X122920310Y-87002168D01*
X122910744Y-87037870D01*
X122874379Y-87097530D01*
X122811532Y-87128058D01*
X122742156Y-87119763D01*
X122688279Y-87075277D01*
X122669353Y-87029966D01*
X122653581Y-86950679D01*
X122653581Y-86950677D01*
X122653580Y-86950672D01*
X122653578Y-86950667D01*
X122600778Y-86823195D01*
X122600771Y-86823182D01*
X122524114Y-86708458D01*
X122524111Y-86708454D01*
X122426545Y-86610888D01*
X122426541Y-86610885D01*
X122311817Y-86534228D01*
X122311804Y-86534221D01*
X122184332Y-86481421D01*
X122184322Y-86481418D01*
X122048995Y-86454500D01*
X122048993Y-86454500D01*
X121911007Y-86454500D01*
X121911005Y-86454500D01*
X121775677Y-86481418D01*
X121775667Y-86481421D01*
X121648195Y-86534221D01*
X121648182Y-86534228D01*
X121533458Y-86610885D01*
X121533454Y-86610888D01*
X121435888Y-86708454D01*
X121435885Y-86708458D01*
X121359228Y-86823182D01*
X121359221Y-86823195D01*
X121306421Y-86950667D01*
X121306418Y-86950677D01*
X121279500Y-87086004D01*
X121279500Y-87086007D01*
X121279500Y-88323993D01*
X121279500Y-88323995D01*
X121279499Y-88323995D01*
X120684966Y-88323995D01*
X120540819Y-88179848D01*
X120507334Y-88118525D01*
X120504500Y-88092167D01*
X120504500Y-83993995D01*
X121279499Y-83993995D01*
X121306418Y-84129322D01*
X121306421Y-84129332D01*
X121359221Y-84256804D01*
X121359228Y-84256817D01*
X121435885Y-84371541D01*
X121435888Y-84371545D01*
X121533454Y-84469111D01*
X121533458Y-84469114D01*
X121648182Y-84545771D01*
X121648195Y-84545778D01*
X121728884Y-84579200D01*
X121775672Y-84598580D01*
X121775676Y-84598580D01*
X121775677Y-84598581D01*
X121911004Y-84625500D01*
X121911007Y-84625500D01*
X122048995Y-84625500D01*
X122140041Y-84607389D01*
X122184328Y-84598580D01*
X122311811Y-84545775D01*
X122426542Y-84469114D01*
X122524114Y-84371542D01*
X122600775Y-84256811D01*
X122653580Y-84129328D01*
X122680500Y-83993993D01*
X122680500Y-83056007D01*
X122680500Y-83056004D01*
X122653581Y-82920677D01*
X122653580Y-82920676D01*
X122653580Y-82920672D01*
X122619110Y-82837453D01*
X122600778Y-82793195D01*
X122600771Y-82793182D01*
X122524114Y-82678458D01*
X122524111Y-82678454D01*
X122426545Y-82580888D01*
X122426541Y-82580885D01*
X122311817Y-82504228D01*
X122311804Y-82504221D01*
X122184332Y-82451421D01*
X122184322Y-82451418D01*
X122048995Y-82424500D01*
X122048993Y-82424500D01*
X121911007Y-82424500D01*
X121911005Y-82424500D01*
X121775677Y-82451418D01*
X121775667Y-82451421D01*
X121648195Y-82504221D01*
X121648182Y-82504228D01*
X121533458Y-82580885D01*
X121533454Y-82580888D01*
X121435888Y-82678454D01*
X121435885Y-82678458D01*
X121359228Y-82793182D01*
X121359221Y-82793195D01*
X121306421Y-82920667D01*
X121306418Y-82920677D01*
X121279500Y-83056004D01*
X121279500Y-83056007D01*
X121279500Y-83993993D01*
X121279500Y-83993995D01*
X121279499Y-83993995D01*
X120504500Y-83993995D01*
X120504500Y-82341321D01*
X120524185Y-82274282D01*
X120540819Y-82253640D01*
X120584495Y-82209964D01*
X120647095Y-82101536D01*
X120679500Y-81980601D01*
X120679500Y-81855399D01*
X120647095Y-81734464D01*
X120584495Y-81626036D01*
X120495964Y-81537505D01*
X120399630Y-81481887D01*
X120351415Y-81431321D01*
X120338191Y-81362714D01*
X120364159Y-81297849D01*
X120421073Y-81257320D01*
X120461630Y-81250500D01*
X138055830Y-81250500D01*
X138093908Y-81250500D01*
X138106061Y-81251097D01*
G37*
%TD.AperFunction*%
%TA.AperFunction,Conductor*%
G36*
X127089075Y-123070007D02*
G01*
X127055000Y-123197174D01*
X127055000Y-123328826D01*
X127089075Y-123455993D01*
X127121988Y-123513000D01*
X125448012Y-123513000D01*
X125480925Y-123455993D01*
X125515000Y-123328826D01*
X125515000Y-123197174D01*
X125480925Y-123070007D01*
X125448012Y-123013000D01*
X127121988Y-123013000D01*
X127089075Y-123070007D01*
G37*
%TD.AperFunction*%
%TA.AperFunction,Conductor*%
G36*
X120170903Y-91237320D02*
G01*
X120177381Y-91243352D01*
X120532981Y-91598952D01*
X120566466Y-91660275D01*
X120569300Y-91686633D01*
X120569300Y-92180800D01*
X120580922Y-92244023D01*
X120582735Y-92253885D01*
X120582736Y-92253887D01*
X120586030Y-92258828D01*
X120606838Y-92325527D01*
X120594576Y-92381408D01*
X120589651Y-92391634D01*
X120569300Y-92480795D01*
X120569300Y-93480804D01*
X120574451Y-93526528D01*
X120614133Y-93608926D01*
X120614134Y-93608927D01*
X120685637Y-93665949D01*
X120752228Y-93681148D01*
X120774795Y-93686299D01*
X120774800Y-93686300D01*
X120795500Y-93686300D01*
X120862539Y-93705985D01*
X120908294Y-93758789D01*
X120919500Y-93810300D01*
X120919500Y-95474690D01*
X120899815Y-95541729D01*
X120883181Y-95562371D01*
X120178962Y-96266590D01*
X120161925Y-96203007D01*
X120096099Y-96088993D01*
X120003007Y-95995901D01*
X119888993Y-95930075D01*
X119825407Y-95913037D01*
X120565105Y-95173340D01*
X120565104Y-95173338D01*
X120482174Y-95113087D01*
X120271802Y-95005897D01*
X120047247Y-94932934D01*
X120047248Y-94932934D01*
X119814052Y-94896000D01*
X119577947Y-94896000D01*
X119454097Y-94915615D01*
X119384804Y-94906660D01*
X119331352Y-94861663D01*
X119310713Y-94794912D01*
X119310700Y-94793142D01*
X119310700Y-93835700D01*
X119330385Y-93768661D01*
X119383189Y-93722906D01*
X119434700Y-93711700D01*
X119760203Y-93711700D01*
X119760203Y-93711699D01*
X119805928Y-93706548D01*
X119888327Y-93666866D01*
X119945349Y-93595363D01*
X119965700Y-93506200D01*
X119965700Y-92506200D01*
X119964955Y-92488713D01*
X119937090Y-92401605D01*
X119937089Y-92401604D01*
X119935020Y-92395134D01*
X119933344Y-92325284D01*
X119941406Y-92303551D01*
X119945348Y-92295364D01*
X119945347Y-92295364D01*
X119945349Y-92295363D01*
X119965700Y-92206200D01*
X119965700Y-91331033D01*
X119985385Y-91263994D01*
X120038189Y-91218239D01*
X120107347Y-91208295D01*
X120170903Y-91237320D01*
G37*
%TD.AperFunction*%
%TD*%
M02*
